<?xml version="1.0" encoding="utf-8"?>
<svg xmlns="http://www.w3.org/2000/svg" xmlns:xlink="http://www.w3.org/1999/xlink" width="600" height="400" viewBox="0 0 2400 1600">
<defs>
  <clipPath id="clip370">
    <rect x="0" y="0" width="2400" height="1600"/>
  </clipPath>
</defs>
<path clip-path="url(#clip370)" d="
M0 1600 L2400 1600 L2400 0 L0 0  Z
  " fill="#ffffff" fill-rule="evenodd" fill-opacity="1"/>
<defs>
  <clipPath id="clip371">
    <rect x="480" y="0" width="1681" height="1600"/>
  </clipPath>
</defs>
<path clip-path="url(#clip370)" d="
M269.935 1423.18 L2352.76 1423.18 L2352.76 47.2441 L269.935 47.2441  Z
  " fill="#ffffff" fill-rule="evenodd" fill-opacity="1"/>
<defs>
  <clipPath id="clip372">
    <rect x="269" y="47" width="2084" height="1377"/>
  </clipPath>
</defs>
<polyline clip-path="url(#clip372)" style="stroke:#000000; stroke-width:2; stroke-opacity:0.1; fill:none" points="
  328.883,1423.18 328.883,47.2441 
  "/>
<polyline clip-path="url(#clip372)" style="stroke:#000000; stroke-width:2; stroke-opacity:0.1; fill:none" points="
  676.236,1423.18 676.236,47.2441 
  "/>
<polyline clip-path="url(#clip372)" style="stroke:#000000; stroke-width:2; stroke-opacity:0.1; fill:none" points="
  1023.59,1423.18 1023.59,47.2441 
  "/>
<polyline clip-path="url(#clip372)" style="stroke:#000000; stroke-width:2; stroke-opacity:0.1; fill:none" points="
  1370.94,1423.18 1370.94,47.2441 
  "/>
<polyline clip-path="url(#clip372)" style="stroke:#000000; stroke-width:2; stroke-opacity:0.1; fill:none" points="
  1718.29,1423.18 1718.29,47.2441 
  "/>
<polyline clip-path="url(#clip372)" style="stroke:#000000; stroke-width:2; stroke-opacity:0.1; fill:none" points="
  2065.65,1423.18 2065.65,47.2441 
  "/>
<polyline clip-path="url(#clip370)" style="stroke:#000000; stroke-width:4; stroke-opacity:1; fill:none" points="
  269.935,1423.18 2352.76,1423.18 
  "/>
<polyline clip-path="url(#clip370)" style="stroke:#000000; stroke-width:4; stroke-opacity:1; fill:none" points="
  328.883,1423.18 328.883,1406.67 
  "/>
<polyline clip-path="url(#clip370)" style="stroke:#000000; stroke-width:4; stroke-opacity:1; fill:none" points="
  676.236,1423.18 676.236,1406.67 
  "/>
<polyline clip-path="url(#clip370)" style="stroke:#000000; stroke-width:4; stroke-opacity:1; fill:none" points="
  1023.59,1423.18 1023.59,1406.67 
  "/>
<polyline clip-path="url(#clip370)" style="stroke:#000000; stroke-width:4; stroke-opacity:1; fill:none" points="
  1370.94,1423.18 1370.94,1406.67 
  "/>
<polyline clip-path="url(#clip370)" style="stroke:#000000; stroke-width:4; stroke-opacity:1; fill:none" points="
  1718.29,1423.18 1718.29,1406.67 
  "/>
<polyline clip-path="url(#clip370)" style="stroke:#000000; stroke-width:4; stroke-opacity:1; fill:none" points="
  2065.65,1423.18 2065.65,1406.67 
  "/>
<path clip-path="url(#clip370)" d="M 0 0 M296.893 1452.37 Q293.282 1452.37 291.453 1455.94 Q289.647 1459.48 289.647 1466.61 Q289.647 1473.71 291.453 1477.28 Q293.282 1480.82 296.893 1480.82 Q300.527 1480.82 302.332 1477.28 Q304.161 1473.71 304.161 1466.61 Q304.161 1459.48 302.332 1455.94 Q300.527 1452.37 296.893 1452.37 M296.893 1448.67 Q302.703 1448.67 305.758 1453.27 Q308.837 1457.86 308.837 1466.61 Q308.837 1475.33 305.758 1479.94 Q302.703 1484.52 296.893 1484.52 Q291.082 1484.52 288.004 1479.94 Q284.948 1475.33 284.948 1466.61 Q284.948 1457.86 288.004 1453.27 Q291.082 1448.67 296.893 1448.67 Z" fill="#000000" fill-rule="evenodd" fill-opacity="1" /><path clip-path="url(#clip370)" d="M 0 0 M313.906 1477.97 L318.791 1477.97 L318.791 1483.85 L313.906 1483.85 L313.906 1477.97 Z" fill="#000000" fill-rule="evenodd" fill-opacity="1" /><path clip-path="url(#clip370)" d="M 0 0 M333.86 1452.37 Q330.249 1452.37 328.42 1455.94 Q326.615 1459.48 326.615 1466.61 Q326.615 1473.71 328.42 1477.28 Q330.249 1480.82 333.86 1480.82 Q337.494 1480.82 339.3 1477.28 Q341.128 1473.71 341.128 1466.61 Q341.128 1459.48 339.3 1455.94 Q337.494 1452.37 333.86 1452.37 M333.86 1448.67 Q339.67 1448.67 342.726 1453.27 Q345.804 1457.86 345.804 1466.61 Q345.804 1475.33 342.726 1479.94 Q339.67 1484.52 333.86 1484.52 Q328.05 1484.52 324.971 1479.94 Q321.916 1475.33 321.916 1466.61 Q321.916 1457.86 324.971 1453.27 Q328.05 1448.67 333.86 1448.67 Z" fill="#000000" fill-rule="evenodd" fill-opacity="1" /><path clip-path="url(#clip370)" d="M 0 0 M360.874 1452.37 Q357.263 1452.37 355.434 1455.94 Q353.628 1459.48 353.628 1466.61 Q353.628 1473.71 355.434 1477.28 Q357.263 1480.82 360.874 1480.82 Q364.508 1480.82 366.314 1477.28 Q368.142 1473.71 368.142 1466.61 Q368.142 1459.48 366.314 1455.94 Q364.508 1452.37 360.874 1452.37 M360.874 1448.67 Q366.684 1448.67 369.739 1453.27 Q372.818 1457.86 372.818 1466.61 Q372.818 1475.33 369.739 1479.94 Q366.684 1484.52 360.874 1484.52 Q355.064 1484.52 351.985 1479.94 Q348.929 1475.33 348.929 1466.61 Q348.929 1457.86 351.985 1453.27 Q355.064 1448.67 360.874 1448.67 Z" fill="#000000" fill-rule="evenodd" fill-opacity="1" /><path clip-path="url(#clip370)" d="M 0 0 M645.542 1452.37 Q641.931 1452.37 640.102 1455.94 Q638.297 1459.48 638.297 1466.61 Q638.297 1473.71 640.102 1477.28 Q641.931 1480.82 645.542 1480.82 Q649.176 1480.82 650.982 1477.28 Q652.81 1473.71 652.81 1466.61 Q652.81 1459.48 650.982 1455.94 Q649.176 1452.37 645.542 1452.37 M645.542 1448.67 Q651.352 1448.67 654.408 1453.27 Q657.486 1457.86 657.486 1466.61 Q657.486 1475.33 654.408 1479.94 Q651.352 1484.52 645.542 1484.52 Q639.732 1484.52 636.653 1479.94 Q633.597 1475.33 633.597 1466.61 Q633.597 1457.86 636.653 1453.27 Q639.732 1448.67 645.542 1448.67 Z" fill="#000000" fill-rule="evenodd" fill-opacity="1" /><path clip-path="url(#clip370)" d="M 0 0 M662.556 1477.97 L667.44 1477.97 L667.44 1483.85 L662.556 1483.85 L662.556 1477.97 Z" fill="#000000" fill-rule="evenodd" fill-opacity="1" /><path clip-path="url(#clip370)" d="M 0 0 M676.537 1479.92 L692.856 1479.92 L692.856 1483.85 L670.912 1483.85 L670.912 1479.92 Q673.574 1477.16 678.157 1472.53 Q682.764 1467.88 683.944 1466.54 Q686.19 1464.01 687.069 1462.28 Q687.972 1460.52 687.972 1458.83 Q687.972 1456.07 686.028 1454.34 Q684.106 1452.6 681.005 1452.6 Q678.806 1452.6 676.352 1453.37 Q673.921 1454.13 671.144 1455.68 L671.144 1450.96 Q673.968 1449.82 676.421 1449.25 Q678.875 1448.67 680.912 1448.67 Q686.282 1448.67 689.477 1451.35 Q692.671 1454.04 692.671 1458.53 Q692.671 1460.66 691.861 1462.58 Q691.074 1464.48 688.968 1467.07 Q688.389 1467.74 685.287 1470.96 Q682.185 1474.15 676.537 1479.92 Z" fill="#000000" fill-rule="evenodd" fill-opacity="1" /><path clip-path="url(#clip370)" d="M 0 0 M697.972 1449.29 L716.329 1449.29 L716.329 1453.23 L702.255 1453.23 L702.255 1461.7 Q703.273 1461.35 704.292 1461.19 Q705.31 1461 706.329 1461 Q712.116 1461 715.495 1464.18 Q718.875 1467.35 718.875 1472.76 Q718.875 1478.34 715.403 1481.44 Q711.93 1484.52 705.611 1484.52 Q703.435 1484.52 701.167 1484.15 Q698.921 1483.78 696.514 1483.04 L696.514 1478.34 Q698.597 1479.48 700.819 1480.03 Q703.042 1480.59 705.518 1480.59 Q709.523 1480.59 711.861 1478.48 Q714.199 1476.38 714.199 1472.76 Q714.199 1469.15 711.861 1467.05 Q709.523 1464.94 705.518 1464.94 Q703.643 1464.94 701.768 1465.36 Q699.917 1465.77 697.972 1466.65 L697.972 1449.29 Z" fill="#000000" fill-rule="evenodd" fill-opacity="1" /><path clip-path="url(#clip370)" d="M 0 0 M992.096 1452.37 Q988.485 1452.37 986.656 1455.94 Q984.851 1459.48 984.851 1466.61 Q984.851 1473.71 986.656 1477.28 Q988.485 1480.82 992.096 1480.82 Q995.73 1480.82 997.536 1477.28 Q999.365 1473.71 999.365 1466.61 Q999.365 1459.48 997.536 1455.94 Q995.73 1452.37 992.096 1452.37 M992.096 1448.67 Q997.906 1448.67 1000.96 1453.27 Q1004.04 1457.86 1004.04 1466.61 Q1004.04 1475.33 1000.96 1479.94 Q997.906 1484.52 992.096 1484.52 Q986.286 1484.52 983.207 1479.94 Q980.152 1475.33 980.152 1466.61 Q980.152 1457.86 983.207 1453.27 Q986.286 1448.67 992.096 1448.67 Z" fill="#000000" fill-rule="evenodd" fill-opacity="1" /><path clip-path="url(#clip370)" d="M 0 0 M1009.11 1477.97 L1013.99 1477.97 L1013.99 1483.85 L1009.11 1483.85 L1009.11 1477.97 Z" fill="#000000" fill-rule="evenodd" fill-opacity="1" /><path clip-path="url(#clip370)" d="M 0 0 M1019.11 1449.29 L1037.47 1449.29 L1037.47 1453.23 L1023.39 1453.23 L1023.39 1461.7 Q1024.41 1461.35 1025.43 1461.19 Q1026.45 1461 1027.47 1461 Q1033.25 1461 1036.63 1464.18 Q1040.01 1467.35 1040.01 1472.76 Q1040.01 1478.34 1036.54 1481.44 Q1033.07 1484.52 1026.75 1484.52 Q1024.57 1484.52 1022.3 1484.15 Q1020.06 1483.78 1017.65 1483.04 L1017.65 1478.34 Q1019.73 1479.48 1021.96 1480.03 Q1024.18 1480.59 1026.66 1480.59 Q1030.66 1480.59 1033 1478.48 Q1035.34 1476.38 1035.34 1472.76 Q1035.34 1469.15 1033 1467.05 Q1030.66 1464.94 1026.66 1464.94 Q1024.78 1464.94 1022.91 1465.36 Q1021.05 1465.77 1019.11 1466.65 L1019.11 1449.29 Z" fill="#000000" fill-rule="evenodd" fill-opacity="1" /><path clip-path="url(#clip370)" d="M 0 0 M1055.08 1452.37 Q1051.47 1452.37 1049.64 1455.94 Q1047.84 1459.48 1047.84 1466.61 Q1047.84 1473.71 1049.64 1477.28 Q1051.47 1480.82 1055.08 1480.82 Q1058.72 1480.82 1060.52 1477.28 Q1062.35 1473.71 1062.35 1466.61 Q1062.35 1459.48 1060.52 1455.94 Q1058.72 1452.37 1055.08 1452.37 M1055.08 1448.67 Q1060.89 1448.67 1063.95 1453.27 Q1067.03 1457.86 1067.03 1466.61 Q1067.03 1475.33 1063.95 1479.94 Q1060.89 1484.52 1055.08 1484.52 Q1049.27 1484.52 1046.19 1479.94 Q1043.14 1475.33 1043.14 1466.61 Q1043.14 1457.86 1046.19 1453.27 Q1049.27 1448.67 1055.08 1448.67 Z" fill="#000000" fill-rule="evenodd" fill-opacity="1" /><path clip-path="url(#clip370)" d="M 0 0 M1339.9 1452.37 Q1336.29 1452.37 1334.46 1455.94 Q1332.66 1459.48 1332.66 1466.61 Q1332.66 1473.71 1334.46 1477.28 Q1336.29 1480.82 1339.9 1480.82 Q1343.53 1480.82 1345.34 1477.28 Q1347.17 1473.71 1347.17 1466.61 Q1347.17 1459.48 1345.34 1455.94 Q1343.53 1452.37 1339.9 1452.37 M1339.9 1448.67 Q1345.71 1448.67 1348.77 1453.27 Q1351.84 1457.86 1351.84 1466.61 Q1351.84 1475.33 1348.77 1479.94 Q1345.71 1484.52 1339.9 1484.52 Q1334.09 1484.52 1331.01 1479.94 Q1327.96 1475.33 1327.96 1466.61 Q1327.96 1457.86 1331.01 1453.27 Q1334.09 1448.67 1339.9 1448.67 Z" fill="#000000" fill-rule="evenodd" fill-opacity="1" /><path clip-path="url(#clip370)" d="M 0 0 M1356.91 1477.97 L1361.8 1477.97 L1361.8 1483.85 L1356.91 1483.85 L1356.91 1477.97 Z" fill="#000000" fill-rule="evenodd" fill-opacity="1" /><path clip-path="url(#clip370)" d="M 0 0 M1365.69 1449.29 L1387.91 1449.29 L1387.91 1451.28 L1375.36 1483.85 L1370.48 1483.85 L1382.28 1453.23 L1365.69 1453.23 L1365.69 1449.29 Z" fill="#000000" fill-rule="evenodd" fill-opacity="1" /><path clip-path="url(#clip370)" d="M 0 0 M1393.03 1449.29 L1411.38 1449.29 L1411.38 1453.23 L1397.31 1453.23 L1397.31 1461.7 Q1398.33 1461.35 1399.34 1461.19 Q1400.36 1461 1401.38 1461 Q1407.17 1461 1410.55 1464.18 Q1413.93 1467.35 1413.93 1472.76 Q1413.93 1478.34 1410.46 1481.44 Q1406.98 1484.52 1400.66 1484.52 Q1398.49 1484.52 1396.22 1484.15 Q1393.97 1483.78 1391.57 1483.04 L1391.57 1478.34 Q1393.65 1479.48 1395.87 1480.03 Q1398.09 1480.59 1400.57 1480.59 Q1404.58 1480.59 1406.91 1478.48 Q1409.25 1476.38 1409.25 1472.76 Q1409.25 1469.15 1406.91 1467.05 Q1404.58 1464.94 1400.57 1464.94 Q1398.7 1464.94 1396.82 1465.36 Q1394.97 1465.77 1393.03 1466.65 L1393.03 1449.29 Z" fill="#000000" fill-rule="evenodd" fill-opacity="1" /><path clip-path="url(#clip370)" d="M 0 0 M1676.69 1479.92 L1684.33 1479.92 L1684.33 1453.55 L1676.02 1455.22 L1676.02 1450.96 L1684.28 1449.29 L1688.95 1449.29 L1688.95 1479.92 L1696.59 1479.92 L1696.59 1483.85 L1676.69 1483.85 L1676.69 1479.92 Z" fill="#000000" fill-rule="evenodd" fill-opacity="1" /><path clip-path="url(#clip370)" d="M 0 0 M1701.66 1477.97 L1706.55 1477.97 L1706.55 1483.85 L1701.66 1483.85 L1701.66 1477.97 Z" fill="#000000" fill-rule="evenodd" fill-opacity="1" /><path clip-path="url(#clip370)" d="M 0 0 M1721.62 1452.37 Q1718.01 1452.37 1716.18 1455.94 Q1714.37 1459.48 1714.37 1466.61 Q1714.37 1473.71 1716.18 1477.28 Q1718.01 1480.82 1721.62 1480.82 Q1725.25 1480.82 1727.06 1477.28 Q1728.89 1473.71 1728.89 1466.61 Q1728.89 1459.48 1727.06 1455.94 Q1725.25 1452.37 1721.62 1452.37 M1721.62 1448.67 Q1727.43 1448.67 1730.48 1453.27 Q1733.56 1457.86 1733.56 1466.61 Q1733.56 1475.33 1730.48 1479.94 Q1727.43 1484.52 1721.62 1484.52 Q1715.81 1484.52 1712.73 1479.94 Q1709.67 1475.33 1709.67 1466.61 Q1709.67 1457.86 1712.73 1453.27 Q1715.81 1448.67 1721.62 1448.67 Z" fill="#000000" fill-rule="evenodd" fill-opacity="1" /><path clip-path="url(#clip370)" d="M 0 0 M1748.63 1452.37 Q1745.02 1452.37 1743.19 1455.94 Q1741.39 1459.48 1741.39 1466.61 Q1741.39 1473.71 1743.19 1477.28 Q1745.02 1480.82 1748.63 1480.82 Q1752.26 1480.82 1754.07 1477.28 Q1755.9 1473.71 1755.9 1466.61 Q1755.9 1459.48 1754.07 1455.94 Q1752.26 1452.37 1748.63 1452.37 M1748.63 1448.67 Q1754.44 1448.67 1757.5 1453.27 Q1760.57 1457.86 1760.57 1466.61 Q1760.57 1475.33 1757.5 1479.94 Q1754.44 1484.52 1748.63 1484.52 Q1742.82 1484.52 1739.74 1479.94 Q1736.69 1475.33 1736.69 1466.61 Q1736.69 1457.86 1739.74 1453.27 Q1742.82 1448.67 1748.63 1448.67 Z" fill="#000000" fill-rule="evenodd" fill-opacity="1" /><path clip-path="url(#clip370)" d="M 0 0 M2025.34 1479.92 L2032.97 1479.92 L2032.97 1453.55 L2024.66 1455.22 L2024.66 1450.96 L2032.93 1449.29 L2037.6 1449.29 L2037.6 1479.92 L2045.24 1479.92 L2045.24 1483.85 L2025.34 1483.85 L2025.34 1479.92 Z" fill="#000000" fill-rule="evenodd" fill-opacity="1" /><path clip-path="url(#clip370)" d="M 0 0 M2050.31 1477.97 L2055.2 1477.97 L2055.2 1483.85 L2050.31 1483.85 L2050.31 1477.97 Z" fill="#000000" fill-rule="evenodd" fill-opacity="1" /><path clip-path="url(#clip370)" d="M 0 0 M2064.29 1479.92 L2080.61 1479.92 L2080.61 1483.85 L2058.67 1483.85 L2058.67 1479.92 Q2061.33 1477.16 2065.91 1472.53 Q2070.52 1467.88 2071.7 1466.54 Q2073.95 1464.01 2074.83 1462.28 Q2075.73 1460.52 2075.73 1458.83 Q2075.73 1456.07 2073.78 1454.34 Q2071.86 1452.6 2068.76 1452.6 Q2066.56 1452.6 2064.11 1453.37 Q2061.68 1454.13 2058.9 1455.68 L2058.9 1450.96 Q2061.72 1449.82 2064.18 1449.25 Q2066.63 1448.67 2068.67 1448.67 Q2074.04 1448.67 2077.23 1451.35 Q2080.43 1454.04 2080.43 1458.53 Q2080.43 1460.66 2079.62 1462.58 Q2078.83 1464.48 2076.72 1467.07 Q2076.15 1467.74 2073.04 1470.96 Q2069.94 1474.15 2064.29 1479.92 Z" fill="#000000" fill-rule="evenodd" fill-opacity="1" /><path clip-path="url(#clip370)" d="M 0 0 M2085.73 1449.29 L2104.09 1449.29 L2104.09 1453.23 L2090.01 1453.23 L2090.01 1461.7 Q2091.03 1461.35 2092.05 1461.19 Q2093.07 1461 2094.09 1461 Q2099.87 1461 2103.25 1464.18 Q2106.63 1467.35 2106.63 1472.76 Q2106.63 1478.34 2103.16 1481.44 Q2099.69 1484.52 2093.37 1484.52 Q2091.19 1484.52 2088.92 1484.15 Q2086.68 1483.78 2084.27 1483.04 L2084.27 1478.34 Q2086.35 1479.48 2088.58 1480.03 Q2090.8 1480.59 2093.28 1480.59 Q2097.28 1480.59 2099.62 1478.48 Q2101.96 1476.38 2101.96 1472.76 Q2101.96 1469.15 2099.62 1467.05 Q2097.28 1464.94 2093.28 1464.94 Q2091.4 1464.94 2089.53 1465.36 Q2087.67 1465.77 2085.73 1466.65 L2085.73 1449.29 Z" fill="#000000" fill-rule="evenodd" fill-opacity="1" /><path clip-path="url(#clip370)" d="M 0 0 M1321.79 1537.87 Q1320.8 1537.3 1319.62 1537.04 Q1318.48 1536.76 1317.07 1536.76 Q1312.11 1536.76 1309.44 1540 Q1306.79 1543.22 1306.79 1549.27 L1306.79 1568.04 L1300.91 1568.04 L1300.91 1532.4 L1306.79 1532.4 L1306.79 1537.93 Q1308.64 1534.69 1311.6 1533.13 Q1314.56 1531.54 1318.79 1531.54 Q1319.4 1531.54 1320.13 1531.63 Q1320.86 1531.7 1321.75 1531.85 L1321.79 1537.87 Z" fill="#000000" fill-rule="evenodd" fill-opacity="1" /><polyline clip-path="url(#clip372)" style="stroke:#000000; stroke-width:2; stroke-opacity:0.1; fill:none" points="
  269.935,1276.07 2352.76,1276.07 
  "/>
<polyline clip-path="url(#clip372)" style="stroke:#000000; stroke-width:2; stroke-opacity:0.1; fill:none" points="
  269.935,1095.78 2352.76,1095.78 
  "/>
<polyline clip-path="url(#clip372)" style="stroke:#000000; stroke-width:2; stroke-opacity:0.1; fill:none" points="
  269.935,915.497 2352.76,915.497 
  "/>
<polyline clip-path="url(#clip372)" style="stroke:#000000; stroke-width:2; stroke-opacity:0.1; fill:none" points="
  269.935,735.212 2352.76,735.212 
  "/>
<polyline clip-path="url(#clip372)" style="stroke:#000000; stroke-width:2; stroke-opacity:0.1; fill:none" points="
  269.935,554.927 2352.76,554.927 
  "/>
<polyline clip-path="url(#clip372)" style="stroke:#000000; stroke-width:2; stroke-opacity:0.1; fill:none" points="
  269.935,374.642 2352.76,374.642 
  "/>
<polyline clip-path="url(#clip372)" style="stroke:#000000; stroke-width:2; stroke-opacity:0.1; fill:none" points="
  269.935,194.357 2352.76,194.357 
  "/>
<polyline clip-path="url(#clip370)" style="stroke:#000000; stroke-width:4; stroke-opacity:1; fill:none" points="
  269.935,1423.18 269.935,47.2441 
  "/>
<polyline clip-path="url(#clip370)" style="stroke:#000000; stroke-width:4; stroke-opacity:1; fill:none" points="
  269.935,1276.07 294.929,1276.07 
  "/>
<polyline clip-path="url(#clip370)" style="stroke:#000000; stroke-width:4; stroke-opacity:1; fill:none" points="
  269.935,1095.78 294.929,1095.78 
  "/>
<polyline clip-path="url(#clip370)" style="stroke:#000000; stroke-width:4; stroke-opacity:1; fill:none" points="
  269.935,915.497 294.929,915.497 
  "/>
<polyline clip-path="url(#clip370)" style="stroke:#000000; stroke-width:4; stroke-opacity:1; fill:none" points="
  269.935,735.212 294.929,735.212 
  "/>
<polyline clip-path="url(#clip370)" style="stroke:#000000; stroke-width:4; stroke-opacity:1; fill:none" points="
  269.935,554.927 294.929,554.927 
  "/>
<polyline clip-path="url(#clip370)" style="stroke:#000000; stroke-width:4; stroke-opacity:1; fill:none" points="
  269.935,374.642 294.929,374.642 
  "/>
<polyline clip-path="url(#clip370)" style="stroke:#000000; stroke-width:4; stroke-opacity:1; fill:none" points="
  269.935,194.357 294.929,194.357 
  "/>
<path clip-path="url(#clip370)" d="M 0 0 M115.163 1276.52 L144.839 1276.52 L144.839 1280.45 L115.163 1280.45 L115.163 1276.52 Z" fill="#000000" fill-rule="evenodd" fill-opacity="1" /><path clip-path="url(#clip370)" d="M 0 0 M159.908 1261.87 Q156.297 1261.87 154.468 1265.43 Q152.663 1268.97 152.663 1276.1 Q152.663 1283.21 154.468 1286.77 Q156.297 1290.31 159.908 1290.31 Q163.542 1290.31 165.348 1286.77 Q167.177 1283.21 167.177 1276.1 Q167.177 1268.97 165.348 1265.43 Q163.542 1261.87 159.908 1261.87 M159.908 1258.16 Q165.718 1258.16 168.774 1262.77 Q171.852 1267.35 171.852 1276.1 Q171.852 1284.83 168.774 1289.44 Q165.718 1294.02 159.908 1294.02 Q154.098 1294.02 151.019 1289.44 Q147.964 1284.83 147.964 1276.1 Q147.964 1267.35 151.019 1262.77 Q154.098 1258.16 159.908 1258.16 Z" fill="#000000" fill-rule="evenodd" fill-opacity="1" /><path clip-path="url(#clip370)" d="M 0 0 M176.922 1287.47 L181.806 1287.47 L181.806 1293.35 L176.922 1293.35 L176.922 1287.47 Z" fill="#000000" fill-rule="evenodd" fill-opacity="1" /><path clip-path="url(#clip370)" d="M 0 0 M185.695 1258.79 L207.917 1258.79 L207.917 1260.78 L195.371 1293.35 L190.487 1293.35 L202.292 1262.72 L185.695 1262.72 L185.695 1258.79 Z" fill="#000000" fill-rule="evenodd" fill-opacity="1" /><path clip-path="url(#clip370)" d="M 0 0 M213.033 1258.79 L231.389 1258.79 L231.389 1262.72 L217.315 1262.72 L217.315 1271.19 Q218.334 1270.85 219.352 1270.69 Q220.371 1270.5 221.389 1270.5 Q227.176 1270.5 230.556 1273.67 Q233.935 1276.84 233.935 1282.26 Q233.935 1287.84 230.463 1290.94 Q226.991 1294.02 220.672 1294.02 Q218.496 1294.02 216.227 1293.65 Q213.982 1293.28 211.574 1292.54 L211.574 1287.84 Q213.658 1288.97 215.88 1289.53 Q218.102 1290.08 220.579 1290.08 Q224.584 1290.08 226.922 1287.98 Q229.26 1285.87 229.26 1282.26 Q229.26 1278.65 226.922 1276.54 Q224.584 1274.44 220.579 1274.44 Q218.704 1274.44 216.829 1274.85 Q214.977 1275.27 213.033 1276.15 L213.033 1258.79 Z" fill="#000000" fill-rule="evenodd" fill-opacity="1" /><path clip-path="url(#clip370)" d="M 0 0 M114.26 1096.23 L143.936 1096.23 L143.936 1100.17 L114.26 1100.17 L114.26 1096.23 Z" fill="#000000" fill-rule="evenodd" fill-opacity="1" /><path clip-path="url(#clip370)" d="M 0 0 M159.005 1081.58 Q155.394 1081.58 153.566 1085.15 Q151.76 1088.69 151.76 1095.82 Q151.76 1102.92 153.566 1106.49 Q155.394 1110.03 159.005 1110.03 Q162.64 1110.03 164.445 1106.49 Q166.274 1102.92 166.274 1095.82 Q166.274 1088.69 164.445 1085.15 Q162.64 1081.58 159.005 1081.58 M159.005 1077.88 Q164.815 1077.88 167.871 1082.48 Q170.95 1087.07 170.95 1095.82 Q170.95 1104.54 167.871 1109.15 Q164.815 1113.73 159.005 1113.73 Q153.195 1113.73 150.116 1109.15 Q147.061 1104.54 147.061 1095.82 Q147.061 1087.07 150.116 1082.48 Q153.195 1077.88 159.005 1077.88 Z" fill="#000000" fill-rule="evenodd" fill-opacity="1" /><path clip-path="url(#clip370)" d="M 0 0 M176.019 1107.18 L180.903 1107.18 L180.903 1113.06 L176.019 1113.06 L176.019 1107.18 Z" fill="#000000" fill-rule="evenodd" fill-opacity="1" /><path clip-path="url(#clip370)" d="M 0 0 M186.019 1078.5 L204.375 1078.5 L204.375 1082.44 L190.301 1082.44 L190.301 1090.91 Q191.32 1090.56 192.338 1090.4 Q193.357 1090.22 194.375 1090.22 Q200.162 1090.22 203.542 1093.39 Q206.922 1096.56 206.922 1101.97 Q206.922 1107.55 203.449 1110.65 Q199.977 1113.73 193.658 1113.73 Q191.482 1113.73 189.213 1113.36 Q186.968 1112.99 184.561 1112.25 L184.561 1107.55 Q186.644 1108.69 188.866 1109.24 Q191.088 1109.8 193.565 1109.8 Q197.57 1109.8 199.908 1107.69 Q202.246 1105.59 202.246 1101.97 Q202.246 1098.36 199.908 1096.26 Q197.57 1094.15 193.565 1094.15 Q191.69 1094.15 189.815 1094.57 Q187.963 1094.98 186.019 1095.86 L186.019 1078.5 Z" fill="#000000" fill-rule="evenodd" fill-opacity="1" /><path clip-path="url(#clip370)" d="M 0 0 M221.991 1081.58 Q218.38 1081.58 216.551 1085.15 Q214.746 1088.69 214.746 1095.82 Q214.746 1102.92 216.551 1106.49 Q218.38 1110.03 221.991 1110.03 Q225.625 1110.03 227.431 1106.49 Q229.26 1102.92 229.26 1095.82 Q229.26 1088.69 227.431 1085.15 Q225.625 1081.58 221.991 1081.58 M221.991 1077.88 Q227.801 1077.88 230.857 1082.48 Q233.935 1087.07 233.935 1095.82 Q233.935 1104.54 230.857 1109.15 Q227.801 1113.73 221.991 1113.73 Q216.181 1113.73 213.102 1109.15 Q210.047 1104.54 210.047 1095.82 Q210.047 1087.07 213.102 1082.48 Q216.181 1077.88 221.991 1077.88 Z" fill="#000000" fill-rule="evenodd" fill-opacity="1" /><path clip-path="url(#clip370)" d="M 0 0 M115.857 915.948 L145.533 915.948 L145.533 919.884 L115.857 919.884 L115.857 915.948 Z" fill="#000000" fill-rule="evenodd" fill-opacity="1" /><path clip-path="url(#clip370)" d="M 0 0 M160.603 901.296 Q156.991 901.296 155.163 904.861 Q153.357 908.402 153.357 915.532 Q153.357 922.638 155.163 926.203 Q156.991 929.745 160.603 929.745 Q164.237 929.745 166.042 926.203 Q167.871 922.638 167.871 915.532 Q167.871 908.402 166.042 904.861 Q164.237 901.296 160.603 901.296 M160.603 897.592 Q166.413 897.592 169.468 902.199 Q172.547 906.782 172.547 915.532 Q172.547 924.259 169.468 928.865 Q166.413 933.448 160.603 933.448 Q154.792 933.448 151.714 928.865 Q148.658 924.259 148.658 915.532 Q148.658 906.782 151.714 902.199 Q154.792 897.592 160.603 897.592 Z" fill="#000000" fill-rule="evenodd" fill-opacity="1" /><path clip-path="url(#clip370)" d="M 0 0 M177.616 926.897 L182.501 926.897 L182.501 932.777 L177.616 932.777 L177.616 926.897 Z" fill="#000000" fill-rule="evenodd" fill-opacity="1" /><path clip-path="url(#clip370)" d="M 0 0 M191.598 928.842 L207.917 928.842 L207.917 932.777 L185.973 932.777 L185.973 928.842 Q188.635 926.087 193.218 921.458 Q197.825 916.805 199.005 915.462 Q201.25 912.939 202.13 911.203 Q203.033 909.444 203.033 907.754 Q203.033 904.999 201.088 903.263 Q199.167 901.527 196.065 901.527 Q193.866 901.527 191.413 902.291 Q188.982 903.055 186.204 904.606 L186.204 899.884 Q189.028 898.749 191.482 898.171 Q193.936 897.592 195.973 897.592 Q201.343 897.592 204.537 900.277 Q207.732 902.962 207.732 907.453 Q207.732 909.583 206.922 911.504 Q206.135 913.402 204.028 915.995 Q203.449 916.666 200.348 919.884 Q197.246 923.078 191.598 928.842 Z" fill="#000000" fill-rule="evenodd" fill-opacity="1" /><path clip-path="url(#clip370)" d="M 0 0 M213.033 898.217 L231.389 898.217 L231.389 902.152 L217.315 902.152 L217.315 910.624 Q218.334 910.277 219.352 910.115 Q220.371 909.93 221.389 909.93 Q227.176 909.93 230.556 913.101 Q233.935 916.273 233.935 921.689 Q233.935 927.268 230.463 930.37 Q226.991 933.448 220.672 933.448 Q218.496 933.448 216.227 933.078 Q213.982 932.708 211.574 931.967 L211.574 927.268 Q213.658 928.402 215.88 928.958 Q218.102 929.513 220.579 929.513 Q224.584 929.513 226.922 927.407 Q229.26 925.3 229.26 921.689 Q229.26 918.078 226.922 915.972 Q224.584 913.865 220.579 913.865 Q218.704 913.865 216.829 914.282 Q214.977 914.698 213.033 915.578 L213.033 898.217 Z" fill="#000000" fill-rule="evenodd" fill-opacity="1" /><path clip-path="url(#clip370)" d="M 0 0 M158.01 721.011 Q154.399 721.011 152.57 724.575 Q150.765 728.117 150.765 735.247 Q150.765 742.353 152.57 745.918 Q154.399 749.46 158.01 749.46 Q161.644 749.46 163.45 745.918 Q165.278 742.353 165.278 735.247 Q165.278 728.117 163.45 724.575 Q161.644 721.011 158.01 721.011 M158.01 717.307 Q163.82 717.307 166.876 721.913 Q169.954 726.497 169.954 735.247 Q169.954 743.973 166.876 748.58 Q163.82 753.163 158.01 753.163 Q152.2 753.163 149.121 748.58 Q146.066 743.973 146.066 735.247 Q146.066 726.497 149.121 721.913 Q152.2 717.307 158.01 717.307 Z" fill="#000000" fill-rule="evenodd" fill-opacity="1" /><path clip-path="url(#clip370)" d="M 0 0 M175.024 746.612 L179.908 746.612 L179.908 752.492 L175.024 752.492 L175.024 746.612 Z" fill="#000000" fill-rule="evenodd" fill-opacity="1" /><path clip-path="url(#clip370)" d="M 0 0 M194.977 721.011 Q191.366 721.011 189.538 724.575 Q187.732 728.117 187.732 735.247 Q187.732 742.353 189.538 745.918 Q191.366 749.46 194.977 749.46 Q198.612 749.46 200.417 745.918 Q202.246 742.353 202.246 735.247 Q202.246 728.117 200.417 724.575 Q198.612 721.011 194.977 721.011 M194.977 717.307 Q200.787 717.307 203.843 721.913 Q206.922 726.497 206.922 735.247 Q206.922 743.973 203.843 748.58 Q200.787 753.163 194.977 753.163 Q189.167 753.163 186.088 748.58 Q183.033 743.973 183.033 735.247 Q183.033 726.497 186.088 721.913 Q189.167 717.307 194.977 717.307 Z" fill="#000000" fill-rule="evenodd" fill-opacity="1" /><path clip-path="url(#clip370)" d="M 0 0 M221.991 721.011 Q218.38 721.011 216.551 724.575 Q214.746 728.117 214.746 735.247 Q214.746 742.353 216.551 745.918 Q218.38 749.46 221.991 749.46 Q225.625 749.46 227.431 745.918 Q229.26 742.353 229.26 735.247 Q229.26 728.117 227.431 724.575 Q225.625 721.011 221.991 721.011 M221.991 717.307 Q227.801 717.307 230.857 721.913 Q233.935 726.497 233.935 735.247 Q233.935 743.973 230.857 748.58 Q227.801 753.163 221.991 753.163 Q216.181 753.163 213.102 748.58 Q210.047 743.973 210.047 735.247 Q210.047 726.497 213.102 721.913 Q216.181 717.307 221.991 717.307 Z" fill="#000000" fill-rule="evenodd" fill-opacity="1" /><path clip-path="url(#clip370)" d="M 0 0 M160.603 540.726 Q156.991 540.726 155.163 544.29 Q153.357 547.832 153.357 554.962 Q153.357 562.068 155.163 565.633 Q156.991 569.174 160.603 569.174 Q164.237 569.174 166.042 565.633 Q167.871 562.068 167.871 554.962 Q167.871 547.832 166.042 544.29 Q164.237 540.726 160.603 540.726 M160.603 537.022 Q166.413 537.022 169.468 541.628 Q172.547 546.212 172.547 554.962 Q172.547 563.688 169.468 568.295 Q166.413 572.878 160.603 572.878 Q154.792 572.878 151.714 568.295 Q148.658 563.688 148.658 554.962 Q148.658 546.212 151.714 541.628 Q154.792 537.022 160.603 537.022 Z" fill="#000000" fill-rule="evenodd" fill-opacity="1" /><path clip-path="url(#clip370)" d="M 0 0 M177.616 566.327 L182.501 566.327 L182.501 572.207 L177.616 572.207 L177.616 566.327 Z" fill="#000000" fill-rule="evenodd" fill-opacity="1" /><path clip-path="url(#clip370)" d="M 0 0 M191.598 568.272 L207.917 568.272 L207.917 572.207 L185.973 572.207 L185.973 568.272 Q188.635 565.517 193.218 560.888 Q197.825 556.235 199.005 554.892 Q201.25 552.369 202.13 550.633 Q203.033 548.874 203.033 547.184 Q203.033 544.429 201.088 542.693 Q199.167 540.957 196.065 540.957 Q193.866 540.957 191.413 541.721 Q188.982 542.485 186.204 544.036 L186.204 539.314 Q189.028 538.179 191.482 537.601 Q193.936 537.022 195.973 537.022 Q201.343 537.022 204.537 539.707 Q207.732 542.392 207.732 546.883 Q207.732 549.013 206.922 550.934 Q206.135 552.832 204.028 555.425 Q203.449 556.096 200.348 559.313 Q197.246 562.508 191.598 568.272 Z" fill="#000000" fill-rule="evenodd" fill-opacity="1" /><path clip-path="url(#clip370)" d="M 0 0 M213.033 537.647 L231.389 537.647 L231.389 541.582 L217.315 541.582 L217.315 550.054 Q218.334 549.707 219.352 549.545 Q220.371 549.36 221.389 549.36 Q227.176 549.36 230.556 552.531 Q233.935 555.702 233.935 561.119 Q233.935 566.698 230.463 569.799 Q226.991 572.878 220.672 572.878 Q218.496 572.878 216.227 572.508 Q213.982 572.137 211.574 571.397 L211.574 566.698 Q213.658 567.832 215.88 568.387 Q218.102 568.943 220.579 568.943 Q224.584 568.943 226.922 566.837 Q229.26 564.73 229.26 561.119 Q229.26 557.508 226.922 555.401 Q224.584 553.295 220.579 553.295 Q218.704 553.295 216.829 553.712 Q214.977 554.128 213.033 555.008 L213.033 537.647 Z" fill="#000000" fill-rule="evenodd" fill-opacity="1" /><path clip-path="url(#clip370)" d="M 0 0 M159.005 360.44 Q155.394 360.44 153.566 364.005 Q151.76 367.547 151.76 374.677 Q151.76 381.783 153.566 385.348 Q155.394 388.889 159.005 388.889 Q162.64 388.889 164.445 385.348 Q166.274 381.783 166.274 374.677 Q166.274 367.547 164.445 364.005 Q162.64 360.44 159.005 360.44 M159.005 356.737 Q164.815 356.737 167.871 361.343 Q170.95 365.927 170.95 374.677 Q170.95 383.403 167.871 388.01 Q164.815 392.593 159.005 392.593 Q153.195 392.593 150.116 388.01 Q147.061 383.403 147.061 374.677 Q147.061 365.927 150.116 361.343 Q153.195 356.737 159.005 356.737 Z" fill="#000000" fill-rule="evenodd" fill-opacity="1" /><path clip-path="url(#clip370)" d="M 0 0 M176.019 386.042 L180.903 386.042 L180.903 391.922 L176.019 391.922 L176.019 386.042 Z" fill="#000000" fill-rule="evenodd" fill-opacity="1" /><path clip-path="url(#clip370)" d="M 0 0 M186.019 357.362 L204.375 357.362 L204.375 361.297 L190.301 361.297 L190.301 369.769 Q191.32 369.422 192.338 369.26 Q193.357 369.075 194.375 369.075 Q200.162 369.075 203.542 372.246 Q206.922 375.417 206.922 380.834 Q206.922 386.413 203.449 389.514 Q199.977 392.593 193.658 392.593 Q191.482 392.593 189.213 392.223 Q186.968 391.852 184.561 391.112 L184.561 386.413 Q186.644 387.547 188.866 388.102 Q191.088 388.658 193.565 388.658 Q197.57 388.658 199.908 386.551 Q202.246 384.445 202.246 380.834 Q202.246 377.223 199.908 375.116 Q197.57 373.01 193.565 373.01 Q191.69 373.01 189.815 373.427 Q187.963 373.843 186.019 374.723 L186.019 357.362 Z" fill="#000000" fill-rule="evenodd" fill-opacity="1" /><path clip-path="url(#clip370)" d="M 0 0 M221.991 360.44 Q218.38 360.44 216.551 364.005 Q214.746 367.547 214.746 374.677 Q214.746 381.783 216.551 385.348 Q218.38 388.889 221.991 388.889 Q225.625 388.889 227.431 385.348 Q229.26 381.783 229.26 374.677 Q229.26 367.547 227.431 364.005 Q225.625 360.44 221.991 360.44 M221.991 356.737 Q227.801 356.737 230.857 361.343 Q233.935 365.927 233.935 374.677 Q233.935 383.403 230.857 388.01 Q227.801 392.593 221.991 392.593 Q216.181 392.593 213.102 388.01 Q210.047 383.403 210.047 374.677 Q210.047 365.927 213.102 361.343 Q216.181 356.737 221.991 356.737 Z" fill="#000000" fill-rule="evenodd" fill-opacity="1" /><path clip-path="url(#clip370)" d="M 0 0 M159.908 180.155 Q156.297 180.155 154.468 183.72 Q152.663 187.262 152.663 194.391 Q152.663 201.498 154.468 205.063 Q156.297 208.604 159.908 208.604 Q163.542 208.604 165.348 205.063 Q167.177 201.498 167.177 194.391 Q167.177 187.262 165.348 183.72 Q163.542 180.155 159.908 180.155 M159.908 176.452 Q165.718 176.452 168.774 181.058 Q171.852 185.641 171.852 194.391 Q171.852 203.118 168.774 207.725 Q165.718 212.308 159.908 212.308 Q154.098 212.308 151.019 207.725 Q147.964 203.118 147.964 194.391 Q147.964 185.641 151.019 181.058 Q154.098 176.452 159.908 176.452 Z" fill="#000000" fill-rule="evenodd" fill-opacity="1" /><path clip-path="url(#clip370)" d="M 0 0 M176.922 205.757 L181.806 205.757 L181.806 211.637 L176.922 211.637 L176.922 205.757 Z" fill="#000000" fill-rule="evenodd" fill-opacity="1" /><path clip-path="url(#clip370)" d="M 0 0 M185.695 177.077 L207.917 177.077 L207.917 179.067 L195.371 211.637 L190.487 211.637 L202.292 181.012 L185.695 181.012 L185.695 177.077 Z" fill="#000000" fill-rule="evenodd" fill-opacity="1" /><path clip-path="url(#clip370)" d="M 0 0 M213.033 177.077 L231.389 177.077 L231.389 181.012 L217.315 181.012 L217.315 189.484 Q218.334 189.137 219.352 188.975 Q220.371 188.79 221.389 188.79 Q227.176 188.79 230.556 191.961 Q233.935 195.132 233.935 200.549 Q233.935 206.127 230.463 209.229 Q226.991 212.308 220.672 212.308 Q218.496 212.308 216.227 211.938 Q213.982 211.567 211.574 210.827 L211.574 206.127 Q213.658 207.262 215.88 207.817 Q218.102 208.373 220.579 208.373 Q224.584 208.373 226.922 206.266 Q229.26 204.16 229.26 200.549 Q229.26 196.938 226.922 194.831 Q224.584 192.725 220.579 192.725 Q218.704 192.725 216.829 193.141 Q214.977 193.558 213.033 194.438 L213.033 177.077 Z" fill="#000000" fill-rule="evenodd" fill-opacity="1" /><path clip-path="url(#clip370)" d="M 0 0 M58.657 745.27 L77.5631 745.27 L77.5631 751.158 L28.3562 751.158 L28.3562 745.27 L33.7671 745.27 Q30.5842 743.424 29.0564 740.623 Q27.4968 737.79 27.4968 733.875 Q27.4968 727.382 32.6531 723.34 Q37.8093 719.266 46.212 719.266 Q54.6147 719.266 59.771 723.34 Q64.9272 727.382 64.9272 733.875 Q64.9272 737.79 63.3994 740.623 Q61.8398 743.424 58.657 745.27 M46.212 725.345 Q39.7508 725.345 36.0905 728.019 Q32.3984 730.66 32.3984 735.307 Q32.3984 739.954 36.0905 742.628 Q39.7508 745.27 46.212 745.27 Q52.6732 745.27 56.3653 742.628 Q60.0256 739.954 60.0256 735.307 Q60.0256 730.66 56.3653 728.019 Q52.6732 725.345 46.212 725.345 Z" fill="#000000" fill-rule="evenodd" fill-opacity="1" /><polyline clip-path="url(#clip372)" style="stroke:#009af9; stroke-width:4; stroke-opacity:1; fill:none" points="
  328.883,551.826 342.777,555.494 356.671,559.161 370.566,562.829 384.46,566.497 398.354,570.165 412.248,573.832 426.142,577.5 440.036,581.168 453.93,584.835 
  467.824,588.503 481.718,592.171 495.613,595.839 509.507,599.506 523.401,603.174 537.295,606.842 551.189,610.509 565.083,614.177 578.977,617.845 592.871,621.513 
  606.766,625.18 620.66,628.848 634.554,632.516 648.448,636.184 662.342,639.851 676.236,643.519 690.13,647.187 704.024,650.854 717.918,654.522 731.813,658.19 
  745.707,661.858 759.601,665.525 773.495,669.193 787.389,672.861 801.283,676.528 815.177,680.196 829.071,683.864 842.966,687.532 856.86,691.199 870.754,694.867 
  884.648,698.535 898.542,702.202 912.436,705.87 926.33,709.538 940.224,713.206 954.118,716.873 968.013,720.541 981.907,724.209 995.801,727.877 1009.69,731.544 
  1023.59,735.212 1037.48,738.88 1051.38,742.547 1065.27,746.215 1079.17,749.883 1093.06,753.551 1106.95,757.218 1120.85,760.886 1134.74,764.554 1148.64,768.221 
  1162.53,771.889 1176.42,775.557 1190.32,779.225 1204.21,782.892 1218.11,786.56 1232,790.228 1245.89,793.895 1259.79,797.563 1273.68,801.231 1287.58,804.899 
  1301.47,808.566 1315.37,812.234 1329.26,815.902 1343.15,819.57 1357.05,823.237 1370.94,826.905 1384.84,830.573 1398.73,834.24 1412.62,837.908 1426.52,841.576 
  1440.41,845.244 1454.31,848.911 1468.2,852.579 1482.09,856.247 1495.99,859.914 1509.88,863.582 1523.78,867.25 1537.67,870.918 1551.57,874.585 1565.46,878.253 
  1579.35,881.921 1593.25,885.588 1607.14,889.256 1621.04,892.924 1634.93,896.592 1648.82,900.259 1662.72,903.927 1676.61,907.595 1690.51,911.263 1704.4,914.93 
  1718.29,918.598 
  "/>
<polyline clip-path="url(#clip372)" style="stroke:#e26f46; stroke-width:4; stroke-opacity:1; fill:none" points="
  328.883,551.826 348.532,555.494 368.182,559.161 387.831,562.829 407.48,566.497 427.129,570.165 446.779,573.832 466.428,577.5 486.077,581.168 505.726,584.835 
  525.376,588.503 545.025,592.171 564.674,595.839 584.323,599.506 603.973,603.174 623.622,606.842 643.271,610.509 662.92,614.177 682.57,617.845 702.219,621.513 
  721.868,625.18 741.517,628.848 761.167,632.516 780.816,636.184 800.465,639.851 820.114,643.519 839.764,647.187 859.413,650.854 879.062,654.522 898.711,658.19 
  918.361,661.858 938.01,665.525 957.659,669.193 977.308,672.861 996.958,676.528 1016.61,680.196 1036.26,683.864 1055.91,687.532 1075.55,691.199 1095.2,694.867 
  1114.85,698.535 1134.5,702.202 1154.15,705.87 1173.8,709.538 1193.45,713.206 1213.1,716.873 1232.75,720.541 1252.4,724.209 1272.05,727.877 1291.7,731.544 
  1311.35,735.212 1330.99,738.88 1350.64,742.547 1370.29,746.215 1389.94,749.883 1409.59,753.551 1429.24,757.218 1448.89,760.886 1468.54,764.554 1488.19,768.221 
  1507.84,771.889 1527.49,775.557 1547.14,779.225 1566.79,782.892 1586.44,786.56 1606.08,790.228 1625.73,793.895 1645.38,797.563 1665.03,801.231 1684.68,804.899 
  1704.33,808.566 1723.98,812.234 1743.63,815.902 1763.28,819.57 1782.93,823.237 1802.58,826.905 1822.23,830.573 1841.88,834.24 1861.52,837.908 1881.17,841.576 
  1900.82,845.244 1920.47,848.911 1940.12,852.579 1959.77,856.247 1979.42,859.914 1999.07,863.582 2018.72,867.25 2038.37,870.918 2058.02,874.585 2077.67,878.253 
  2097.32,881.921 2116.96,885.588 2136.61,889.256 2156.26,892.924 2175.91,896.592 2195.56,900.259 2215.21,903.927 2234.86,907.595 2254.51,911.263 2274.16,914.93 
  2293.81,918.598 
  "/>
<polyline clip-path="url(#clip372)" style="stroke:#3da44d; stroke-width:4; stroke-opacity:1; fill:none" points="
  328.883,86.1857 342.777,99.1662 356.671,112.147 370.566,125.127 384.46,138.108 398.354,151.088 412.248,164.069 426.142,177.049 440.036,190.03 453.93,203.01 
  467.824,215.991 481.718,228.971 495.613,241.952 509.507,254.933 523.401,267.913 537.295,280.894 551.189,293.874 565.083,306.855 578.977,319.835 592.871,332.816 
  606.766,345.796 620.66,358.777 634.554,371.757 648.448,384.738 662.342,397.718 676.236,410.699 690.13,423.679 704.024,436.66 717.918,449.64 731.813,462.621 
  745.707,475.601 759.601,488.582 773.495,501.563 787.389,514.543 801.283,527.524 815.177,540.504 829.071,553.485 842.966,566.465 856.86,579.446 870.754,592.426 
  884.648,605.407 898.542,618.387 912.436,631.368 926.33,644.348 940.224,657.329 954.118,670.309 968.013,683.29 981.907,696.27 995.801,709.251 1009.69,722.231 
  1023.59,735.212 1037.48,748.192 1051.38,761.173 1065.27,774.154 1079.17,787.134 1093.06,800.115 1106.95,813.095 1120.85,826.076 1134.74,839.056 1148.64,852.037 
  1162.53,865.017 1176.42,877.998 1190.32,890.978 1204.21,903.959 1218.11,916.939 1232,929.92 1245.89,942.9 1259.79,955.881 1273.68,968.861 1287.58,981.842 
  1301.47,994.822 1315.37,1007.8 1329.26,1020.78 1343.15,1033.76 1357.05,1046.74 1370.94,1059.73 1384.84,1072.71 1398.73,1085.69 1412.62,1098.67 1426.52,1111.65 
  1440.41,1124.63 1454.31,1137.61 1468.2,1150.59 1482.09,1163.57 1495.99,1176.55 1509.88,1189.53 1523.78,1202.51 1537.67,1215.49 1551.57,1228.47 1565.46,1241.45 
  1579.35,1254.43 1593.25,1267.41 1607.14,1280.39 1621.04,1293.37 1634.93,1306.36 1648.82,1319.34 1662.72,1332.32 1676.61,1345.3 1690.51,1358.28 1704.4,1371.26 
  1718.29,1384.24 
  "/>
<polyline clip-path="url(#clip372)" style="stroke:#c271d2; stroke-width:4; stroke-opacity:1; fill:none" points="
  328.883,86.1857 348.532,99.1662 368.182,112.147 387.831,125.127 407.48,138.108 427.129,151.088 446.779,164.069 466.428,177.049 486.077,190.03 505.726,203.01 
  525.376,215.991 545.025,228.971 564.674,241.952 584.323,254.933 603.973,267.913 623.622,280.894 643.271,293.874 662.92,306.855 682.57,319.835 702.219,332.816 
  721.868,345.796 741.517,358.777 761.167,371.757 780.816,384.738 800.465,397.718 820.114,410.699 839.764,423.679 859.413,436.66 879.062,449.64 898.711,462.621 
  918.361,475.601 938.01,488.582 957.659,501.563 977.308,514.543 996.958,527.524 1016.61,540.504 1036.26,553.485 1055.91,566.465 1075.55,579.446 1095.2,592.426 
  1114.85,605.407 1134.5,618.387 1154.15,631.368 1173.8,644.348 1193.45,657.329 1213.1,670.309 1232.75,683.29 1252.4,696.27 1272.05,709.251 1291.7,722.231 
  1311.35,735.212 1330.99,748.192 1350.64,761.173 1370.29,774.154 1389.94,787.134 1409.59,800.115 1429.24,813.095 1448.89,826.076 1468.54,839.056 1488.19,852.037 
  1507.84,865.017 1527.49,877.998 1547.14,890.978 1566.79,903.959 1586.44,916.939 1606.08,929.92 1625.73,942.9 1645.38,955.881 1665.03,968.861 1684.68,981.842 
  1704.33,994.822 1723.98,1007.8 1743.63,1020.78 1763.28,1033.76 1782.93,1046.74 1802.58,1059.73 1822.23,1072.71 1841.88,1085.69 1861.52,1098.67 1881.17,1111.65 
  1900.82,1124.63 1920.47,1137.61 1940.12,1150.59 1959.77,1163.57 1979.42,1176.55 1999.07,1189.53 2018.72,1202.51 2038.37,1215.49 2058.02,1228.47 2077.67,1241.45 
  2097.32,1254.43 2116.96,1267.41 2136.61,1280.39 2156.26,1293.37 2175.91,1306.36 2195.56,1319.34 2215.21,1332.32 2234.86,1345.3 2254.51,1358.28 2274.16,1371.26 
  2293.81,1384.24 
  "/>
<path clip-path="url(#clip370)" d="
M1809.03 395.509 L2283.33 395.509 L2283.33 93.1086 L1809.03 93.1086  Z
  " fill="#ffffff" fill-rule="evenodd" fill-opacity="1"/>
<polyline clip-path="url(#clip370)" style="stroke:#000000; stroke-width:4; stroke-opacity:1; fill:none" points="
  1809.03,395.509 2283.33,395.509 2283.33,93.1086 1809.03,93.1086 1809.03,395.509 
  "/>
<polyline clip-path="url(#clip370)" style="stroke:#009af9; stroke-width:4; stroke-opacity:1; fill:none" points="
  1832.18,153.589 1971.03,153.589 
  "/>
<path clip-path="url(#clip370)" d="M 0 0 M1998.46 166.98 L1998.46 180.73 L1994.17 180.73 L1994.17 144.943 L1998.46 144.943 L1998.46 148.878 Q1999.8 146.563 2001.84 145.452 Q2003.9 144.318 2006.74 144.318 Q2011.47 144.318 2014.41 148.068 Q2017.37 151.818 2017.37 157.929 Q2017.37 164.04 2014.41 167.79 Q2011.47 171.54 2006.74 171.54 Q2003.9 171.54 2001.84 170.429 Q1999.8 169.295 1998.46 166.98 M2012.95 157.929 Q2012.95 153.23 2011 150.568 Q2009.08 147.883 2005.7 147.883 Q2002.32 147.883 2000.38 150.568 Q1998.46 153.23 1998.46 157.929 Q1998.46 162.628 2000.38 165.313 Q2002.32 167.975 2005.7 167.975 Q2009.08 167.975 2011 165.313 Q2012.95 162.628 2012.95 157.929 Z" fill="#000000" fill-rule="evenodd" fill-opacity="1" /><path clip-path="url(#clip370)" d="M 0 0 M2041.54 178.739 L2041.54 182.049 L2016.91 182.049 L2016.91 178.739 L2041.54 178.739 Z" fill="#000000" fill-rule="evenodd" fill-opacity="1" /><path clip-path="url(#clip370)" d="M 0 0 M2067.55 144.943 L2058.18 157.559 L2068.04 170.869 L2063.02 170.869 L2055.47 160.683 L2047.92 170.869 L2042.9 170.869 L2052.97 157.304 L2043.76 144.943 L2048.78 144.943 L2055.66 154.179 L2062.53 144.943 L2067.55 144.943 Z" fill="#000000" fill-rule="evenodd" fill-opacity="1" /><path clip-path="url(#clip370)" d="M 0 0 M2091.79 137.582 L2091.79 144.943 L2100.56 144.943 L2100.56 148.253 L2091.79 148.253 L2091.79 162.327 Q2091.79 165.498 2092.65 166.401 Q2093.53 167.304 2096.19 167.304 L2100.56 167.304 L2100.56 170.869 L2096.19 170.869 Q2091.26 170.869 2089.38 169.04 Q2087.51 167.188 2087.51 162.327 L2087.51 148.253 L2084.38 148.253 L2084.38 144.943 L2087.51 144.943 L2087.51 137.582 L2091.79 137.582 Z" fill="#000000" fill-rule="evenodd" fill-opacity="1" /><path clip-path="url(#clip370)" d="M 0 0 M2105.59 149.341 L2135.26 149.341 L2135.26 153.23 L2105.59 153.23 L2105.59 149.341 M2105.59 158.785 L2135.26 158.785 L2135.26 162.721 L2105.59 162.721 L2105.59 158.785 Z" fill="#000000" fill-rule="evenodd" fill-opacity="1" /><path clip-path="url(#clip370)" d="M 0 0 M2143.94 137.582 L2143.94 144.943 L2152.72 144.943 L2152.72 148.253 L2143.94 148.253 L2143.94 162.327 Q2143.94 165.498 2144.8 166.401 Q2145.68 167.304 2148.34 167.304 L2152.72 167.304 L2152.72 170.869 L2148.34 170.869 Q2143.41 170.869 2141.53 169.04 Q2139.66 167.188 2139.66 162.327 L2139.66 148.253 L2136.53 148.253 L2136.53 144.943 L2139.66 144.943 L2139.66 137.582 L2143.94 137.582 Z" fill="#000000" fill-rule="evenodd" fill-opacity="1" /><path clip-path="url(#clip370)" d="M 0 0 M2158.6 166.933 L2166.23 166.933 L2166.23 140.568 L2157.92 142.235 L2157.92 137.975 L2166.19 136.309 L2170.86 136.309 L2170.86 166.933 L2178.5 166.933 L2178.5 170.869 L2158.6 170.869 L2158.6 166.933 Z" fill="#000000" fill-rule="evenodd" fill-opacity="1" /><polyline clip-path="url(#clip370)" style="stroke:#e26f46; stroke-width:4; stroke-opacity:1; fill:none" points="
  1832.18,214.069 1971.03,214.069 
  "/>
<path clip-path="url(#clip370)" d="M 0 0 M1998.46 227.46 L1998.46 241.21 L1994.17 241.21 L1994.17 205.423 L1998.46 205.423 L1998.46 209.358 Q1999.8 207.043 2001.84 205.932 Q2003.9 204.798 2006.74 204.798 Q2011.47 204.798 2014.41 208.548 Q2017.37 212.298 2017.37 218.409 Q2017.37 224.52 2014.41 228.27 Q2011.47 232.02 2006.74 232.02 Q2003.9 232.02 2001.84 230.909 Q1999.8 229.775 1998.46 227.46 M2012.95 218.409 Q2012.95 213.71 2011 211.048 Q2009.08 208.363 2005.7 208.363 Q2002.32 208.363 2000.38 211.048 Q1998.46 213.71 1998.46 218.409 Q1998.46 223.108 2000.38 225.793 Q2002.32 228.455 2005.7 228.455 Q2009.08 228.455 2011 225.793 Q2012.95 223.108 2012.95 218.409 Z" fill="#000000" fill-rule="evenodd" fill-opacity="1" /><path clip-path="url(#clip370)" d="M 0 0 M2041.54 239.219 L2041.54 242.529 L2016.91 242.529 L2016.91 239.219 L2041.54 239.219 Z" fill="#000000" fill-rule="evenodd" fill-opacity="1" /><path clip-path="url(#clip370)" d="M 0 0 M2063.06 209.358 L2063.06 195.33 L2067.32 195.33 L2067.32 231.349 L2063.06 231.349 L2063.06 227.46 Q2061.72 229.775 2059.66 230.909 Q2057.62 232.02 2054.75 232.02 Q2050.05 232.02 2047.09 228.27 Q2044.15 224.52 2044.15 218.409 Q2044.15 212.298 2047.09 208.548 Q2050.05 204.798 2054.75 204.798 Q2057.62 204.798 2059.66 205.932 Q2061.72 207.043 2063.06 209.358 M2048.55 218.409 Q2048.55 223.108 2050.47 225.793 Q2052.42 228.455 2055.79 228.455 Q2059.17 228.455 2061.12 225.793 Q2063.06 223.108 2063.06 218.409 Q2063.06 213.71 2061.12 211.048 Q2059.17 208.363 2055.79 208.363 Q2052.42 208.363 2050.47 211.048 Q2048.55 213.71 2048.55 218.409 Z" fill="#000000" fill-rule="evenodd" fill-opacity="1" /><path clip-path="url(#clip370)" d="M 0 0 M2071.79 205.423 L2076.05 205.423 L2076.05 231.349 L2071.79 231.349 L2071.79 205.423 M2071.79 195.33 L2076.05 195.33 L2076.05 200.724 L2071.79 200.724 L2071.79 195.33 Z" fill="#000000" fill-rule="evenodd" fill-opacity="1" /><path clip-path="url(#clip370)" d="M 0 0 M2092.3 218.316 Q2087.14 218.316 2085.15 219.497 Q2083.16 220.677 2083.16 223.525 Q2083.16 225.793 2084.64 227.136 Q2086.14 228.455 2088.71 228.455 Q2092.25 228.455 2094.38 225.955 Q2096.54 223.432 2096.54 219.265 L2096.54 218.316 L2092.3 218.316 M2100.79 216.557 L2100.79 231.349 L2096.54 231.349 L2096.54 227.413 Q2095.08 229.775 2092.9 230.909 Q2090.72 232.02 2087.58 232.02 Q2083.6 232.02 2081.23 229.798 Q2078.9 227.552 2078.9 223.802 Q2078.9 219.427 2081.81 217.205 Q2084.75 214.983 2090.56 214.983 L2096.54 214.983 L2096.54 214.566 Q2096.54 211.627 2094.59 210.029 Q2092.67 208.409 2089.17 208.409 Q2086.95 208.409 2084.85 208.941 Q2082.74 209.474 2080.79 210.539 L2080.79 206.603 Q2083.13 205.701 2085.33 205.261 Q2087.53 204.798 2089.61 204.798 Q2095.24 204.798 2098.02 207.714 Q2100.79 210.631 2100.79 216.557 Z" fill="#000000" fill-rule="evenodd" fill-opacity="1" /><path clip-path="url(#clip370)" d="M 0 0 M2122.32 218.085 Q2122.32 213.455 2120.4 210.909 Q2118.5 208.363 2115.05 208.363 Q2111.63 208.363 2109.71 210.909 Q2107.81 213.455 2107.81 218.085 Q2107.81 222.691 2109.71 225.238 Q2111.63 227.784 2115.05 227.784 Q2118.5 227.784 2120.4 225.238 Q2122.32 222.691 2122.32 218.085 M2126.58 228.131 Q2126.58 234.751 2123.64 237.969 Q2120.7 241.21 2114.64 241.21 Q2112.39 241.21 2110.4 240.862 Q2108.41 240.538 2106.54 239.844 L2106.54 235.7 Q2108.41 236.719 2110.24 237.205 Q2112.07 237.691 2113.97 237.691 Q2118.16 237.691 2120.24 235.492 Q2122.32 233.316 2122.32 228.895 L2122.32 226.788 Q2121 229.08 2118.94 230.214 Q2116.88 231.349 2114.01 231.349 Q2109.24 231.349 2106.33 227.714 Q2103.41 224.08 2103.41 218.085 Q2103.41 212.066 2106.33 208.432 Q2109.24 204.798 2114.01 204.798 Q2116.88 204.798 2118.94 205.932 Q2121 207.066 2122.32 209.358 L2122.32 205.423 L2126.58 205.423 L2126.58 228.131 Z" fill="#000000" fill-rule="evenodd" fill-opacity="1" /><path clip-path="url(#clip370)" d="M 0 0 M2150.33 198.062 L2150.33 205.423 L2159.1 205.423 L2159.1 208.733 L2150.33 208.733 L2150.33 222.807 Q2150.33 225.978 2151.19 226.881 Q2152.07 227.784 2154.73 227.784 L2159.1 227.784 L2159.1 231.349 L2154.73 231.349 Q2149.8 231.349 2147.92 229.52 Q2146.05 227.668 2146.05 222.807 L2146.05 208.733 L2142.92 208.733 L2142.92 205.423 L2146.05 205.423 L2146.05 198.062 L2150.33 198.062 Z" fill="#000000" fill-rule="evenodd" fill-opacity="1" /><path clip-path="url(#clip370)" d="M 0 0 M2164.13 209.821 L2193.8 209.821 L2193.8 213.71 L2164.13 213.71 L2164.13 209.821 M2164.13 219.265 L2193.8 219.265 L2193.8 223.201 L2164.13 223.201 L2164.13 219.265 Z" fill="#000000" fill-rule="evenodd" fill-opacity="1" /><path clip-path="url(#clip370)" d="M 0 0 M2202.48 198.062 L2202.48 205.423 L2211.26 205.423 L2211.26 208.733 L2202.48 208.733 L2202.48 222.807 Q2202.48 225.978 2203.34 226.881 Q2204.22 227.784 2206.88 227.784 L2211.26 227.784 L2211.26 231.349 L2206.88 231.349 Q2201.95 231.349 2200.08 229.52 Q2198.2 227.668 2198.2 222.807 L2198.2 208.733 L2195.08 208.733 L2195.08 205.423 L2198.2 205.423 L2198.2 198.062 L2202.48 198.062 Z" fill="#000000" fill-rule="evenodd" fill-opacity="1" /><path clip-path="url(#clip370)" d="M 0 0 M2217.14 227.413 L2224.78 227.413 L2224.78 201.048 L2216.47 202.715 L2216.47 198.455 L2224.73 196.789 L2229.4 196.789 L2229.4 227.413 L2237.04 227.413 L2237.04 231.349 L2217.14 231.349 L2217.14 227.413 Z" fill="#000000" fill-rule="evenodd" fill-opacity="1" /><polyline clip-path="url(#clip370)" style="stroke:#3da44d; stroke-width:4; stroke-opacity:1; fill:none" points="
  1832.18,274.549 1971.03,274.549 
  "/>
<path clip-path="url(#clip370)" d="M 0 0 M1998.46 287.94 L1998.46 301.69 L1994.17 301.69 L1994.17 265.903 L1998.46 265.903 L1998.46 269.838 Q1999.8 267.523 2001.84 266.412 Q2003.9 265.278 2006.74 265.278 Q2011.47 265.278 2014.41 269.028 Q2017.37 272.778 2017.37 278.889 Q2017.37 285 2014.41 288.75 Q2011.47 292.5 2006.74 292.5 Q2003.9 292.5 2001.84 291.389 Q1999.8 290.255 1998.46 287.94 M2012.95 278.889 Q2012.95 274.19 2011 271.528 Q2009.08 268.843 2005.7 268.843 Q2002.32 268.843 2000.38 271.528 Q1998.46 274.19 1998.46 278.889 Q1998.46 283.588 2000.38 286.273 Q2002.32 288.935 2005.7 288.935 Q2009.08 288.935 2011 286.273 Q2012.95 283.588 2012.95 278.889 Z" fill="#000000" fill-rule="evenodd" fill-opacity="1" /><path clip-path="url(#clip370)" d="M 0 0 M2041.54 299.699 L2041.54 303.009 L2016.91 303.009 L2016.91 299.699 L2041.54 299.699 Z" fill="#000000" fill-rule="evenodd" fill-opacity="1" /><path clip-path="url(#clip370)" d="M 0 0 M2067.55 265.903 L2058.18 278.519 L2068.04 291.829 L2063.02 291.829 L2055.47 281.643 L2047.92 291.829 L2042.9 291.829 L2052.97 278.264 L2043.76 265.903 L2048.78 265.903 L2055.66 275.139 L2062.53 265.903 L2067.55 265.903 Z" fill="#000000" fill-rule="evenodd" fill-opacity="1" /><path clip-path="url(#clip370)" d="M 0 0 M2091.79 258.542 L2091.79 265.903 L2100.56 265.903 L2100.56 269.213 L2091.79 269.213 L2091.79 283.287 Q2091.79 286.458 2092.65 287.361 Q2093.53 288.264 2096.19 288.264 L2100.56 288.264 L2100.56 291.829 L2096.19 291.829 Q2091.26 291.829 2089.38 290 Q2087.51 288.148 2087.51 283.287 L2087.51 269.213 L2084.38 269.213 L2084.38 265.903 L2087.51 265.903 L2087.51 258.542 L2091.79 258.542 Z" fill="#000000" fill-rule="evenodd" fill-opacity="1" /><path clip-path="url(#clip370)" d="M 0 0 M2105.59 270.301 L2135.26 270.301 L2135.26 274.19 L2105.59 274.19 L2105.59 270.301 M2105.59 279.745 L2135.26 279.745 L2135.26 283.681 L2105.59 283.681 L2105.59 279.745 Z" fill="#000000" fill-rule="evenodd" fill-opacity="1" /><path clip-path="url(#clip370)" d="M 0 0 M2143.94 258.542 L2143.94 265.903 L2152.72 265.903 L2152.72 269.213 L2143.94 269.213 L2143.94 283.287 Q2143.94 286.458 2144.8 287.361 Q2145.68 288.264 2148.34 288.264 L2152.72 288.264 L2152.72 291.829 L2148.34 291.829 Q2143.41 291.829 2141.53 290 Q2139.66 288.148 2139.66 283.287 L2139.66 269.213 L2136.53 269.213 L2136.53 265.903 L2139.66 265.903 L2139.66 258.542 L2143.94 258.542 Z" fill="#000000" fill-rule="evenodd" fill-opacity="1" /><path clip-path="url(#clip370)" d="M 0 0 M2158.6 287.893 L2166.23 287.893 L2166.23 261.528 L2157.92 263.195 L2157.92 258.935 L2166.19 257.269 L2170.86 257.269 L2170.86 287.893 L2178.5 287.893 L2178.5 291.829 L2158.6 291.829 L2158.6 287.893 Z" fill="#000000" fill-rule="evenodd" fill-opacity="1" /><polyline clip-path="url(#clip370)" style="stroke:#c271d2; stroke-width:4; stroke-opacity:1; fill:none" points="
  1832.18,335.029 1971.03,335.029 
  "/>
<path clip-path="url(#clip370)" d="M 0 0 M1998.46 348.42 L1998.46 362.17 L1994.17 362.17 L1994.17 326.383 L1998.46 326.383 L1998.46 330.318 Q1999.8 328.003 2001.84 326.892 Q2003.9 325.758 2006.74 325.758 Q2011.47 325.758 2014.41 329.508 Q2017.37 333.258 2017.37 339.369 Q2017.37 345.48 2014.41 349.23 Q2011.47 352.98 2006.74 352.98 Q2003.9 352.98 2001.84 351.869 Q1999.8 350.735 1998.46 348.42 M2012.95 339.369 Q2012.95 334.67 2011 332.008 Q2009.08 329.323 2005.7 329.323 Q2002.32 329.323 2000.38 332.008 Q1998.46 334.67 1998.46 339.369 Q1998.46 344.068 2000.38 346.753 Q2002.32 349.415 2005.7 349.415 Q2009.08 349.415 2011 346.753 Q2012.95 344.068 2012.95 339.369 Z" fill="#000000" fill-rule="evenodd" fill-opacity="1" /><path clip-path="url(#clip370)" d="M 0 0 M2041.54 360.179 L2041.54 363.489 L2016.91 363.489 L2016.91 360.179 L2041.54 360.179 Z" fill="#000000" fill-rule="evenodd" fill-opacity="1" /><path clip-path="url(#clip370)" d="M 0 0 M2063.06 330.318 L2063.06 316.29 L2067.32 316.29 L2067.32 352.309 L2063.06 352.309 L2063.06 348.42 Q2061.72 350.735 2059.66 351.869 Q2057.62 352.98 2054.75 352.98 Q2050.05 352.98 2047.09 349.23 Q2044.15 345.48 2044.15 339.369 Q2044.15 333.258 2047.09 329.508 Q2050.05 325.758 2054.75 325.758 Q2057.62 325.758 2059.66 326.892 Q2061.72 328.003 2063.06 330.318 M2048.55 339.369 Q2048.55 344.068 2050.47 346.753 Q2052.42 349.415 2055.79 349.415 Q2059.17 349.415 2061.12 346.753 Q2063.06 344.068 2063.06 339.369 Q2063.06 334.67 2061.12 332.008 Q2059.17 329.323 2055.79 329.323 Q2052.42 329.323 2050.47 332.008 Q2048.55 334.67 2048.55 339.369 Z" fill="#000000" fill-rule="evenodd" fill-opacity="1" /><path clip-path="url(#clip370)" d="M 0 0 M2071.79 326.383 L2076.05 326.383 L2076.05 352.309 L2071.79 352.309 L2071.79 326.383 M2071.79 316.29 L2076.05 316.29 L2076.05 321.684 L2071.79 321.684 L2071.79 316.29 Z" fill="#000000" fill-rule="evenodd" fill-opacity="1" /><path clip-path="url(#clip370)" d="M 0 0 M2092.3 339.276 Q2087.14 339.276 2085.15 340.457 Q2083.16 341.637 2083.16 344.485 Q2083.16 346.753 2084.64 348.096 Q2086.14 349.415 2088.71 349.415 Q2092.25 349.415 2094.38 346.915 Q2096.54 344.392 2096.54 340.225 L2096.54 339.276 L2092.3 339.276 M2100.79 337.517 L2100.79 352.309 L2096.54 352.309 L2096.54 348.373 Q2095.08 350.735 2092.9 351.869 Q2090.72 352.98 2087.58 352.98 Q2083.6 352.98 2081.23 350.758 Q2078.9 348.512 2078.9 344.762 Q2078.9 340.387 2081.81 338.165 Q2084.75 335.943 2090.56 335.943 L2096.54 335.943 L2096.54 335.526 Q2096.54 332.587 2094.59 330.989 Q2092.67 329.369 2089.17 329.369 Q2086.95 329.369 2084.85 329.901 Q2082.74 330.434 2080.79 331.499 L2080.79 327.563 Q2083.13 326.661 2085.33 326.221 Q2087.53 325.758 2089.61 325.758 Q2095.24 325.758 2098.02 328.674 Q2100.79 331.591 2100.79 337.517 Z" fill="#000000" fill-rule="evenodd" fill-opacity="1" /><path clip-path="url(#clip370)" d="M 0 0 M2122.32 339.045 Q2122.32 334.415 2120.4 331.869 Q2118.5 329.323 2115.05 329.323 Q2111.63 329.323 2109.71 331.869 Q2107.81 334.415 2107.81 339.045 Q2107.81 343.651 2109.71 346.198 Q2111.63 348.744 2115.05 348.744 Q2118.5 348.744 2120.4 346.198 Q2122.32 343.651 2122.32 339.045 M2126.58 349.091 Q2126.58 355.711 2123.64 358.929 Q2120.7 362.17 2114.64 362.17 Q2112.39 362.17 2110.4 361.822 Q2108.41 361.498 2106.54 360.804 L2106.54 356.66 Q2108.41 357.679 2110.24 358.165 Q2112.07 358.651 2113.97 358.651 Q2118.16 358.651 2120.24 356.452 Q2122.32 354.276 2122.32 349.855 L2122.32 347.748 Q2121 350.04 2118.94 351.174 Q2116.88 352.309 2114.01 352.309 Q2109.24 352.309 2106.33 348.674 Q2103.41 345.04 2103.41 339.045 Q2103.41 333.026 2106.33 329.392 Q2109.24 325.758 2114.01 325.758 Q2116.88 325.758 2118.94 326.892 Q2121 328.026 2122.32 330.318 L2122.32 326.383 L2126.58 326.383 L2126.58 349.091 Z" fill="#000000" fill-rule="evenodd" fill-opacity="1" /><path clip-path="url(#clip370)" d="M 0 0 M2150.33 319.022 L2150.33 326.383 L2159.1 326.383 L2159.1 329.693 L2150.33 329.693 L2150.33 343.767 Q2150.33 346.938 2151.19 347.841 Q2152.07 348.744 2154.73 348.744 L2159.1 348.744 L2159.1 352.309 L2154.73 352.309 Q2149.8 352.309 2147.92 350.48 Q2146.05 348.628 2146.05 343.767 L2146.05 329.693 L2142.92 329.693 L2142.92 326.383 L2146.05 326.383 L2146.05 319.022 L2150.33 319.022 Z" fill="#000000" fill-rule="evenodd" fill-opacity="1" /><path clip-path="url(#clip370)" d="M 0 0 M2164.13 330.781 L2193.8 330.781 L2193.8 334.67 L2164.13 334.67 L2164.13 330.781 M2164.13 340.225 L2193.8 340.225 L2193.8 344.161 L2164.13 344.161 L2164.13 340.225 Z" fill="#000000" fill-rule="evenodd" fill-opacity="1" /><path clip-path="url(#clip370)" d="M 0 0 M2202.48 319.022 L2202.48 326.383 L2211.26 326.383 L2211.26 329.693 L2202.48 329.693 L2202.48 343.767 Q2202.48 346.938 2203.34 347.841 Q2204.22 348.744 2206.88 348.744 L2211.26 348.744 L2211.26 352.309 L2206.88 352.309 Q2201.95 352.309 2200.08 350.48 Q2198.2 348.628 2198.2 343.767 L2198.2 329.693 L2195.08 329.693 L2195.08 326.383 L2198.2 326.383 L2198.2 319.022 L2202.48 319.022 Z" fill="#000000" fill-rule="evenodd" fill-opacity="1" /><path clip-path="url(#clip370)" d="M 0 0 M2217.14 348.373 L2224.78 348.373 L2224.78 322.008 L2216.47 323.675 L2216.47 319.415 L2224.73 317.749 L2229.4 317.749 L2229.4 348.373 L2237.04 348.373 L2237.04 352.309 L2217.14 352.309 L2217.14 348.373 Z" fill="#000000" fill-rule="evenodd" fill-opacity="1" /></svg>
