<?xml version="1.0" encoding="utf-8"?>
<svg xmlns="http://www.w3.org/2000/svg" xmlns:xlink="http://www.w3.org/1999/xlink" width="600" height="400" viewBox="0 0 2400 1600">
<defs>
  <clipPath id="clip330">
    <rect x="0" y="0" width="2400" height="1600"/>
  </clipPath>
</defs>
<path clip-path="url(#clip330)" d="
M0 1600 L2400 1600 L2400 0 L0 0  Z
  " fill="#ffffff" fill-rule="evenodd" fill-opacity="1"/>
<defs>
  <clipPath id="clip331">
    <rect x="480" y="0" width="1681" height="1600"/>
  </clipPath>
</defs>
<path clip-path="url(#clip330)" d="
M211.602 1423.18 L2352.76 1423.18 L2352.76 47.2441 L211.602 47.2441  Z
  " fill="#ffffff" fill-rule="evenodd" fill-opacity="1"/>
<defs>
  <clipPath id="clip332">
    <rect x="211" y="47" width="2142" height="1377"/>
  </clipPath>
</defs>
<polyline clip-path="url(#clip332)" style="stroke:#000000; stroke-width:2; stroke-opacity:0.1; fill:none" points="
  272.201,1423.18 272.201,47.2441 
  "/>
<polyline clip-path="url(#clip332)" style="stroke:#000000; stroke-width:2; stroke-opacity:0.1; fill:none" points="
  777.19,1423.18 777.19,47.2441 
  "/>
<polyline clip-path="url(#clip332)" style="stroke:#000000; stroke-width:2; stroke-opacity:0.1; fill:none" points="
  1282.18,1423.18 1282.18,47.2441 
  "/>
<polyline clip-path="url(#clip332)" style="stroke:#000000; stroke-width:2; stroke-opacity:0.1; fill:none" points="
  1787.17,1423.18 1787.17,47.2441 
  "/>
<polyline clip-path="url(#clip332)" style="stroke:#000000; stroke-width:2; stroke-opacity:0.1; fill:none" points="
  2292.16,1423.18 2292.16,47.2441 
  "/>
<polyline clip-path="url(#clip330)" style="stroke:#000000; stroke-width:4; stroke-opacity:1; fill:none" points="
  211.602,1423.18 2352.76,1423.18 
  "/>
<polyline clip-path="url(#clip330)" style="stroke:#000000; stroke-width:4; stroke-opacity:1; fill:none" points="
  272.201,1423.18 272.201,1406.67 
  "/>
<polyline clip-path="url(#clip330)" style="stroke:#000000; stroke-width:4; stroke-opacity:1; fill:none" points="
  777.19,1423.18 777.19,1406.67 
  "/>
<polyline clip-path="url(#clip330)" style="stroke:#000000; stroke-width:4; stroke-opacity:1; fill:none" points="
  1282.18,1423.18 1282.18,1406.67 
  "/>
<polyline clip-path="url(#clip330)" style="stroke:#000000; stroke-width:4; stroke-opacity:1; fill:none" points="
  1787.17,1423.18 1787.17,1406.67 
  "/>
<polyline clip-path="url(#clip330)" style="stroke:#000000; stroke-width:4; stroke-opacity:1; fill:none" points="
  2292.16,1423.18 2292.16,1406.67 
  "/>
<path clip-path="url(#clip330)" d="M 0 0 M240.211 1452.37 Q236.599 1452.37 234.771 1455.94 Q232.965 1459.48 232.965 1466.61 Q232.965 1473.71 234.771 1477.28 Q236.599 1480.82 240.211 1480.82 Q243.845 1480.82 245.65 1477.28 Q247.479 1473.71 247.479 1466.61 Q247.479 1459.48 245.65 1455.94 Q243.845 1452.37 240.211 1452.37 M240.211 1448.67 Q246.021 1448.67 249.076 1453.27 Q252.155 1457.86 252.155 1466.61 Q252.155 1475.33 249.076 1479.94 Q246.021 1484.52 240.211 1484.52 Q234.4 1484.52 231.322 1479.94 Q228.266 1475.33 228.266 1466.61 Q228.266 1457.86 231.322 1453.27 Q234.4 1448.67 240.211 1448.67 Z" fill="#000000" fill-rule="evenodd" fill-opacity="1" /><path clip-path="url(#clip330)" d="M 0 0 M257.224 1477.97 L262.109 1477.97 L262.109 1483.85 L257.224 1483.85 L257.224 1477.97 Z" fill="#000000" fill-rule="evenodd" fill-opacity="1" /><path clip-path="url(#clip330)" d="M 0 0 M277.178 1452.37 Q273.567 1452.37 271.738 1455.94 Q269.933 1459.48 269.933 1466.61 Q269.933 1473.71 271.738 1477.28 Q273.567 1480.82 277.178 1480.82 Q280.812 1480.82 282.618 1477.28 Q284.446 1473.71 284.446 1466.61 Q284.446 1459.48 282.618 1455.94 Q280.812 1452.37 277.178 1452.37 M277.178 1448.67 Q282.988 1448.67 286.044 1453.27 Q289.122 1457.86 289.122 1466.61 Q289.122 1475.33 286.044 1479.94 Q282.988 1484.52 277.178 1484.52 Q271.368 1484.52 268.289 1479.94 Q265.234 1475.33 265.234 1466.61 Q265.234 1457.86 268.289 1453.27 Q271.368 1448.67 277.178 1448.67 Z" fill="#000000" fill-rule="evenodd" fill-opacity="1" /><path clip-path="url(#clip330)" d="M 0 0 M304.192 1452.37 Q300.581 1452.37 298.752 1455.94 Q296.946 1459.48 296.946 1466.61 Q296.946 1473.71 298.752 1477.28 Q300.581 1480.82 304.192 1480.82 Q307.826 1480.82 309.631 1477.28 Q311.46 1473.71 311.46 1466.61 Q311.46 1459.48 309.631 1455.94 Q307.826 1452.37 304.192 1452.37 M304.192 1448.67 Q310.002 1448.67 313.057 1453.27 Q316.136 1457.86 316.136 1466.61 Q316.136 1475.33 313.057 1479.94 Q310.002 1484.52 304.192 1484.52 Q298.382 1484.52 295.303 1479.94 Q292.247 1475.33 292.247 1466.61 Q292.247 1457.86 295.303 1453.27 Q298.382 1448.67 304.192 1448.67 Z" fill="#000000" fill-rule="evenodd" fill-opacity="1" /><path clip-path="url(#clip330)" d="M 0 0 M746.496 1452.37 Q742.885 1452.37 741.056 1455.94 Q739.251 1459.48 739.251 1466.61 Q739.251 1473.71 741.056 1477.28 Q742.885 1480.82 746.496 1480.82 Q750.13 1480.82 751.936 1477.28 Q753.764 1473.71 753.764 1466.61 Q753.764 1459.48 751.936 1455.94 Q750.13 1452.37 746.496 1452.37 M746.496 1448.67 Q752.306 1448.67 755.362 1453.27 Q758.44 1457.86 758.44 1466.61 Q758.44 1475.33 755.362 1479.94 Q752.306 1484.52 746.496 1484.52 Q740.686 1484.52 737.607 1479.94 Q734.551 1475.33 734.551 1466.61 Q734.551 1457.86 737.607 1453.27 Q740.686 1448.67 746.496 1448.67 Z" fill="#000000" fill-rule="evenodd" fill-opacity="1" /><path clip-path="url(#clip330)" d="M 0 0 M763.51 1477.97 L768.394 1477.97 L768.394 1483.85 L763.51 1483.85 L763.51 1477.97 Z" fill="#000000" fill-rule="evenodd" fill-opacity="1" /><path clip-path="url(#clip330)" d="M 0 0 M777.491 1479.92 L793.81 1479.92 L793.81 1483.85 L771.866 1483.85 L771.866 1479.92 Q774.528 1477.16 779.111 1472.53 Q783.718 1467.88 784.898 1466.54 Q787.144 1464.01 788.023 1462.28 Q788.926 1460.52 788.926 1458.83 Q788.926 1456.07 786.982 1454.34 Q785.06 1452.6 781.959 1452.6 Q779.76 1452.6 777.306 1453.37 Q774.875 1454.13 772.098 1455.68 L772.098 1450.96 Q774.922 1449.82 777.375 1449.25 Q779.829 1448.67 781.866 1448.67 Q787.236 1448.67 790.431 1451.35 Q793.625 1454.04 793.625 1458.53 Q793.625 1460.66 792.815 1462.58 Q792.028 1464.48 789.922 1467.07 Q789.343 1467.74 786.241 1470.96 Q783.139 1474.15 777.491 1479.92 Z" fill="#000000" fill-rule="evenodd" fill-opacity="1" /><path clip-path="url(#clip330)" d="M 0 0 M798.926 1449.29 L817.283 1449.29 L817.283 1453.23 L803.209 1453.23 L803.209 1461.7 Q804.227 1461.35 805.246 1461.19 Q806.264 1461 807.283 1461 Q813.07 1461 816.449 1464.18 Q819.829 1467.35 819.829 1472.76 Q819.829 1478.34 816.357 1481.44 Q812.884 1484.52 806.565 1484.52 Q804.389 1484.52 802.121 1484.15 Q799.875 1483.78 797.468 1483.04 L797.468 1478.34 Q799.551 1479.48 801.773 1480.03 Q803.996 1480.59 806.472 1480.59 Q810.477 1480.59 812.815 1478.48 Q815.153 1476.38 815.153 1472.76 Q815.153 1469.15 812.815 1467.05 Q810.477 1464.94 806.472 1464.94 Q804.597 1464.94 802.722 1465.36 Q800.871 1465.77 798.926 1466.65 L798.926 1449.29 Z" fill="#000000" fill-rule="evenodd" fill-opacity="1" /><path clip-path="url(#clip330)" d="M 0 0 M1250.69 1452.37 Q1247.08 1452.37 1245.25 1455.94 Q1243.44 1459.48 1243.44 1466.61 Q1243.44 1473.71 1245.25 1477.28 Q1247.08 1480.82 1250.69 1480.82 Q1254.32 1480.82 1256.13 1477.28 Q1257.95 1473.71 1257.95 1466.61 Q1257.95 1459.48 1256.13 1455.94 Q1254.32 1452.37 1250.69 1452.37 M1250.69 1448.67 Q1256.5 1448.67 1259.55 1453.27 Q1262.63 1457.86 1262.63 1466.61 Q1262.63 1475.33 1259.55 1479.94 Q1256.5 1484.52 1250.69 1484.52 Q1244.88 1484.52 1241.8 1479.94 Q1238.74 1475.33 1238.74 1466.61 Q1238.74 1457.86 1241.8 1453.27 Q1244.88 1448.67 1250.69 1448.67 Z" fill="#000000" fill-rule="evenodd" fill-opacity="1" /><path clip-path="url(#clip330)" d="M 0 0 M1267.7 1477.97 L1272.58 1477.97 L1272.58 1483.85 L1267.7 1483.85 L1267.7 1477.97 Z" fill="#000000" fill-rule="evenodd" fill-opacity="1" /><path clip-path="url(#clip330)" d="M 0 0 M1277.7 1449.29 L1296.06 1449.29 L1296.06 1453.23 L1281.98 1453.23 L1281.98 1461.7 Q1283 1461.35 1284.02 1461.19 Q1285.04 1461 1286.06 1461 Q1291.84 1461 1295.22 1464.18 Q1298.6 1467.35 1298.6 1472.76 Q1298.6 1478.34 1295.13 1481.44 Q1291.66 1484.52 1285.34 1484.52 Q1283.16 1484.52 1280.89 1484.15 Q1278.65 1483.78 1276.24 1483.04 L1276.24 1478.34 Q1278.33 1479.48 1280.55 1480.03 Q1282.77 1480.59 1285.25 1480.59 Q1289.25 1480.59 1291.59 1478.48 Q1293.93 1476.38 1293.93 1472.76 Q1293.93 1469.15 1291.59 1467.05 Q1289.25 1464.94 1285.25 1464.94 Q1283.37 1464.94 1281.5 1465.36 Q1279.64 1465.77 1277.7 1466.65 L1277.7 1449.29 Z" fill="#000000" fill-rule="evenodd" fill-opacity="1" /><path clip-path="url(#clip330)" d="M 0 0 M1313.67 1452.37 Q1310.06 1452.37 1308.23 1455.94 Q1306.43 1459.48 1306.43 1466.61 Q1306.43 1473.71 1308.23 1477.28 Q1310.06 1480.82 1313.67 1480.82 Q1317.31 1480.82 1319.11 1477.28 Q1320.94 1473.71 1320.94 1466.61 Q1320.94 1459.48 1319.11 1455.94 Q1317.31 1452.37 1313.67 1452.37 M1313.67 1448.67 Q1319.48 1448.67 1322.54 1453.27 Q1325.62 1457.86 1325.62 1466.61 Q1325.62 1475.33 1322.54 1479.94 Q1319.48 1484.52 1313.67 1484.52 Q1307.86 1484.52 1304.78 1479.94 Q1301.73 1475.33 1301.73 1466.61 Q1301.73 1457.86 1304.78 1453.27 Q1307.86 1448.67 1313.67 1448.67 Z" fill="#000000" fill-rule="evenodd" fill-opacity="1" /><path clip-path="url(#clip330)" d="M 0 0 M1756.13 1452.37 Q1752.52 1452.37 1750.69 1455.94 Q1748.88 1459.48 1748.88 1466.61 Q1748.88 1473.71 1750.69 1477.28 Q1752.52 1480.82 1756.13 1480.82 Q1759.76 1480.82 1761.57 1477.28 Q1763.4 1473.71 1763.4 1466.61 Q1763.4 1459.48 1761.57 1455.94 Q1759.76 1452.37 1756.13 1452.37 M1756.13 1448.67 Q1761.94 1448.67 1764.99 1453.27 Q1768.07 1457.86 1768.07 1466.61 Q1768.07 1475.33 1764.99 1479.94 Q1761.94 1484.52 1756.13 1484.52 Q1750.32 1484.52 1747.24 1479.94 Q1744.18 1475.33 1744.18 1466.61 Q1744.18 1457.86 1747.24 1453.27 Q1750.32 1448.67 1756.13 1448.67 Z" fill="#000000" fill-rule="evenodd" fill-opacity="1" /><path clip-path="url(#clip330)" d="M 0 0 M1773.14 1477.97 L1778.02 1477.97 L1778.02 1483.85 L1773.14 1483.85 L1773.14 1477.97 Z" fill="#000000" fill-rule="evenodd" fill-opacity="1" /><path clip-path="url(#clip330)" d="M 0 0 M1781.91 1449.29 L1804.14 1449.29 L1804.14 1451.28 L1791.59 1483.85 L1786.71 1483.85 L1798.51 1453.23 L1781.91 1453.23 L1781.91 1449.29 Z" fill="#000000" fill-rule="evenodd" fill-opacity="1" /><path clip-path="url(#clip330)" d="M 0 0 M1809.25 1449.29 L1827.61 1449.29 L1827.61 1453.23 L1813.53 1453.23 L1813.53 1461.7 Q1814.55 1461.35 1815.57 1461.19 Q1816.59 1461 1817.61 1461 Q1823.39 1461 1826.77 1464.18 Q1830.15 1467.35 1830.15 1472.76 Q1830.15 1478.34 1826.68 1481.44 Q1823.21 1484.52 1816.89 1484.52 Q1814.71 1484.52 1812.45 1484.15 Q1810.2 1483.78 1807.79 1483.04 L1807.79 1478.34 Q1809.88 1479.48 1812.1 1480.03 Q1814.32 1480.59 1816.8 1480.59 Q1820.8 1480.59 1823.14 1478.48 Q1825.48 1476.38 1825.48 1472.76 Q1825.48 1469.15 1823.14 1467.05 Q1820.8 1464.94 1816.8 1464.94 Q1814.92 1464.94 1813.05 1465.36 Q1811.2 1465.77 1809.25 1466.65 L1809.25 1449.29 Z" fill="#000000" fill-rule="evenodd" fill-opacity="1" /><path clip-path="url(#clip330)" d="M 0 0 M2250.55 1479.92 L2258.19 1479.92 L2258.19 1453.55 L2249.88 1455.22 L2249.88 1450.96 L2258.14 1449.29 L2262.82 1449.29 L2262.82 1479.92 L2270.46 1479.92 L2270.46 1483.85 L2250.55 1483.85 L2250.55 1479.92 Z" fill="#000000" fill-rule="evenodd" fill-opacity="1" /><path clip-path="url(#clip330)" d="M 0 0 M2275.53 1477.97 L2280.41 1477.97 L2280.41 1483.85 L2275.53 1483.85 L2275.53 1477.97 Z" fill="#000000" fill-rule="evenodd" fill-opacity="1" /><path clip-path="url(#clip330)" d="M 0 0 M2295.48 1452.37 Q2291.87 1452.37 2290.04 1455.94 Q2288.23 1459.48 2288.23 1466.61 Q2288.23 1473.71 2290.04 1477.28 Q2291.87 1480.82 2295.48 1480.82 Q2299.11 1480.82 2300.92 1477.28 Q2302.75 1473.71 2302.75 1466.61 Q2302.75 1459.48 2300.92 1455.94 Q2299.11 1452.37 2295.48 1452.37 M2295.48 1448.67 Q2301.29 1448.67 2304.34 1453.27 Q2307.42 1457.86 2307.42 1466.61 Q2307.42 1475.33 2304.34 1479.94 Q2301.29 1484.52 2295.48 1484.52 Q2289.67 1484.52 2286.59 1479.94 Q2283.53 1475.33 2283.53 1466.61 Q2283.53 1457.86 2286.59 1453.27 Q2289.67 1448.67 2295.48 1448.67 Z" fill="#000000" fill-rule="evenodd" fill-opacity="1" /><path clip-path="url(#clip330)" d="M 0 0 M2322.49 1452.37 Q2318.88 1452.37 2317.05 1455.94 Q2315.25 1459.48 2315.25 1466.61 Q2315.25 1473.71 2317.05 1477.28 Q2318.88 1480.82 2322.49 1480.82 Q2326.13 1480.82 2327.93 1477.28 Q2329.76 1473.71 2329.76 1466.61 Q2329.76 1459.48 2327.93 1455.94 Q2326.13 1452.37 2322.49 1452.37 M2322.49 1448.67 Q2328.3 1448.67 2331.36 1453.27 Q2334.44 1457.86 2334.44 1466.61 Q2334.44 1475.33 2331.36 1479.94 Q2328.3 1484.52 2322.49 1484.52 Q2316.68 1484.52 2313.6 1479.94 Q2310.55 1475.33 2310.55 1466.61 Q2310.55 1457.86 2313.6 1453.27 Q2316.68 1448.67 2322.49 1448.67 Z" fill="#000000" fill-rule="evenodd" fill-opacity="1" /><path clip-path="url(#clip330)" d="M 0 0 M1281.24 1522.27 L1281.24 1532.4 L1293.3 1532.4 L1293.3 1536.95 L1281.24 1536.95 L1281.24 1556.3 Q1281.24 1560.66 1282.42 1561.9 Q1283.63 1563.14 1287.29 1563.14 L1293.3 1563.14 L1293.3 1568.04 L1287.29 1568.04 Q1280.51 1568.04 1277.93 1565.53 Q1275.35 1562.98 1275.35 1556.3 L1275.35 1536.95 L1271.06 1536.95 L1271.06 1532.4 L1275.35 1532.4 L1275.35 1522.27 L1281.24 1522.27 Z" fill="#000000" fill-rule="evenodd" fill-opacity="1" /><polyline clip-path="url(#clip332)" style="stroke:#000000; stroke-width:2; stroke-opacity:0.1; fill:none" points="
  211.602,1384.24 2352.76,1384.24 
  "/>
<polyline clip-path="url(#clip332)" style="stroke:#000000; stroke-width:2; stroke-opacity:0.1; fill:none" points="
  211.602,1167.9 2352.76,1167.9 
  "/>
<polyline clip-path="url(#clip332)" style="stroke:#000000; stroke-width:2; stroke-opacity:0.1; fill:none" points="
  211.602,951.554 2352.76,951.554 
  "/>
<polyline clip-path="url(#clip332)" style="stroke:#000000; stroke-width:2; stroke-opacity:0.1; fill:none" points="
  211.602,735.212 2352.76,735.212 
  "/>
<polyline clip-path="url(#clip332)" style="stroke:#000000; stroke-width:2; stroke-opacity:0.1; fill:none" points="
  211.602,518.87 2352.76,518.87 
  "/>
<polyline clip-path="url(#clip332)" style="stroke:#000000; stroke-width:2; stroke-opacity:0.1; fill:none" points="
  211.602,302.528 2352.76,302.528 
  "/>
<polyline clip-path="url(#clip332)" style="stroke:#000000; stroke-width:2; stroke-opacity:0.1; fill:none" points="
  211.602,86.1857 2352.76,86.1857 
  "/>
<polyline clip-path="url(#clip330)" style="stroke:#000000; stroke-width:4; stroke-opacity:1; fill:none" points="
  211.602,1423.18 211.602,47.2441 
  "/>
<polyline clip-path="url(#clip330)" style="stroke:#000000; stroke-width:4; stroke-opacity:1; fill:none" points="
  211.602,1384.24 237.296,1384.24 
  "/>
<polyline clip-path="url(#clip330)" style="stroke:#000000; stroke-width:4; stroke-opacity:1; fill:none" points="
  211.602,1167.9 237.296,1167.9 
  "/>
<polyline clip-path="url(#clip330)" style="stroke:#000000; stroke-width:4; stroke-opacity:1; fill:none" points="
  211.602,951.554 237.296,951.554 
  "/>
<polyline clip-path="url(#clip330)" style="stroke:#000000; stroke-width:4; stroke-opacity:1; fill:none" points="
  211.602,735.212 237.296,735.212 
  "/>
<polyline clip-path="url(#clip330)" style="stroke:#000000; stroke-width:4; stroke-opacity:1; fill:none" points="
  211.602,518.87 237.296,518.87 
  "/>
<polyline clip-path="url(#clip330)" style="stroke:#000000; stroke-width:4; stroke-opacity:1; fill:none" points="
  211.602,302.528 237.296,302.528 
  "/>
<polyline clip-path="url(#clip330)" style="stroke:#000000; stroke-width:4; stroke-opacity:1; fill:none" points="
  211.602,86.1857 237.296,86.1857 
  "/>
<path clip-path="url(#clip330)" d="M 0 0 M126.691 1370.04 Q123.08 1370.04 121.251 1373.6 Q119.445 1377.14 119.445 1384.27 Q119.445 1391.38 121.251 1394.94 Q123.08 1398.49 126.691 1398.49 Q130.325 1398.49 132.13 1394.94 Q133.959 1391.38 133.959 1384.27 Q133.959 1377.14 132.13 1373.6 Q130.325 1370.04 126.691 1370.04 M126.691 1366.33 Q132.501 1366.33 135.556 1370.94 Q138.635 1375.52 138.635 1384.27 Q138.635 1393 135.556 1397.61 Q132.501 1402.19 126.691 1402.19 Q120.88 1402.19 117.802 1397.61 Q114.746 1393 114.746 1384.27 Q114.746 1375.52 117.802 1370.94 Q120.88 1366.33 126.691 1366.33 Z" fill="#000000" fill-rule="evenodd" fill-opacity="1" /><path clip-path="url(#clip330)" d="M 0 0 M143.704 1395.64 L148.589 1395.64 L148.589 1401.52 L143.704 1401.52 L143.704 1395.64 Z" fill="#000000" fill-rule="evenodd" fill-opacity="1" /><path clip-path="url(#clip330)" d="M 0 0 M163.658 1370.04 Q160.047 1370.04 158.218 1373.6 Q156.413 1377.14 156.413 1384.27 Q156.413 1391.38 158.218 1394.94 Q160.047 1398.49 163.658 1398.49 Q167.292 1398.49 169.098 1394.94 Q170.927 1391.38 170.927 1384.27 Q170.927 1377.14 169.098 1373.6 Q167.292 1370.04 163.658 1370.04 M163.658 1366.33 Q169.468 1366.33 172.524 1370.94 Q175.602 1375.52 175.602 1384.27 Q175.602 1393 172.524 1397.61 Q169.468 1402.19 163.658 1402.19 Q157.848 1402.19 154.769 1397.61 Q151.714 1393 151.714 1384.27 Q151.714 1375.52 154.769 1370.94 Q157.848 1366.33 163.658 1366.33 Z" fill="#000000" fill-rule="evenodd" fill-opacity="1" /><path clip-path="url(#clip330)" d="M 0 0 M127.917 1153.69 Q124.306 1153.69 122.478 1157.26 Q120.672 1160.8 120.672 1167.93 Q120.672 1175.04 122.478 1178.6 Q124.306 1182.14 127.917 1182.14 Q131.552 1182.14 133.357 1178.6 Q135.186 1175.04 135.186 1167.93 Q135.186 1160.8 133.357 1157.26 Q131.552 1153.69 127.917 1153.69 M127.917 1149.99 Q133.728 1149.99 136.783 1154.6 Q139.862 1159.18 139.862 1167.93 Q139.862 1176.66 136.783 1181.26 Q133.728 1185.85 127.917 1185.85 Q122.107 1185.85 119.029 1181.26 Q115.973 1176.66 115.973 1167.93 Q115.973 1159.18 119.029 1154.6 Q122.107 1149.99 127.917 1149.99 Z" fill="#000000" fill-rule="evenodd" fill-opacity="1" /><path clip-path="url(#clip330)" d="M 0 0 M144.931 1179.3 L149.816 1179.3 L149.816 1185.18 L144.931 1185.18 L144.931 1179.3 Z" fill="#000000" fill-rule="evenodd" fill-opacity="1" /><path clip-path="url(#clip330)" d="M 0 0 M155.695 1181.24 L163.334 1181.24 L163.334 1154.88 L155.024 1156.54 L155.024 1152.28 L163.288 1150.62 L167.964 1150.62 L167.964 1181.24 L175.602 1181.24 L175.602 1185.18 L155.695 1185.18 L155.695 1181.24 Z" fill="#000000" fill-rule="evenodd" fill-opacity="1" /><path clip-path="url(#clip330)" d="M 0 0 M128.288 937.353 Q124.677 937.353 122.848 940.918 Q121.043 944.459 121.043 951.589 Q121.043 958.695 122.848 962.26 Q124.677 965.802 128.288 965.802 Q131.922 965.802 133.728 962.26 Q135.556 958.695 135.556 951.589 Q135.556 944.459 133.728 940.918 Q131.922 937.353 128.288 937.353 M128.288 933.649 Q134.098 933.649 137.154 938.256 Q140.232 942.839 140.232 951.589 Q140.232 960.316 137.154 964.922 Q134.098 969.505 128.288 969.505 Q122.478 969.505 119.399 964.922 Q116.343 960.316 116.343 951.589 Q116.343 942.839 119.399 938.256 Q122.478 933.649 128.288 933.649 Z" fill="#000000" fill-rule="evenodd" fill-opacity="1" /><path clip-path="url(#clip330)" d="M 0 0 M145.302 962.954 L150.186 962.954 L150.186 968.834 L145.302 968.834 L145.302 962.954 Z" fill="#000000" fill-rule="evenodd" fill-opacity="1" /><path clip-path="url(#clip330)" d="M 0 0 M159.283 964.899 L175.602 964.899 L175.602 968.834 L153.658 968.834 L153.658 964.899 Q156.32 962.144 160.903 957.515 Q165.51 952.862 166.69 951.519 Q168.936 948.996 169.815 947.26 Q170.718 945.501 170.718 943.811 Q170.718 941.056 168.774 939.32 Q166.852 937.584 163.751 937.584 Q161.552 937.584 159.098 938.348 Q156.667 939.112 153.89 940.663 L153.89 935.941 Q156.714 934.806 159.167 934.228 Q161.621 933.649 163.658 933.649 Q169.028 933.649 172.223 936.334 Q175.417 939.019 175.417 943.51 Q175.417 945.64 174.607 947.561 Q173.82 949.459 171.714 952.052 Q171.135 952.723 168.033 955.941 Q164.931 959.135 159.283 964.899 Z" fill="#000000" fill-rule="evenodd" fill-opacity="1" /><path clip-path="url(#clip330)" d="M 0 0 M127.339 721.011 Q123.728 721.011 121.899 724.575 Q120.093 728.117 120.093 735.247 Q120.093 742.353 121.899 745.918 Q123.728 749.46 127.339 749.46 Q130.973 749.46 132.779 745.918 Q134.607 742.353 134.607 735.247 Q134.607 728.117 132.779 724.575 Q130.973 721.011 127.339 721.011 M127.339 717.307 Q133.149 717.307 136.204 721.913 Q139.283 726.497 139.283 735.247 Q139.283 743.973 136.204 748.58 Q133.149 753.163 127.339 753.163 Q121.529 753.163 118.45 748.58 Q115.394 743.973 115.394 735.247 Q115.394 726.497 118.45 721.913 Q121.529 717.307 127.339 717.307 Z" fill="#000000" fill-rule="evenodd" fill-opacity="1" /><path clip-path="url(#clip330)" d="M 0 0 M144.353 746.612 L149.237 746.612 L149.237 752.492 L144.353 752.492 L144.353 746.612 Z" fill="#000000" fill-rule="evenodd" fill-opacity="1" /><path clip-path="url(#clip330)" d="M 0 0 M168.473 733.858 Q171.829 734.575 173.704 736.844 Q175.602 739.112 175.602 742.446 Q175.602 747.561 172.084 750.362 Q168.565 753.163 162.084 753.163 Q159.908 753.163 157.593 752.723 Q155.302 752.307 152.848 751.45 L152.848 746.936 Q154.792 748.071 157.107 748.649 Q159.422 749.228 161.945 749.228 Q166.343 749.228 168.635 747.492 Q170.95 745.756 170.95 742.446 Q170.95 739.39 168.797 737.677 Q166.667 735.941 162.848 735.941 L158.82 735.941 L158.82 732.099 L163.033 732.099 Q166.482 732.099 168.311 730.733 Q170.139 729.344 170.139 726.751 Q170.139 724.089 168.241 722.677 Q166.366 721.242 162.848 721.242 Q160.927 721.242 158.728 721.659 Q156.528 722.075 153.89 722.955 L153.89 718.788 Q156.552 718.048 158.866 717.677 Q161.204 717.307 163.265 717.307 Q168.589 717.307 171.69 719.738 Q174.792 722.145 174.792 726.265 Q174.792 729.136 173.149 731.126 Q171.505 733.094 168.473 733.858 Z" fill="#000000" fill-rule="evenodd" fill-opacity="1" /><path clip-path="url(#clip330)" d="M 0 0 M126.205 504.669 Q122.593 504.669 120.765 508.233 Q118.959 511.775 118.959 518.905 Q118.959 526.011 120.765 529.576 Q122.593 533.117 126.205 533.117 Q129.839 533.117 131.644 529.576 Q133.473 526.011 133.473 518.905 Q133.473 511.775 131.644 508.233 Q129.839 504.669 126.205 504.669 M126.205 500.965 Q132.015 500.965 135.07 505.571 Q138.149 510.155 138.149 518.905 Q138.149 527.631 135.07 532.238 Q132.015 536.821 126.205 536.821 Q120.394 536.821 117.316 532.238 Q114.26 527.631 114.26 518.905 Q114.26 510.155 117.316 505.571 Q120.394 500.965 126.205 500.965 Z" fill="#000000" fill-rule="evenodd" fill-opacity="1" /><path clip-path="url(#clip330)" d="M 0 0 M143.218 530.27 L148.103 530.27 L148.103 536.15 L143.218 536.15 L143.218 530.27 Z" fill="#000000" fill-rule="evenodd" fill-opacity="1" /><path clip-path="url(#clip330)" d="M 0 0 M166.019 505.664 L154.214 524.113 L166.019 524.113 L166.019 505.664 M164.792 501.59 L170.672 501.59 L170.672 524.113 L175.602 524.113 L175.602 528.002 L170.672 528.002 L170.672 536.15 L166.019 536.15 L166.019 528.002 L150.417 528.002 L150.417 523.488 L164.792 501.59 Z" fill="#000000" fill-rule="evenodd" fill-opacity="1" /><path clip-path="url(#clip330)" d="M 0 0 M127.686 288.326 Q124.075 288.326 122.246 291.891 Q120.441 295.433 120.441 302.562 Q120.441 309.669 122.246 313.234 Q124.075 316.775 127.686 316.775 Q131.32 316.775 133.126 313.234 Q134.954 309.669 134.954 302.562 Q134.954 295.433 133.126 291.891 Q131.32 288.326 127.686 288.326 M127.686 284.623 Q133.496 284.623 136.552 289.229 Q139.63 293.813 139.63 302.562 Q139.63 311.289 136.552 315.896 Q133.496 320.479 127.686 320.479 Q121.876 320.479 118.797 315.896 Q115.742 311.289 115.742 302.562 Q115.742 293.813 118.797 289.229 Q121.876 284.623 127.686 284.623 Z" fill="#000000" fill-rule="evenodd" fill-opacity="1" /><path clip-path="url(#clip330)" d="M 0 0 M144.7 313.928 L149.584 313.928 L149.584 319.808 L144.7 319.808 L144.7 313.928 Z" fill="#000000" fill-rule="evenodd" fill-opacity="1" /><path clip-path="url(#clip330)" d="M 0 0 M154.7 285.248 L173.056 285.248 L173.056 289.183 L158.982 289.183 L158.982 297.655 Q160.001 297.308 161.019 297.146 Q162.038 296.961 163.056 296.961 Q168.843 296.961 172.223 300.132 Q175.602 303.303 175.602 308.72 Q175.602 314.299 172.13 317.4 Q168.658 320.479 162.339 320.479 Q160.163 320.479 157.894 320.109 Q155.649 319.738 153.241 318.998 L153.241 314.299 Q155.325 315.433 157.547 315.988 Q159.769 316.544 162.246 316.544 Q166.251 316.544 168.589 314.437 Q170.927 312.331 170.927 308.72 Q170.927 305.109 168.589 303.002 Q166.251 300.896 162.246 300.896 Q160.371 300.896 158.496 301.312 Q156.644 301.729 154.7 302.609 L154.7 285.248 Z" fill="#000000" fill-rule="evenodd" fill-opacity="1" /><path clip-path="url(#clip330)" d="M 0 0 M126.529 71.9844 Q122.918 71.9844 121.089 75.5492 Q119.283 79.0908 119.283 86.2204 Q119.283 93.3268 121.089 96.8916 Q122.918 100.433 126.529 100.433 Q130.163 100.433 131.968 96.8916 Q133.797 93.3268 133.797 86.2204 Q133.797 79.0908 131.968 75.5492 Q130.163 71.9844 126.529 71.9844 M126.529 68.2807 Q132.339 68.2807 135.394 72.8871 Q138.473 77.4704 138.473 86.2204 Q138.473 94.9472 135.394 99.5537 Q132.339 104.137 126.529 104.137 Q120.718 104.137 117.64 99.5537 Q114.584 94.9472 114.584 86.2204 Q114.584 77.4704 117.64 72.8871 Q120.718 68.2807 126.529 68.2807 Z" fill="#000000" fill-rule="evenodd" fill-opacity="1" /><path clip-path="url(#clip330)" d="M 0 0 M143.542 97.5861 L148.427 97.5861 L148.427 103.466 L143.542 103.466 L143.542 97.5861 Z" fill="#000000" fill-rule="evenodd" fill-opacity="1" /><path clip-path="url(#clip330)" d="M 0 0 M164.075 84.3223 Q160.927 84.3223 159.075 86.475 Q157.246 88.6278 157.246 92.3778 Q157.246 96.1046 159.075 98.2805 Q160.927 100.433 164.075 100.433 Q167.223 100.433 169.052 98.2805 Q170.903 96.1046 170.903 92.3778 Q170.903 88.6278 169.052 86.475 Q167.223 84.3223 164.075 84.3223 M173.357 69.6696 L173.357 73.9288 Q171.598 73.0955 169.792 72.6557 Q168.01 72.2158 166.251 72.2158 Q161.621 72.2158 159.167 75.3408 Q156.737 78.4658 156.39 84.7852 Q157.755 82.7713 159.815 81.7065 Q161.876 80.6186 164.352 80.6186 Q169.561 80.6186 172.57 83.7899 Q175.602 86.938 175.602 92.3778 Q175.602 97.7018 172.454 100.919 Q169.306 104.137 164.075 104.137 Q158.079 104.137 154.908 99.5537 Q151.737 94.9472 151.737 86.2204 Q151.737 78.026 155.626 73.1649 Q159.515 68.2807 166.065 68.2807 Q167.825 68.2807 169.607 68.6279 Q171.413 68.9751 173.357 69.6696 Z" fill="#000000" fill-rule="evenodd" fill-opacity="1" /><path clip-path="url(#clip330)" d="M 0 0 M58.657 745.27 L77.5631 745.27 L77.5631 751.158 L28.3562 751.158 L28.3562 745.27 L33.7671 745.27 Q30.5842 743.424 29.0564 740.623 Q27.4968 737.79 27.4968 733.875 Q27.4968 727.382 32.6531 723.34 Q37.8093 719.266 46.212 719.266 Q54.6147 719.266 59.771 723.34 Q64.9272 727.382 64.9272 733.875 Q64.9272 737.79 63.3994 740.623 Q61.8398 743.424 58.657 745.27 M46.212 725.345 Q39.7508 725.345 36.0905 728.019 Q32.3984 730.66 32.3984 735.307 Q32.3984 739.954 36.0905 742.628 Q39.7508 745.27 46.212 745.27 Q52.6732 745.27 56.3653 742.628 Q60.0256 739.954 60.0256 735.307 Q60.0256 730.66 56.3653 728.019 Q52.6732 725.345 46.212 725.345 Z" fill="#000000" fill-rule="evenodd" fill-opacity="1" /><polyline clip-path="url(#clip332)" style="stroke:#0000ff; stroke-width:4; stroke-opacity:1; fill:none" stroke-dasharray="2, 4" points="
  272.201,1384.24 2292.16,518.87 
  "/>
<polyline clip-path="url(#clip332)" style="stroke:#0000ff; stroke-width:4; stroke-opacity:1; fill:none" stroke-dasharray="16, 10" points="
  272.201,1384.24 2292.16,518.87 
  "/>
<polyline clip-path="url(#clip332)" style="stroke:#ff0000; stroke-width:4; stroke-opacity:1; fill:none" stroke-dasharray="2, 4" points="
  272.201,1384.24 2292.16,259.259 
  "/>
<polyline clip-path="url(#clip332)" style="stroke:#ff0000; stroke-width:4; stroke-opacity:1; fill:none" stroke-dasharray="16, 10" points="
  272.201,1384.24 2292.16,86.1857 
  "/>
<path clip-path="url(#clip330)" d="
M282.974 395.509 L999.489 395.509 L999.489 93.1086 L282.974 93.1086  Z
  " fill="#ffffff" fill-rule="evenodd" fill-opacity="1"/>
<polyline clip-path="url(#clip330)" style="stroke:#000000; stroke-width:4; stroke-opacity:1; fill:none" points="
  282.974,395.509 999.489,395.509 999.489,93.1086 282.974,93.1086 282.974,395.509 
  "/>
<polyline clip-path="url(#clip330)" style="stroke:#0000ff; stroke-width:4; stroke-opacity:1; fill:none" stroke-dasharray="2, 4" points="
  306.765,153.589 449.508,153.589 
  "/>
<path clip-path="url(#clip330)" d="M 0 0 M477.581 166.98 L477.581 180.73 L473.299 180.73 L473.299 144.943 L477.581 144.943 L477.581 148.878 Q478.924 146.563 480.961 145.452 Q483.021 144.318 485.868 144.318 Q490.591 144.318 493.53 148.068 Q496.493 151.818 496.493 157.929 Q496.493 164.04 493.53 167.79 Q490.591 171.54 485.868 171.54 Q483.021 171.54 480.961 170.429 Q478.924 169.295 477.581 166.98 M492.072 157.929 Q492.072 153.23 490.128 150.568 Q488.206 147.883 484.827 147.883 Q481.447 147.883 479.503 150.568 Q477.581 153.23 477.581 157.929 Q477.581 162.628 479.503 165.313 Q481.447 167.975 484.827 167.975 Q488.206 167.975 490.128 165.313 Q492.072 162.628 492.072 157.929 Z" fill="#000000" fill-rule="evenodd" fill-opacity="1" /><path clip-path="url(#clip330)" d="M 0 0 M505.174 137.582 L505.174 144.943 L513.947 144.943 L513.947 148.253 L505.174 148.253 L505.174 162.327 Q505.174 165.498 506.03 166.401 Q506.91 167.304 509.572 167.304 L513.947 167.304 L513.947 170.869 L509.572 170.869 Q504.641 170.869 502.766 169.04 Q500.891 167.188 500.891 162.327 L500.891 148.253 L497.766 148.253 L497.766 144.943 L500.891 144.943 L500.891 137.582 L505.174 137.582 Z" fill="#000000" fill-rule="evenodd" fill-opacity="1" /><path clip-path="url(#clip330)" d="M 0 0 M529.016 139.387 Q525.405 139.387 523.576 142.952 Q521.771 146.494 521.771 153.623 Q521.771 160.73 523.576 164.295 Q525.405 167.836 529.016 167.836 Q532.65 167.836 534.456 164.295 Q536.285 160.73 536.285 153.623 Q536.285 146.494 534.456 142.952 Q532.65 139.387 529.016 139.387 M529.016 135.684 Q534.826 135.684 537.882 140.29 Q540.961 144.873 540.961 153.623 Q540.961 162.35 537.882 166.957 Q534.826 171.54 529.016 171.54 Q523.206 171.54 520.127 166.957 Q517.072 162.35 517.072 153.623 Q517.072 144.873 520.127 140.29 Q523.206 135.684 529.016 135.684 Z" fill="#000000" fill-rule="evenodd" fill-opacity="1" /><path clip-path="url(#clip330)" d="M 0 0 M560.498 134.85 L564.757 134.85 L564.757 170.869 L560.498 170.869 L560.498 134.85 Z" fill="#000000" fill-rule="evenodd" fill-opacity="1" /><path clip-path="url(#clip330)" d="M 0 0 M569.224 144.943 L573.484 144.943 L573.484 170.869 L569.224 170.869 L569.224 144.943 M569.224 134.85 L573.484 134.85 L573.484 140.244 L569.224 140.244 L569.224 134.85 Z" fill="#000000" fill-rule="evenodd" fill-opacity="1" /><path clip-path="url(#clip330)" d="M 0 0 M599.502 155.221 L599.502 170.869 L595.243 170.869 L595.243 155.359 Q595.243 151.679 593.808 149.85 Q592.372 148.022 589.502 148.022 Q586.053 148.022 584.062 150.221 Q582.072 152.42 582.072 156.216 L582.072 170.869 L577.789 170.869 L577.789 144.943 L582.072 144.943 L582.072 148.971 Q583.599 146.633 585.659 145.475 Q587.743 144.318 590.451 144.318 Q594.919 144.318 597.21 147.096 Q599.502 149.85 599.502 155.221 Z" fill="#000000" fill-rule="evenodd" fill-opacity="1" /><path clip-path="url(#clip330)" d="M 0 0 M626.145 156.841 L626.145 158.924 L606.562 158.924 Q606.84 163.322 609.201 165.637 Q611.585 167.929 615.821 167.929 Q618.275 167.929 620.567 167.327 Q622.881 166.725 625.15 165.521 L625.15 169.549 Q622.858 170.521 620.451 171.031 Q618.044 171.54 615.567 171.54 Q609.363 171.54 605.729 167.929 Q602.118 164.318 602.118 158.16 Q602.118 151.795 605.544 148.068 Q608.993 144.318 614.826 144.318 Q620.057 144.318 623.09 147.697 Q626.145 151.054 626.145 156.841 M621.886 155.591 Q621.84 152.096 619.919 150.012 Q618.02 147.929 614.872 147.929 Q611.307 147.929 609.155 149.943 Q607.025 151.957 606.701 155.614 L621.886 155.591 Z" fill="#000000" fill-rule="evenodd" fill-opacity="1" /><path clip-path="url(#clip330)" d="M 0 0 M642.395 157.836 Q637.233 157.836 635.243 159.017 Q633.252 160.197 633.252 163.045 Q633.252 165.313 634.733 166.656 Q636.238 167.975 638.807 167.975 Q642.349 167.975 644.479 165.475 Q646.631 162.952 646.631 158.785 L646.631 157.836 L642.395 157.836 M650.891 156.077 L650.891 170.869 L646.631 170.869 L646.631 166.933 Q645.173 169.295 642.997 170.429 Q640.821 171.54 637.673 171.54 Q633.692 171.54 631.331 169.318 Q628.993 167.072 628.993 163.322 Q628.993 158.947 631.909 156.725 Q634.849 154.503 640.659 154.503 L646.631 154.503 L646.631 154.086 Q646.631 151.147 644.687 149.549 Q642.766 147.929 639.27 147.929 Q637.048 147.929 634.942 148.461 Q632.835 148.994 630.891 150.059 L630.891 146.123 Q633.229 145.221 635.428 144.781 Q637.627 144.318 639.71 144.318 Q645.335 144.318 648.113 147.234 Q650.891 150.151 650.891 156.077 Z" fill="#000000" fill-rule="evenodd" fill-opacity="1" /><path clip-path="url(#clip330)" d="M 0 0 M670.381 148.924 Q669.664 148.508 668.807 148.322 Q667.974 148.114 666.955 148.114 Q663.344 148.114 661.4 150.475 Q659.479 152.813 659.479 157.211 L659.479 170.869 L655.196 170.869 L655.196 144.943 L659.479 144.943 L659.479 148.971 Q660.821 146.609 662.974 145.475 Q665.127 144.318 668.205 144.318 Q668.645 144.318 669.178 144.387 Q669.71 144.434 670.358 144.549 L670.381 148.924 Z" fill="#000000" fill-rule="evenodd" fill-opacity="1" /><path clip-path="url(#clip330)" d="M 0 0 M689.918 144.943 L694.177 144.943 L694.177 170.869 L689.918 170.869 L689.918 144.943 M689.918 134.85 L694.177 134.85 L694.177 140.244 L689.918 140.244 L689.918 134.85 Z" fill="#000000" fill-rule="evenodd" fill-opacity="1" /><path clip-path="url(#clip330)" d="M 0 0 M720.196 155.221 L720.196 170.869 L715.937 170.869 L715.937 155.359 Q715.937 151.679 714.501 149.85 Q713.066 148.022 710.196 148.022 Q706.747 148.022 704.756 150.221 Q702.765 152.42 702.765 156.216 L702.765 170.869 L698.483 170.869 L698.483 144.943 L702.765 144.943 L702.765 148.971 Q704.293 146.633 706.353 145.475 Q708.437 144.318 711.145 144.318 Q715.612 144.318 717.904 147.096 Q720.196 149.85 720.196 155.221 Z" fill="#000000" fill-rule="evenodd" fill-opacity="1" /><path clip-path="url(#clip330)" d="M 0 0 M728.876 137.582 L728.876 144.943 L737.649 144.943 L737.649 148.253 L728.876 148.253 L728.876 162.327 Q728.876 165.498 729.733 166.401 Q730.612 167.304 733.274 167.304 L737.649 167.304 L737.649 170.869 L733.274 170.869 Q728.344 170.869 726.469 169.04 Q724.594 167.188 724.594 162.327 L724.594 148.253 L721.469 148.253 L721.469 144.943 L724.594 144.943 L724.594 137.582 L728.876 137.582 Z" fill="#000000" fill-rule="evenodd" fill-opacity="1" /><path clip-path="url(#clip330)" d="M 0 0 M764.293 156.841 L764.293 158.924 L744.71 158.924 Q744.987 163.322 747.348 165.637 Q749.733 167.929 753.969 167.929 Q756.422 167.929 758.714 167.327 Q761.029 166.725 763.297 165.521 L763.297 169.549 Q761.006 170.521 758.598 171.031 Q756.191 171.54 753.714 171.54 Q747.51 171.54 743.876 167.929 Q740.265 164.318 740.265 158.16 Q740.265 151.795 743.691 148.068 Q747.14 144.318 752.973 144.318 Q758.205 144.318 761.237 147.697 Q764.293 151.054 764.293 156.841 M760.034 155.591 Q759.987 152.096 758.066 150.012 Q756.168 147.929 753.02 147.929 Q749.455 147.929 747.302 149.943 Q745.173 151.957 744.848 155.614 L760.034 155.591 Z" fill="#000000" fill-rule="evenodd" fill-opacity="1" /><path clip-path="url(#clip330)" d="M 0 0 M783.783 148.924 Q783.066 148.508 782.209 148.322 Q781.376 148.114 780.357 148.114 Q776.746 148.114 774.802 150.475 Q772.881 152.813 772.881 157.211 L772.881 170.869 L768.598 170.869 L768.598 144.943 L772.881 144.943 L772.881 148.971 Q774.223 146.609 776.376 145.475 Q778.529 144.318 781.607 144.318 Q782.047 144.318 782.58 144.387 Q783.112 144.434 783.76 144.549 L783.783 148.924 Z" fill="#000000" fill-rule="evenodd" fill-opacity="1" /><path clip-path="url(#clip330)" d="M 0 0 M792.371 166.98 L792.371 180.73 L788.089 180.73 L788.089 144.943 L792.371 144.943 L792.371 148.878 Q793.714 146.563 795.751 145.452 Q797.811 144.318 800.658 144.318 Q805.381 144.318 808.32 148.068 Q811.283 151.818 811.283 157.929 Q811.283 164.04 808.32 167.79 Q805.381 171.54 800.658 171.54 Q797.811 171.54 795.751 170.429 Q793.714 169.295 792.371 166.98 M806.862 157.929 Q806.862 153.23 804.918 150.568 Q802.996 147.883 799.617 147.883 Q796.237 147.883 794.293 150.568 Q792.371 153.23 792.371 157.929 Q792.371 162.628 794.293 165.313 Q796.237 167.975 799.617 167.975 Q802.996 167.975 804.918 165.313 Q806.862 162.628 806.862 157.929 Z" fill="#000000" fill-rule="evenodd" fill-opacity="1" /><path clip-path="url(#clip330)" d="M 0 0 M825.797 147.929 Q822.371 147.929 820.38 150.614 Q818.39 153.276 818.39 157.929 Q818.39 162.582 820.357 165.267 Q822.348 167.929 825.797 167.929 Q829.2 167.929 831.191 165.244 Q833.181 162.558 833.181 157.929 Q833.181 153.322 831.191 150.637 Q829.2 147.929 825.797 147.929 M825.797 144.318 Q831.353 144.318 834.524 147.929 Q837.695 151.54 837.695 157.929 Q837.695 164.295 834.524 167.929 Q831.353 171.54 825.797 171.54 Q820.218 171.54 817.047 167.929 Q813.899 164.295 813.899 157.929 Q813.899 151.54 817.047 147.929 Q820.218 144.318 825.797 144.318 Z" fill="#000000" fill-rule="evenodd" fill-opacity="1" /><path clip-path="url(#clip330)" d="M 0 0 M842.163 134.85 L846.422 134.85 L846.422 170.869 L842.163 170.869 L842.163 134.85 Z" fill="#000000" fill-rule="evenodd" fill-opacity="1" /><path clip-path="url(#clip330)" d="M 0 0 M862.672 157.836 Q857.51 157.836 855.519 159.017 Q853.528 160.197 853.528 163.045 Q853.528 165.313 855.01 166.656 Q856.514 167.975 859.084 167.975 Q862.626 167.975 864.755 165.475 Q866.908 162.952 866.908 158.785 L866.908 157.836 L862.672 157.836 M871.167 156.077 L871.167 170.869 L866.908 170.869 L866.908 166.933 Q865.45 169.295 863.274 170.429 Q861.098 171.54 857.95 171.54 Q853.968 171.54 851.607 169.318 Q849.269 167.072 849.269 163.322 Q849.269 158.947 852.186 156.725 Q855.126 154.503 860.936 154.503 L866.908 154.503 L866.908 154.086 Q866.908 151.147 864.964 149.549 Q863.042 147.929 859.547 147.929 Q857.325 147.929 855.218 148.461 Q853.112 148.994 851.167 150.059 L851.167 146.123 Q853.505 145.221 855.704 144.781 Q857.903 144.318 859.987 144.318 Q865.612 144.318 868.389 147.234 Q871.167 150.151 871.167 156.077 Z" fill="#000000" fill-rule="evenodd" fill-opacity="1" /><path clip-path="url(#clip330)" d="M 0 0 M879.848 137.582 L879.848 144.943 L888.621 144.943 L888.621 148.253 L879.848 148.253 L879.848 162.327 Q879.848 165.498 880.704 166.401 Q881.584 167.304 884.246 167.304 L888.621 167.304 L888.621 170.869 L884.246 170.869 Q879.315 170.869 877.44 169.04 Q875.565 167.188 875.565 162.327 L875.565 148.253 L872.44 148.253 L872.44 144.943 L875.565 144.943 L875.565 137.582 L879.848 137.582 Z" fill="#000000" fill-rule="evenodd" fill-opacity="1" /><path clip-path="url(#clip330)" d="M 0 0 M915.264 156.841 L915.264 158.924 L895.681 158.924 Q895.959 163.322 898.32 165.637 Q900.704 167.929 904.94 167.929 Q907.394 167.929 909.686 167.327 Q912 166.725 914.269 165.521 L914.269 169.549 Q911.977 170.521 909.57 171.031 Q907.162 171.54 904.686 171.54 Q898.482 171.54 894.848 167.929 Q891.237 164.318 891.237 158.16 Q891.237 151.795 894.662 148.068 Q898.111 144.318 903.945 144.318 Q909.176 144.318 912.209 147.697 Q915.264 151.054 915.264 156.841 M911.005 155.591 Q910.959 152.096 909.037 150.012 Q907.139 147.929 903.991 147.929 Q900.426 147.929 898.274 149.943 Q896.144 151.957 895.82 155.614 L911.005 155.591 Z" fill="#000000" fill-rule="evenodd" fill-opacity="1" /><path clip-path="url(#clip330)" d="M 0 0 M936.792 148.878 L936.792 134.85 L941.051 134.85 L941.051 170.869 L936.792 170.869 L936.792 166.98 Q935.449 169.295 933.389 170.429 Q931.352 171.54 928.482 171.54 Q923.783 171.54 920.82 167.79 Q917.88 164.04 917.88 157.929 Q917.88 151.818 920.82 148.068 Q923.783 144.318 928.482 144.318 Q931.352 144.318 933.389 145.452 Q935.449 146.563 936.792 148.878 M922.278 157.929 Q922.278 162.628 924.199 165.313 Q926.144 167.975 929.523 167.975 Q932.903 167.975 934.847 165.313 Q936.792 162.628 936.792 157.929 Q936.792 153.23 934.847 150.568 Q932.903 147.883 929.523 147.883 Q926.144 147.883 924.199 150.568 Q922.278 153.23 922.278 157.929 Z" fill="#000000" fill-rule="evenodd" fill-opacity="1" /><polyline clip-path="url(#clip330)" style="stroke:#0000ff; stroke-width:4; stroke-opacity:1; fill:none" stroke-dasharray="16, 10" points="
  306.765,214.069 449.508,214.069 
  "/>
<path clip-path="url(#clip330)" d="M 0 0 M477.581 227.46 L477.581 241.21 L473.299 241.21 L473.299 205.423 L477.581 205.423 L477.581 209.358 Q478.924 207.043 480.961 205.932 Q483.021 204.798 485.868 204.798 Q490.591 204.798 493.53 208.548 Q496.493 212.298 496.493 218.409 Q496.493 224.52 493.53 228.27 Q490.591 232.02 485.868 232.02 Q483.021 232.02 480.961 230.909 Q478.924 229.775 477.581 227.46 M492.072 218.409 Q492.072 213.71 490.128 211.048 Q488.206 208.363 484.827 208.363 Q481.447 208.363 479.503 211.048 Q477.581 213.71 477.581 218.409 Q477.581 223.108 479.503 225.793 Q481.447 228.455 484.827 228.455 Q488.206 228.455 490.128 225.793 Q492.072 223.108 492.072 218.409 Z" fill="#000000" fill-rule="evenodd" fill-opacity="1" /><path clip-path="url(#clip330)" d="M 0 0 M505.174 198.062 L505.174 205.423 L513.947 205.423 L513.947 208.733 L505.174 208.733 L505.174 222.807 Q505.174 225.978 506.03 226.881 Q506.91 227.784 509.572 227.784 L513.947 227.784 L513.947 231.349 L509.572 231.349 Q504.641 231.349 502.766 229.52 Q500.891 227.668 500.891 222.807 L500.891 208.733 L497.766 208.733 L497.766 205.423 L500.891 205.423 L500.891 198.062 L505.174 198.062 Z" fill="#000000" fill-rule="evenodd" fill-opacity="1" /><path clip-path="url(#clip330)" d="M 0 0 M529.016 199.867 Q525.405 199.867 523.576 203.432 Q521.771 206.974 521.771 214.103 Q521.771 221.21 523.576 224.775 Q525.405 228.316 529.016 228.316 Q532.65 228.316 534.456 224.775 Q536.285 221.21 536.285 214.103 Q536.285 206.974 534.456 203.432 Q532.65 199.867 529.016 199.867 M529.016 196.164 Q534.826 196.164 537.882 200.77 Q540.961 205.353 540.961 214.103 Q540.961 222.83 537.882 227.437 Q534.826 232.02 529.016 232.02 Q523.206 232.02 520.127 227.437 Q517.072 222.83 517.072 214.103 Q517.072 205.353 520.127 200.77 Q523.206 196.164 529.016 196.164 Z" fill="#000000" fill-rule="evenodd" fill-opacity="1" /><path clip-path="url(#clip330)" d="M 0 0 M579.155 206.418 L579.155 210.4 Q577.349 209.404 575.521 208.918 Q573.715 208.409 571.863 208.409 Q567.72 208.409 565.428 211.048 Q563.136 213.664 563.136 218.409 Q563.136 223.154 565.428 225.793 Q567.72 228.409 571.863 228.409 Q573.715 228.409 575.521 227.923 Q577.349 227.413 579.155 226.418 L579.155 230.353 Q577.372 231.187 575.451 231.603 Q573.553 232.02 571.4 232.02 Q565.544 232.02 562.095 228.339 Q558.646 224.659 558.646 218.409 Q558.646 212.066 562.118 208.432 Q565.613 204.798 571.678 204.798 Q573.646 204.798 575.521 205.215 Q577.396 205.608 579.155 206.418 Z" fill="#000000" fill-rule="evenodd" fill-opacity="1" /><path clip-path="url(#clip330)" d="M 0 0 M583.622 195.33 L587.882 195.33 L587.882 231.349 L583.622 231.349 L583.622 195.33 Z" fill="#000000" fill-rule="evenodd" fill-opacity="1" /><path clip-path="url(#clip330)" d="M 0 0 M602.395 208.409 Q598.97 208.409 596.979 211.094 Q594.988 213.756 594.988 218.409 Q594.988 223.062 596.956 225.747 Q598.946 228.409 602.395 228.409 Q605.798 228.409 607.789 225.724 Q609.78 223.038 609.78 218.409 Q609.78 213.802 607.789 211.117 Q605.798 208.409 602.395 208.409 M602.395 204.798 Q607.951 204.798 611.122 208.409 Q614.294 212.02 614.294 218.409 Q614.294 224.775 611.122 228.409 Q607.951 232.02 602.395 232.02 Q596.817 232.02 593.646 228.409 Q590.497 224.775 590.497 218.409 Q590.497 212.02 593.646 208.409 Q596.817 204.798 602.395 204.798 Z" fill="#000000" fill-rule="evenodd" fill-opacity="1" /><path clip-path="url(#clip330)" d="M 0 0 M635.289 206.187 L635.289 210.214 Q633.483 209.289 631.539 208.826 Q629.594 208.363 627.511 208.363 Q624.34 208.363 622.743 209.335 Q621.169 210.307 621.169 212.251 Q621.169 213.733 622.303 214.589 Q623.437 215.423 626.863 216.187 L628.321 216.511 Q632.858 217.483 634.756 219.265 Q636.678 221.025 636.678 224.196 Q636.678 227.807 633.807 229.913 Q630.96 232.02 625.96 232.02 Q623.877 232.02 621.608 231.603 Q619.363 231.21 616.863 230.4 L616.863 226.001 Q619.224 227.228 621.516 227.853 Q623.807 228.455 626.053 228.455 Q629.062 228.455 630.682 227.437 Q632.303 226.395 632.303 224.52 Q632.303 222.784 631.122 221.858 Q629.965 220.932 626.006 220.076 L624.525 219.728 Q620.567 218.895 618.807 217.182 Q617.048 215.446 617.048 212.437 Q617.048 208.779 619.641 206.789 Q622.233 204.798 627.002 204.798 Q629.363 204.798 631.446 205.145 Q633.53 205.492 635.289 206.187 Z" fill="#000000" fill-rule="evenodd" fill-opacity="1" /><path clip-path="url(#clip330)" d="M 0 0 M663.321 217.321 L663.321 219.404 L643.738 219.404 Q644.016 223.802 646.377 226.117 Q648.761 228.409 652.997 228.409 Q655.451 228.409 657.742 227.807 Q660.057 227.205 662.326 226.001 L662.326 230.029 Q660.034 231.001 657.627 231.511 Q655.219 232.02 652.742 232.02 Q646.539 232.02 642.905 228.409 Q639.293 224.798 639.293 218.64 Q639.293 212.275 642.719 208.548 Q646.168 204.798 652.002 204.798 Q657.233 204.798 660.266 208.177 Q663.321 211.534 663.321 217.321 M659.062 216.071 Q659.016 212.576 657.094 210.492 Q655.196 208.409 652.048 208.409 Q648.483 208.409 646.33 210.423 Q644.201 212.437 643.877 216.094 L659.062 216.071 Z" fill="#000000" fill-rule="evenodd" fill-opacity="1" /><path clip-path="url(#clip330)" d="M 0 0 M684.316 206.187 L684.316 210.214 Q682.511 209.289 680.566 208.826 Q678.622 208.363 676.539 208.363 Q673.367 208.363 671.77 209.335 Q670.196 210.307 670.196 212.251 Q670.196 213.733 671.33 214.589 Q672.465 215.423 675.89 216.187 L677.349 216.511 Q681.886 217.483 683.784 219.265 Q685.705 221.025 685.705 224.196 Q685.705 227.807 682.835 229.913 Q679.988 232.02 674.988 232.02 Q672.904 232.02 670.636 231.603 Q668.391 231.21 665.891 230.4 L665.891 226.001 Q668.252 227.228 670.543 227.853 Q672.835 228.455 675.08 228.455 Q678.09 228.455 679.71 227.437 Q681.33 226.395 681.33 224.52 Q681.33 222.784 680.15 221.858 Q678.992 220.932 675.034 220.076 L673.553 219.728 Q669.594 218.895 667.835 217.182 Q666.076 215.446 666.076 212.437 Q666.076 208.779 668.668 206.789 Q671.261 204.798 676.029 204.798 Q678.39 204.798 680.474 205.145 Q682.557 205.492 684.316 206.187 Z" fill="#000000" fill-rule="evenodd" fill-opacity="1" /><path clip-path="url(#clip330)" d="M 0 0 M694.386 198.062 L694.386 205.423 L703.159 205.423 L703.159 208.733 L694.386 208.733 L694.386 222.807 Q694.386 225.978 695.242 226.881 Q696.122 227.784 698.784 227.784 L703.159 227.784 L703.159 231.349 L698.784 231.349 Q693.853 231.349 691.978 229.52 Q690.103 227.668 690.103 222.807 L690.103 208.733 L686.978 208.733 L686.978 205.423 L690.103 205.423 L690.103 198.062 L694.386 198.062 Z" fill="#000000" fill-rule="evenodd" fill-opacity="1" /><path clip-path="url(#clip330)" d="M 0 0 M726.816 227.46 L726.816 241.21 L722.534 241.21 L722.534 205.423 L726.816 205.423 L726.816 209.358 Q728.159 207.043 730.196 205.932 Q732.256 204.798 735.103 204.798 Q739.825 204.798 742.765 208.548 Q745.728 212.298 745.728 218.409 Q745.728 224.52 742.765 228.27 Q739.825 232.02 735.103 232.02 Q732.256 232.02 730.196 230.909 Q728.159 229.775 726.816 227.46 M741.307 218.409 Q741.307 213.71 739.362 211.048 Q737.441 208.363 734.061 208.363 Q730.682 208.363 728.737 211.048 Q726.816 213.71 726.816 218.409 Q726.816 223.108 728.737 225.793 Q730.682 228.455 734.061 228.455 Q737.441 228.455 739.362 225.793 Q741.307 223.108 741.307 218.409 Z" fill="#000000" fill-rule="evenodd" fill-opacity="1" /><path clip-path="url(#clip330)" d="M 0 0 M760.242 208.409 Q756.816 208.409 754.825 211.094 Q752.834 213.756 752.834 218.409 Q752.834 223.062 754.802 225.747 Q756.793 228.409 760.242 228.409 Q763.645 228.409 765.635 225.724 Q767.626 223.038 767.626 218.409 Q767.626 213.802 765.635 211.117 Q763.645 208.409 760.242 208.409 M760.242 204.798 Q765.797 204.798 768.969 208.409 Q772.14 212.02 772.14 218.409 Q772.14 224.775 768.969 228.409 Q765.797 232.02 760.242 232.02 Q754.663 232.02 751.492 228.409 Q748.344 224.775 748.344 218.409 Q748.344 212.02 751.492 208.409 Q754.663 204.798 760.242 204.798 Z" fill="#000000" fill-rule="evenodd" fill-opacity="1" /><path clip-path="url(#clip330)" d="M 0 0 M776.608 205.423 L780.867 205.423 L780.867 231.349 L776.608 231.349 L776.608 205.423 M776.608 195.33 L780.867 195.33 L780.867 200.724 L776.608 200.724 L776.608 195.33 Z" fill="#000000" fill-rule="evenodd" fill-opacity="1" /><path clip-path="url(#clip330)" d="M 0 0 M806.885 215.701 L806.885 231.349 L802.626 231.349 L802.626 215.839 Q802.626 212.159 801.191 210.33 Q799.756 208.502 796.885 208.502 Q793.436 208.502 791.445 210.701 Q789.455 212.9 789.455 216.696 L789.455 231.349 L785.172 231.349 L785.172 205.423 L789.455 205.423 L789.455 209.451 Q790.982 207.113 793.043 205.955 Q795.126 204.798 797.834 204.798 Q802.302 204.798 804.593 207.576 Q806.885 210.33 806.885 215.701 Z" fill="#000000" fill-rule="evenodd" fill-opacity="1" /><path clip-path="url(#clip330)" d="M 0 0 M815.566 198.062 L815.566 205.423 L824.339 205.423 L824.339 208.733 L815.566 208.733 L815.566 222.807 Q815.566 225.978 816.422 226.881 Q817.302 227.784 819.964 227.784 L824.339 227.784 L824.339 231.349 L819.964 231.349 Q815.033 231.349 813.158 229.52 Q811.283 227.668 811.283 222.807 L811.283 208.733 L808.158 208.733 L808.158 205.423 L811.283 205.423 L811.283 198.062 L815.566 198.062 Z" fill="#000000" fill-rule="evenodd" fill-opacity="1" /><path clip-path="url(#clip330)" d="M 0 0 M840.82 205.423 L845.334 205.423 L853.436 227.182 L861.538 205.423 L866.051 205.423 L856.329 231.349 L850.542 231.349 L840.82 205.423 Z" fill="#000000" fill-rule="evenodd" fill-opacity="1" /><path clip-path="url(#clip330)" d="M 0 0 M882.301 218.316 Q877.139 218.316 875.149 219.497 Q873.158 220.677 873.158 223.525 Q873.158 225.793 874.639 227.136 Q876.144 228.455 878.713 228.455 Q882.255 228.455 884.385 225.955 Q886.537 223.432 886.537 219.265 L886.537 218.316 L882.301 218.316 M890.797 216.557 L890.797 231.349 L886.537 231.349 L886.537 227.413 Q885.079 229.775 882.903 230.909 Q880.727 232.02 877.579 232.02 Q873.598 232.02 871.237 229.798 Q868.899 227.552 868.899 223.802 Q868.899 219.427 871.815 217.205 Q874.755 214.983 880.565 214.983 L886.537 214.983 L886.537 214.566 Q886.537 211.627 884.593 210.029 Q882.672 208.409 879.176 208.409 Q876.954 208.409 874.848 208.941 Q872.741 209.474 870.797 210.539 L870.797 206.603 Q873.135 205.701 875.334 205.261 Q877.533 204.798 879.616 204.798 Q885.241 204.798 888.019 207.714 Q890.797 210.631 890.797 216.557 Z" fill="#000000" fill-rule="evenodd" fill-opacity="1" /><path clip-path="url(#clip330)" d="M 0 0 M895.264 195.33 L899.524 195.33 L899.524 231.349 L895.264 231.349 L895.264 195.33 Z" fill="#000000" fill-rule="evenodd" fill-opacity="1" /><path clip-path="url(#clip330)" d="M 0 0 M903.551 221.117 L903.551 205.423 L907.811 205.423 L907.811 220.955 Q907.811 224.636 909.246 226.488 Q910.681 228.316 913.551 228.316 Q917 228.316 918.991 226.117 Q921.005 223.918 921.005 220.122 L921.005 205.423 L925.264 205.423 L925.264 231.349 L921.005 231.349 L921.005 227.367 Q919.454 229.728 917.394 230.886 Q915.357 232.02 912.648 232.02 Q908.181 232.02 905.866 229.242 Q903.551 226.464 903.551 221.117 M914.269 204.798 L914.269 204.798 Z" fill="#000000" fill-rule="evenodd" fill-opacity="1" /><path clip-path="url(#clip330)" d="M 0 0 M951.908 217.321 L951.908 219.404 L932.324 219.404 Q932.602 223.802 934.963 226.117 Q937.347 228.409 941.583 228.409 Q944.037 228.409 946.329 227.807 Q948.644 227.205 950.912 226.001 L950.912 230.029 Q948.62 231.001 946.213 231.511 Q943.806 232.02 941.329 232.02 Q935.125 232.02 931.491 228.409 Q927.88 224.798 927.88 218.64 Q927.88 212.275 931.306 208.548 Q934.755 204.798 940.588 204.798 Q945.82 204.798 948.852 208.177 Q951.908 211.534 951.908 217.321 M947.648 216.071 Q947.602 212.576 945.681 210.492 Q943.783 208.409 940.634 208.409 Q937.07 208.409 934.917 210.423 Q932.787 212.437 932.463 216.094 L947.648 216.071 Z" fill="#000000" fill-rule="evenodd" fill-opacity="1" /><polyline clip-path="url(#clip330)" style="stroke:#ff0000; stroke-width:4; stroke-opacity:1; fill:none" stroke-dasharray="2, 4" points="
  306.765,274.549 449.508,274.549 
  "/>
<path clip-path="url(#clip330)" d="M 0 0 M477.581 287.94 L477.581 301.69 L473.299 301.69 L473.299 265.903 L477.581 265.903 L477.581 269.838 Q478.924 267.523 480.961 266.412 Q483.021 265.278 485.868 265.278 Q490.591 265.278 493.53 269.028 Q496.493 272.778 496.493 278.889 Q496.493 285 493.53 288.75 Q490.591 292.5 485.868 292.5 Q483.021 292.5 480.961 291.389 Q478.924 290.255 477.581 287.94 M492.072 278.889 Q492.072 274.19 490.128 271.528 Q488.206 268.843 484.827 268.843 Q481.447 268.843 479.503 271.528 Q477.581 274.19 477.581 278.889 Q477.581 283.588 479.503 286.273 Q481.447 288.935 484.827 288.935 Q488.206 288.935 490.128 286.273 Q492.072 283.588 492.072 278.889 Z" fill="#000000" fill-rule="evenodd" fill-opacity="1" /><path clip-path="url(#clip330)" d="M 0 0 M505.174 258.542 L505.174 265.903 L513.947 265.903 L513.947 269.213 L505.174 269.213 L505.174 283.287 Q505.174 286.458 506.03 287.361 Q506.91 288.264 509.572 288.264 L513.947 288.264 L513.947 291.829 L509.572 291.829 Q504.641 291.829 502.766 290 Q500.891 288.148 500.891 283.287 L500.891 269.213 L497.766 269.213 L497.766 265.903 L500.891 265.903 L500.891 258.542 L505.174 258.542 Z" fill="#000000" fill-rule="evenodd" fill-opacity="1" /><path clip-path="url(#clip330)" d="M 0 0 M519.826 287.893 L527.465 287.893 L527.465 261.528 L519.155 263.195 L519.155 258.935 L527.419 257.269 L532.095 257.269 L532.095 287.893 L539.734 287.893 L539.734 291.829 L519.826 291.829 L519.826 287.893 Z" fill="#000000" fill-rule="evenodd" fill-opacity="1" /><path clip-path="url(#clip330)" d="M 0 0 M559.271 255.81 L563.53 255.81 L563.53 291.829 L559.271 291.829 L559.271 255.81 Z" fill="#000000" fill-rule="evenodd" fill-opacity="1" /><path clip-path="url(#clip330)" d="M 0 0 M567.998 265.903 L572.257 265.903 L572.257 291.829 L567.998 291.829 L567.998 265.903 M567.998 255.81 L572.257 255.81 L572.257 261.204 L567.998 261.204 L567.998 255.81 Z" fill="#000000" fill-rule="evenodd" fill-opacity="1" /><path clip-path="url(#clip330)" d="M 0 0 M598.275 276.181 L598.275 291.829 L594.016 291.829 L594.016 276.319 Q594.016 272.639 592.581 270.81 Q591.146 268.982 588.275 268.982 Q584.826 268.982 582.835 271.181 Q580.845 273.38 580.845 277.176 L580.845 291.829 L576.562 291.829 L576.562 265.903 L580.845 265.903 L580.845 269.931 Q582.372 267.593 584.433 266.435 Q586.516 265.278 589.224 265.278 Q593.692 265.278 595.983 268.056 Q598.275 270.81 598.275 276.181 Z" fill="#000000" fill-rule="evenodd" fill-opacity="1" /><path clip-path="url(#clip330)" d="M 0 0 M624.919 277.801 L624.919 279.884 L605.335 279.884 Q605.613 284.282 607.974 286.597 Q610.358 288.889 614.594 288.889 Q617.048 288.889 619.34 288.287 Q621.655 287.685 623.923 286.481 L623.923 290.509 Q621.631 291.481 619.224 291.991 Q616.817 292.5 614.34 292.5 Q608.136 292.5 604.502 288.889 Q600.891 285.278 600.891 279.12 Q600.891 272.755 604.317 269.028 Q607.766 265.278 613.599 265.278 Q618.831 265.278 621.863 268.657 Q624.919 272.014 624.919 277.801 M620.659 276.551 Q620.613 273.056 618.692 270.972 Q616.794 268.889 613.645 268.889 Q610.081 268.889 607.928 270.903 Q605.798 272.917 605.474 276.574 L620.659 276.551 Z" fill="#000000" fill-rule="evenodd" fill-opacity="1" /><path clip-path="url(#clip330)" d="M 0 0 M641.168 278.796 Q636.006 278.796 634.016 279.977 Q632.025 281.157 632.025 284.005 Q632.025 286.273 633.506 287.616 Q635.011 288.935 637.58 288.935 Q641.122 288.935 643.252 286.435 Q645.405 283.912 645.405 279.745 L645.405 278.796 L641.168 278.796 M649.664 277.037 L649.664 291.829 L645.405 291.829 L645.405 287.893 Q643.946 290.255 641.77 291.389 Q639.594 292.5 636.446 292.5 Q632.465 292.5 630.104 290.278 Q627.766 288.032 627.766 284.282 Q627.766 279.907 630.682 277.685 Q633.622 275.463 639.432 275.463 L645.405 275.463 L645.405 275.046 Q645.405 272.107 643.46 270.509 Q641.539 268.889 638.043 268.889 Q635.821 268.889 633.715 269.421 Q631.608 269.954 629.664 271.019 L629.664 267.083 Q632.002 266.181 634.201 265.741 Q636.4 265.278 638.483 265.278 Q644.108 265.278 646.886 268.194 Q649.664 271.111 649.664 277.037 Z" fill="#000000" fill-rule="evenodd" fill-opacity="1" /><path clip-path="url(#clip330)" d="M 0 0 M669.154 269.884 Q668.437 269.468 667.58 269.282 Q666.747 269.074 665.728 269.074 Q662.117 269.074 660.173 271.435 Q658.252 273.773 658.252 278.171 L658.252 291.829 L653.969 291.829 L653.969 265.903 L658.252 265.903 L658.252 269.931 Q659.594 267.569 661.747 266.435 Q663.9 265.278 666.978 265.278 Q667.418 265.278 667.951 265.347 Q668.483 265.394 669.131 265.509 L669.154 269.884 Z" fill="#000000" fill-rule="evenodd" fill-opacity="1" /><path clip-path="url(#clip330)" d="M 0 0 M688.691 265.903 L692.951 265.903 L692.951 291.829 L688.691 291.829 L688.691 265.903 M688.691 255.81 L692.951 255.81 L692.951 261.204 L688.691 261.204 L688.691 255.81 Z" fill="#000000" fill-rule="evenodd" fill-opacity="1" /><path clip-path="url(#clip330)" d="M 0 0 M718.969 276.181 L718.969 291.829 L714.71 291.829 L714.71 276.319 Q714.71 272.639 713.275 270.81 Q711.839 268.982 708.969 268.982 Q705.52 268.982 703.529 271.181 Q701.538 273.38 701.538 277.176 L701.538 291.829 L697.256 291.829 L697.256 265.903 L701.538 265.903 L701.538 269.931 Q703.066 267.593 705.126 266.435 Q707.21 265.278 709.918 265.278 Q714.386 265.278 716.677 268.056 Q718.969 270.81 718.969 276.181 Z" fill="#000000" fill-rule="evenodd" fill-opacity="1" /><path clip-path="url(#clip330)" d="M 0 0 M727.649 258.542 L727.649 265.903 L736.423 265.903 L736.423 269.213 L727.649 269.213 L727.649 283.287 Q727.649 286.458 728.506 287.361 Q729.386 288.264 732.048 288.264 L736.423 288.264 L736.423 291.829 L732.048 291.829 Q727.117 291.829 725.242 290 Q723.367 288.148 723.367 283.287 L723.367 269.213 L720.242 269.213 L720.242 265.903 L723.367 265.903 L723.367 258.542 L727.649 258.542 Z" fill="#000000" fill-rule="evenodd" fill-opacity="1" /><path clip-path="url(#clip330)" d="M 0 0 M763.066 277.801 L763.066 279.884 L743.483 279.884 Q743.76 284.282 746.122 286.597 Q748.506 288.889 752.742 288.889 Q755.196 288.889 757.487 288.287 Q759.802 287.685 762.071 286.481 L762.071 290.509 Q759.779 291.481 757.372 291.991 Q754.964 292.5 752.487 292.5 Q746.284 292.5 742.649 288.889 Q739.038 285.278 739.038 279.12 Q739.038 272.755 742.464 269.028 Q745.913 265.278 751.747 265.278 Q756.978 265.278 760.01 268.657 Q763.066 272.014 763.066 277.801 M758.807 276.551 Q758.76 273.056 756.839 270.972 Q754.941 268.889 751.793 268.889 Q748.228 268.889 746.075 270.903 Q743.946 272.917 743.622 276.574 L758.807 276.551 Z" fill="#000000" fill-rule="evenodd" fill-opacity="1" /><path clip-path="url(#clip330)" d="M 0 0 M782.557 269.884 Q781.839 269.468 780.982 269.282 Q780.149 269.074 779.131 269.074 Q775.52 269.074 773.575 271.435 Q771.654 273.773 771.654 278.171 L771.654 291.829 L767.371 291.829 L767.371 265.903 L771.654 265.903 L771.654 269.931 Q772.996 267.569 775.149 266.435 Q777.302 265.278 780.381 265.278 Q780.82 265.278 781.353 265.347 Q781.885 265.394 782.533 265.509 L782.557 269.884 Z" fill="#000000" fill-rule="evenodd" fill-opacity="1" /><path clip-path="url(#clip330)" d="M 0 0 M791.144 287.94 L791.144 301.69 L786.862 301.69 L786.862 265.903 L791.144 265.903 L791.144 269.838 Q792.487 267.523 794.524 266.412 Q796.584 265.278 799.431 265.278 Q804.154 265.278 807.093 269.028 Q810.056 272.778 810.056 278.889 Q810.056 285 807.093 288.75 Q804.154 292.5 799.431 292.5 Q796.584 292.5 794.524 291.389 Q792.487 290.255 791.144 287.94 M805.635 278.889 Q805.635 274.19 803.691 271.528 Q801.769 268.843 798.39 268.843 Q795.01 268.843 793.066 271.528 Q791.144 274.19 791.144 278.889 Q791.144 283.588 793.066 286.273 Q795.01 288.935 798.39 288.935 Q801.769 288.935 803.691 286.273 Q805.635 283.588 805.635 278.889 Z" fill="#000000" fill-rule="evenodd" fill-opacity="1" /><path clip-path="url(#clip330)" d="M 0 0 M824.57 268.889 Q821.144 268.889 819.154 271.574 Q817.163 274.236 817.163 278.889 Q817.163 283.542 819.13 286.227 Q821.121 288.889 824.57 288.889 Q827.973 288.889 829.964 286.204 Q831.954 283.518 831.954 278.889 Q831.954 274.282 829.964 271.597 Q827.973 268.889 824.57 268.889 M824.57 265.278 Q830.126 265.278 833.297 268.889 Q836.468 272.5 836.468 278.889 Q836.468 285.255 833.297 288.889 Q830.126 292.5 824.57 292.5 Q818.992 292.5 815.82 288.889 Q812.672 285.255 812.672 278.889 Q812.672 272.5 815.82 268.889 Q818.992 265.278 824.57 265.278 Z" fill="#000000" fill-rule="evenodd" fill-opacity="1" /><path clip-path="url(#clip330)" d="M 0 0 M840.936 255.81 L845.195 255.81 L845.195 291.829 L840.936 291.829 L840.936 255.81 Z" fill="#000000" fill-rule="evenodd" fill-opacity="1" /><path clip-path="url(#clip330)" d="M 0 0 M861.445 278.796 Q856.283 278.796 854.292 279.977 Q852.302 281.157 852.302 284.005 Q852.302 286.273 853.783 287.616 Q855.288 288.935 857.857 288.935 Q861.399 288.935 863.528 286.435 Q865.681 283.912 865.681 279.745 L865.681 278.796 L861.445 278.796 M869.94 277.037 L869.94 291.829 L865.681 291.829 L865.681 287.893 Q864.223 290.255 862.047 291.389 Q859.871 292.5 856.723 292.5 Q852.741 292.5 850.38 290.278 Q848.042 288.032 848.042 284.282 Q848.042 279.907 850.959 277.685 Q853.899 275.463 859.709 275.463 L865.681 275.463 L865.681 275.046 Q865.681 272.107 863.737 270.509 Q861.815 268.889 858.32 268.889 Q856.098 268.889 853.991 269.421 Q851.885 269.954 849.94 271.019 L849.94 267.083 Q852.278 266.181 854.477 265.741 Q856.677 265.278 858.76 265.278 Q864.385 265.278 867.163 268.194 Q869.94 271.111 869.94 277.037 Z" fill="#000000" fill-rule="evenodd" fill-opacity="1" /><path clip-path="url(#clip330)" d="M 0 0 M878.621 258.542 L878.621 265.903 L887.394 265.903 L887.394 269.213 L878.621 269.213 L878.621 283.287 Q878.621 286.458 879.477 287.361 Q880.357 288.264 883.019 288.264 L887.394 288.264 L887.394 291.829 L883.019 291.829 Q878.088 291.829 876.213 290 Q874.338 288.148 874.338 283.287 L874.338 269.213 L871.213 269.213 L871.213 265.903 L874.338 265.903 L874.338 258.542 L878.621 258.542 Z" fill="#000000" fill-rule="evenodd" fill-opacity="1" /><path clip-path="url(#clip330)" d="M 0 0 M914.037 277.801 L914.037 279.884 L894.454 279.884 Q894.732 284.282 897.093 286.597 Q899.477 288.889 903.713 288.889 Q906.167 288.889 908.459 288.287 Q910.773 287.685 913.042 286.481 L913.042 290.509 Q910.75 291.481 908.343 291.991 Q905.936 292.5 903.459 292.5 Q897.255 292.5 893.621 288.889 Q890.01 285.278 890.01 279.12 Q890.01 272.755 893.436 269.028 Q896.885 265.278 902.718 265.278 Q907.949 265.278 910.982 268.657 Q914.037 272.014 914.037 277.801 M909.778 276.551 Q909.732 273.056 907.811 270.972 Q905.912 268.889 902.764 268.889 Q899.199 268.889 897.047 270.903 Q894.917 272.917 894.593 276.574 L909.778 276.551 Z" fill="#000000" fill-rule="evenodd" fill-opacity="1" /><path clip-path="url(#clip330)" d="M 0 0 M935.565 269.838 L935.565 255.81 L939.824 255.81 L939.824 291.829 L935.565 291.829 L935.565 287.94 Q934.222 290.255 932.162 291.389 Q930.125 292.5 927.255 292.5 Q922.556 292.5 919.593 288.75 Q916.653 285 916.653 278.889 Q916.653 272.778 919.593 269.028 Q922.556 265.278 927.255 265.278 Q930.125 265.278 932.162 266.412 Q934.222 267.523 935.565 269.838 M921.051 278.889 Q921.051 283.588 922.972 286.273 Q924.917 288.935 928.297 288.935 Q931.676 288.935 933.621 286.273 Q935.565 283.588 935.565 278.889 Q935.565 274.19 933.621 271.528 Q931.676 268.843 928.297 268.843 Q924.917 268.843 922.972 271.528 Q921.051 274.19 921.051 278.889 Z" fill="#000000" fill-rule="evenodd" fill-opacity="1" /><polyline clip-path="url(#clip330)" style="stroke:#ff0000; stroke-width:4; stroke-opacity:1; fill:none" stroke-dasharray="16, 10" points="
  306.765,335.029 449.508,335.029 
  "/>
<path clip-path="url(#clip330)" d="M 0 0 M477.581 348.42 L477.581 362.17 L473.299 362.17 L473.299 326.383 L477.581 326.383 L477.581 330.318 Q478.924 328.003 480.961 326.892 Q483.021 325.758 485.868 325.758 Q490.591 325.758 493.53 329.508 Q496.493 333.258 496.493 339.369 Q496.493 345.48 493.53 349.23 Q490.591 352.98 485.868 352.98 Q483.021 352.98 480.961 351.869 Q478.924 350.735 477.581 348.42 M492.072 339.369 Q492.072 334.67 490.128 332.008 Q488.206 329.323 484.827 329.323 Q481.447 329.323 479.503 332.008 Q477.581 334.67 477.581 339.369 Q477.581 344.068 479.503 346.753 Q481.447 349.415 484.827 349.415 Q488.206 349.415 490.128 346.753 Q492.072 344.068 492.072 339.369 Z" fill="#000000" fill-rule="evenodd" fill-opacity="1" /><path clip-path="url(#clip330)" d="M 0 0 M505.174 319.022 L505.174 326.383 L513.947 326.383 L513.947 329.693 L505.174 329.693 L505.174 343.767 Q505.174 346.938 506.03 347.841 Q506.91 348.744 509.572 348.744 L513.947 348.744 L513.947 352.309 L509.572 352.309 Q504.641 352.309 502.766 350.48 Q500.891 348.628 500.891 343.767 L500.891 329.693 L497.766 329.693 L497.766 326.383 L500.891 326.383 L500.891 319.022 L505.174 319.022 Z" fill="#000000" fill-rule="evenodd" fill-opacity="1" /><path clip-path="url(#clip330)" d="M 0 0 M519.826 348.373 L527.465 348.373 L527.465 322.008 L519.155 323.675 L519.155 319.415 L527.419 317.749 L532.095 317.749 L532.095 348.373 L539.734 348.373 L539.734 352.309 L519.826 352.309 L519.826 348.373 Z" fill="#000000" fill-rule="evenodd" fill-opacity="1" /><path clip-path="url(#clip330)" d="M 0 0 M577.928 327.378 L577.928 331.36 Q576.122 330.364 574.294 329.878 Q572.488 329.369 570.636 329.369 Q566.493 329.369 564.201 332.008 Q561.91 334.624 561.91 339.369 Q561.91 344.114 564.201 346.753 Q566.493 349.369 570.636 349.369 Q572.488 349.369 574.294 348.883 Q576.122 348.373 577.928 347.378 L577.928 351.313 Q576.146 352.147 574.224 352.563 Q572.326 352.98 570.173 352.98 Q564.317 352.98 560.868 349.299 Q557.419 345.619 557.419 339.369 Q557.419 333.026 560.891 329.392 Q564.386 325.758 570.451 325.758 Q572.419 325.758 574.294 326.175 Q576.169 326.568 577.928 327.378 Z" fill="#000000" fill-rule="evenodd" fill-opacity="1" /><path clip-path="url(#clip330)" d="M 0 0 M582.396 316.29 L586.655 316.29 L586.655 352.309 L582.396 352.309 L582.396 316.29 Z" fill="#000000" fill-rule="evenodd" fill-opacity="1" /><path clip-path="url(#clip330)" d="M 0 0 M601.169 329.369 Q597.743 329.369 595.752 332.054 Q593.761 334.716 593.761 339.369 Q593.761 344.022 595.729 346.707 Q597.72 349.369 601.169 349.369 Q604.571 349.369 606.562 346.684 Q608.553 343.998 608.553 339.369 Q608.553 334.762 606.562 332.077 Q604.571 329.369 601.169 329.369 M601.169 325.758 Q606.724 325.758 609.895 329.369 Q613.067 332.98 613.067 339.369 Q613.067 345.735 609.895 349.369 Q606.724 352.98 601.169 352.98 Q595.59 352.98 592.419 349.369 Q589.271 345.735 589.271 339.369 Q589.271 332.98 592.419 329.369 Q595.59 325.758 601.169 325.758 Z" fill="#000000" fill-rule="evenodd" fill-opacity="1" /><path clip-path="url(#clip330)" d="M 0 0 M634.062 327.147 L634.062 331.174 Q632.256 330.249 630.312 329.786 Q628.368 329.323 626.284 329.323 Q623.113 329.323 621.516 330.295 Q619.942 331.267 619.942 333.211 Q619.942 334.693 621.076 335.549 Q622.21 336.383 625.636 337.147 L627.094 337.471 Q631.631 338.443 633.53 340.225 Q635.451 341.985 635.451 345.156 Q635.451 348.767 632.581 350.873 Q629.733 352.98 624.733 352.98 Q622.65 352.98 620.382 352.563 Q618.136 352.17 615.636 351.36 L615.636 346.961 Q617.997 348.188 620.289 348.813 Q622.581 349.415 624.826 349.415 Q627.835 349.415 629.456 348.397 Q631.076 347.355 631.076 345.48 Q631.076 343.744 629.895 342.818 Q628.738 341.892 624.78 341.036 L623.298 340.688 Q619.34 339.855 617.581 338.142 Q615.821 336.406 615.821 333.397 Q615.821 329.739 618.414 327.749 Q621.007 325.758 625.775 325.758 Q628.136 325.758 630.219 326.105 Q632.303 326.452 634.062 327.147 Z" fill="#000000" fill-rule="evenodd" fill-opacity="1" /><path clip-path="url(#clip330)" d="M 0 0 M662.094 338.281 L662.094 340.364 L642.511 340.364 Q642.789 344.762 645.15 347.077 Q647.534 349.369 651.77 349.369 Q654.224 349.369 656.516 348.767 Q658.83 348.165 661.099 346.961 L661.099 350.989 Q658.807 351.961 656.4 352.471 Q653.992 352.98 651.516 352.98 Q645.312 352.98 641.678 349.369 Q638.067 345.758 638.067 339.6 Q638.067 333.235 641.493 329.508 Q644.942 325.758 650.775 325.758 Q656.006 325.758 659.039 329.137 Q662.094 332.494 662.094 338.281 M657.835 337.031 Q657.789 333.536 655.867 331.452 Q653.969 329.369 650.821 329.369 Q647.256 329.369 645.104 331.383 Q642.974 333.397 642.65 337.054 L657.835 337.031 Z" fill="#000000" fill-rule="evenodd" fill-opacity="1" /><path clip-path="url(#clip330)" d="M 0 0 M683.09 327.147 L683.09 331.174 Q681.284 330.249 679.34 329.786 Q677.395 329.323 675.312 329.323 Q672.14 329.323 670.543 330.295 Q668.969 331.267 668.969 333.211 Q668.969 334.693 670.103 335.549 Q671.238 336.383 674.664 337.147 L676.122 337.471 Q680.659 338.443 682.557 340.225 Q684.478 341.985 684.478 345.156 Q684.478 348.767 681.608 350.873 Q678.761 352.98 673.761 352.98 Q671.678 352.98 669.409 352.563 Q667.164 352.17 664.664 351.36 L664.664 346.961 Q667.025 348.188 669.316 348.813 Q671.608 349.415 673.853 349.415 Q676.863 349.415 678.483 348.397 Q680.103 347.355 680.103 345.48 Q680.103 343.744 678.923 342.818 Q677.765 341.892 673.807 341.036 L672.326 340.688 Q668.367 339.855 666.608 338.142 Q664.849 336.406 664.849 333.397 Q664.849 329.739 667.441 327.749 Q670.034 325.758 674.803 325.758 Q677.164 325.758 679.247 326.105 Q681.33 326.452 683.09 327.147 Z" fill="#000000" fill-rule="evenodd" fill-opacity="1" /><path clip-path="url(#clip330)" d="M 0 0 M693.159 319.022 L693.159 326.383 L701.932 326.383 L701.932 329.693 L693.159 329.693 L693.159 343.767 Q693.159 346.938 694.015 347.841 Q694.895 348.744 697.557 348.744 L701.932 348.744 L701.932 352.309 L697.557 352.309 Q692.626 352.309 690.751 350.48 Q688.877 348.628 688.877 343.767 L688.877 329.693 L685.752 329.693 L685.752 326.383 L688.877 326.383 L688.877 319.022 L693.159 319.022 Z" fill="#000000" fill-rule="evenodd" fill-opacity="1" /><path clip-path="url(#clip330)" d="M 0 0 M725.589 348.42 L725.589 362.17 L721.307 362.17 L721.307 326.383 L725.589 326.383 L725.589 330.318 Q726.932 328.003 728.969 326.892 Q731.029 325.758 733.876 325.758 Q738.598 325.758 741.538 329.508 Q744.501 333.258 744.501 339.369 Q744.501 345.48 741.538 349.23 Q738.598 352.98 733.876 352.98 Q731.029 352.98 728.969 351.869 Q726.932 350.735 725.589 348.42 M740.08 339.369 Q740.08 334.67 738.136 332.008 Q736.214 329.323 732.835 329.323 Q729.455 329.323 727.511 332.008 Q725.589 334.67 725.589 339.369 Q725.589 344.068 727.511 346.753 Q729.455 349.415 732.835 349.415 Q736.214 349.415 738.136 346.753 Q740.08 344.068 740.08 339.369 Z" fill="#000000" fill-rule="evenodd" fill-opacity="1" /><path clip-path="url(#clip330)" d="M 0 0 M759.015 329.369 Q755.589 329.369 753.598 332.054 Q751.608 334.716 751.608 339.369 Q751.608 344.022 753.575 346.707 Q755.566 349.369 759.015 349.369 Q762.418 349.369 764.409 346.684 Q766.399 343.998 766.399 339.369 Q766.399 334.762 764.409 332.077 Q762.418 329.369 759.015 329.369 M759.015 325.758 Q764.571 325.758 767.742 329.369 Q770.913 332.98 770.913 339.369 Q770.913 345.735 767.742 349.369 Q764.571 352.98 759.015 352.98 Q753.436 352.98 750.265 349.369 Q747.117 345.735 747.117 339.369 Q747.117 332.98 750.265 329.369 Q753.436 325.758 759.015 325.758 Z" fill="#000000" fill-rule="evenodd" fill-opacity="1" /><path clip-path="url(#clip330)" d="M 0 0 M775.381 326.383 L779.64 326.383 L779.64 352.309 L775.381 352.309 L775.381 326.383 M775.381 316.29 L779.64 316.29 L779.64 321.684 L775.381 321.684 L775.381 316.29 Z" fill="#000000" fill-rule="evenodd" fill-opacity="1" /><path clip-path="url(#clip330)" d="M 0 0 M805.658 336.661 L805.658 352.309 L801.399 352.309 L801.399 336.799 Q801.399 333.119 799.964 331.29 Q798.529 329.462 795.658 329.462 Q792.209 329.462 790.219 331.661 Q788.228 333.86 788.228 337.656 L788.228 352.309 L783.945 352.309 L783.945 326.383 L788.228 326.383 L788.228 330.411 Q789.756 328.073 791.816 326.915 Q793.899 325.758 796.607 325.758 Q801.075 325.758 803.367 328.536 Q805.658 331.29 805.658 336.661 Z" fill="#000000" fill-rule="evenodd" fill-opacity="1" /><path clip-path="url(#clip330)" d="M 0 0 M814.339 319.022 L814.339 326.383 L823.112 326.383 L823.112 329.693 L814.339 329.693 L814.339 343.767 Q814.339 346.938 815.195 347.841 Q816.075 348.744 818.737 348.744 L823.112 348.744 L823.112 352.309 L818.737 352.309 Q813.806 352.309 811.931 350.48 Q810.056 348.628 810.056 343.767 L810.056 329.693 L806.931 329.693 L806.931 326.383 L810.056 326.383 L810.056 319.022 L814.339 319.022 Z" fill="#000000" fill-rule="evenodd" fill-opacity="1" /><path clip-path="url(#clip330)" d="M 0 0 M839.593 326.383 L844.107 326.383 L852.209 348.142 L860.311 326.383 L864.825 326.383 L855.102 352.309 L849.315 352.309 L839.593 326.383 Z" fill="#000000" fill-rule="evenodd" fill-opacity="1" /><path clip-path="url(#clip330)" d="M 0 0 M881.075 339.276 Q875.913 339.276 873.922 340.457 Q871.931 341.637 871.931 344.485 Q871.931 346.753 873.413 348.096 Q874.917 349.415 877.487 349.415 Q881.028 349.415 883.158 346.915 Q885.311 344.392 885.311 340.225 L885.311 339.276 L881.075 339.276 M889.57 337.517 L889.57 352.309 L885.311 352.309 L885.311 348.373 Q883.852 350.735 881.676 351.869 Q879.5 352.98 876.352 352.98 Q872.371 352.98 870.01 350.758 Q867.672 348.512 867.672 344.762 Q867.672 340.387 870.588 338.165 Q873.528 335.943 879.338 335.943 L885.311 335.943 L885.311 335.526 Q885.311 332.587 883.366 330.989 Q881.445 329.369 877.95 329.369 Q875.727 329.369 873.621 329.901 Q871.514 330.434 869.57 331.499 L869.57 327.563 Q871.908 326.661 874.107 326.221 Q876.306 325.758 878.389 325.758 Q884.014 325.758 886.792 328.674 Q889.57 331.591 889.57 337.517 Z" fill="#000000" fill-rule="evenodd" fill-opacity="1" /><path clip-path="url(#clip330)" d="M 0 0 M894.037 316.29 L898.297 316.29 L898.297 352.309 L894.037 352.309 L894.037 316.29 Z" fill="#000000" fill-rule="evenodd" fill-opacity="1" /><path clip-path="url(#clip330)" d="M 0 0 M902.324 342.077 L902.324 326.383 L906.584 326.383 L906.584 341.915 Q906.584 345.596 908.019 347.448 Q909.454 349.276 912.324 349.276 Q915.773 349.276 917.764 347.077 Q919.778 344.878 919.778 341.082 L919.778 326.383 L924.037 326.383 L924.037 352.309 L919.778 352.309 L919.778 348.327 Q918.227 350.688 916.167 351.846 Q914.13 352.98 911.422 352.98 Q906.954 352.98 904.639 350.202 Q902.324 347.424 902.324 342.077 M913.042 325.758 L913.042 325.758 Z" fill="#000000" fill-rule="evenodd" fill-opacity="1" /><path clip-path="url(#clip330)" d="M 0 0 M950.681 338.281 L950.681 340.364 L931.097 340.364 Q931.375 344.762 933.736 347.077 Q936.121 349.369 940.357 349.369 Q942.81 349.369 945.102 348.767 Q947.417 348.165 949.685 346.961 L949.685 350.989 Q947.394 351.961 944.986 352.471 Q942.579 352.98 940.102 352.98 Q933.898 352.98 930.264 349.369 Q926.653 345.758 926.653 339.6 Q926.653 333.235 930.079 329.508 Q933.528 325.758 939.361 325.758 Q944.593 325.758 947.625 329.137 Q950.681 332.494 950.681 338.281 M946.421 337.031 Q946.375 333.536 944.454 331.452 Q942.556 329.369 939.408 329.369 Q935.843 329.369 933.69 331.383 Q931.56 333.397 931.236 337.054 L946.421 337.031 Z" fill="#000000" fill-rule="evenodd" fill-opacity="1" /></svg>
