<?xml version="1.0" encoding="utf-8"?>
<svg xmlns="http://www.w3.org/2000/svg" xmlns:xlink="http://www.w3.org/1999/xlink" width="600" height="400" viewBox="0 0 2400 1600">
<defs>
  <clipPath id="clip170">
    <rect x="0" y="0" width="2400" height="1600"/>
  </clipPath>
</defs>
<path clip-path="url(#clip170)" d="
M0 1600 L2400 1600 L2400 0 L0 0  Z
  " fill="#ffffff" fill-rule="evenodd" fill-opacity="1"/>
<defs>
  <clipPath id="clip171">
    <rect x="480" y="0" width="1681" height="1600"/>
  </clipPath>
</defs>
<path clip-path="url(#clip170)" d="
M287.366 1423.18 L2352.76 1423.18 L2352.76 47.2441 L287.366 47.2441  Z
  " fill="#ffffff" fill-rule="evenodd" fill-opacity="1"/>
<defs>
  <clipPath id="clip172">
    <rect x="287" y="47" width="2066" height="1377"/>
  </clipPath>
</defs>
<polyline clip-path="url(#clip172)" style="stroke:#000000; stroke-width:2; stroke-opacity:0.1; fill:none" points="
  345.82,1423.18 345.82,47.2441 
  "/>
<polyline clip-path="url(#clip172)" style="stroke:#000000; stroke-width:2; stroke-opacity:0.1; fill:none" points="
  690.266,1423.18 690.266,47.2441 
  "/>
<polyline clip-path="url(#clip172)" style="stroke:#000000; stroke-width:2; stroke-opacity:0.1; fill:none" points="
  1034.71,1423.18 1034.71,47.2441 
  "/>
<polyline clip-path="url(#clip172)" style="stroke:#000000; stroke-width:2; stroke-opacity:0.1; fill:none" points="
  1379.16,1423.18 1379.16,47.2441 
  "/>
<polyline clip-path="url(#clip172)" style="stroke:#000000; stroke-width:2; stroke-opacity:0.1; fill:none" points="
  1723.6,1423.18 1723.6,47.2441 
  "/>
<polyline clip-path="url(#clip172)" style="stroke:#000000; stroke-width:2; stroke-opacity:0.1; fill:none" points="
  2068.05,1423.18 2068.05,47.2441 
  "/>
<polyline clip-path="url(#clip170)" style="stroke:#000000; stroke-width:4; stroke-opacity:1; fill:none" points="
  287.366,1423.18 2352.76,1423.18 
  "/>
<polyline clip-path="url(#clip170)" style="stroke:#000000; stroke-width:4; stroke-opacity:1; fill:none" points="
  345.82,1423.18 345.82,1406.67 
  "/>
<polyline clip-path="url(#clip170)" style="stroke:#000000; stroke-width:4; stroke-opacity:1; fill:none" points="
  690.266,1423.18 690.266,1406.67 
  "/>
<polyline clip-path="url(#clip170)" style="stroke:#000000; stroke-width:4; stroke-opacity:1; fill:none" points="
  1034.71,1423.18 1034.71,1406.67 
  "/>
<polyline clip-path="url(#clip170)" style="stroke:#000000; stroke-width:4; stroke-opacity:1; fill:none" points="
  1379.16,1423.18 1379.16,1406.67 
  "/>
<polyline clip-path="url(#clip170)" style="stroke:#000000; stroke-width:4; stroke-opacity:1; fill:none" points="
  1723.6,1423.18 1723.6,1406.67 
  "/>
<polyline clip-path="url(#clip170)" style="stroke:#000000; stroke-width:4; stroke-opacity:1; fill:none" points="
  2068.05,1423.18 2068.05,1406.67 
  "/>
<path clip-path="url(#clip170)" d="M 0 0 M308.124 1452.37 Q304.513 1452.37 302.684 1455.94 Q300.878 1459.48 300.878 1466.61 Q300.878 1473.71 302.684 1477.28 Q304.513 1480.82 308.124 1480.82 Q311.758 1480.82 313.564 1477.28 Q315.392 1473.71 315.392 1466.61 Q315.392 1459.48 313.564 1455.94 Q311.758 1452.37 308.124 1452.37 M308.124 1448.67 Q313.934 1448.67 316.989 1453.27 Q320.068 1457.86 320.068 1466.61 Q320.068 1475.33 316.989 1479.94 Q313.934 1484.52 308.124 1484.52 Q302.314 1484.52 299.235 1479.94 Q296.179 1475.33 296.179 1466.61 Q296.179 1457.86 299.235 1453.27 Q302.314 1448.67 308.124 1448.67 Z" fill="#000000" fill-rule="evenodd" fill-opacity="1" /><path clip-path="url(#clip170)" d="M 0 0 M328.286 1477.97 L333.17 1477.97 L333.17 1483.85 L328.286 1483.85 L328.286 1477.97 Z" fill="#000000" fill-rule="evenodd" fill-opacity="1" /><path clip-path="url(#clip170)" d="M 0 0 M353.355 1452.37 Q349.744 1452.37 347.915 1455.94 Q346.11 1459.48 346.11 1466.61 Q346.11 1473.71 347.915 1477.28 Q349.744 1480.82 353.355 1480.82 Q356.989 1480.82 358.795 1477.28 Q360.623 1473.71 360.623 1466.61 Q360.623 1459.48 358.795 1455.94 Q356.989 1452.37 353.355 1452.37 M353.355 1448.67 Q359.165 1448.67 362.221 1453.27 Q365.299 1457.86 365.299 1466.61 Q365.299 1475.33 362.221 1479.94 Q359.165 1484.52 353.355 1484.52 Q347.545 1484.52 344.466 1479.94 Q341.411 1475.33 341.411 1466.61 Q341.411 1457.86 344.466 1453.27 Q347.545 1448.67 353.355 1448.67 Z" fill="#000000" fill-rule="evenodd" fill-opacity="1" /><path clip-path="url(#clip170)" d="M 0 0 M383.517 1452.37 Q379.906 1452.37 378.077 1455.94 Q376.272 1459.48 376.272 1466.61 Q376.272 1473.71 378.077 1477.28 Q379.906 1480.82 383.517 1480.82 Q387.151 1480.82 388.957 1477.28 Q390.785 1473.71 390.785 1466.61 Q390.785 1459.48 388.957 1455.94 Q387.151 1452.37 383.517 1452.37 M383.517 1448.67 Q389.327 1448.67 392.383 1453.27 Q395.461 1457.86 395.461 1466.61 Q395.461 1475.33 392.383 1479.94 Q389.327 1484.52 383.517 1484.52 Q377.707 1484.52 374.628 1479.94 Q371.573 1475.33 371.573 1466.61 Q371.573 1457.86 374.628 1453.27 Q377.707 1448.67 383.517 1448.67 Z" fill="#000000" fill-rule="evenodd" fill-opacity="1" /><path clip-path="url(#clip170)" d="M 0 0 M653.068 1452.37 Q649.456 1452.37 647.628 1455.94 Q645.822 1459.48 645.822 1466.61 Q645.822 1473.71 647.628 1477.28 Q649.456 1480.82 653.068 1480.82 Q656.702 1480.82 658.507 1477.28 Q660.336 1473.71 660.336 1466.61 Q660.336 1459.48 658.507 1455.94 Q656.702 1452.37 653.068 1452.37 M653.068 1448.67 Q658.878 1448.67 661.933 1453.27 Q665.012 1457.86 665.012 1466.61 Q665.012 1475.33 661.933 1479.94 Q658.878 1484.52 653.068 1484.52 Q647.257 1484.52 644.179 1479.94 Q641.123 1475.33 641.123 1466.61 Q641.123 1457.86 644.179 1453.27 Q647.257 1448.67 653.068 1448.67 Z" fill="#000000" fill-rule="evenodd" fill-opacity="1" /><path clip-path="url(#clip170)" d="M 0 0 M673.229 1477.97 L678.114 1477.97 L678.114 1483.85 L673.229 1483.85 L673.229 1477.97 Z" fill="#000000" fill-rule="evenodd" fill-opacity="1" /><path clip-path="url(#clip170)" d="M 0 0 M692.327 1479.92 L708.646 1479.92 L708.646 1483.85 L686.702 1483.85 L686.702 1479.92 Q689.364 1477.16 693.947 1472.53 Q698.553 1467.88 699.734 1466.54 Q701.979 1464.01 702.859 1462.28 Q703.762 1460.52 703.762 1458.83 Q703.762 1456.07 701.817 1454.34 Q699.896 1452.6 696.794 1452.6 Q694.595 1452.6 692.141 1453.37 Q689.711 1454.13 686.933 1455.68 L686.933 1450.96 Q689.757 1449.82 692.211 1449.25 Q694.665 1448.67 696.702 1448.67 Q702.072 1448.67 705.266 1451.35 Q708.461 1454.04 708.461 1458.53 Q708.461 1460.66 707.651 1462.58 Q706.864 1464.48 704.757 1467.07 Q704.178 1467.74 701.077 1470.96 Q697.975 1474.15 692.327 1479.92 Z" fill="#000000" fill-rule="evenodd" fill-opacity="1" /><path clip-path="url(#clip170)" d="M 0 0 M718.507 1449.29 L736.863 1449.29 L736.863 1453.23 L722.789 1453.23 L722.789 1461.7 Q723.808 1461.35 724.826 1461.19 Q725.845 1461 726.863 1461 Q732.65 1461 736.03 1464.18 Q739.41 1467.35 739.41 1472.76 Q739.41 1478.34 735.937 1481.44 Q732.465 1484.52 726.146 1484.52 Q723.97 1484.52 721.701 1484.15 Q719.456 1483.78 717.049 1483.04 L717.049 1478.34 Q719.132 1479.48 721.354 1480.03 Q723.576 1480.59 726.053 1480.59 Q730.058 1480.59 732.396 1478.48 Q734.734 1476.38 734.734 1472.76 Q734.734 1469.15 732.396 1467.05 Q730.058 1464.94 726.053 1464.94 Q724.178 1464.94 722.303 1465.36 Q720.451 1465.77 718.507 1466.65 L718.507 1449.29 Z" fill="#000000" fill-rule="evenodd" fill-opacity="1" /><path clip-path="url(#clip170)" d="M 0 0 M997.016 1452.37 Q993.405 1452.37 991.576 1455.94 Q989.771 1459.48 989.771 1466.61 Q989.771 1473.71 991.576 1477.28 Q993.405 1480.82 997.016 1480.82 Q1000.65 1480.82 1002.46 1477.28 Q1004.28 1473.71 1004.28 1466.61 Q1004.28 1459.48 1002.46 1455.94 Q1000.65 1452.37 997.016 1452.37 M997.016 1448.67 Q1002.83 1448.67 1005.88 1453.27 Q1008.96 1457.86 1008.96 1466.61 Q1008.96 1475.33 1005.88 1479.94 Q1002.83 1484.52 997.016 1484.52 Q991.206 1484.52 988.127 1479.94 Q985.072 1475.33 985.072 1466.61 Q985.072 1457.86 988.127 1453.27 Q991.206 1448.67 997.016 1448.67 Z" fill="#000000" fill-rule="evenodd" fill-opacity="1" /><path clip-path="url(#clip170)" d="M 0 0 M1017.18 1477.97 L1022.06 1477.97 L1022.06 1483.85 L1017.18 1483.85 L1017.18 1477.97 Z" fill="#000000" fill-rule="evenodd" fill-opacity="1" /><path clip-path="url(#clip170)" d="M 0 0 M1032.29 1449.29 L1050.65 1449.29 L1050.65 1453.23 L1036.58 1453.23 L1036.58 1461.7 Q1037.59 1461.35 1038.61 1461.19 Q1039.63 1461 1040.65 1461 Q1046.44 1461 1049.82 1464.18 Q1053.2 1467.35 1053.2 1472.76 Q1053.2 1478.34 1049.72 1481.44 Q1046.25 1484.52 1039.93 1484.52 Q1037.76 1484.52 1035.49 1484.15 Q1033.24 1483.78 1030.84 1483.04 L1030.84 1478.34 Q1032.92 1479.48 1035.14 1480.03 Q1037.36 1480.59 1039.84 1480.59 Q1043.84 1480.59 1046.18 1478.48 Q1048.52 1476.38 1048.52 1472.76 Q1048.52 1469.15 1046.18 1467.05 Q1043.84 1464.94 1039.84 1464.94 Q1037.96 1464.94 1036.09 1465.36 Q1034.24 1465.77 1032.29 1466.65 L1032.29 1449.29 Z" fill="#000000" fill-rule="evenodd" fill-opacity="1" /><path clip-path="url(#clip170)" d="M 0 0 M1072.41 1452.37 Q1068.8 1452.37 1066.97 1455.94 Q1065.16 1459.48 1065.16 1466.61 Q1065.16 1473.71 1066.97 1477.28 Q1068.8 1480.82 1072.41 1480.82 Q1076.04 1480.82 1077.85 1477.28 Q1079.68 1473.71 1079.68 1466.61 Q1079.68 1459.48 1077.85 1455.94 Q1076.04 1452.37 1072.41 1452.37 M1072.41 1448.67 Q1078.22 1448.67 1081.27 1453.27 Q1084.35 1457.86 1084.35 1466.61 Q1084.35 1475.33 1081.27 1479.94 Q1078.22 1484.52 1072.41 1484.52 Q1066.6 1484.52 1063.52 1479.94 Q1060.46 1475.33 1060.46 1466.61 Q1060.46 1457.86 1063.52 1453.27 Q1066.6 1448.67 1072.41 1448.67 Z" fill="#000000" fill-rule="evenodd" fill-opacity="1" /><path clip-path="url(#clip170)" d="M 0 0 M1341.96 1452.37 Q1338.35 1452.37 1336.52 1455.94 Q1334.71 1459.48 1334.71 1466.61 Q1334.71 1473.71 1336.52 1477.28 Q1338.35 1480.82 1341.96 1480.82 Q1345.59 1480.82 1347.4 1477.28 Q1349.23 1473.71 1349.23 1466.61 Q1349.23 1459.48 1347.4 1455.94 Q1345.59 1452.37 1341.96 1452.37 M1341.96 1448.67 Q1347.77 1448.67 1350.83 1453.27 Q1353.9 1457.86 1353.9 1466.61 Q1353.9 1475.33 1350.83 1479.94 Q1347.77 1484.52 1341.96 1484.52 Q1336.15 1484.52 1333.07 1479.94 Q1330.02 1475.33 1330.02 1466.61 Q1330.02 1457.86 1333.07 1453.27 Q1336.15 1448.67 1341.96 1448.67 Z" fill="#000000" fill-rule="evenodd" fill-opacity="1" /><path clip-path="url(#clip170)" d="M 0 0 M1362.12 1477.97 L1367.01 1477.97 L1367.01 1483.85 L1362.12 1483.85 L1362.12 1477.97 Z" fill="#000000" fill-rule="evenodd" fill-opacity="1" /><path clip-path="url(#clip170)" d="M 0 0 M1376.01 1449.29 L1398.23 1449.29 L1398.23 1451.28 L1385.69 1483.85 L1380.8 1483.85 L1392.61 1453.23 L1376.01 1453.23 L1376.01 1449.29 Z" fill="#000000" fill-rule="evenodd" fill-opacity="1" /><path clip-path="url(#clip170)" d="M 0 0 M1407.4 1449.29 L1425.76 1449.29 L1425.76 1453.23 L1411.68 1453.23 L1411.68 1461.7 Q1412.7 1461.35 1413.72 1461.19 Q1414.74 1461 1415.76 1461 Q1421.54 1461 1424.92 1464.18 Q1428.3 1467.35 1428.3 1472.76 Q1428.3 1478.34 1424.83 1481.44 Q1421.36 1484.52 1415.04 1484.52 Q1412.86 1484.52 1410.59 1484.15 Q1408.35 1483.78 1405.94 1483.04 L1405.94 1478.34 Q1408.02 1479.48 1410.25 1480.03 Q1412.47 1480.59 1414.95 1480.59 Q1418.95 1480.59 1421.29 1478.48 Q1423.63 1476.38 1423.63 1472.76 Q1423.63 1469.15 1421.29 1467.05 Q1418.95 1464.94 1414.95 1464.94 Q1413.07 1464.94 1411.2 1465.36 Q1409.34 1465.77 1407.4 1466.65 L1407.4 1449.29 Z" fill="#000000" fill-rule="evenodd" fill-opacity="1" /><path clip-path="url(#clip170)" d="M 0 0 M1675.68 1479.92 L1683.32 1479.92 L1683.32 1453.55 L1675.01 1455.22 L1675.01 1450.96 L1683.27 1449.29 L1687.95 1449.29 L1687.95 1479.92 L1695.58 1479.92 L1695.58 1483.85 L1675.68 1483.85 L1675.68 1479.92 Z" fill="#000000" fill-rule="evenodd" fill-opacity="1" /><path clip-path="url(#clip170)" d="M 0 0 M1705.03 1477.97 L1709.91 1477.97 L1709.91 1483.85 L1705.03 1483.85 L1705.03 1477.97 Z" fill="#000000" fill-rule="evenodd" fill-opacity="1" /><path clip-path="url(#clip170)" d="M 0 0 M1730.1 1452.37 Q1726.49 1452.37 1724.66 1455.94 Q1722.85 1459.48 1722.85 1466.61 Q1722.85 1473.71 1724.66 1477.28 Q1726.49 1480.82 1730.1 1480.82 Q1733.73 1480.82 1735.54 1477.28 Q1737.37 1473.71 1737.37 1466.61 Q1737.37 1459.48 1735.54 1455.94 Q1733.73 1452.37 1730.1 1452.37 M1730.1 1448.67 Q1735.91 1448.67 1738.96 1453.27 Q1742.04 1457.86 1742.04 1466.61 Q1742.04 1475.33 1738.96 1479.94 Q1735.91 1484.52 1730.1 1484.52 Q1724.29 1484.52 1721.21 1479.94 Q1718.15 1475.33 1718.15 1466.61 Q1718.15 1457.86 1721.21 1453.27 Q1724.29 1448.67 1730.1 1448.67 Z" fill="#000000" fill-rule="evenodd" fill-opacity="1" /><path clip-path="url(#clip170)" d="M 0 0 M1760.26 1452.37 Q1756.65 1452.37 1754.82 1455.94 Q1753.01 1459.48 1753.01 1466.61 Q1753.01 1473.71 1754.82 1477.28 Q1756.65 1480.82 1760.26 1480.82 Q1763.89 1480.82 1765.7 1477.28 Q1767.53 1473.71 1767.53 1466.61 Q1767.53 1459.48 1765.7 1455.94 Q1763.89 1452.37 1760.26 1452.37 M1760.26 1448.67 Q1766.07 1448.67 1769.13 1453.27 Q1772.2 1457.86 1772.2 1466.61 Q1772.2 1475.33 1769.13 1479.94 Q1766.07 1484.52 1760.26 1484.52 Q1754.45 1484.52 1751.37 1479.94 Q1748.32 1475.33 1748.32 1466.61 Q1748.32 1457.86 1751.37 1453.27 Q1754.45 1448.67 1760.26 1448.67 Z" fill="#000000" fill-rule="evenodd" fill-opacity="1" /><path clip-path="url(#clip170)" d="M 0 0 M2020.62 1479.92 L2028.26 1479.92 L2028.26 1453.55 L2019.95 1455.22 L2019.95 1450.96 L2028.21 1449.29 L2032.89 1449.29 L2032.89 1479.92 L2040.53 1479.92 L2040.53 1483.85 L2020.62 1483.85 L2020.62 1479.92 Z" fill="#000000" fill-rule="evenodd" fill-opacity="1" /><path clip-path="url(#clip170)" d="M 0 0 M2049.97 1477.97 L2054.86 1477.97 L2054.86 1483.85 L2049.97 1483.85 L2049.97 1477.97 Z" fill="#000000" fill-rule="evenodd" fill-opacity="1" /><path clip-path="url(#clip170)" d="M 0 0 M2069.07 1479.92 L2085.39 1479.92 L2085.39 1483.85 L2063.44 1483.85 L2063.44 1479.92 Q2066.11 1477.16 2070.69 1472.53 Q2075.3 1467.88 2076.48 1466.54 Q2078.72 1464.01 2079.6 1462.28 Q2080.5 1460.52 2080.5 1458.83 Q2080.5 1456.07 2078.56 1454.34 Q2076.64 1452.6 2073.54 1452.6 Q2071.34 1452.6 2068.88 1453.37 Q2066.45 1454.13 2063.68 1455.68 L2063.68 1450.96 Q2066.5 1449.82 2068.95 1449.25 Q2071.41 1448.67 2073.44 1448.67 Q2078.81 1448.67 2082.01 1451.35 Q2085.2 1454.04 2085.2 1458.53 Q2085.2 1460.66 2084.39 1462.58 Q2083.61 1464.48 2081.5 1467.07 Q2080.92 1467.74 2077.82 1470.96 Q2074.72 1474.15 2069.07 1479.92 Z" fill="#000000" fill-rule="evenodd" fill-opacity="1" /><path clip-path="url(#clip170)" d="M 0 0 M2095.25 1449.29 L2113.61 1449.29 L2113.61 1453.23 L2099.53 1453.23 L2099.53 1461.7 Q2100.55 1461.35 2101.57 1461.19 Q2102.59 1461 2103.61 1461 Q2109.39 1461 2112.77 1464.18 Q2116.15 1467.35 2116.15 1472.76 Q2116.15 1478.34 2112.68 1481.44 Q2109.21 1484.52 2102.89 1484.52 Q2100.71 1484.52 2098.44 1484.15 Q2096.2 1483.78 2093.79 1483.04 L2093.79 1478.34 Q2095.87 1479.48 2098.1 1480.03 Q2100.32 1480.59 2102.8 1480.59 Q2106.8 1480.59 2109.14 1478.48 Q2111.48 1476.38 2111.48 1472.76 Q2111.48 1469.15 2109.14 1467.05 Q2106.8 1464.94 2102.8 1464.94 Q2100.92 1464.94 2099.05 1465.36 Q2097.19 1465.77 2095.25 1466.65 L2095.25 1449.29 Z" fill="#000000" fill-rule="evenodd" fill-opacity="1" /><path clip-path="url(#clip170)" d="M 0 0 M1330.5 1537.87 Q1329.51 1537.3 1328.34 1537.04 Q1327.19 1536.76 1325.79 1536.76 Q1320.82 1536.76 1318.15 1540 Q1315.51 1543.22 1315.51 1549.27 L1315.51 1568.04 L1309.62 1568.04 L1309.62 1532.4 L1315.51 1532.4 L1315.51 1537.93 Q1317.36 1534.69 1320.32 1533.13 Q1323.28 1531.54 1327.51 1531.54 Q1328.11 1531.54 1328.85 1531.63 Q1329.58 1531.7 1330.47 1531.85 L1330.5 1537.87 Z" fill="#000000" fill-rule="evenodd" fill-opacity="1" /><polyline clip-path="url(#clip172)" style="stroke:#000000; stroke-width:2; stroke-opacity:0.1; fill:none" points="
  287.366,1276.07 2352.76,1276.07 
  "/>
<polyline clip-path="url(#clip172)" style="stroke:#000000; stroke-width:2; stroke-opacity:0.1; fill:none" points="
  287.366,1095.78 2352.76,1095.78 
  "/>
<polyline clip-path="url(#clip172)" style="stroke:#000000; stroke-width:2; stroke-opacity:0.1; fill:none" points="
  287.366,915.497 2352.76,915.497 
  "/>
<polyline clip-path="url(#clip172)" style="stroke:#000000; stroke-width:2; stroke-opacity:0.1; fill:none" points="
  287.366,735.212 2352.76,735.212 
  "/>
<polyline clip-path="url(#clip172)" style="stroke:#000000; stroke-width:2; stroke-opacity:0.1; fill:none" points="
  287.366,554.927 2352.76,554.927 
  "/>
<polyline clip-path="url(#clip172)" style="stroke:#000000; stroke-width:2; stroke-opacity:0.1; fill:none" points="
  287.366,374.642 2352.76,374.642 
  "/>
<polyline clip-path="url(#clip172)" style="stroke:#000000; stroke-width:2; stroke-opacity:0.1; fill:none" points="
  287.366,194.357 2352.76,194.357 
  "/>
<polyline clip-path="url(#clip170)" style="stroke:#000000; stroke-width:4; stroke-opacity:1; fill:none" points="
  287.366,1423.18 287.366,47.2441 
  "/>
<polyline clip-path="url(#clip170)" style="stroke:#000000; stroke-width:4; stroke-opacity:1; fill:none" points="
  287.366,1276.07 312.151,1276.07 
  "/>
<polyline clip-path="url(#clip170)" style="stroke:#000000; stroke-width:4; stroke-opacity:1; fill:none" points="
  287.366,1095.78 312.151,1095.78 
  "/>
<polyline clip-path="url(#clip170)" style="stroke:#000000; stroke-width:4; stroke-opacity:1; fill:none" points="
  287.366,915.497 312.151,915.497 
  "/>
<polyline clip-path="url(#clip170)" style="stroke:#000000; stroke-width:4; stroke-opacity:1; fill:none" points="
  287.366,735.212 312.151,735.212 
  "/>
<polyline clip-path="url(#clip170)" style="stroke:#000000; stroke-width:4; stroke-opacity:1; fill:none" points="
  287.366,554.927 312.151,554.927 
  "/>
<polyline clip-path="url(#clip170)" style="stroke:#000000; stroke-width:4; stroke-opacity:1; fill:none" points="
  287.366,374.642 312.151,374.642 
  "/>
<polyline clip-path="url(#clip170)" style="stroke:#000000; stroke-width:4; stroke-opacity:1; fill:none" points="
  287.366,194.357 312.151,194.357 
  "/>
<path clip-path="url(#clip170)" d="M 0 0 M115.256 1276.52 L144.931 1276.52 L144.931 1280.45 L115.256 1280.45 L115.256 1276.52 Z" fill="#000000" fill-rule="evenodd" fill-opacity="1" /><path clip-path="url(#clip170)" d="M 0 0 M165.024 1261.87 Q161.413 1261.87 159.584 1265.43 Q157.778 1268.97 157.778 1276.1 Q157.778 1283.21 159.584 1286.77 Q161.413 1290.31 165.024 1290.31 Q168.658 1290.31 170.464 1286.77 Q172.292 1283.21 172.292 1276.1 Q172.292 1268.97 170.464 1265.43 Q168.658 1261.87 165.024 1261.87 M165.024 1258.16 Q170.834 1258.16 173.889 1262.77 Q176.968 1267.35 176.968 1276.1 Q176.968 1284.83 173.889 1289.44 Q170.834 1294.02 165.024 1294.02 Q159.214 1294.02 156.135 1289.44 Q153.079 1284.83 153.079 1276.1 Q153.079 1267.35 156.135 1262.77 Q159.214 1258.16 165.024 1258.16 Z" fill="#000000" fill-rule="evenodd" fill-opacity="1" /><path clip-path="url(#clip170)" d="M 0 0 M185.186 1287.47 L190.07 1287.47 L190.07 1293.35 L185.186 1293.35 L185.186 1287.47 Z" fill="#000000" fill-rule="evenodd" fill-opacity="1" /><path clip-path="url(#clip170)" d="M 0 0 M199.075 1258.79 L221.297 1258.79 L221.297 1260.78 L208.75 1293.35 L203.866 1293.35 L215.672 1262.72 L199.075 1262.72 L199.075 1258.79 Z" fill="#000000" fill-rule="evenodd" fill-opacity="1" /><path clip-path="url(#clip170)" d="M 0 0 M230.463 1258.79 L248.82 1258.79 L248.82 1262.72 L234.746 1262.72 L234.746 1271.19 Q235.764 1270.85 236.783 1270.69 Q237.801 1270.5 238.82 1270.5 Q244.607 1270.5 247.986 1273.67 Q251.366 1276.84 251.366 1282.26 Q251.366 1287.84 247.894 1290.94 Q244.421 1294.02 238.102 1294.02 Q235.926 1294.02 233.658 1293.65 Q231.412 1293.28 229.005 1292.54 L229.005 1287.84 Q231.088 1288.97 233.31 1289.53 Q235.533 1290.08 238.009 1290.08 Q242.014 1290.08 244.352 1287.98 Q246.69 1285.87 246.69 1282.26 Q246.69 1278.65 244.352 1276.54 Q242.014 1274.44 238.009 1274.44 Q236.135 1274.44 234.26 1274.85 Q232.408 1275.27 230.463 1276.15 L230.463 1258.79 Z" fill="#000000" fill-rule="evenodd" fill-opacity="1" /><path clip-path="url(#clip170)" d="M 0 0 M114.26 1096.23 L143.936 1096.23 L143.936 1100.17 L114.26 1100.17 L114.26 1096.23 Z" fill="#000000" fill-rule="evenodd" fill-opacity="1" /><path clip-path="url(#clip170)" d="M 0 0 M164.028 1081.58 Q160.417 1081.58 158.589 1085.15 Q156.783 1088.69 156.783 1095.82 Q156.783 1102.92 158.589 1106.49 Q160.417 1110.03 164.028 1110.03 Q167.663 1110.03 169.468 1106.49 Q171.297 1102.92 171.297 1095.82 Q171.297 1088.69 169.468 1085.15 Q167.663 1081.58 164.028 1081.58 M164.028 1077.88 Q169.839 1077.88 172.894 1082.48 Q175.973 1087.07 175.973 1095.82 Q175.973 1104.54 172.894 1109.15 Q169.839 1113.73 164.028 1113.73 Q158.218 1113.73 155.14 1109.15 Q152.084 1104.54 152.084 1095.82 Q152.084 1087.07 155.14 1082.48 Q158.218 1077.88 164.028 1077.88 Z" fill="#000000" fill-rule="evenodd" fill-opacity="1" /><path clip-path="url(#clip170)" d="M 0 0 M184.19 1107.18 L189.075 1107.18 L189.075 1113.06 L184.19 1113.06 L184.19 1107.18 Z" fill="#000000" fill-rule="evenodd" fill-opacity="1" /><path clip-path="url(#clip170)" d="M 0 0 M199.306 1078.5 L217.662 1078.5 L217.662 1082.44 L203.588 1082.44 L203.588 1090.91 Q204.607 1090.56 205.625 1090.4 Q206.644 1090.22 207.662 1090.22 Q213.449 1090.22 216.829 1093.39 Q220.209 1096.56 220.209 1101.97 Q220.209 1107.55 216.736 1110.65 Q213.264 1113.73 206.945 1113.73 Q204.769 1113.73 202.5 1113.36 Q200.255 1112.99 197.848 1112.25 L197.848 1107.55 Q199.931 1108.69 202.153 1109.24 Q204.375 1109.8 206.852 1109.8 Q210.857 1109.8 213.195 1107.69 Q215.533 1105.59 215.533 1101.97 Q215.533 1098.36 213.195 1096.26 Q210.857 1094.15 206.852 1094.15 Q204.977 1094.15 203.102 1094.57 Q201.25 1094.98 199.306 1095.86 L199.306 1078.5 Z" fill="#000000" fill-rule="evenodd" fill-opacity="1" /><path clip-path="url(#clip170)" d="M 0 0 M239.422 1081.58 Q235.81 1081.58 233.982 1085.15 Q232.176 1088.69 232.176 1095.82 Q232.176 1102.92 233.982 1106.49 Q235.81 1110.03 239.422 1110.03 Q243.056 1110.03 244.861 1106.49 Q246.69 1102.92 246.69 1095.82 Q246.69 1088.69 244.861 1085.15 Q243.056 1081.58 239.422 1081.58 M239.422 1077.88 Q245.232 1077.88 248.287 1082.48 Q251.366 1087.07 251.366 1095.82 Q251.366 1104.54 248.287 1109.15 Q245.232 1113.73 239.422 1113.73 Q233.611 1113.73 230.533 1109.15 Q227.477 1104.54 227.477 1095.82 Q227.477 1087.07 230.533 1082.48 Q233.611 1077.88 239.422 1077.88 Z" fill="#000000" fill-rule="evenodd" fill-opacity="1" /><path clip-path="url(#clip170)" d="M 0 0 M115.256 915.948 L144.931 915.948 L144.931 919.884 L115.256 919.884 L115.256 915.948 Z" fill="#000000" fill-rule="evenodd" fill-opacity="1" /><path clip-path="url(#clip170)" d="M 0 0 M165.024 901.296 Q161.413 901.296 159.584 904.861 Q157.778 908.402 157.778 915.532 Q157.778 922.638 159.584 926.203 Q161.413 929.745 165.024 929.745 Q168.658 929.745 170.464 926.203 Q172.292 922.638 172.292 915.532 Q172.292 908.402 170.464 904.861 Q168.658 901.296 165.024 901.296 M165.024 897.592 Q170.834 897.592 173.889 902.199 Q176.968 906.782 176.968 915.532 Q176.968 924.259 173.889 928.865 Q170.834 933.448 165.024 933.448 Q159.214 933.448 156.135 928.865 Q153.079 924.259 153.079 915.532 Q153.079 906.782 156.135 902.199 Q159.214 897.592 165.024 897.592 Z" fill="#000000" fill-rule="evenodd" fill-opacity="1" /><path clip-path="url(#clip170)" d="M 0 0 M185.186 926.897 L190.07 926.897 L190.07 932.777 L185.186 932.777 L185.186 926.897 Z" fill="#000000" fill-rule="evenodd" fill-opacity="1" /><path clip-path="url(#clip170)" d="M 0 0 M204.283 928.842 L220.602 928.842 L220.602 932.777 L198.658 932.777 L198.658 928.842 Q201.32 926.087 205.903 921.458 Q210.51 916.805 211.69 915.462 Q213.936 912.939 214.815 911.203 Q215.718 909.444 215.718 907.754 Q215.718 904.999 213.774 903.263 Q211.852 901.527 208.75 901.527 Q206.551 901.527 204.098 902.291 Q201.667 903.055 198.889 904.606 L198.889 899.884 Q201.713 898.749 204.167 898.171 Q206.621 897.592 208.658 897.592 Q214.028 897.592 217.223 900.277 Q220.417 902.962 220.417 907.453 Q220.417 909.583 219.607 911.504 Q218.82 913.402 216.713 915.995 Q216.135 916.666 213.033 919.884 Q209.931 923.078 204.283 928.842 Z" fill="#000000" fill-rule="evenodd" fill-opacity="1" /><path clip-path="url(#clip170)" d="M 0 0 M230.463 898.217 L248.82 898.217 L248.82 902.152 L234.746 902.152 L234.746 910.624 Q235.764 910.277 236.783 910.115 Q237.801 909.93 238.82 909.93 Q244.607 909.93 247.986 913.101 Q251.366 916.273 251.366 921.689 Q251.366 927.268 247.894 930.37 Q244.421 933.448 238.102 933.448 Q235.926 933.448 233.658 933.078 Q231.412 932.708 229.005 931.967 L229.005 927.268 Q231.088 928.402 233.31 928.958 Q235.533 929.513 238.009 929.513 Q242.014 929.513 244.352 927.407 Q246.69 925.3 246.69 921.689 Q246.69 918.078 244.352 915.972 Q242.014 913.865 238.009 913.865 Q236.135 913.865 234.26 914.282 Q232.408 914.698 230.463 915.578 L230.463 898.217 Z" fill="#000000" fill-rule="evenodd" fill-opacity="1" /><path clip-path="url(#clip170)" d="M 0 0 M164.028 721.011 Q160.417 721.011 158.589 724.575 Q156.783 728.117 156.783 735.247 Q156.783 742.353 158.589 745.918 Q160.417 749.46 164.028 749.46 Q167.663 749.46 169.468 745.918 Q171.297 742.353 171.297 735.247 Q171.297 728.117 169.468 724.575 Q167.663 721.011 164.028 721.011 M164.028 717.307 Q169.839 717.307 172.894 721.913 Q175.973 726.497 175.973 735.247 Q175.973 743.973 172.894 748.58 Q169.839 753.163 164.028 753.163 Q158.218 753.163 155.14 748.58 Q152.084 743.973 152.084 735.247 Q152.084 726.497 155.14 721.913 Q158.218 717.307 164.028 717.307 Z" fill="#000000" fill-rule="evenodd" fill-opacity="1" /><path clip-path="url(#clip170)" d="M 0 0 M184.19 746.612 L189.075 746.612 L189.075 752.492 L184.19 752.492 L184.19 746.612 Z" fill="#000000" fill-rule="evenodd" fill-opacity="1" /><path clip-path="url(#clip170)" d="M 0 0 M209.26 721.011 Q205.649 721.011 203.82 724.575 Q202.014 728.117 202.014 735.247 Q202.014 742.353 203.82 745.918 Q205.649 749.46 209.26 749.46 Q212.894 749.46 214.699 745.918 Q216.528 742.353 216.528 735.247 Q216.528 728.117 214.699 724.575 Q212.894 721.011 209.26 721.011 M209.26 717.307 Q215.07 717.307 218.125 721.913 Q221.204 726.497 221.204 735.247 Q221.204 743.973 218.125 748.58 Q215.07 753.163 209.26 753.163 Q203.449 753.163 200.371 748.58 Q197.315 743.973 197.315 735.247 Q197.315 726.497 200.371 721.913 Q203.449 717.307 209.26 717.307 Z" fill="#000000" fill-rule="evenodd" fill-opacity="1" /><path clip-path="url(#clip170)" d="M 0 0 M239.422 721.011 Q235.81 721.011 233.982 724.575 Q232.176 728.117 232.176 735.247 Q232.176 742.353 233.982 745.918 Q235.81 749.46 239.422 749.46 Q243.056 749.46 244.861 745.918 Q246.69 742.353 246.69 735.247 Q246.69 728.117 244.861 724.575 Q243.056 721.011 239.422 721.011 M239.422 717.307 Q245.232 717.307 248.287 721.913 Q251.366 726.497 251.366 735.247 Q251.366 743.973 248.287 748.58 Q245.232 753.163 239.422 753.163 Q233.611 753.163 230.533 748.58 Q227.477 743.973 227.477 735.247 Q227.477 726.497 230.533 721.913 Q233.611 717.307 239.422 717.307 Z" fill="#000000" fill-rule="evenodd" fill-opacity="1" /><path clip-path="url(#clip170)" d="M 0 0 M165.024 540.726 Q161.413 540.726 159.584 544.29 Q157.778 547.832 157.778 554.962 Q157.778 562.068 159.584 565.633 Q161.413 569.174 165.024 569.174 Q168.658 569.174 170.464 565.633 Q172.292 562.068 172.292 554.962 Q172.292 547.832 170.464 544.29 Q168.658 540.726 165.024 540.726 M165.024 537.022 Q170.834 537.022 173.889 541.628 Q176.968 546.212 176.968 554.962 Q176.968 563.688 173.889 568.295 Q170.834 572.878 165.024 572.878 Q159.214 572.878 156.135 568.295 Q153.079 563.688 153.079 554.962 Q153.079 546.212 156.135 541.628 Q159.214 537.022 165.024 537.022 Z" fill="#000000" fill-rule="evenodd" fill-opacity="1" /><path clip-path="url(#clip170)" d="M 0 0 M185.186 566.327 L190.07 566.327 L190.07 572.207 L185.186 572.207 L185.186 566.327 Z" fill="#000000" fill-rule="evenodd" fill-opacity="1" /><path clip-path="url(#clip170)" d="M 0 0 M204.283 568.272 L220.602 568.272 L220.602 572.207 L198.658 572.207 L198.658 568.272 Q201.32 565.517 205.903 560.888 Q210.51 556.235 211.69 554.892 Q213.936 552.369 214.815 550.633 Q215.718 548.874 215.718 547.184 Q215.718 544.429 213.774 542.693 Q211.852 540.957 208.75 540.957 Q206.551 540.957 204.098 541.721 Q201.667 542.485 198.889 544.036 L198.889 539.314 Q201.713 538.179 204.167 537.601 Q206.621 537.022 208.658 537.022 Q214.028 537.022 217.223 539.707 Q220.417 542.392 220.417 546.883 Q220.417 549.013 219.607 550.934 Q218.82 552.832 216.713 555.425 Q216.135 556.096 213.033 559.313 Q209.931 562.508 204.283 568.272 Z" fill="#000000" fill-rule="evenodd" fill-opacity="1" /><path clip-path="url(#clip170)" d="M 0 0 M230.463 537.647 L248.82 537.647 L248.82 541.582 L234.746 541.582 L234.746 550.054 Q235.764 549.707 236.783 549.545 Q237.801 549.36 238.82 549.36 Q244.607 549.36 247.986 552.531 Q251.366 555.702 251.366 561.119 Q251.366 566.698 247.894 569.799 Q244.421 572.878 238.102 572.878 Q235.926 572.878 233.658 572.508 Q231.412 572.137 229.005 571.397 L229.005 566.698 Q231.088 567.832 233.31 568.387 Q235.533 568.943 238.009 568.943 Q242.014 568.943 244.352 566.837 Q246.69 564.73 246.69 561.119 Q246.69 557.508 244.352 555.401 Q242.014 553.295 238.009 553.295 Q236.135 553.295 234.26 553.712 Q232.408 554.128 230.463 555.008 L230.463 537.647 Z" fill="#000000" fill-rule="evenodd" fill-opacity="1" /><path clip-path="url(#clip170)" d="M 0 0 M164.028 360.44 Q160.417 360.44 158.589 364.005 Q156.783 367.547 156.783 374.677 Q156.783 381.783 158.589 385.348 Q160.417 388.889 164.028 388.889 Q167.663 388.889 169.468 385.348 Q171.297 381.783 171.297 374.677 Q171.297 367.547 169.468 364.005 Q167.663 360.44 164.028 360.44 M164.028 356.737 Q169.839 356.737 172.894 361.343 Q175.973 365.927 175.973 374.677 Q175.973 383.403 172.894 388.01 Q169.839 392.593 164.028 392.593 Q158.218 392.593 155.14 388.01 Q152.084 383.403 152.084 374.677 Q152.084 365.927 155.14 361.343 Q158.218 356.737 164.028 356.737 Z" fill="#000000" fill-rule="evenodd" fill-opacity="1" /><path clip-path="url(#clip170)" d="M 0 0 M184.19 386.042 L189.075 386.042 L189.075 391.922 L184.19 391.922 L184.19 386.042 Z" fill="#000000" fill-rule="evenodd" fill-opacity="1" /><path clip-path="url(#clip170)" d="M 0 0 M199.306 357.362 L217.662 357.362 L217.662 361.297 L203.588 361.297 L203.588 369.769 Q204.607 369.422 205.625 369.26 Q206.644 369.075 207.662 369.075 Q213.449 369.075 216.829 372.246 Q220.209 375.417 220.209 380.834 Q220.209 386.413 216.736 389.514 Q213.264 392.593 206.945 392.593 Q204.769 392.593 202.5 392.223 Q200.255 391.852 197.848 391.112 L197.848 386.413 Q199.931 387.547 202.153 388.102 Q204.375 388.658 206.852 388.658 Q210.857 388.658 213.195 386.551 Q215.533 384.445 215.533 380.834 Q215.533 377.223 213.195 375.116 Q210.857 373.01 206.852 373.01 Q204.977 373.01 203.102 373.427 Q201.25 373.843 199.306 374.723 L199.306 357.362 Z" fill="#000000" fill-rule="evenodd" fill-opacity="1" /><path clip-path="url(#clip170)" d="M 0 0 M239.422 360.44 Q235.81 360.44 233.982 364.005 Q232.176 367.547 232.176 374.677 Q232.176 381.783 233.982 385.348 Q235.81 388.889 239.422 388.889 Q243.056 388.889 244.861 385.348 Q246.69 381.783 246.69 374.677 Q246.69 367.547 244.861 364.005 Q243.056 360.44 239.422 360.44 M239.422 356.737 Q245.232 356.737 248.287 361.343 Q251.366 365.927 251.366 374.677 Q251.366 383.403 248.287 388.01 Q245.232 392.593 239.422 392.593 Q233.611 392.593 230.533 388.01 Q227.477 383.403 227.477 374.677 Q227.477 365.927 230.533 361.343 Q233.611 356.737 239.422 356.737 Z" fill="#000000" fill-rule="evenodd" fill-opacity="1" /><path clip-path="url(#clip170)" d="M 0 0 M165.024 180.155 Q161.413 180.155 159.584 183.72 Q157.778 187.262 157.778 194.391 Q157.778 201.498 159.584 205.063 Q161.413 208.604 165.024 208.604 Q168.658 208.604 170.464 205.063 Q172.292 201.498 172.292 194.391 Q172.292 187.262 170.464 183.72 Q168.658 180.155 165.024 180.155 M165.024 176.452 Q170.834 176.452 173.889 181.058 Q176.968 185.641 176.968 194.391 Q176.968 203.118 173.889 207.725 Q170.834 212.308 165.024 212.308 Q159.214 212.308 156.135 207.725 Q153.079 203.118 153.079 194.391 Q153.079 185.641 156.135 181.058 Q159.214 176.452 165.024 176.452 Z" fill="#000000" fill-rule="evenodd" fill-opacity="1" /><path clip-path="url(#clip170)" d="M 0 0 M185.186 205.757 L190.07 205.757 L190.07 211.637 L185.186 211.637 L185.186 205.757 Z" fill="#000000" fill-rule="evenodd" fill-opacity="1" /><path clip-path="url(#clip170)" d="M 0 0 M199.075 177.077 L221.297 177.077 L221.297 179.067 L208.75 211.637 L203.866 211.637 L215.672 181.012 L199.075 181.012 L199.075 177.077 Z" fill="#000000" fill-rule="evenodd" fill-opacity="1" /><path clip-path="url(#clip170)" d="M 0 0 M230.463 177.077 L248.82 177.077 L248.82 181.012 L234.746 181.012 L234.746 189.484 Q235.764 189.137 236.783 188.975 Q237.801 188.79 238.82 188.79 Q244.607 188.79 247.986 191.961 Q251.366 195.132 251.366 200.549 Q251.366 206.127 247.894 209.229 Q244.421 212.308 238.102 212.308 Q235.926 212.308 233.658 211.938 Q231.412 211.567 229.005 210.827 L229.005 206.127 Q231.088 207.262 233.31 207.817 Q235.533 208.373 238.009 208.373 Q242.014 208.373 244.352 206.266 Q246.69 204.16 246.69 200.549 Q246.69 196.938 244.352 194.831 Q242.014 192.725 238.009 192.725 Q236.135 192.725 234.26 193.141 Q232.408 193.558 230.463 194.438 L230.463 177.077 Z" fill="#000000" fill-rule="evenodd" fill-opacity="1" /><path clip-path="url(#clip170)" d="M 0 0 M58.657 745.27 L77.5631 745.27 L77.5631 751.158 L28.3562 751.158 L28.3562 745.27 L33.7671 745.27 Q30.5842 743.424 29.0564 740.623 Q27.4968 737.79 27.4968 733.875 Q27.4968 727.382 32.6531 723.34 Q37.8093 719.266 46.212 719.266 Q54.6147 719.266 59.771 723.34 Q64.9272 727.382 64.9272 733.875 Q64.9272 737.79 63.3994 740.623 Q61.8398 743.424 58.657 745.27 M46.212 725.345 Q39.7508 725.345 36.0905 728.019 Q32.3984 730.66 32.3984 735.307 Q32.3984 739.954 36.0905 742.628 Q39.7508 745.27 46.212 745.27 Q52.6732 745.27 56.3653 742.628 Q60.0256 739.954 60.0256 735.307 Q60.0256 730.66 56.3653 728.019 Q52.6732 725.345 46.212 725.345 Z" fill="#000000" fill-rule="evenodd" fill-opacity="1" /><polyline clip-path="url(#clip172)" style="stroke:#009af9; stroke-width:4; stroke-opacity:1; fill:none" points="
  345.82,551.826 359.598,555.494 373.376,559.161 387.154,562.829 400.932,566.497 414.71,570.165 428.487,573.832 442.265,577.5 456.043,581.168 469.821,584.835 
  483.599,588.503 497.377,592.171 511.154,595.839 524.932,599.506 538.71,603.174 552.488,606.842 566.266,610.509 580.044,614.177 593.821,617.845 607.599,621.513 
  621.377,625.18 635.155,628.848 648.933,632.516 662.711,636.184 676.489,639.851 690.266,643.519 704.044,647.187 717.822,650.854 731.6,654.522 745.378,658.19 
  759.156,661.858 772.933,665.525 786.711,669.193 800.489,672.861 814.267,676.528 828.045,680.196 841.823,683.864 855.601,687.532 869.378,691.199 883.156,694.867 
  896.934,698.535 910.712,702.202 924.49,705.87 938.268,709.538 952.045,713.206 965.823,716.873 979.601,720.541 993.379,724.209 1007.16,727.877 1020.93,731.544 
  1034.71,735.212 1048.49,738.88 1062.27,742.547 1076.05,746.215 1089.82,749.883 1103.6,753.551 1117.38,757.218 1131.16,760.886 1144.94,764.554 1158.71,768.221 
  1172.49,771.889 1186.27,775.557 1200.05,779.225 1213.82,782.892 1227.6,786.56 1241.38,790.228 1255.16,793.895 1268.94,797.563 1282.71,801.231 1296.49,804.899 
  1310.27,808.566 1324.05,812.234 1337.82,815.902 1351.6,819.57 1365.38,823.237 1379.16,826.905 1392.94,830.573 1406.71,834.24 1420.49,837.908 1434.27,841.576 
  1448.05,845.244 1461.83,848.911 1475.6,852.579 1489.38,856.247 1503.16,859.914 1516.94,863.582 1530.71,867.25 1544.49,870.918 1558.27,874.585 1572.05,878.253 
  1585.83,881.921 1599.6,885.588 1613.38,889.256 1627.16,892.924 1640.94,896.592 1654.72,900.259 1668.49,903.927 1682.27,907.595 1696.05,911.263 1709.83,914.93 
  1723.6,918.598 
  "/>
<polyline clip-path="url(#clip172)" style="stroke:#e26f46; stroke-width:4; stroke-opacity:1; fill:none" points="
  345.82,551.826 365.305,555.494 384.79,559.161 404.275,562.829 423.76,566.497 443.244,570.165 462.729,573.832 482.214,577.5 501.699,581.168 521.184,584.835 
  540.668,588.503 560.153,592.171 579.638,595.839 599.123,599.506 618.608,603.174 638.093,606.842 657.577,610.509 677.062,614.177 696.547,617.845 716.032,621.513 
  735.517,625.18 755.001,628.848 774.486,632.516 793.971,636.184 813.456,639.851 832.941,643.519 852.425,647.187 871.91,650.854 891.395,654.522 910.88,658.19 
  930.365,661.858 949.849,665.525 969.334,669.193 988.819,672.861 1008.3,676.528 1027.79,680.196 1047.27,683.864 1066.76,687.532 1086.24,691.199 1105.73,694.867 
  1125.21,698.535 1144.7,702.202 1164.18,705.87 1183.67,709.538 1203.15,713.206 1222.64,716.873 1242.12,720.541 1261.61,724.209 1281.09,727.877 1300.58,731.544 
  1320.06,735.212 1339.55,738.88 1359.03,742.547 1378.52,746.215 1398,749.883 1417.48,753.551 1436.97,757.218 1456.45,760.886 1475.94,764.554 1495.42,768.221 
  1514.91,771.889 1534.39,775.557 1553.88,779.225 1573.36,782.892 1592.85,786.56 1612.33,790.228 1631.82,793.895 1651.3,797.563 1670.79,801.231 1690.27,804.899 
  1709.76,808.566 1729.24,812.234 1748.73,815.902 1768.21,819.57 1787.7,823.237 1807.18,826.905 1826.67,830.573 1846.15,834.24 1865.64,837.908 1885.12,841.576 
  1904.61,845.244 1924.09,848.911 1943.57,852.579 1963.06,856.247 1982.54,859.914 2002.03,863.582 2021.51,867.25 2041,870.918 2060.48,874.585 2079.97,878.253 
  2099.45,881.921 2118.94,885.588 2138.42,889.256 2157.91,892.924 2177.39,896.592 2196.88,900.259 2216.36,903.927 2235.85,907.595 2255.33,911.263 2274.82,914.93 
  2294.3,918.598 
  "/>
<polyline clip-path="url(#clip172)" style="stroke:#3da44d; stroke-width:4; stroke-opacity:1; fill:none" points="
  345.82,86.1857 359.598,99.1662 373.376,112.147 387.154,125.127 400.932,138.108 414.71,151.088 428.487,164.069 442.265,177.049 456.043,190.03 469.821,203.01 
  483.599,215.991 497.377,228.971 511.154,241.952 524.932,254.933 538.71,267.913 552.488,280.894 566.266,293.874 580.044,306.855 593.821,319.835 607.599,332.816 
  621.377,345.796 635.155,358.777 648.933,371.757 662.711,384.738 676.489,397.718 690.266,410.699 704.044,423.679 717.822,436.66 731.6,449.64 745.378,462.621 
  759.156,475.601 772.933,488.582 786.711,501.563 800.489,514.543 814.267,527.524 828.045,540.504 841.823,553.485 855.601,566.465 869.378,579.446 883.156,592.426 
  896.934,605.407 910.712,618.387 924.49,631.368 938.268,644.348 952.045,657.329 965.823,670.309 979.601,683.29 993.379,696.27 1007.16,709.251 1020.93,722.231 
  1034.71,735.212 1048.49,748.192 1062.27,761.173 1076.05,774.154 1089.82,787.134 1103.6,800.115 1117.38,813.095 1131.16,826.076 1144.94,839.056 1158.71,852.037 
  1172.49,865.017 1186.27,877.998 1200.05,890.978 1213.82,903.959 1227.6,916.939 1241.38,929.92 1255.16,942.9 1268.94,955.881 1282.71,968.861 1296.49,981.842 
  1310.27,994.822 1324.05,1007.8 1337.82,1020.78 1351.6,1033.76 1365.38,1046.74 1379.16,1059.73 1392.94,1072.71 1406.71,1085.69 1420.49,1098.67 1434.27,1111.65 
  1448.05,1124.63 1461.83,1137.61 1475.6,1150.59 1489.38,1163.57 1503.16,1176.55 1516.94,1189.53 1530.71,1202.51 1544.49,1215.49 1558.27,1228.47 1572.05,1241.45 
  1585.83,1254.43 1599.6,1267.41 1613.38,1280.39 1627.16,1293.37 1640.94,1306.36 1654.72,1319.34 1668.49,1332.32 1682.27,1345.3 1696.05,1358.28 1709.83,1371.26 
  1723.6,1384.24 
  "/>
<polyline clip-path="url(#clip172)" style="stroke:#c271d2; stroke-width:4; stroke-opacity:1; fill:none" points="
  345.82,86.1857 365.305,99.1662 384.79,112.147 404.275,125.127 423.76,138.108 443.244,151.088 462.729,164.069 482.214,177.049 501.699,190.03 521.184,203.01 
  540.668,215.991 560.153,228.971 579.638,241.952 599.123,254.933 618.608,267.913 638.093,280.894 657.577,293.874 677.062,306.855 696.547,319.835 716.032,332.816 
  735.517,345.796 755.001,358.777 774.486,371.757 793.971,384.738 813.456,397.718 832.941,410.699 852.425,423.679 871.91,436.66 891.395,449.64 910.88,462.621 
  930.365,475.601 949.849,488.582 969.334,501.563 988.819,514.543 1008.3,527.524 1027.79,540.504 1047.27,553.485 1066.76,566.465 1086.24,579.446 1105.73,592.426 
  1125.21,605.407 1144.7,618.387 1164.18,631.368 1183.67,644.348 1203.15,657.329 1222.64,670.309 1242.12,683.29 1261.61,696.27 1281.09,709.251 1300.58,722.231 
  1320.06,735.212 1339.55,748.192 1359.03,761.173 1378.52,774.154 1398,787.134 1417.48,800.115 1436.97,813.095 1456.45,826.076 1475.94,839.056 1495.42,852.037 
  1514.91,865.017 1534.39,877.998 1553.88,890.978 1573.36,903.959 1592.85,916.939 1612.33,929.92 1631.82,942.9 1651.3,955.881 1670.79,968.861 1690.27,981.842 
  1709.76,994.822 1729.24,1007.8 1748.73,1020.78 1768.21,1033.76 1787.7,1046.74 1807.18,1059.73 1826.67,1072.71 1846.15,1085.69 1865.64,1098.67 1885.12,1111.65 
  1904.61,1124.63 1924.09,1137.61 1943.57,1150.59 1963.06,1163.57 1982.54,1176.55 2002.03,1189.53 2021.51,1202.51 2041,1215.49 2060.48,1228.47 2079.97,1241.45 
  2099.45,1254.43 2118.94,1267.41 2138.42,1280.39 2157.91,1293.37 2177.39,1306.36 2196.88,1319.34 2216.36,1332.32 2235.85,1345.3 2255.33,1358.28 2274.82,1371.26 
  2294.3,1384.24 
  "/>
<path clip-path="url(#clip170)" d="
M1784.77 395.509 L2283.91 395.509 L2283.91 93.1086 L1784.77 93.1086  Z
  " fill="#ffffff" fill-rule="evenodd" fill-opacity="1"/>
<polyline clip-path="url(#clip170)" style="stroke:#000000; stroke-width:4; stroke-opacity:1; fill:none" points="
  1784.77,395.509 2283.91,395.509 2283.91,93.1086 1784.77,93.1086 1784.77,395.509 
  "/>
<polyline clip-path="url(#clip170)" style="stroke:#009af9; stroke-width:4; stroke-opacity:1; fill:none" points="
  1807.72,153.589 1945.41,153.589 
  "/>
<path clip-path="url(#clip170)" d="M 0 0 M1972.64 166.98 L1972.64 180.73 L1968.36 180.73 L1968.36 144.943 L1972.64 144.943 L1972.64 148.878 Q1973.99 146.563 1976.02 145.452 Q1978.08 144.318 1980.93 144.318 Q1985.65 144.318 1988.59 148.068 Q1991.56 151.818 1991.56 157.929 Q1991.56 164.04 1988.59 167.79 Q1985.65 171.54 1980.93 171.54 Q1978.08 171.54 1976.02 170.429 Q1973.99 169.295 1972.64 166.98 M1987.13 157.929 Q1987.13 153.23 1985.19 150.568 Q1983.27 147.883 1979.89 147.883 Q1976.51 147.883 1974.56 150.568 Q1972.64 153.23 1972.64 157.929 Q1972.64 162.628 1974.56 165.313 Q1976.51 167.975 1979.89 167.975 Q1983.27 167.975 1985.19 165.313 Q1987.13 162.628 1987.13 157.929 Z" fill="#000000" fill-rule="evenodd" fill-opacity="1" /><path clip-path="url(#clip170)" d="M 0 0 M2018.31 178.739 L2018.31 182.049 L1993.68 182.049 L1993.68 178.739 L2018.31 178.739 Z" fill="#000000" fill-rule="evenodd" fill-opacity="1" /><path clip-path="url(#clip170)" d="M 0 0 M2043.87 144.943 L2034.49 157.559 L2044.36 170.869 L2039.33 170.869 L2031.79 160.683 L2024.24 170.869 L2019.22 170.869 L2029.29 157.304 L2020.07 144.943 L2025.1 144.943 L2031.97 154.179 L2038.85 144.943 L2043.87 144.943 Z" fill="#000000" fill-rule="evenodd" fill-opacity="1" /><path clip-path="url(#clip170)" d="M 0 0 M2069.66 137.582 L2069.66 144.943 L2078.43 144.943 L2078.43 148.253 L2069.66 148.253 L2069.66 162.327 Q2069.66 165.498 2070.51 166.401 Q2071.39 167.304 2074.05 167.304 L2078.43 167.304 L2078.43 170.869 L2074.05 170.869 Q2069.12 170.869 2067.25 169.04 Q2065.37 167.188 2065.37 162.327 L2065.37 148.253 L2062.25 148.253 L2062.25 144.943 L2065.37 144.943 L2065.37 137.582 L2069.66 137.582 Z" fill="#000000" fill-rule="evenodd" fill-opacity="1" /><path clip-path="url(#clip170)" d="M 0 0 M2084.59 149.341 L2114.26 149.341 L2114.26 153.23 L2084.59 153.23 L2084.59 149.341 M2084.59 158.785 L2114.26 158.785 L2114.26 162.721 L2084.59 162.721 L2084.59 158.785 Z" fill="#000000" fill-rule="evenodd" fill-opacity="1" /><path clip-path="url(#clip170)" d="M 0 0 M2127.97 137.582 L2127.97 144.943 L2136.74 144.943 L2136.74 148.253 L2127.97 148.253 L2127.97 162.327 Q2127.97 165.498 2128.82 166.401 Q2129.7 167.304 2132.36 167.304 L2136.74 167.304 L2136.74 170.869 L2132.36 170.869 Q2127.43 170.869 2125.56 169.04 Q2123.68 167.188 2123.68 162.327 L2123.68 148.253 L2120.56 148.253 L2120.56 144.943 L2123.68 144.943 L2123.68 137.582 L2127.97 137.582 Z" fill="#000000" fill-rule="evenodd" fill-opacity="1" /><path clip-path="url(#clip170)" d="M 0 0 M2143.75 166.933 L2151.39 166.933 L2151.39 140.568 L2143.08 142.235 L2143.08 137.975 L2151.35 136.309 L2156.02 136.309 L2156.02 166.933 L2163.66 166.933 L2163.66 170.869 L2143.75 170.869 L2143.75 166.933 Z" fill="#000000" fill-rule="evenodd" fill-opacity="1" /><polyline clip-path="url(#clip170)" style="stroke:#e26f46; stroke-width:4; stroke-opacity:1; fill:none" points="
  1807.72,214.069 1945.41,214.069 
  "/>
<path clip-path="url(#clip170)" d="M 0 0 M1972.64 227.46 L1972.64 241.21 L1968.36 241.21 L1968.36 205.423 L1972.64 205.423 L1972.64 209.358 Q1973.99 207.043 1976.02 205.932 Q1978.08 204.798 1980.93 204.798 Q1985.65 204.798 1988.59 208.548 Q1991.56 212.298 1991.56 218.409 Q1991.56 224.52 1988.59 228.27 Q1985.65 232.02 1980.93 232.02 Q1978.08 232.02 1976.02 230.909 Q1973.99 229.775 1972.64 227.46 M1987.13 218.409 Q1987.13 213.71 1985.19 211.048 Q1983.27 208.363 1979.89 208.363 Q1976.51 208.363 1974.56 211.048 Q1972.64 213.71 1972.64 218.409 Q1972.64 223.108 1974.56 225.793 Q1976.51 228.455 1979.89 228.455 Q1983.27 228.455 1985.19 225.793 Q1987.13 223.108 1987.13 218.409 Z" fill="#000000" fill-rule="evenodd" fill-opacity="1" /><path clip-path="url(#clip170)" d="M 0 0 M2018.31 239.219 L2018.31 242.529 L1993.68 242.529 L1993.68 239.219 L2018.31 239.219 Z" fill="#000000" fill-rule="evenodd" fill-opacity="1" /><path clip-path="url(#clip170)" d="M 0 0 M2039.38 209.358 L2039.38 195.33 L2043.64 195.33 L2043.64 231.349 L2039.38 231.349 L2039.38 227.46 Q2038.04 229.775 2035.98 230.909 Q2033.94 232.02 2031.07 232.02 Q2026.37 232.02 2023.41 228.27 Q2020.47 224.52 2020.47 218.409 Q2020.47 212.298 2023.41 208.548 Q2026.37 204.798 2031.07 204.798 Q2033.94 204.798 2035.98 205.932 Q2038.04 207.043 2039.38 209.358 M2024.87 218.409 Q2024.87 223.108 2026.79 225.793 Q2028.73 228.455 2032.11 228.455 Q2035.49 228.455 2037.43 225.793 Q2039.38 223.108 2039.38 218.409 Q2039.38 213.71 2037.43 211.048 Q2035.49 208.363 2032.11 208.363 Q2028.73 208.363 2026.79 211.048 Q2024.87 213.71 2024.87 218.409 Z" fill="#000000" fill-rule="evenodd" fill-opacity="1" /><path clip-path="url(#clip170)" d="M 0 0 M2052.41 205.423 L2056.67 205.423 L2056.67 231.349 L2052.41 231.349 L2052.41 205.423 M2052.41 195.33 L2056.67 195.33 L2056.67 200.724 L2052.41 200.724 L2052.41 195.33 Z" fill="#000000" fill-rule="evenodd" fill-opacity="1" /><path clip-path="url(#clip170)" d="M 0 0 M2077.36 218.316 Q2072.2 218.316 2070.21 219.497 Q2068.22 220.677 2068.22 223.525 Q2068.22 225.793 2069.7 227.136 Q2071.21 228.455 2073.78 228.455 Q2077.32 228.455 2079.45 225.955 Q2081.6 223.432 2081.6 219.265 L2081.6 218.316 L2077.36 218.316 M2085.86 216.557 L2085.86 231.349 L2081.6 231.349 L2081.6 227.413 Q2080.14 229.775 2077.97 230.909 Q2075.79 232.02 2072.64 232.02 Q2068.66 232.02 2066.3 229.798 Q2063.96 227.552 2063.96 223.802 Q2063.96 219.427 2066.88 217.205 Q2069.82 214.983 2075.63 214.983 L2081.6 214.983 L2081.6 214.566 Q2081.6 211.627 2079.66 210.029 Q2077.74 208.409 2074.24 208.409 Q2072.02 208.409 2069.91 208.941 Q2067.8 209.474 2065.86 210.539 L2065.86 206.603 Q2068.2 205.701 2070.4 205.261 Q2072.6 204.798 2074.68 204.798 Q2080.3 204.798 2083.08 207.714 Q2085.86 210.631 2085.86 216.557 Z" fill="#000000" fill-rule="evenodd" fill-opacity="1" /><path clip-path="url(#clip170)" d="M 0 0 M2111.69 218.085 Q2111.69 213.455 2109.77 210.909 Q2107.87 208.363 2104.42 208.363 Q2101 208.363 2099.08 210.909 Q2097.18 213.455 2097.18 218.085 Q2097.18 222.691 2099.08 225.238 Q2101 227.784 2104.42 227.784 Q2107.87 227.784 2109.77 225.238 Q2111.69 222.691 2111.69 218.085 M2115.95 228.131 Q2115.95 234.751 2113.01 237.969 Q2110.07 241.21 2104.01 241.21 Q2101.76 241.21 2099.77 240.862 Q2097.78 240.538 2095.91 239.844 L2095.91 235.7 Q2097.78 236.719 2099.61 237.205 Q2101.44 237.691 2103.34 237.691 Q2107.53 237.691 2109.61 235.492 Q2111.69 233.316 2111.69 228.895 L2111.69 226.788 Q2110.37 229.08 2108.31 230.214 Q2106.25 231.349 2103.38 231.349 Q2098.61 231.349 2095.7 227.714 Q2092.78 224.08 2092.78 218.085 Q2092.78 212.066 2095.7 208.432 Q2098.61 204.798 2103.38 204.798 Q2106.25 204.798 2108.31 205.932 Q2110.37 207.066 2111.69 209.358 L2111.69 205.423 L2115.95 205.423 L2115.95 228.131 Z" fill="#000000" fill-rule="evenodd" fill-opacity="1" /><path clip-path="url(#clip170)" d="M 0 0 M2144.01 198.062 L2144.01 205.423 L2152.78 205.423 L2152.78 208.733 L2144.01 208.733 L2144.01 222.807 Q2144.01 225.978 2144.86 226.881 Q2145.74 227.784 2148.41 227.784 L2152.78 227.784 L2152.78 231.349 L2148.41 231.349 Q2143.48 231.349 2141.6 229.52 Q2139.73 227.668 2139.73 222.807 L2139.73 208.733 L2136.6 208.733 L2136.6 205.423 L2139.73 205.423 L2139.73 198.062 L2144.01 198.062 Z" fill="#000000" fill-rule="evenodd" fill-opacity="1" /><path clip-path="url(#clip170)" d="M 0 0 M2158.94 209.821 L2188.61 209.821 L2188.61 213.71 L2158.94 213.71 L2158.94 209.821 M2158.94 219.265 L2188.61 219.265 L2188.61 223.201 L2158.94 223.201 L2158.94 219.265 Z" fill="#000000" fill-rule="evenodd" fill-opacity="1" /><path clip-path="url(#clip170)" d="M 0 0 M2202.32 198.062 L2202.32 205.423 L2211.09 205.423 L2211.09 208.733 L2202.32 208.733 L2202.32 222.807 Q2202.32 225.978 2203.17 226.881 Q2204.05 227.784 2206.72 227.784 L2211.09 227.784 L2211.09 231.349 L2206.72 231.349 Q2201.79 231.349 2199.91 229.52 Q2198.04 227.668 2198.04 222.807 L2198.04 208.733 L2194.91 208.733 L2194.91 205.423 L2198.04 205.423 L2198.04 198.062 L2202.32 198.062 Z" fill="#000000" fill-rule="evenodd" fill-opacity="1" /><path clip-path="url(#clip170)" d="M 0 0 M2218.1 227.413 L2225.74 227.413 L2225.74 201.048 L2217.43 202.715 L2217.43 198.455 L2225.7 196.789 L2230.37 196.789 L2230.37 227.413 L2238.01 227.413 L2238.01 231.349 L2218.1 231.349 L2218.1 227.413 Z" fill="#000000" fill-rule="evenodd" fill-opacity="1" /><polyline clip-path="url(#clip170)" style="stroke:#3da44d; stroke-width:4; stroke-opacity:1; fill:none" points="
  1807.72,274.549 1945.41,274.549 
  "/>
<path clip-path="url(#clip170)" d="M 0 0 M1972.64 287.94 L1972.64 301.69 L1968.36 301.69 L1968.36 265.903 L1972.64 265.903 L1972.64 269.838 Q1973.99 267.523 1976.02 266.412 Q1978.08 265.278 1980.93 265.278 Q1985.65 265.278 1988.59 269.028 Q1991.56 272.778 1991.56 278.889 Q1991.56 285 1988.59 288.75 Q1985.65 292.5 1980.93 292.5 Q1978.08 292.5 1976.02 291.389 Q1973.99 290.255 1972.64 287.94 M1987.13 278.889 Q1987.13 274.19 1985.19 271.528 Q1983.27 268.843 1979.89 268.843 Q1976.51 268.843 1974.56 271.528 Q1972.64 274.19 1972.64 278.889 Q1972.64 283.588 1974.56 286.273 Q1976.51 288.935 1979.89 288.935 Q1983.27 288.935 1985.19 286.273 Q1987.13 283.588 1987.13 278.889 Z" fill="#000000" fill-rule="evenodd" fill-opacity="1" /><path clip-path="url(#clip170)" d="M 0 0 M2018.31 299.699 L2018.31 303.009 L1993.68 303.009 L1993.68 299.699 L2018.31 299.699 Z" fill="#000000" fill-rule="evenodd" fill-opacity="1" /><path clip-path="url(#clip170)" d="M 0 0 M2043.87 265.903 L2034.49 278.519 L2044.36 291.829 L2039.33 291.829 L2031.79 281.643 L2024.24 291.829 L2019.22 291.829 L2029.29 278.264 L2020.07 265.903 L2025.1 265.903 L2031.97 275.139 L2038.85 265.903 L2043.87 265.903 Z" fill="#000000" fill-rule="evenodd" fill-opacity="1" /><path clip-path="url(#clip170)" d="M 0 0 M2069.66 258.542 L2069.66 265.903 L2078.43 265.903 L2078.43 269.213 L2069.66 269.213 L2069.66 283.287 Q2069.66 286.458 2070.51 287.361 Q2071.39 288.264 2074.05 288.264 L2078.43 288.264 L2078.43 291.829 L2074.05 291.829 Q2069.12 291.829 2067.25 290 Q2065.37 288.148 2065.37 283.287 L2065.37 269.213 L2062.25 269.213 L2062.25 265.903 L2065.37 265.903 L2065.37 258.542 L2069.66 258.542 Z" fill="#000000" fill-rule="evenodd" fill-opacity="1" /><path clip-path="url(#clip170)" d="M 0 0 M2084.59 270.301 L2114.26 270.301 L2114.26 274.19 L2084.59 274.19 L2084.59 270.301 M2084.59 279.745 L2114.26 279.745 L2114.26 283.681 L2084.59 283.681 L2084.59 279.745 Z" fill="#000000" fill-rule="evenodd" fill-opacity="1" /><path clip-path="url(#clip170)" d="M 0 0 M2127.97 258.542 L2127.97 265.903 L2136.74 265.903 L2136.74 269.213 L2127.97 269.213 L2127.97 283.287 Q2127.97 286.458 2128.82 287.361 Q2129.7 288.264 2132.36 288.264 L2136.74 288.264 L2136.74 291.829 L2132.36 291.829 Q2127.43 291.829 2125.56 290 Q2123.68 288.148 2123.68 283.287 L2123.68 269.213 L2120.56 269.213 L2120.56 265.903 L2123.68 265.903 L2123.68 258.542 L2127.97 258.542 Z" fill="#000000" fill-rule="evenodd" fill-opacity="1" /><path clip-path="url(#clip170)" d="M 0 0 M2143.75 287.893 L2151.39 287.893 L2151.39 261.528 L2143.08 263.195 L2143.08 258.935 L2151.35 257.269 L2156.02 257.269 L2156.02 287.893 L2163.66 287.893 L2163.66 291.829 L2143.75 291.829 L2143.75 287.893 Z" fill="#000000" fill-rule="evenodd" fill-opacity="1" /><polyline clip-path="url(#clip170)" style="stroke:#c271d2; stroke-width:4; stroke-opacity:1; fill:none" points="
  1807.72,335.029 1945.41,335.029 
  "/>
<path clip-path="url(#clip170)" d="M 0 0 M1972.64 348.42 L1972.64 362.17 L1968.36 362.17 L1968.36 326.383 L1972.64 326.383 L1972.64 330.318 Q1973.99 328.003 1976.02 326.892 Q1978.08 325.758 1980.93 325.758 Q1985.65 325.758 1988.59 329.508 Q1991.56 333.258 1991.56 339.369 Q1991.56 345.48 1988.59 349.23 Q1985.65 352.98 1980.93 352.98 Q1978.08 352.98 1976.02 351.869 Q1973.99 350.735 1972.64 348.42 M1987.13 339.369 Q1987.13 334.67 1985.19 332.008 Q1983.27 329.323 1979.89 329.323 Q1976.51 329.323 1974.56 332.008 Q1972.64 334.67 1972.64 339.369 Q1972.64 344.068 1974.56 346.753 Q1976.51 349.415 1979.89 349.415 Q1983.27 349.415 1985.19 346.753 Q1987.13 344.068 1987.13 339.369 Z" fill="#000000" fill-rule="evenodd" fill-opacity="1" /><path clip-path="url(#clip170)" d="M 0 0 M2018.31 360.179 L2018.31 363.489 L1993.68 363.489 L1993.68 360.179 L2018.31 360.179 Z" fill="#000000" fill-rule="evenodd" fill-opacity="1" /><path clip-path="url(#clip170)" d="M 0 0 M2039.38 330.318 L2039.38 316.29 L2043.64 316.29 L2043.64 352.309 L2039.38 352.309 L2039.38 348.42 Q2038.04 350.735 2035.98 351.869 Q2033.94 352.98 2031.07 352.98 Q2026.37 352.98 2023.41 349.23 Q2020.47 345.48 2020.47 339.369 Q2020.47 333.258 2023.41 329.508 Q2026.37 325.758 2031.07 325.758 Q2033.94 325.758 2035.98 326.892 Q2038.04 328.003 2039.38 330.318 M2024.87 339.369 Q2024.87 344.068 2026.79 346.753 Q2028.73 349.415 2032.11 349.415 Q2035.49 349.415 2037.43 346.753 Q2039.38 344.068 2039.38 339.369 Q2039.38 334.67 2037.43 332.008 Q2035.49 329.323 2032.11 329.323 Q2028.73 329.323 2026.79 332.008 Q2024.87 334.67 2024.87 339.369 Z" fill="#000000" fill-rule="evenodd" fill-opacity="1" /><path clip-path="url(#clip170)" d="M 0 0 M2052.41 326.383 L2056.67 326.383 L2056.67 352.309 L2052.41 352.309 L2052.41 326.383 M2052.41 316.29 L2056.67 316.29 L2056.67 321.684 L2052.41 321.684 L2052.41 316.29 Z" fill="#000000" fill-rule="evenodd" fill-opacity="1" /><path clip-path="url(#clip170)" d="M 0 0 M2077.36 339.276 Q2072.2 339.276 2070.21 340.457 Q2068.22 341.637 2068.22 344.485 Q2068.22 346.753 2069.7 348.096 Q2071.21 349.415 2073.78 349.415 Q2077.32 349.415 2079.45 346.915 Q2081.6 344.392 2081.6 340.225 L2081.6 339.276 L2077.36 339.276 M2085.86 337.517 L2085.86 352.309 L2081.6 352.309 L2081.6 348.373 Q2080.14 350.735 2077.97 351.869 Q2075.79 352.98 2072.64 352.98 Q2068.66 352.98 2066.3 350.758 Q2063.96 348.512 2063.96 344.762 Q2063.96 340.387 2066.88 338.165 Q2069.82 335.943 2075.63 335.943 L2081.6 335.943 L2081.6 335.526 Q2081.6 332.587 2079.66 330.989 Q2077.74 329.369 2074.24 329.369 Q2072.02 329.369 2069.91 329.901 Q2067.8 330.434 2065.86 331.499 L2065.86 327.563 Q2068.2 326.661 2070.4 326.221 Q2072.6 325.758 2074.68 325.758 Q2080.3 325.758 2083.08 328.674 Q2085.86 331.591 2085.86 337.517 Z" fill="#000000" fill-rule="evenodd" fill-opacity="1" /><path clip-path="url(#clip170)" d="M 0 0 M2111.69 339.045 Q2111.69 334.415 2109.77 331.869 Q2107.87 329.323 2104.42 329.323 Q2101 329.323 2099.08 331.869 Q2097.18 334.415 2097.18 339.045 Q2097.18 343.651 2099.08 346.198 Q2101 348.744 2104.42 348.744 Q2107.87 348.744 2109.77 346.198 Q2111.69 343.651 2111.69 339.045 M2115.95 349.091 Q2115.95 355.711 2113.01 358.929 Q2110.07 362.17 2104.01 362.17 Q2101.76 362.17 2099.77 361.822 Q2097.78 361.498 2095.91 360.804 L2095.91 356.66 Q2097.78 357.679 2099.61 358.165 Q2101.44 358.651 2103.34 358.651 Q2107.53 358.651 2109.61 356.452 Q2111.69 354.276 2111.69 349.855 L2111.69 347.748 Q2110.37 350.04 2108.31 351.174 Q2106.25 352.309 2103.38 352.309 Q2098.61 352.309 2095.7 348.674 Q2092.78 345.04 2092.78 339.045 Q2092.78 333.026 2095.7 329.392 Q2098.61 325.758 2103.38 325.758 Q2106.25 325.758 2108.31 326.892 Q2110.37 328.026 2111.69 330.318 L2111.69 326.383 L2115.95 326.383 L2115.95 349.091 Z" fill="#000000" fill-rule="evenodd" fill-opacity="1" /><path clip-path="url(#clip170)" d="M 0 0 M2144.01 319.022 L2144.01 326.383 L2152.78 326.383 L2152.78 329.693 L2144.01 329.693 L2144.01 343.767 Q2144.01 346.938 2144.86 347.841 Q2145.74 348.744 2148.41 348.744 L2152.78 348.744 L2152.78 352.309 L2148.41 352.309 Q2143.48 352.309 2141.6 350.48 Q2139.73 348.628 2139.73 343.767 L2139.73 329.693 L2136.6 329.693 L2136.6 326.383 L2139.73 326.383 L2139.73 319.022 L2144.01 319.022 Z" fill="#000000" fill-rule="evenodd" fill-opacity="1" /><path clip-path="url(#clip170)" d="M 0 0 M2158.94 330.781 L2188.61 330.781 L2188.61 334.67 L2158.94 334.67 L2158.94 330.781 M2158.94 340.225 L2188.61 340.225 L2188.61 344.161 L2158.94 344.161 L2158.94 340.225 Z" fill="#000000" fill-rule="evenodd" fill-opacity="1" /><path clip-path="url(#clip170)" d="M 0 0 M2202.32 319.022 L2202.32 326.383 L2211.09 326.383 L2211.09 329.693 L2202.32 329.693 L2202.32 343.767 Q2202.32 346.938 2203.17 347.841 Q2204.05 348.744 2206.72 348.744 L2211.09 348.744 L2211.09 352.309 L2206.72 352.309 Q2201.79 352.309 2199.91 350.48 Q2198.04 348.628 2198.04 343.767 L2198.04 329.693 L2194.91 329.693 L2194.91 326.383 L2198.04 326.383 L2198.04 319.022 L2202.32 319.022 Z" fill="#000000" fill-rule="evenodd" fill-opacity="1" /><path clip-path="url(#clip170)" d="M 0 0 M2218.1 348.373 L2225.74 348.373 L2225.74 322.008 L2217.43 323.675 L2217.43 319.415 L2225.7 317.749 L2230.37 317.749 L2230.37 348.373 L2238.01 348.373 L2238.01 352.309 L2218.1 352.309 L2218.1 348.373 Z" fill="#000000" fill-rule="evenodd" fill-opacity="1" /></svg>
