<?xml version="1.0" encoding="utf-8"?>
<svg xmlns="http://www.w3.org/2000/svg" xmlns:xlink="http://www.w3.org/1999/xlink" width="600" height="400" viewBox="0 0 2400 1600">
<defs>
  <clipPath id="clip130">
    <rect x="0" y="0" width="2400" height="1600"/>
  </clipPath>
</defs>
<path clip-path="url(#clip130)" d="
M0 1600 L2400 1600 L2400 0 L0 0  Z
  " fill="#ffffff" fill-rule="evenodd" fill-opacity="1"/>
<defs>
  <clipPath id="clip131">
    <rect x="480" y="0" width="1681" height="1600"/>
  </clipPath>
</defs>
<path clip-path="url(#clip130)" d="
M219.866 1423.18 L2352.76 1423.18 L2352.76 47.2441 L219.866 47.2441  Z
  " fill="#ffffff" fill-rule="evenodd" fill-opacity="1"/>
<defs>
  <clipPath id="clip132">
    <rect x="219" y="47" width="2134" height="1377"/>
  </clipPath>
</defs>
<polyline clip-path="url(#clip132)" style="stroke:#000000; stroke-width:2; stroke-opacity:0.1; fill:none" points="
  280.231,1423.18 280.231,47.2441 
  "/>
<polyline clip-path="url(#clip132)" style="stroke:#000000; stroke-width:2; stroke-opacity:0.1; fill:none" points="
  783.271,1423.18 783.271,47.2441 
  "/>
<polyline clip-path="url(#clip132)" style="stroke:#000000; stroke-width:2; stroke-opacity:0.1; fill:none" points="
  1286.31,1423.18 1286.31,47.2441 
  "/>
<polyline clip-path="url(#clip132)" style="stroke:#000000; stroke-width:2; stroke-opacity:0.1; fill:none" points="
  1789.35,1423.18 1789.35,47.2441 
  "/>
<polyline clip-path="url(#clip132)" style="stroke:#000000; stroke-width:2; stroke-opacity:0.1; fill:none" points="
  2292.39,1423.18 2292.39,47.2441 
  "/>
<polyline clip-path="url(#clip130)" style="stroke:#000000; stroke-width:4; stroke-opacity:1; fill:none" points="
  219.866,1423.18 2352.76,1423.18 
  "/>
<polyline clip-path="url(#clip130)" style="stroke:#000000; stroke-width:4; stroke-opacity:1; fill:none" points="
  280.231,1423.18 280.231,1406.67 
  "/>
<polyline clip-path="url(#clip130)" style="stroke:#000000; stroke-width:4; stroke-opacity:1; fill:none" points="
  783.271,1423.18 783.271,1406.67 
  "/>
<polyline clip-path="url(#clip130)" style="stroke:#000000; stroke-width:4; stroke-opacity:1; fill:none" points="
  1286.31,1423.18 1286.31,1406.67 
  "/>
<polyline clip-path="url(#clip130)" style="stroke:#000000; stroke-width:4; stroke-opacity:1; fill:none" points="
  1789.35,1423.18 1789.35,1406.67 
  "/>
<polyline clip-path="url(#clip130)" style="stroke:#000000; stroke-width:4; stroke-opacity:1; fill:none" points="
  2292.39,1423.18 2292.39,1406.67 
  "/>
<path clip-path="url(#clip130)" d="M 0 0 M242.535 1452.37 Q238.923 1452.37 237.095 1455.94 Q235.289 1459.48 235.289 1466.61 Q235.289 1473.71 237.095 1477.28 Q238.923 1480.82 242.535 1480.82 Q246.169 1480.82 247.974 1477.28 Q249.803 1473.71 249.803 1466.61 Q249.803 1459.48 247.974 1455.94 Q246.169 1452.37 242.535 1452.37 M242.535 1448.67 Q248.345 1448.67 251.4 1453.27 Q254.479 1457.86 254.479 1466.61 Q254.479 1475.33 251.4 1479.94 Q248.345 1484.52 242.535 1484.52 Q236.724 1484.52 233.646 1479.94 Q230.59 1475.33 230.59 1466.61 Q230.59 1457.86 233.646 1453.27 Q236.724 1448.67 242.535 1448.67 Z" fill="#000000" fill-rule="evenodd" fill-opacity="1" /><path clip-path="url(#clip130)" d="M 0 0 M262.696 1477.97 L267.581 1477.97 L267.581 1483.85 L262.696 1483.85 L262.696 1477.97 Z" fill="#000000" fill-rule="evenodd" fill-opacity="1" /><path clip-path="url(#clip130)" d="M 0 0 M287.766 1452.37 Q284.155 1452.37 282.326 1455.94 Q280.52 1459.48 280.52 1466.61 Q280.52 1473.71 282.326 1477.28 Q284.155 1480.82 287.766 1480.82 Q291.4 1480.82 293.206 1477.28 Q295.034 1473.71 295.034 1466.61 Q295.034 1459.48 293.206 1455.94 Q291.4 1452.37 287.766 1452.37 M287.766 1448.67 Q293.576 1448.67 296.631 1453.27 Q299.71 1457.86 299.71 1466.61 Q299.71 1475.33 296.631 1479.94 Q293.576 1484.52 287.766 1484.52 Q281.956 1484.52 278.877 1479.94 Q275.821 1475.33 275.821 1466.61 Q275.821 1457.86 278.877 1453.27 Q281.956 1448.67 287.766 1448.67 Z" fill="#000000" fill-rule="evenodd" fill-opacity="1" /><path clip-path="url(#clip130)" d="M 0 0 M317.928 1452.37 Q314.317 1452.37 312.488 1455.94 Q310.682 1459.48 310.682 1466.61 Q310.682 1473.71 312.488 1477.28 Q314.317 1480.82 317.928 1480.82 Q321.562 1480.82 323.367 1477.28 Q325.196 1473.71 325.196 1466.61 Q325.196 1459.48 323.367 1455.94 Q321.562 1452.37 317.928 1452.37 M317.928 1448.67 Q323.738 1448.67 326.793 1453.27 Q329.872 1457.86 329.872 1466.61 Q329.872 1475.33 326.793 1479.94 Q323.738 1484.52 317.928 1484.52 Q312.117 1484.52 309.039 1479.94 Q305.983 1475.33 305.983 1466.61 Q305.983 1457.86 309.039 1453.27 Q312.117 1448.67 317.928 1448.67 Z" fill="#000000" fill-rule="evenodd" fill-opacity="1" /><path clip-path="url(#clip130)" d="M 0 0 M746.072 1452.37 Q742.461 1452.37 740.632 1455.94 Q738.827 1459.48 738.827 1466.61 Q738.827 1473.71 740.632 1477.28 Q742.461 1480.82 746.072 1480.82 Q749.706 1480.82 751.512 1477.28 Q753.341 1473.71 753.341 1466.61 Q753.341 1459.48 751.512 1455.94 Q749.706 1452.37 746.072 1452.37 M746.072 1448.67 Q751.882 1448.67 754.938 1453.27 Q758.017 1457.86 758.017 1466.61 Q758.017 1475.33 754.938 1479.94 Q751.882 1484.52 746.072 1484.52 Q740.262 1484.52 737.183 1479.94 Q734.128 1475.33 734.128 1466.61 Q734.128 1457.86 737.183 1453.27 Q740.262 1448.67 746.072 1448.67 Z" fill="#000000" fill-rule="evenodd" fill-opacity="1" /><path clip-path="url(#clip130)" d="M 0 0 M766.234 1477.97 L771.118 1477.97 L771.118 1483.85 L766.234 1483.85 L766.234 1477.97 Z" fill="#000000" fill-rule="evenodd" fill-opacity="1" /><path clip-path="url(#clip130)" d="M 0 0 M785.331 1479.92 L801.651 1479.92 L801.651 1483.85 L779.706 1483.85 L779.706 1479.92 Q782.368 1477.16 786.952 1472.53 Q791.558 1467.88 792.739 1466.54 Q794.984 1464.01 795.864 1462.28 Q796.766 1460.52 796.766 1458.83 Q796.766 1456.07 794.822 1454.34 Q792.901 1452.6 789.799 1452.6 Q787.6 1452.6 785.146 1453.37 Q782.716 1454.13 779.938 1455.68 L779.938 1450.96 Q782.762 1449.82 785.216 1449.25 Q787.669 1448.67 789.706 1448.67 Q795.077 1448.67 798.271 1451.35 Q801.465 1454.04 801.465 1458.53 Q801.465 1460.66 800.655 1462.58 Q799.868 1464.48 797.762 1467.07 Q797.183 1467.74 794.081 1470.96 Q790.979 1474.15 785.331 1479.92 Z" fill="#000000" fill-rule="evenodd" fill-opacity="1" /><path clip-path="url(#clip130)" d="M 0 0 M811.512 1449.29 L829.868 1449.29 L829.868 1453.23 L815.794 1453.23 L815.794 1461.7 Q816.813 1461.35 817.831 1461.19 Q818.85 1461 819.868 1461 Q825.655 1461 829.035 1464.18 Q832.414 1467.35 832.414 1472.76 Q832.414 1478.34 828.942 1481.44 Q825.47 1484.52 819.151 1484.52 Q816.975 1484.52 814.706 1484.15 Q812.461 1483.78 810.053 1483.04 L810.053 1478.34 Q812.137 1479.48 814.359 1480.03 Q816.581 1480.59 819.058 1480.59 Q823.063 1480.59 825.4 1478.48 Q827.738 1476.38 827.738 1472.76 Q827.738 1469.15 825.4 1467.05 Q823.063 1464.94 819.058 1464.94 Q817.183 1464.94 815.308 1465.36 Q813.456 1465.77 811.512 1466.65 L811.512 1449.29 Z" fill="#000000" fill-rule="evenodd" fill-opacity="1" /><path clip-path="url(#clip130)" d="M 0 0 M1248.61 1452.37 Q1245 1452.37 1243.17 1455.94 Q1241.37 1459.48 1241.37 1466.61 Q1241.37 1473.71 1243.17 1477.28 Q1245 1480.82 1248.61 1480.82 Q1252.25 1480.82 1254.05 1477.28 Q1255.88 1473.71 1255.88 1466.61 Q1255.88 1459.48 1254.05 1455.94 Q1252.25 1452.37 1248.61 1452.37 M1248.61 1448.67 Q1254.42 1448.67 1257.48 1453.27 Q1260.56 1457.86 1260.56 1466.61 Q1260.56 1475.33 1257.48 1479.94 Q1254.42 1484.52 1248.61 1484.52 Q1242.8 1484.52 1239.73 1479.94 Q1236.67 1475.33 1236.67 1466.61 Q1236.67 1457.86 1239.73 1453.27 Q1242.8 1448.67 1248.61 1448.67 Z" fill="#000000" fill-rule="evenodd" fill-opacity="1" /><path clip-path="url(#clip130)" d="M 0 0 M1268.78 1477.97 L1273.66 1477.97 L1273.66 1483.85 L1268.78 1483.85 L1268.78 1477.97 Z" fill="#000000" fill-rule="evenodd" fill-opacity="1" /><path clip-path="url(#clip130)" d="M 0 0 M1283.89 1449.29 L1302.25 1449.29 L1302.25 1453.23 L1288.17 1453.23 L1288.17 1461.7 Q1289.19 1461.35 1290.21 1461.19 Q1291.23 1461 1292.25 1461 Q1298.04 1461 1301.42 1464.18 Q1304.79 1467.35 1304.79 1472.76 Q1304.79 1478.34 1301.32 1481.44 Q1297.85 1484.52 1291.53 1484.52 Q1289.36 1484.52 1287.09 1484.15 Q1284.84 1483.78 1282.43 1483.04 L1282.43 1478.34 Q1284.52 1479.48 1286.74 1480.03 Q1288.96 1480.59 1291.44 1480.59 Q1295.44 1480.59 1297.78 1478.48 Q1300.12 1476.38 1300.12 1472.76 Q1300.12 1469.15 1297.78 1467.05 Q1295.44 1464.94 1291.44 1464.94 Q1289.56 1464.94 1287.69 1465.36 Q1285.84 1465.77 1283.89 1466.65 L1283.89 1449.29 Z" fill="#000000" fill-rule="evenodd" fill-opacity="1" /><path clip-path="url(#clip130)" d="M 0 0 M1324.01 1452.37 Q1320.4 1452.37 1318.57 1455.94 Q1316.76 1459.48 1316.76 1466.61 Q1316.76 1473.71 1318.57 1477.28 Q1320.4 1480.82 1324.01 1480.82 Q1327.64 1480.82 1329.45 1477.28 Q1331.28 1473.71 1331.28 1466.61 Q1331.28 1459.48 1329.45 1455.94 Q1327.64 1452.37 1324.01 1452.37 M1324.01 1448.67 Q1329.82 1448.67 1332.87 1453.27 Q1335.95 1457.86 1335.95 1466.61 Q1335.95 1475.33 1332.87 1479.94 Q1329.82 1484.52 1324.01 1484.52 Q1318.2 1484.52 1315.12 1479.94 Q1312.06 1475.33 1312.06 1466.61 Q1312.06 1457.86 1315.12 1453.27 Q1318.2 1448.67 1324.01 1448.67 Z" fill="#000000" fill-rule="evenodd" fill-opacity="1" /><path clip-path="url(#clip130)" d="M 0 0 M1752.15 1452.37 Q1748.54 1452.37 1746.71 1455.94 Q1744.91 1459.48 1744.91 1466.61 Q1744.91 1473.71 1746.71 1477.28 Q1748.54 1480.82 1752.15 1480.82 Q1755.79 1480.82 1757.59 1477.28 Q1759.42 1473.71 1759.42 1466.61 Q1759.42 1459.48 1757.59 1455.94 Q1755.79 1452.37 1752.15 1452.37 M1752.15 1448.67 Q1757.96 1448.67 1761.02 1453.27 Q1764.1 1457.86 1764.1 1466.61 Q1764.1 1475.33 1761.02 1479.94 Q1757.96 1484.52 1752.15 1484.52 Q1746.34 1484.52 1743.26 1479.94 Q1740.21 1475.33 1740.21 1466.61 Q1740.21 1457.86 1743.26 1453.27 Q1746.34 1448.67 1752.15 1448.67 Z" fill="#000000" fill-rule="evenodd" fill-opacity="1" /><path clip-path="url(#clip130)" d="M 0 0 M1772.31 1477.97 L1777.2 1477.97 L1777.2 1483.85 L1772.31 1483.85 L1772.31 1477.97 Z" fill="#000000" fill-rule="evenodd" fill-opacity="1" /><path clip-path="url(#clip130)" d="M 0 0 M1786.2 1449.29 L1808.43 1449.29 L1808.43 1451.28 L1795.88 1483.85 L1790.99 1483.85 L1802.8 1453.23 L1786.2 1453.23 L1786.2 1449.29 Z" fill="#000000" fill-rule="evenodd" fill-opacity="1" /><path clip-path="url(#clip130)" d="M 0 0 M1817.59 1449.29 L1835.95 1449.29 L1835.95 1453.23 L1821.87 1453.23 L1821.87 1461.7 Q1822.89 1461.35 1823.91 1461.19 Q1824.93 1461 1825.95 1461 Q1831.74 1461 1835.11 1464.18 Q1838.49 1467.35 1838.49 1472.76 Q1838.49 1478.34 1835.02 1481.44 Q1831.55 1484.52 1825.23 1484.52 Q1823.05 1484.52 1820.79 1484.15 Q1818.54 1483.78 1816.13 1483.04 L1816.13 1478.34 Q1818.22 1479.48 1820.44 1480.03 Q1822.66 1480.59 1825.14 1480.59 Q1829.14 1480.59 1831.48 1478.48 Q1833.82 1476.38 1833.82 1472.76 Q1833.82 1469.15 1831.48 1467.05 Q1829.14 1464.94 1825.14 1464.94 Q1823.26 1464.94 1821.39 1465.36 Q1819.54 1465.77 1817.59 1466.65 L1817.59 1449.29 Z" fill="#000000" fill-rule="evenodd" fill-opacity="1" /><path clip-path="url(#clip130)" d="M 0 0 M2244.46 1479.92 L2252.1 1479.92 L2252.1 1453.55 L2243.79 1455.22 L2243.79 1450.96 L2252.06 1449.29 L2256.73 1449.29 L2256.73 1479.92 L2264.37 1479.92 L2264.37 1483.85 L2244.46 1483.85 L2244.46 1479.92 Z" fill="#000000" fill-rule="evenodd" fill-opacity="1" /><path clip-path="url(#clip130)" d="M 0 0 M2273.81 1477.97 L2278.7 1477.97 L2278.7 1483.85 L2273.81 1483.85 L2273.81 1477.97 Z" fill="#000000" fill-rule="evenodd" fill-opacity="1" /><path clip-path="url(#clip130)" d="M 0 0 M2298.88 1452.37 Q2295.27 1452.37 2293.44 1455.94 Q2291.64 1459.48 2291.64 1466.61 Q2291.64 1473.71 2293.44 1477.28 Q2295.27 1480.82 2298.88 1480.82 Q2302.52 1480.82 2304.32 1477.28 Q2306.15 1473.71 2306.15 1466.61 Q2306.15 1459.48 2304.32 1455.94 Q2302.52 1452.37 2298.88 1452.37 M2298.88 1448.67 Q2304.69 1448.67 2307.75 1453.27 Q2310.83 1457.86 2310.83 1466.61 Q2310.83 1475.33 2307.75 1479.94 Q2304.69 1484.52 2298.88 1484.52 Q2293.07 1484.52 2290 1479.94 Q2286.94 1475.33 2286.94 1466.61 Q2286.94 1457.86 2290 1453.27 Q2293.07 1448.67 2298.88 1448.67 Z" fill="#000000" fill-rule="evenodd" fill-opacity="1" /><path clip-path="url(#clip130)" d="M 0 0 M2329.05 1452.37 Q2325.43 1452.37 2323.61 1455.94 Q2321.8 1459.48 2321.8 1466.61 Q2321.8 1473.71 2323.61 1477.28 Q2325.43 1480.82 2329.05 1480.82 Q2332.68 1480.82 2334.49 1477.28 Q2336.31 1473.71 2336.31 1466.61 Q2336.31 1459.48 2334.49 1455.94 Q2332.68 1452.37 2329.05 1452.37 M2329.05 1448.67 Q2334.86 1448.67 2337.91 1453.27 Q2340.99 1457.86 2340.99 1466.61 Q2340.99 1475.33 2337.91 1479.94 Q2334.86 1484.52 2329.05 1484.52 Q2323.24 1484.52 2320.16 1479.94 Q2317.1 1475.33 2317.1 1466.61 Q2317.1 1457.86 2320.16 1453.27 Q2323.24 1448.67 2329.05 1448.67 Z" fill="#000000" fill-rule="evenodd" fill-opacity="1" /><path clip-path="url(#clip130)" d="M 0 0 M1285.37 1522.27 L1285.37 1532.4 L1297.44 1532.4 L1297.44 1536.95 L1285.37 1536.95 L1285.37 1556.3 Q1285.37 1560.66 1286.55 1561.9 Q1287.76 1563.14 1291.42 1563.14 L1297.44 1563.14 L1297.44 1568.04 L1291.42 1568.04 Q1284.64 1568.04 1282.06 1565.53 Q1279.48 1562.98 1279.48 1556.3 L1279.48 1536.95 L1275.19 1536.95 L1275.19 1532.4 L1279.48 1532.4 L1279.48 1522.27 L1285.37 1522.27 Z" fill="#000000" fill-rule="evenodd" fill-opacity="1" /><polyline clip-path="url(#clip132)" style="stroke:#000000; stroke-width:2; stroke-opacity:0.1; fill:none" points="
  219.866,1384.24 2352.76,1384.24 
  "/>
<polyline clip-path="url(#clip132)" style="stroke:#000000; stroke-width:2; stroke-opacity:0.1; fill:none" points="
  219.866,1167.9 2352.76,1167.9 
  "/>
<polyline clip-path="url(#clip132)" style="stroke:#000000; stroke-width:2; stroke-opacity:0.1; fill:none" points="
  219.866,951.554 2352.76,951.554 
  "/>
<polyline clip-path="url(#clip132)" style="stroke:#000000; stroke-width:2; stroke-opacity:0.1; fill:none" points="
  219.866,735.212 2352.76,735.212 
  "/>
<polyline clip-path="url(#clip132)" style="stroke:#000000; stroke-width:2; stroke-opacity:0.1; fill:none" points="
  219.866,518.87 2352.76,518.87 
  "/>
<polyline clip-path="url(#clip132)" style="stroke:#000000; stroke-width:2; stroke-opacity:0.1; fill:none" points="
  219.866,302.528 2352.76,302.528 
  "/>
<polyline clip-path="url(#clip132)" style="stroke:#000000; stroke-width:2; stroke-opacity:0.1; fill:none" points="
  219.866,86.1857 2352.76,86.1857 
  "/>
<polyline clip-path="url(#clip130)" style="stroke:#000000; stroke-width:4; stroke-opacity:1; fill:none" points="
  219.866,1423.18 219.866,47.2441 
  "/>
<polyline clip-path="url(#clip130)" style="stroke:#000000; stroke-width:4; stroke-opacity:1; fill:none" points="
  219.866,1384.24 245.461,1384.24 
  "/>
<polyline clip-path="url(#clip130)" style="stroke:#000000; stroke-width:4; stroke-opacity:1; fill:none" points="
  219.866,1167.9 245.461,1167.9 
  "/>
<polyline clip-path="url(#clip130)" style="stroke:#000000; stroke-width:4; stroke-opacity:1; fill:none" points="
  219.866,951.554 245.461,951.554 
  "/>
<polyline clip-path="url(#clip130)" style="stroke:#000000; stroke-width:4; stroke-opacity:1; fill:none" points="
  219.866,735.212 245.461,735.212 
  "/>
<polyline clip-path="url(#clip130)" style="stroke:#000000; stroke-width:4; stroke-opacity:1; fill:none" points="
  219.866,518.87 245.461,518.87 
  "/>
<polyline clip-path="url(#clip130)" style="stroke:#000000; stroke-width:4; stroke-opacity:1; fill:none" points="
  219.866,302.528 245.461,302.528 
  "/>
<polyline clip-path="url(#clip130)" style="stroke:#000000; stroke-width:4; stroke-opacity:1; fill:none" points="
  219.866,86.1857 245.461,86.1857 
  "/>
<path clip-path="url(#clip130)" d="M 0 0 M126.691 1370.04 Q123.08 1370.04 121.251 1373.6 Q119.445 1377.14 119.445 1384.27 Q119.445 1391.38 121.251 1394.94 Q123.08 1398.49 126.691 1398.49 Q130.325 1398.49 132.13 1394.94 Q133.959 1391.38 133.959 1384.27 Q133.959 1377.14 132.13 1373.6 Q130.325 1370.04 126.691 1370.04 M126.691 1366.33 Q132.501 1366.33 135.556 1370.94 Q138.635 1375.52 138.635 1384.27 Q138.635 1393 135.556 1397.61 Q132.501 1402.19 126.691 1402.19 Q120.88 1402.19 117.802 1397.61 Q114.746 1393 114.746 1384.27 Q114.746 1375.52 117.802 1370.94 Q120.88 1366.33 126.691 1366.33 Z" fill="#000000" fill-rule="evenodd" fill-opacity="1" /><path clip-path="url(#clip130)" d="M 0 0 M146.853 1395.64 L151.737 1395.64 L151.737 1401.52 L146.853 1401.52 L146.853 1395.64 Z" fill="#000000" fill-rule="evenodd" fill-opacity="1" /><path clip-path="url(#clip130)" d="M 0 0 M171.922 1370.04 Q168.311 1370.04 166.482 1373.6 Q164.677 1377.14 164.677 1384.27 Q164.677 1391.38 166.482 1394.94 Q168.311 1398.49 171.922 1398.49 Q175.556 1398.49 177.362 1394.94 Q179.19 1391.38 179.19 1384.27 Q179.19 1377.14 177.362 1373.6 Q175.556 1370.04 171.922 1370.04 M171.922 1366.33 Q177.732 1366.33 180.788 1370.94 Q183.866 1375.52 183.866 1384.27 Q183.866 1393 180.788 1397.61 Q177.732 1402.19 171.922 1402.19 Q166.112 1402.19 163.033 1397.61 Q159.978 1393 159.978 1384.27 Q159.978 1375.52 163.033 1370.94 Q166.112 1366.33 171.922 1366.33 Z" fill="#000000" fill-rule="evenodd" fill-opacity="1" /><path clip-path="url(#clip130)" d="M 0 0 M127.917 1153.69 Q124.306 1153.69 122.478 1157.26 Q120.672 1160.8 120.672 1167.93 Q120.672 1175.04 122.478 1178.6 Q124.306 1182.14 127.917 1182.14 Q131.552 1182.14 133.357 1178.6 Q135.186 1175.04 135.186 1167.93 Q135.186 1160.8 133.357 1157.26 Q131.552 1153.69 127.917 1153.69 M127.917 1149.99 Q133.728 1149.99 136.783 1154.6 Q139.862 1159.18 139.862 1167.93 Q139.862 1176.66 136.783 1181.26 Q133.728 1185.85 127.917 1185.85 Q122.107 1185.85 119.029 1181.26 Q115.973 1176.66 115.973 1167.93 Q115.973 1159.18 119.029 1154.6 Q122.107 1149.99 127.917 1149.99 Z" fill="#000000" fill-rule="evenodd" fill-opacity="1" /><path clip-path="url(#clip130)" d="M 0 0 M148.079 1179.3 L152.964 1179.3 L152.964 1185.18 L148.079 1185.18 L148.079 1179.3 Z" fill="#000000" fill-rule="evenodd" fill-opacity="1" /><path clip-path="url(#clip130)" d="M 0 0 M163.959 1181.24 L171.598 1181.24 L171.598 1154.88 L163.288 1156.54 L163.288 1152.28 L171.552 1150.62 L176.227 1150.62 L176.227 1181.24 L183.866 1181.24 L183.866 1185.18 L163.959 1185.18 L163.959 1181.24 Z" fill="#000000" fill-rule="evenodd" fill-opacity="1" /><path clip-path="url(#clip130)" d="M 0 0 M128.288 937.353 Q124.677 937.353 122.848 940.918 Q121.043 944.459 121.043 951.589 Q121.043 958.695 122.848 962.26 Q124.677 965.802 128.288 965.802 Q131.922 965.802 133.728 962.26 Q135.556 958.695 135.556 951.589 Q135.556 944.459 133.728 940.918 Q131.922 937.353 128.288 937.353 M128.288 933.649 Q134.098 933.649 137.154 938.256 Q140.232 942.839 140.232 951.589 Q140.232 960.316 137.154 964.922 Q134.098 969.505 128.288 969.505 Q122.478 969.505 119.399 964.922 Q116.343 960.316 116.343 951.589 Q116.343 942.839 119.399 938.256 Q122.478 933.649 128.288 933.649 Z" fill="#000000" fill-rule="evenodd" fill-opacity="1" /><path clip-path="url(#clip130)" d="M 0 0 M148.45 962.954 L153.334 962.954 L153.334 968.834 L148.45 968.834 L148.45 962.954 Z" fill="#000000" fill-rule="evenodd" fill-opacity="1" /><path clip-path="url(#clip130)" d="M 0 0 M167.547 964.899 L183.866 964.899 L183.866 968.834 L161.922 968.834 L161.922 964.899 Q164.584 962.144 169.167 957.515 Q173.774 952.862 174.954 951.519 Q177.2 948.996 178.079 947.26 Q178.982 945.501 178.982 943.811 Q178.982 941.056 177.038 939.32 Q175.116 937.584 172.014 937.584 Q169.815 937.584 167.362 938.348 Q164.931 939.112 162.153 940.663 L162.153 935.941 Q164.977 934.806 167.431 934.228 Q169.885 933.649 171.922 933.649 Q177.292 933.649 180.487 936.334 Q183.681 939.019 183.681 943.51 Q183.681 945.64 182.871 947.561 Q182.084 949.459 179.977 952.052 Q179.399 952.723 176.297 955.941 Q173.195 959.135 167.547 964.899 Z" fill="#000000" fill-rule="evenodd" fill-opacity="1" /><path clip-path="url(#clip130)" d="M 0 0 M127.339 721.011 Q123.728 721.011 121.899 724.575 Q120.093 728.117 120.093 735.247 Q120.093 742.353 121.899 745.918 Q123.728 749.46 127.339 749.46 Q130.973 749.46 132.779 745.918 Q134.607 742.353 134.607 735.247 Q134.607 728.117 132.779 724.575 Q130.973 721.011 127.339 721.011 M127.339 717.307 Q133.149 717.307 136.204 721.913 Q139.283 726.497 139.283 735.247 Q139.283 743.973 136.204 748.58 Q133.149 753.163 127.339 753.163 Q121.529 753.163 118.45 748.58 Q115.394 743.973 115.394 735.247 Q115.394 726.497 118.45 721.913 Q121.529 717.307 127.339 717.307 Z" fill="#000000" fill-rule="evenodd" fill-opacity="1" /><path clip-path="url(#clip130)" d="M 0 0 M147.501 746.612 L152.385 746.612 L152.385 752.492 L147.501 752.492 L147.501 746.612 Z" fill="#000000" fill-rule="evenodd" fill-opacity="1" /><path clip-path="url(#clip130)" d="M 0 0 M176.737 733.858 Q180.093 734.575 181.968 736.844 Q183.866 739.112 183.866 742.446 Q183.866 747.561 180.348 750.362 Q176.829 753.163 170.348 753.163 Q168.172 753.163 165.857 752.723 Q163.565 752.307 161.112 751.45 L161.112 746.936 Q163.056 748.071 165.371 748.649 Q167.686 749.228 170.209 749.228 Q174.607 749.228 176.899 747.492 Q179.214 745.756 179.214 742.446 Q179.214 739.39 177.061 737.677 Q174.931 735.941 171.112 735.941 L167.084 735.941 L167.084 732.099 L171.297 732.099 Q174.746 732.099 176.575 730.733 Q178.403 729.344 178.403 726.751 Q178.403 724.089 176.505 722.677 Q174.63 721.242 171.112 721.242 Q169.19 721.242 166.991 721.659 Q164.792 722.075 162.153 722.955 L162.153 718.788 Q164.815 718.048 167.13 717.677 Q169.468 717.307 171.528 717.307 Q176.852 717.307 179.954 719.738 Q183.056 722.145 183.056 726.265 Q183.056 729.136 181.413 731.126 Q179.769 733.094 176.737 733.858 Z" fill="#000000" fill-rule="evenodd" fill-opacity="1" /><path clip-path="url(#clip130)" d="M 0 0 M126.205 504.669 Q122.593 504.669 120.765 508.233 Q118.959 511.775 118.959 518.905 Q118.959 526.011 120.765 529.576 Q122.593 533.117 126.205 533.117 Q129.839 533.117 131.644 529.576 Q133.473 526.011 133.473 518.905 Q133.473 511.775 131.644 508.233 Q129.839 504.669 126.205 504.669 M126.205 500.965 Q132.015 500.965 135.07 505.571 Q138.149 510.155 138.149 518.905 Q138.149 527.631 135.07 532.238 Q132.015 536.821 126.205 536.821 Q120.394 536.821 117.316 532.238 Q114.26 527.631 114.26 518.905 Q114.26 510.155 117.316 505.571 Q120.394 500.965 126.205 500.965 Z" fill="#000000" fill-rule="evenodd" fill-opacity="1" /><path clip-path="url(#clip130)" d="M 0 0 M146.366 530.27 L151.251 530.27 L151.251 536.15 L146.366 536.15 L146.366 530.27 Z" fill="#000000" fill-rule="evenodd" fill-opacity="1" /><path clip-path="url(#clip130)" d="M 0 0 M174.283 505.664 L162.477 524.113 L174.283 524.113 L174.283 505.664 M173.056 501.59 L178.936 501.59 L178.936 524.113 L183.866 524.113 L183.866 528.002 L178.936 528.002 L178.936 536.15 L174.283 536.15 L174.283 528.002 L158.681 528.002 L158.681 523.488 L173.056 501.59 Z" fill="#000000" fill-rule="evenodd" fill-opacity="1" /><path clip-path="url(#clip130)" d="M 0 0 M127.686 288.326 Q124.075 288.326 122.246 291.891 Q120.441 295.433 120.441 302.562 Q120.441 309.669 122.246 313.234 Q124.075 316.775 127.686 316.775 Q131.32 316.775 133.126 313.234 Q134.954 309.669 134.954 302.562 Q134.954 295.433 133.126 291.891 Q131.32 288.326 127.686 288.326 M127.686 284.623 Q133.496 284.623 136.552 289.229 Q139.63 293.813 139.63 302.562 Q139.63 311.289 136.552 315.896 Q133.496 320.479 127.686 320.479 Q121.876 320.479 118.797 315.896 Q115.742 311.289 115.742 302.562 Q115.742 293.813 118.797 289.229 Q121.876 284.623 127.686 284.623 Z" fill="#000000" fill-rule="evenodd" fill-opacity="1" /><path clip-path="url(#clip130)" d="M 0 0 M147.848 313.928 L152.732 313.928 L152.732 319.808 L147.848 319.808 L147.848 313.928 Z" fill="#000000" fill-rule="evenodd" fill-opacity="1" /><path clip-path="url(#clip130)" d="M 0 0 M162.964 285.248 L181.32 285.248 L181.32 289.183 L167.246 289.183 L167.246 297.655 Q168.264 297.308 169.283 297.146 Q170.302 296.961 171.32 296.961 Q177.107 296.961 180.487 300.132 Q183.866 303.303 183.866 308.72 Q183.866 314.299 180.394 317.4 Q176.922 320.479 170.602 320.479 Q168.427 320.479 166.158 320.109 Q163.913 319.738 161.505 318.998 L161.505 314.299 Q163.589 315.433 165.811 315.988 Q168.033 316.544 170.51 316.544 Q174.514 316.544 176.852 314.437 Q179.19 312.331 179.19 308.72 Q179.19 305.109 176.852 303.002 Q174.514 300.896 170.51 300.896 Q168.635 300.896 166.76 301.312 Q164.908 301.729 162.964 302.609 L162.964 285.248 Z" fill="#000000" fill-rule="evenodd" fill-opacity="1" /><path clip-path="url(#clip130)" d="M 0 0 M126.529 71.9844 Q122.918 71.9844 121.089 75.5492 Q119.283 79.0908 119.283 86.2204 Q119.283 93.3268 121.089 96.8916 Q122.918 100.433 126.529 100.433 Q130.163 100.433 131.968 96.8916 Q133.797 93.3268 133.797 86.2204 Q133.797 79.0908 131.968 75.5492 Q130.163 71.9844 126.529 71.9844 M126.529 68.2807 Q132.339 68.2807 135.394 72.8871 Q138.473 77.4704 138.473 86.2204 Q138.473 94.9472 135.394 99.5537 Q132.339 104.137 126.529 104.137 Q120.718 104.137 117.64 99.5537 Q114.584 94.9472 114.584 86.2204 Q114.584 77.4704 117.64 72.8871 Q120.718 68.2807 126.529 68.2807 Z" fill="#000000" fill-rule="evenodd" fill-opacity="1" /><path clip-path="url(#clip130)" d="M 0 0 M146.691 97.5861 L151.575 97.5861 L151.575 103.466 L146.691 103.466 L146.691 97.5861 Z" fill="#000000" fill-rule="evenodd" fill-opacity="1" /><path clip-path="url(#clip130)" d="M 0 0 M172.339 84.3223 Q169.19 84.3223 167.339 86.475 Q165.51 88.6278 165.51 92.3778 Q165.51 96.1046 167.339 98.2805 Q169.19 100.433 172.339 100.433 Q175.487 100.433 177.315 98.2805 Q179.167 96.1046 179.167 92.3778 Q179.167 88.6278 177.315 86.475 Q175.487 84.3223 172.339 84.3223 M181.621 69.6696 L181.621 73.9288 Q179.862 73.0955 178.056 72.6557 Q176.274 72.2158 174.514 72.2158 Q169.885 72.2158 167.431 75.3408 Q165.001 78.4658 164.653 84.7852 Q166.019 82.7713 168.079 81.7065 Q170.139 80.6186 172.616 80.6186 Q177.825 80.6186 180.834 83.7899 Q183.866 86.938 183.866 92.3778 Q183.866 97.7018 180.718 100.919 Q177.57 104.137 172.339 104.137 Q166.343 104.137 163.172 99.5537 Q160.001 94.9472 160.001 86.2204 Q160.001 78.026 163.89 73.1649 Q167.778 68.2807 174.329 68.2807 Q176.089 68.2807 177.871 68.6279 Q179.676 68.9751 181.621 69.6696 Z" fill="#000000" fill-rule="evenodd" fill-opacity="1" /><path clip-path="url(#clip130)" d="M 0 0 M58.657 745.27 L77.5631 745.27 L77.5631 751.158 L28.3562 751.158 L28.3562 745.27 L33.7671 745.27 Q30.5842 743.424 29.0564 740.623 Q27.4968 737.79 27.4968 733.875 Q27.4968 727.382 32.6531 723.34 Q37.8093 719.266 46.212 719.266 Q54.6147 719.266 59.771 723.34 Q64.9272 727.382 64.9272 733.875 Q64.9272 737.79 63.3994 740.623 Q61.8398 743.424 58.657 745.27 M46.212 725.345 Q39.7508 725.345 36.0905 728.019 Q32.3984 730.66 32.3984 735.307 Q32.3984 739.954 36.0905 742.628 Q39.7508 745.27 46.212 745.27 Q52.6732 745.27 56.3653 742.628 Q60.0256 739.954 60.0256 735.307 Q60.0256 730.66 56.3653 728.019 Q52.6732 725.345 46.212 725.345 Z" fill="#000000" fill-rule="evenodd" fill-opacity="1" /><polyline clip-path="url(#clip132)" style="stroke:#0000ff; stroke-width:4; stroke-opacity:1; fill:none" stroke-dasharray="2, 4" points="
  280.231,1384.24 2292.39,518.87 
  "/>
<polyline clip-path="url(#clip132)" style="stroke:#0000ff; stroke-width:4; stroke-opacity:1; fill:none" stroke-dasharray="16, 10" points="
  280.231,1384.24 2292.39,518.87 
  "/>
<polyline clip-path="url(#clip132)" style="stroke:#ff0000; stroke-width:4; stroke-opacity:1; fill:none" stroke-dasharray="2, 4" points="
  280.231,1384.24 2292.39,259.259 
  "/>
<polyline clip-path="url(#clip132)" style="stroke:#ff0000; stroke-width:4; stroke-opacity:1; fill:none" stroke-dasharray="16, 10" points="
  280.231,1384.24 2292.39,86.1857 
  "/>
<path clip-path="url(#clip130)" d="
M290.963 395.509 L1060.96 395.509 L1060.96 93.1086 L290.963 93.1086  Z
  " fill="#ffffff" fill-rule="evenodd" fill-opacity="1"/>
<polyline clip-path="url(#clip130)" style="stroke:#000000; stroke-width:4; stroke-opacity:1; fill:none" points="
  290.963,395.509 1060.96,395.509 1060.96,93.1086 290.963,93.1086 290.963,395.509 
  "/>
<polyline clip-path="url(#clip130)" style="stroke:#0000ff; stroke-width:4; stroke-opacity:1; fill:none" stroke-dasharray="2, 4" points="
  314.661,153.589 456.854,153.589 
  "/>
<path clip-path="url(#clip130)" d="M 0 0 M484.835 166.98 L484.835 180.73 L480.553 180.73 L480.553 144.943 L484.835 144.943 L484.835 148.878 Q486.178 146.563 488.215 145.452 Q490.275 144.318 493.122 144.318 Q497.844 144.318 500.784 148.068 Q503.747 151.818 503.747 157.929 Q503.747 164.04 500.784 167.79 Q497.844 171.54 493.122 171.54 Q490.275 171.54 488.215 170.429 Q486.178 169.295 484.835 166.98 M499.326 157.929 Q499.326 153.23 497.381 150.568 Q495.46 147.883 492.08 147.883 Q488.701 147.883 486.756 150.568 Q484.835 153.23 484.835 157.929 Q484.835 162.628 486.756 165.313 Q488.701 167.975 492.08 167.975 Q495.46 167.975 497.381 165.313 Q499.326 162.628 499.326 157.929 Z" fill="#000000" fill-rule="evenodd" fill-opacity="1" /><path clip-path="url(#clip130)" d="M 0 0 M515.02 137.582 L515.02 144.943 L523.793 144.943 L523.793 148.253 L515.02 148.253 L515.02 162.327 Q515.02 165.498 515.877 166.401 Q516.756 167.304 519.418 167.304 L523.793 167.304 L523.793 170.869 L519.418 170.869 Q514.488 170.869 512.613 169.04 Q510.738 167.188 510.738 162.327 L510.738 148.253 L507.613 148.253 L507.613 144.943 L510.738 144.943 L510.738 137.582 L515.02 137.582 Z" fill="#000000" fill-rule="evenodd" fill-opacity="1" /><path clip-path="url(#clip130)" d="M 0 0 M539.997 139.387 Q536.386 139.387 534.557 142.952 Q532.752 146.494 532.752 153.623 Q532.752 160.73 534.557 164.295 Q536.386 167.836 539.997 167.836 Q543.631 167.836 545.437 164.295 Q547.265 160.73 547.265 153.623 Q547.265 146.494 545.437 142.952 Q543.631 139.387 539.997 139.387 M539.997 135.684 Q545.807 135.684 548.863 140.29 Q551.941 144.873 551.941 153.623 Q551.941 162.35 548.863 166.957 Q545.807 171.54 539.997 171.54 Q534.187 171.54 531.108 166.957 Q528.053 162.35 528.053 153.623 Q528.053 144.873 531.108 140.29 Q534.187 135.684 539.997 135.684 Z" fill="#000000" fill-rule="evenodd" fill-opacity="1" /><path clip-path="url(#clip130)" d="M 0 0 M574.626 134.85 L578.886 134.85 L578.886 170.869 L574.626 170.869 L574.626 134.85 Z" fill="#000000" fill-rule="evenodd" fill-opacity="1" /><path clip-path="url(#clip130)" d="M 0 0 M587.798 144.943 L592.057 144.943 L592.057 170.869 L587.798 170.869 L587.798 144.943 M587.798 134.85 L592.057 134.85 L592.057 140.244 L587.798 140.244 L587.798 134.85 Z" fill="#000000" fill-rule="evenodd" fill-opacity="1" /><path clip-path="url(#clip130)" d="M 0 0 M622.52 155.221 L622.52 170.869 L618.26 170.869 L618.26 155.359 Q618.26 151.679 616.825 149.85 Q615.39 148.022 612.52 148.022 Q609.071 148.022 607.08 150.221 Q605.089 152.42 605.089 156.216 L605.089 170.869 L600.807 170.869 L600.807 144.943 L605.089 144.943 L605.089 148.971 Q606.617 146.633 608.677 145.475 Q610.76 144.318 613.469 144.318 Q617.936 144.318 620.228 147.096 Q622.52 149.85 622.52 155.221 Z" fill="#000000" fill-rule="evenodd" fill-opacity="1" /><path clip-path="url(#clip130)" d="M 0 0 M653.191 156.841 L653.191 158.924 L633.608 158.924 Q633.885 163.322 636.246 165.637 Q638.631 167.929 642.867 167.929 Q645.32 167.929 647.612 167.327 Q649.927 166.725 652.195 165.521 L652.195 169.549 Q649.904 170.521 647.496 171.031 Q645.089 171.54 642.612 171.54 Q636.408 171.54 632.774 167.929 Q629.163 164.318 629.163 158.16 Q629.163 151.795 632.589 148.068 Q636.038 144.318 641.871 144.318 Q647.103 144.318 650.135 147.697 Q653.191 151.054 653.191 156.841 M648.932 155.591 Q648.885 152.096 646.964 150.012 Q645.066 147.929 641.918 147.929 Q638.353 147.929 636.2 149.943 Q634.07 151.957 633.746 155.614 L648.932 155.591 Z" fill="#000000" fill-rule="evenodd" fill-opacity="1" /><path clip-path="url(#clip130)" d="M 0 0 M671.964 157.836 Q666.802 157.836 664.811 159.017 Q662.82 160.197 662.82 163.045 Q662.82 165.313 664.302 166.656 Q665.806 167.975 668.376 167.975 Q671.917 167.975 674.047 165.475 Q676.2 162.952 676.2 158.785 L676.2 157.836 L671.964 157.836 M680.459 156.077 L680.459 170.869 L676.2 170.869 L676.2 166.933 Q674.742 169.295 672.566 170.429 Q670.39 171.54 667.242 171.54 Q663.26 171.54 660.899 169.318 Q658.561 167.072 658.561 163.322 Q658.561 158.947 661.478 156.725 Q664.418 154.503 670.228 154.503 L676.2 154.503 L676.2 154.086 Q676.2 151.147 674.255 149.549 Q672.334 147.929 668.839 147.929 Q666.617 147.929 664.51 148.461 Q662.404 148.994 660.459 150.059 L660.459 146.123 Q662.797 145.221 664.996 144.781 Q667.195 144.318 669.279 144.318 Q674.904 144.318 677.681 147.234 Q680.459 150.151 680.459 156.077 Z" fill="#000000" fill-rule="evenodd" fill-opacity="1" /><path clip-path="url(#clip130)" d="M 0 0 M704.255 148.924 Q703.538 148.508 702.681 148.322 Q701.848 148.114 700.829 148.114 Q697.218 148.114 695.274 150.475 Q693.353 152.813 693.353 157.211 L693.353 170.869 L689.07 170.869 L689.07 144.943 L693.353 144.943 L693.353 148.971 Q694.695 146.609 696.848 145.475 Q699.001 144.318 702.079 144.318 Q702.519 144.318 703.052 144.387 Q703.584 144.434 704.232 144.549 L704.255 148.924 Z" fill="#000000" fill-rule="evenodd" fill-opacity="1" /><path clip-path="url(#clip130)" d="M 0 0 M723.792 144.943 L728.051 144.943 L728.051 170.869 L723.792 170.869 L723.792 144.943 M723.792 134.85 L728.051 134.85 L728.051 140.244 L723.792 140.244 L723.792 134.85 Z" fill="#000000" fill-rule="evenodd" fill-opacity="1" /><path clip-path="url(#clip130)" d="M 0 0 M758.514 155.221 L758.514 170.869 L754.255 170.869 L754.255 155.359 Q754.255 151.679 752.82 149.85 Q751.385 148.022 748.514 148.022 Q745.065 148.022 743.075 150.221 Q741.084 152.42 741.084 156.216 L741.084 170.869 L736.801 170.869 L736.801 144.943 L741.084 144.943 L741.084 148.971 Q742.612 146.633 744.672 145.475 Q746.755 144.318 749.463 144.318 Q753.931 144.318 756.223 147.096 Q758.514 149.85 758.514 155.221 Z" fill="#000000" fill-rule="evenodd" fill-opacity="1" /><path clip-path="url(#clip130)" d="M 0 0 M771.223 137.582 L771.223 144.943 L779.996 144.943 L779.996 148.253 L771.223 148.253 L771.223 162.327 Q771.223 165.498 772.079 166.401 Q772.959 167.304 775.621 167.304 L779.996 167.304 L779.996 170.869 L775.621 170.869 Q770.69 170.869 768.815 169.04 Q766.94 167.188 766.94 162.327 L766.94 148.253 L763.815 148.253 L763.815 144.943 L766.94 144.943 L766.94 137.582 L771.223 137.582 Z" fill="#000000" fill-rule="evenodd" fill-opacity="1" /><path clip-path="url(#clip130)" d="M 0 0 M807.773 156.841 L807.773 158.924 L788.19 158.924 Q788.468 163.322 790.829 165.637 Q793.213 167.929 797.449 167.929 Q799.903 167.929 802.195 167.327 Q804.509 166.725 806.778 165.521 L806.778 169.549 Q804.486 170.521 802.079 171.031 Q799.671 171.54 797.195 171.54 Q790.991 171.54 787.357 167.929 Q783.746 164.318 783.746 158.16 Q783.746 151.795 787.172 148.068 Q790.621 144.318 796.454 144.318 Q801.685 144.318 804.718 147.697 Q807.773 151.054 807.773 156.841 M803.514 155.591 Q803.468 152.096 801.546 150.012 Q799.648 147.929 796.5 147.929 Q792.935 147.929 790.783 149.943 Q788.653 151.957 788.329 155.614 L803.514 155.591 Z" fill="#000000" fill-rule="evenodd" fill-opacity="1" /><path clip-path="url(#clip130)" d="M 0 0 M829.787 148.924 Q829.069 148.508 828.213 148.322 Q827.38 148.114 826.361 148.114 Q822.75 148.114 820.806 150.475 Q818.884 152.813 818.884 157.211 L818.884 170.869 L814.602 170.869 L814.602 144.943 L818.884 144.943 L818.884 148.971 Q820.227 146.609 822.38 145.475 Q824.532 144.318 827.611 144.318 Q828.051 144.318 828.583 144.387 Q829.116 144.434 829.764 144.549 L829.787 148.924 Z" fill="#000000" fill-rule="evenodd" fill-opacity="1" /><path clip-path="url(#clip130)" d="M 0 0 M838.375 166.98 L838.375 180.73 L834.093 180.73 L834.093 144.943 L838.375 144.943 L838.375 148.878 Q839.718 146.563 841.755 145.452 Q843.815 144.318 846.662 144.318 Q851.384 144.318 854.324 148.068 Q857.287 151.818 857.287 157.929 Q857.287 164.04 854.324 167.79 Q851.384 171.54 846.662 171.54 Q843.815 171.54 841.755 170.429 Q839.718 169.295 838.375 166.98 M852.866 157.929 Q852.866 153.23 850.921 150.568 Q849 147.883 845.62 147.883 Q842.241 147.883 840.296 150.568 Q838.375 153.23 838.375 157.929 Q838.375 162.628 840.296 165.313 Q842.241 167.975 845.62 167.975 Q849 167.975 850.921 165.313 Q852.866 162.628 852.866 157.929 Z" fill="#000000" fill-rule="evenodd" fill-opacity="1" /><path clip-path="url(#clip130)" d="M 0 0 M874.393 147.929 Q870.967 147.929 868.977 150.614 Q866.986 153.276 866.986 157.929 Q866.986 162.582 868.953 165.267 Q870.944 167.929 874.393 167.929 Q877.796 167.929 879.787 165.244 Q881.777 162.558 881.777 157.929 Q881.777 153.322 879.787 150.637 Q877.796 147.929 874.393 147.929 M874.393 144.318 Q879.949 144.318 883.12 147.929 Q886.291 151.54 886.291 157.929 Q886.291 164.295 883.12 167.929 Q879.949 171.54 874.393 171.54 Q868.815 171.54 865.643 167.929 Q862.495 164.295 862.495 157.929 Q862.495 151.54 865.643 147.929 Q868.815 144.318 874.393 144.318 Z" fill="#000000" fill-rule="evenodd" fill-opacity="1" /><path clip-path="url(#clip130)" d="M 0 0 M893.351 134.85 L897.611 134.85 L897.611 170.869 L893.351 170.869 L893.351 134.85 Z" fill="#000000" fill-rule="evenodd" fill-opacity="1" /><path clip-path="url(#clip130)" d="M 0 0 M918.305 157.836 Q913.143 157.836 911.152 159.017 Q909.162 160.197 909.162 163.045 Q909.162 165.313 910.643 166.656 Q912.148 167.975 914.717 167.975 Q918.259 167.975 920.388 165.475 Q922.541 162.952 922.541 158.785 L922.541 157.836 L918.305 157.836 M926.8 156.077 L926.8 170.869 L922.541 170.869 L922.541 166.933 Q921.083 169.295 918.907 170.429 Q916.731 171.54 913.583 171.54 Q909.601 171.54 907.24 169.318 Q904.902 167.072 904.902 163.322 Q904.902 158.947 907.819 156.725 Q910.759 154.503 916.569 154.503 L922.541 154.503 L922.541 154.086 Q922.541 151.147 920.597 149.549 Q918.675 147.929 915.18 147.929 Q912.958 147.929 910.851 148.461 Q908.745 148.994 906.8 150.059 L906.8 146.123 Q909.138 145.221 911.338 144.781 Q913.537 144.318 915.62 144.318 Q921.245 144.318 924.023 147.234 Q926.8 150.151 926.8 156.077 Z" fill="#000000" fill-rule="evenodd" fill-opacity="1" /><path clip-path="url(#clip130)" d="M 0 0 M939.786 137.582 L939.786 144.943 L948.56 144.943 L948.56 148.253 L939.786 148.253 L939.786 162.327 Q939.786 165.498 940.643 166.401 Q941.523 167.304 944.185 167.304 L948.56 167.304 L948.56 170.869 L944.185 170.869 Q939.254 170.869 937.379 169.04 Q935.504 167.188 935.504 162.327 L935.504 148.253 L932.379 148.253 L932.379 144.943 L935.504 144.943 L935.504 137.582 L939.786 137.582 Z" fill="#000000" fill-rule="evenodd" fill-opacity="1" /><path clip-path="url(#clip130)" d="M 0 0 M976.337 156.841 L976.337 158.924 L956.754 158.924 Q957.032 163.322 959.393 165.637 Q961.777 167.929 966.013 167.929 Q968.467 167.929 970.758 167.327 Q973.073 166.725 975.342 165.521 L975.342 169.549 Q973.05 170.521 970.643 171.031 Q968.235 171.54 965.759 171.54 Q959.555 171.54 955.921 167.929 Q952.31 164.318 952.31 158.16 Q952.31 151.795 955.735 148.068 Q959.184 144.318 965.018 144.318 Q970.249 144.318 973.282 147.697 Q976.337 151.054 976.337 156.841 M972.078 155.591 Q972.032 152.096 970.11 150.012 Q968.212 147.929 965.064 147.929 Q961.499 147.929 959.347 149.943 Q957.217 151.957 956.893 155.614 L972.078 155.591 Z" fill="#000000" fill-rule="evenodd" fill-opacity="1" /><path clip-path="url(#clip130)" d="M 0 0 M1000.39 148.878 L1000.39 134.85 L1004.65 134.85 L1004.65 170.869 L1000.39 170.869 L1000.39 166.98 Q999.045 169.295 996.985 170.429 Q994.948 171.54 992.078 171.54 Q987.379 171.54 984.416 167.79 Q981.476 164.04 981.476 157.929 Q981.476 151.818 984.416 148.068 Q987.379 144.318 992.078 144.318 Q994.948 144.318 996.985 145.452 Q999.045 146.563 1000.39 148.878 M985.874 157.929 Q985.874 162.628 987.795 165.313 Q989.74 167.975 993.119 167.975 Q996.499 167.975 998.444 165.313 Q1000.39 162.628 1000.39 157.929 Q1000.39 153.23 998.444 150.568 Q996.499 147.883 993.119 147.883 Q989.74 147.883 987.795 150.568 Q985.874 153.23 985.874 157.929 Z" fill="#000000" fill-rule="evenodd" fill-opacity="1" /><polyline clip-path="url(#clip130)" style="stroke:#0000ff; stroke-width:4; stroke-opacity:1; fill:none" stroke-dasharray="16, 10" points="
  314.661,214.069 456.854,214.069 
  "/>
<path clip-path="url(#clip130)" d="M 0 0 M484.835 227.46 L484.835 241.21 L480.553 241.21 L480.553 205.423 L484.835 205.423 L484.835 209.358 Q486.178 207.043 488.215 205.932 Q490.275 204.798 493.122 204.798 Q497.844 204.798 500.784 208.548 Q503.747 212.298 503.747 218.409 Q503.747 224.52 500.784 228.27 Q497.844 232.02 493.122 232.02 Q490.275 232.02 488.215 230.909 Q486.178 229.775 484.835 227.46 M499.326 218.409 Q499.326 213.71 497.381 211.048 Q495.46 208.363 492.08 208.363 Q488.701 208.363 486.756 211.048 Q484.835 213.71 484.835 218.409 Q484.835 223.108 486.756 225.793 Q488.701 228.455 492.08 228.455 Q495.46 228.455 497.381 225.793 Q499.326 223.108 499.326 218.409 Z" fill="#000000" fill-rule="evenodd" fill-opacity="1" /><path clip-path="url(#clip130)" d="M 0 0 M515.02 198.062 L515.02 205.423 L523.793 205.423 L523.793 208.733 L515.02 208.733 L515.02 222.807 Q515.02 225.978 515.877 226.881 Q516.756 227.784 519.418 227.784 L523.793 227.784 L523.793 231.349 L519.418 231.349 Q514.488 231.349 512.613 229.52 Q510.738 227.668 510.738 222.807 L510.738 208.733 L507.613 208.733 L507.613 205.423 L510.738 205.423 L510.738 198.062 L515.02 198.062 Z" fill="#000000" fill-rule="evenodd" fill-opacity="1" /><path clip-path="url(#clip130)" d="M 0 0 M539.997 199.867 Q536.386 199.867 534.557 203.432 Q532.752 206.974 532.752 214.103 Q532.752 221.21 534.557 224.775 Q536.386 228.316 539.997 228.316 Q543.631 228.316 545.437 224.775 Q547.265 221.21 547.265 214.103 Q547.265 206.974 545.437 203.432 Q543.631 199.867 539.997 199.867 M539.997 196.164 Q545.807 196.164 548.863 200.77 Q551.941 205.353 551.941 214.103 Q551.941 222.83 548.863 227.437 Q545.807 232.02 539.997 232.02 Q534.187 232.02 531.108 227.437 Q528.053 222.83 528.053 214.103 Q528.053 205.353 531.108 200.77 Q534.187 196.164 539.997 196.164 Z" fill="#000000" fill-rule="evenodd" fill-opacity="1" /><path clip-path="url(#clip130)" d="M 0 0 M593.284 206.418 L593.284 210.4 Q591.478 209.404 589.649 208.918 Q587.844 208.409 585.992 208.409 Q581.849 208.409 579.557 211.048 Q577.265 213.664 577.265 218.409 Q577.265 223.154 579.557 225.793 Q581.849 228.409 585.992 228.409 Q587.844 228.409 589.649 227.923 Q591.478 227.413 593.284 226.418 L593.284 230.353 Q591.501 231.187 589.58 231.603 Q587.682 232.02 585.529 232.02 Q579.673 232.02 576.224 228.339 Q572.775 224.659 572.775 218.409 Q572.775 212.066 576.247 208.432 Q579.742 204.798 585.807 204.798 Q587.774 204.798 589.649 205.215 Q591.524 205.608 593.284 206.418 Z" fill="#000000" fill-rule="evenodd" fill-opacity="1" /><path clip-path="url(#clip130)" d="M 0 0 M600.691 195.33 L604.95 195.33 L604.95 231.349 L600.691 231.349 L600.691 195.33 Z" fill="#000000" fill-rule="evenodd" fill-opacity="1" /><path clip-path="url(#clip130)" d="M 0 0 M623.908 208.409 Q620.483 208.409 618.492 211.094 Q616.501 213.756 616.501 218.409 Q616.501 223.062 618.469 225.747 Q620.459 228.409 623.908 228.409 Q627.311 228.409 629.302 225.724 Q631.293 223.038 631.293 218.409 Q631.293 213.802 629.302 211.117 Q627.311 208.409 623.908 208.409 M623.908 204.798 Q629.464 204.798 632.635 208.409 Q635.807 212.02 635.807 218.409 Q635.807 224.775 632.635 228.409 Q629.464 232.02 623.908 232.02 Q618.33 232.02 615.159 228.409 Q612.01 224.775 612.01 218.409 Q612.01 212.02 615.159 208.409 Q618.33 204.798 623.908 204.798 Z" fill="#000000" fill-rule="evenodd" fill-opacity="1" /><path clip-path="url(#clip130)" d="M 0 0 M659.394 206.187 L659.394 210.214 Q657.589 209.289 655.644 208.826 Q653.7 208.363 651.617 208.363 Q648.445 208.363 646.848 209.335 Q645.274 210.307 645.274 212.251 Q645.274 213.733 646.408 214.589 Q647.543 215.423 650.969 216.187 L652.427 216.511 Q656.964 217.483 658.862 219.265 Q660.783 221.025 660.783 224.196 Q660.783 227.807 657.913 229.913 Q655.066 232.02 650.066 232.02 Q647.982 232.02 645.714 231.603 Q643.469 231.21 640.969 230.4 L640.969 226.001 Q643.33 227.228 645.621 227.853 Q647.913 228.455 650.158 228.455 Q653.168 228.455 654.788 227.437 Q656.408 226.395 656.408 224.52 Q656.408 222.784 655.228 221.858 Q654.07 220.932 650.112 220.076 L648.631 219.728 Q644.672 218.895 642.913 217.182 Q641.154 215.446 641.154 212.437 Q641.154 208.779 643.746 206.789 Q646.339 204.798 651.107 204.798 Q653.469 204.798 655.552 205.145 Q657.635 205.492 659.394 206.187 Z" fill="#000000" fill-rule="evenodd" fill-opacity="1" /><path clip-path="url(#clip130)" d="M 0 0 M689.741 217.321 L689.741 219.404 L670.158 219.404 Q670.436 223.802 672.797 226.117 Q675.181 228.409 679.417 228.409 Q681.871 228.409 684.163 227.807 Q686.478 227.205 688.746 226.001 L688.746 230.029 Q686.454 231.001 684.047 231.511 Q681.64 232.02 679.163 232.02 Q672.959 232.02 669.325 228.409 Q665.714 224.798 665.714 218.64 Q665.714 212.275 669.14 208.548 Q672.589 204.798 678.422 204.798 Q683.654 204.798 686.686 208.177 Q689.741 211.534 689.741 217.321 M685.482 216.071 Q685.436 212.576 683.515 210.492 Q681.617 208.409 678.468 208.409 Q674.904 208.409 672.751 210.423 Q670.621 212.437 670.297 216.094 L685.482 216.071 Z" fill="#000000" fill-rule="evenodd" fill-opacity="1" /><path clip-path="url(#clip130)" d="M 0 0 M713.26 206.187 L713.26 210.214 Q711.454 209.289 709.51 208.826 Q707.565 208.363 705.482 208.363 Q702.311 208.363 700.714 209.335 Q699.14 210.307 699.14 212.251 Q699.14 213.733 700.274 214.589 Q701.408 215.423 704.834 216.187 L706.292 216.511 Q710.829 217.483 712.727 219.265 Q714.649 221.025 714.649 224.196 Q714.649 227.807 711.778 229.913 Q708.931 232.02 703.931 232.02 Q701.848 232.02 699.579 231.603 Q697.334 231.21 694.834 230.4 L694.834 226.001 Q697.195 227.228 699.487 227.853 Q701.778 228.455 704.024 228.455 Q707.033 228.455 708.653 227.437 Q710.274 226.395 710.274 224.52 Q710.274 222.784 709.093 221.858 Q707.936 220.932 703.978 220.076 L702.496 219.728 Q698.538 218.895 696.778 217.182 Q695.019 215.446 695.019 212.437 Q695.019 208.779 697.612 206.789 Q700.204 204.798 704.973 204.798 Q707.334 204.798 709.417 205.145 Q711.501 205.492 713.26 206.187 Z" fill="#000000" fill-rule="evenodd" fill-opacity="1" /><path clip-path="url(#clip130)" d="M 0 0 M725.644 198.062 L725.644 205.423 L734.417 205.423 L734.417 208.733 L725.644 208.733 L725.644 222.807 Q725.644 225.978 726.501 226.881 Q727.38 227.784 730.042 227.784 L734.417 227.784 L734.417 231.349 L730.042 231.349 Q725.112 231.349 723.237 229.52 Q721.362 227.668 721.362 222.807 L721.362 208.733 L718.237 208.733 L718.237 205.423 L721.362 205.423 L721.362 198.062 L725.644 198.062 Z" fill="#000000" fill-rule="evenodd" fill-opacity="1" /><path clip-path="url(#clip130)" d="M 0 0 M759.209 227.46 L759.209 241.21 L754.926 241.21 L754.926 205.423 L759.209 205.423 L759.209 209.358 Q760.551 207.043 762.588 205.932 Q764.648 204.798 767.496 204.798 Q772.218 204.798 775.158 208.548 Q778.121 212.298 778.121 218.409 Q778.121 224.52 775.158 228.27 Q772.218 232.02 767.496 232.02 Q764.648 232.02 762.588 230.909 Q760.551 229.775 759.209 227.46 M773.699 218.409 Q773.699 213.71 771.755 211.048 Q769.834 208.363 766.454 208.363 Q763.074 208.363 761.13 211.048 Q759.209 213.71 759.209 218.409 Q759.209 223.108 761.13 225.793 Q763.074 228.455 766.454 228.455 Q769.834 228.455 771.755 225.793 Q773.699 223.108 773.699 218.409 Z" fill="#000000" fill-rule="evenodd" fill-opacity="1" /><path clip-path="url(#clip130)" d="M 0 0 M795.227 208.409 Q791.801 208.409 789.81 211.094 Q787.82 213.756 787.82 218.409 Q787.82 223.062 789.787 225.747 Q791.778 228.409 795.227 228.409 Q798.63 228.409 800.621 225.724 Q802.611 223.038 802.611 218.409 Q802.611 213.802 800.621 211.117 Q798.63 208.409 795.227 208.409 M795.227 204.798 Q800.783 204.798 803.954 208.409 Q807.125 212.02 807.125 218.409 Q807.125 224.775 803.954 228.409 Q800.783 232.02 795.227 232.02 Q789.648 232.02 786.477 228.409 Q783.329 224.775 783.329 218.409 Q783.329 212.02 786.477 208.409 Q789.648 204.798 795.227 204.798 Z" fill="#000000" fill-rule="evenodd" fill-opacity="1" /><path clip-path="url(#clip130)" d="M 0 0 M814.185 205.423 L818.444 205.423 L818.444 231.349 L814.185 231.349 L814.185 205.423 M814.185 195.33 L818.444 195.33 L818.444 200.724 L814.185 200.724 L814.185 195.33 Z" fill="#000000" fill-rule="evenodd" fill-opacity="1" /><path clip-path="url(#clip130)" d="M 0 0 M848.907 215.701 L848.907 231.349 L844.648 231.349 L844.648 215.839 Q844.648 212.159 843.213 210.33 Q841.778 208.502 838.907 208.502 Q835.458 208.502 833.468 210.701 Q831.477 212.9 831.477 216.696 L831.477 231.349 L827.194 231.349 L827.194 205.423 L831.477 205.423 L831.477 209.451 Q833.005 207.113 835.065 205.955 Q837.148 204.798 839.856 204.798 Q844.324 204.798 846.616 207.576 Q848.907 210.33 848.907 215.701 Z" fill="#000000" fill-rule="evenodd" fill-opacity="1" /><path clip-path="url(#clip130)" d="M 0 0 M861.616 198.062 L861.616 205.423 L870.389 205.423 L870.389 208.733 L861.616 208.733 L861.616 222.807 Q861.616 225.978 862.472 226.881 Q863.352 227.784 866.014 227.784 L870.389 227.784 L870.389 231.349 L866.014 231.349 Q861.083 231.349 859.208 229.52 Q857.333 227.668 857.333 222.807 L857.333 208.733 L854.208 208.733 L854.208 205.423 L857.333 205.423 L857.333 198.062 L861.616 198.062 Z" fill="#000000" fill-rule="evenodd" fill-opacity="1" /><path clip-path="url(#clip130)" d="M 0 0 M888.004 205.423 L892.518 205.423 L900.62 227.182 L908.722 205.423 L913.236 205.423 L903.513 231.349 L897.726 231.349 L888.004 205.423 Z" fill="#000000" fill-rule="evenodd" fill-opacity="1" /><path clip-path="url(#clip130)" d="M 0 0 M930.898 218.316 Q925.736 218.316 923.745 219.497 Q921.754 220.677 921.754 223.525 Q921.754 225.793 923.236 227.136 Q924.74 228.455 927.31 228.455 Q930.851 228.455 932.981 225.955 Q935.134 223.432 935.134 219.265 L935.134 218.316 L930.898 218.316 M939.393 216.557 L939.393 231.349 L935.134 231.349 L935.134 227.413 Q933.675 229.775 931.499 230.909 Q929.324 232.02 926.175 232.02 Q922.194 232.02 919.833 229.798 Q917.495 227.552 917.495 223.802 Q917.495 219.427 920.412 217.205 Q923.351 214.983 929.161 214.983 L935.134 214.983 L935.134 214.566 Q935.134 211.627 933.189 210.029 Q931.268 208.409 927.773 208.409 Q925.55 208.409 923.444 208.941 Q921.337 209.474 919.393 210.539 L919.393 206.603 Q921.731 205.701 923.93 205.261 Q926.129 204.798 928.212 204.798 Q933.837 204.798 936.615 207.714 Q939.393 210.631 939.393 216.557 Z" fill="#000000" fill-rule="evenodd" fill-opacity="1" /><path clip-path="url(#clip130)" d="M 0 0 M948.166 195.33 L952.425 195.33 L952.425 231.349 L948.166 231.349 L948.166 195.33 Z" fill="#000000" fill-rule="evenodd" fill-opacity="1" /><path clip-path="url(#clip130)" d="M 0 0 M960.897 221.117 L960.897 205.423 L965.157 205.423 L965.157 220.955 Q965.157 224.636 966.592 226.488 Q968.027 228.316 970.897 228.316 Q974.346 228.316 976.337 226.117 Q978.351 223.918 978.351 220.122 L978.351 205.423 L982.61 205.423 L982.61 231.349 L978.351 231.349 L978.351 227.367 Q976.8 229.728 974.74 230.886 Q972.703 232.02 969.995 232.02 Q965.527 232.02 963.212 229.242 Q960.897 226.464 960.897 221.117 M971.615 204.798 L971.615 204.798 Z" fill="#000000" fill-rule="evenodd" fill-opacity="1" /><path clip-path="url(#clip130)" d="M 0 0 M1013.56 217.321 L1013.56 219.404 L993.976 219.404 Q994.254 223.802 996.615 226.117 Q998.999 228.409 1003.24 228.409 Q1005.69 228.409 1007.98 227.807 Q1010.3 227.205 1012.56 226.001 L1012.56 230.029 Q1010.27 231.001 1007.86 231.511 Q1005.46 232.02 1002.98 232.02 Q996.777 232.02 993.143 228.409 Q989.532 224.798 989.532 218.64 Q989.532 212.275 992.957 208.548 Q996.406 204.798 1002.24 204.798 Q1007.47 204.798 1010.5 208.177 Q1013.56 211.534 1013.56 217.321 M1009.3 216.071 Q1009.25 212.576 1007.33 210.492 Q1005.43 208.409 1002.29 208.409 Q998.721 208.409 996.569 210.423 Q994.439 212.437 994.115 216.094 L1009.3 216.071 Z" fill="#000000" fill-rule="evenodd" fill-opacity="1" /><polyline clip-path="url(#clip130)" style="stroke:#ff0000; stroke-width:4; stroke-opacity:1; fill:none" stroke-dasharray="2, 4" points="
  314.661,274.549 456.854,274.549 
  "/>
<path clip-path="url(#clip130)" d="M 0 0 M484.835 287.94 L484.835 301.69 L480.553 301.69 L480.553 265.903 L484.835 265.903 L484.835 269.838 Q486.178 267.523 488.215 266.412 Q490.275 265.278 493.122 265.278 Q497.844 265.278 500.784 269.028 Q503.747 272.778 503.747 278.889 Q503.747 285 500.784 288.75 Q497.844 292.5 493.122 292.5 Q490.275 292.5 488.215 291.389 Q486.178 290.255 484.835 287.94 M499.326 278.889 Q499.326 274.19 497.381 271.528 Q495.46 268.843 492.08 268.843 Q488.701 268.843 486.756 271.528 Q484.835 274.19 484.835 278.889 Q484.835 283.588 486.756 286.273 Q488.701 288.935 492.08 288.935 Q495.46 288.935 497.381 286.273 Q499.326 283.588 499.326 278.889 Z" fill="#000000" fill-rule="evenodd" fill-opacity="1" /><path clip-path="url(#clip130)" d="M 0 0 M515.02 258.542 L515.02 265.903 L523.793 265.903 L523.793 269.213 L515.02 269.213 L515.02 283.287 Q515.02 286.458 515.877 287.361 Q516.756 288.264 519.418 288.264 L523.793 288.264 L523.793 291.829 L519.418 291.829 Q514.488 291.829 512.613 290 Q510.738 288.148 510.738 283.287 L510.738 269.213 L507.613 269.213 L507.613 265.903 L510.738 265.903 L510.738 258.542 L515.02 258.542 Z" fill="#000000" fill-rule="evenodd" fill-opacity="1" /><path clip-path="url(#clip130)" d="M 0 0 M530.807 287.893 L538.446 287.893 L538.446 261.528 L530.136 263.195 L530.136 258.935 L538.4 257.269 L543.076 257.269 L543.076 287.893 L550.714 287.893 L550.714 291.829 L530.807 291.829 L530.807 287.893 Z" fill="#000000" fill-rule="evenodd" fill-opacity="1" /><path clip-path="url(#clip130)" d="M 0 0 M574.626 255.81 L578.886 255.81 L578.886 291.829 L574.626 291.829 L574.626 255.81 Z" fill="#000000" fill-rule="evenodd" fill-opacity="1" /><path clip-path="url(#clip130)" d="M 0 0 M587.798 265.903 L592.057 265.903 L592.057 291.829 L587.798 291.829 L587.798 265.903 M587.798 255.81 L592.057 255.81 L592.057 261.204 L587.798 261.204 L587.798 255.81 Z" fill="#000000" fill-rule="evenodd" fill-opacity="1" /><path clip-path="url(#clip130)" d="M 0 0 M622.52 276.181 L622.52 291.829 L618.26 291.829 L618.26 276.319 Q618.26 272.639 616.825 270.81 Q615.39 268.982 612.52 268.982 Q609.071 268.982 607.08 271.181 Q605.089 273.38 605.089 277.176 L605.089 291.829 L600.807 291.829 L600.807 265.903 L605.089 265.903 L605.089 269.931 Q606.617 267.593 608.677 266.435 Q610.76 265.278 613.469 265.278 Q617.936 265.278 620.228 268.056 Q622.52 270.81 622.52 276.181 Z" fill="#000000" fill-rule="evenodd" fill-opacity="1" /><path clip-path="url(#clip130)" d="M 0 0 M653.191 277.801 L653.191 279.884 L633.608 279.884 Q633.885 284.282 636.246 286.597 Q638.631 288.889 642.867 288.889 Q645.32 288.889 647.612 288.287 Q649.927 287.685 652.195 286.481 L652.195 290.509 Q649.904 291.481 647.496 291.991 Q645.089 292.5 642.612 292.5 Q636.408 292.5 632.774 288.889 Q629.163 285.278 629.163 279.12 Q629.163 272.755 632.589 269.028 Q636.038 265.278 641.871 265.278 Q647.103 265.278 650.135 268.657 Q653.191 272.014 653.191 277.801 M648.932 276.551 Q648.885 273.056 646.964 270.972 Q645.066 268.889 641.918 268.889 Q638.353 268.889 636.2 270.903 Q634.07 272.917 633.746 276.574 L648.932 276.551 Z" fill="#000000" fill-rule="evenodd" fill-opacity="1" /><path clip-path="url(#clip130)" d="M 0 0 M671.964 278.796 Q666.802 278.796 664.811 279.977 Q662.82 281.157 662.82 284.005 Q662.82 286.273 664.302 287.616 Q665.806 288.935 668.376 288.935 Q671.917 288.935 674.047 286.435 Q676.2 283.912 676.2 279.745 L676.2 278.796 L671.964 278.796 M680.459 277.037 L680.459 291.829 L676.2 291.829 L676.2 287.893 Q674.742 290.255 672.566 291.389 Q670.39 292.5 667.242 292.5 Q663.26 292.5 660.899 290.278 Q658.561 288.032 658.561 284.282 Q658.561 279.907 661.478 277.685 Q664.418 275.463 670.228 275.463 L676.2 275.463 L676.2 275.046 Q676.2 272.107 674.255 270.509 Q672.334 268.889 668.839 268.889 Q666.617 268.889 664.51 269.421 Q662.404 269.954 660.459 271.019 L660.459 267.083 Q662.797 266.181 664.996 265.741 Q667.195 265.278 669.279 265.278 Q674.904 265.278 677.681 268.194 Q680.459 271.111 680.459 277.037 Z" fill="#000000" fill-rule="evenodd" fill-opacity="1" /><path clip-path="url(#clip130)" d="M 0 0 M704.255 269.884 Q703.538 269.468 702.681 269.282 Q701.848 269.074 700.829 269.074 Q697.218 269.074 695.274 271.435 Q693.353 273.773 693.353 278.171 L693.353 291.829 L689.07 291.829 L689.07 265.903 L693.353 265.903 L693.353 269.931 Q694.695 267.569 696.848 266.435 Q699.001 265.278 702.079 265.278 Q702.519 265.278 703.052 265.347 Q703.584 265.394 704.232 265.509 L704.255 269.884 Z" fill="#000000" fill-rule="evenodd" fill-opacity="1" /><path clip-path="url(#clip130)" d="M 0 0 M723.792 265.903 L728.051 265.903 L728.051 291.829 L723.792 291.829 L723.792 265.903 M723.792 255.81 L728.051 255.81 L728.051 261.204 L723.792 261.204 L723.792 255.81 Z" fill="#000000" fill-rule="evenodd" fill-opacity="1" /><path clip-path="url(#clip130)" d="M 0 0 M758.514 276.181 L758.514 291.829 L754.255 291.829 L754.255 276.319 Q754.255 272.639 752.82 270.81 Q751.385 268.982 748.514 268.982 Q745.065 268.982 743.075 271.181 Q741.084 273.38 741.084 277.176 L741.084 291.829 L736.801 291.829 L736.801 265.903 L741.084 265.903 L741.084 269.931 Q742.612 267.593 744.672 266.435 Q746.755 265.278 749.463 265.278 Q753.931 265.278 756.223 268.056 Q758.514 270.81 758.514 276.181 Z" fill="#000000" fill-rule="evenodd" fill-opacity="1" /><path clip-path="url(#clip130)" d="M 0 0 M771.223 258.542 L771.223 265.903 L779.996 265.903 L779.996 269.213 L771.223 269.213 L771.223 283.287 Q771.223 286.458 772.079 287.361 Q772.959 288.264 775.621 288.264 L779.996 288.264 L779.996 291.829 L775.621 291.829 Q770.69 291.829 768.815 290 Q766.94 288.148 766.94 283.287 L766.94 269.213 L763.815 269.213 L763.815 265.903 L766.94 265.903 L766.94 258.542 L771.223 258.542 Z" fill="#000000" fill-rule="evenodd" fill-opacity="1" /><path clip-path="url(#clip130)" d="M 0 0 M807.773 277.801 L807.773 279.884 L788.19 279.884 Q788.468 284.282 790.829 286.597 Q793.213 288.889 797.449 288.889 Q799.903 288.889 802.195 288.287 Q804.509 287.685 806.778 286.481 L806.778 290.509 Q804.486 291.481 802.079 291.991 Q799.671 292.5 797.195 292.5 Q790.991 292.5 787.357 288.889 Q783.746 285.278 783.746 279.12 Q783.746 272.755 787.172 269.028 Q790.621 265.278 796.454 265.278 Q801.685 265.278 804.718 268.657 Q807.773 272.014 807.773 277.801 M803.514 276.551 Q803.468 273.056 801.546 270.972 Q799.648 268.889 796.5 268.889 Q792.935 268.889 790.783 270.903 Q788.653 272.917 788.329 276.574 L803.514 276.551 Z" fill="#000000" fill-rule="evenodd" fill-opacity="1" /><path clip-path="url(#clip130)" d="M 0 0 M829.787 269.884 Q829.069 269.468 828.213 269.282 Q827.38 269.074 826.361 269.074 Q822.75 269.074 820.806 271.435 Q818.884 273.773 818.884 278.171 L818.884 291.829 L814.602 291.829 L814.602 265.903 L818.884 265.903 L818.884 269.931 Q820.227 267.569 822.38 266.435 Q824.532 265.278 827.611 265.278 Q828.051 265.278 828.583 265.347 Q829.116 265.394 829.764 265.509 L829.787 269.884 Z" fill="#000000" fill-rule="evenodd" fill-opacity="1" /><path clip-path="url(#clip130)" d="M 0 0 M838.375 287.94 L838.375 301.69 L834.093 301.69 L834.093 265.903 L838.375 265.903 L838.375 269.838 Q839.718 267.523 841.755 266.412 Q843.815 265.278 846.662 265.278 Q851.384 265.278 854.324 269.028 Q857.287 272.778 857.287 278.889 Q857.287 285 854.324 288.75 Q851.384 292.5 846.662 292.5 Q843.815 292.5 841.755 291.389 Q839.718 290.255 838.375 287.94 M852.866 278.889 Q852.866 274.19 850.921 271.528 Q849 268.843 845.62 268.843 Q842.241 268.843 840.296 271.528 Q838.375 274.19 838.375 278.889 Q838.375 283.588 840.296 286.273 Q842.241 288.935 845.62 288.935 Q849 288.935 850.921 286.273 Q852.866 283.588 852.866 278.889 Z" fill="#000000" fill-rule="evenodd" fill-opacity="1" /><path clip-path="url(#clip130)" d="M 0 0 M874.393 268.889 Q870.967 268.889 868.977 271.574 Q866.986 274.236 866.986 278.889 Q866.986 283.542 868.953 286.227 Q870.944 288.889 874.393 288.889 Q877.796 288.889 879.787 286.204 Q881.777 283.518 881.777 278.889 Q881.777 274.282 879.787 271.597 Q877.796 268.889 874.393 268.889 M874.393 265.278 Q879.949 265.278 883.12 268.889 Q886.291 272.5 886.291 278.889 Q886.291 285.255 883.12 288.889 Q879.949 292.5 874.393 292.5 Q868.815 292.5 865.643 288.889 Q862.495 285.255 862.495 278.889 Q862.495 272.5 865.643 268.889 Q868.815 265.278 874.393 265.278 Z" fill="#000000" fill-rule="evenodd" fill-opacity="1" /><path clip-path="url(#clip130)" d="M 0 0 M893.351 255.81 L897.611 255.81 L897.611 291.829 L893.351 291.829 L893.351 255.81 Z" fill="#000000" fill-rule="evenodd" fill-opacity="1" /><path clip-path="url(#clip130)" d="M 0 0 M918.305 278.796 Q913.143 278.796 911.152 279.977 Q909.162 281.157 909.162 284.005 Q909.162 286.273 910.643 287.616 Q912.148 288.935 914.717 288.935 Q918.259 288.935 920.388 286.435 Q922.541 283.912 922.541 279.745 L922.541 278.796 L918.305 278.796 M926.8 277.037 L926.8 291.829 L922.541 291.829 L922.541 287.893 Q921.083 290.255 918.907 291.389 Q916.731 292.5 913.583 292.5 Q909.601 292.5 907.24 290.278 Q904.902 288.032 904.902 284.282 Q904.902 279.907 907.819 277.685 Q910.759 275.463 916.569 275.463 L922.541 275.463 L922.541 275.046 Q922.541 272.107 920.597 270.509 Q918.675 268.889 915.18 268.889 Q912.958 268.889 910.851 269.421 Q908.745 269.954 906.8 271.019 L906.8 267.083 Q909.138 266.181 911.338 265.741 Q913.537 265.278 915.62 265.278 Q921.245 265.278 924.023 268.194 Q926.8 271.111 926.8 277.037 Z" fill="#000000" fill-rule="evenodd" fill-opacity="1" /><path clip-path="url(#clip130)" d="M 0 0 M939.786 258.542 L939.786 265.903 L948.56 265.903 L948.56 269.213 L939.786 269.213 L939.786 283.287 Q939.786 286.458 940.643 287.361 Q941.523 288.264 944.185 288.264 L948.56 288.264 L948.56 291.829 L944.185 291.829 Q939.254 291.829 937.379 290 Q935.504 288.148 935.504 283.287 L935.504 269.213 L932.379 269.213 L932.379 265.903 L935.504 265.903 L935.504 258.542 L939.786 258.542 Z" fill="#000000" fill-rule="evenodd" fill-opacity="1" /><path clip-path="url(#clip130)" d="M 0 0 M976.337 277.801 L976.337 279.884 L956.754 279.884 Q957.032 284.282 959.393 286.597 Q961.777 288.889 966.013 288.889 Q968.467 288.889 970.758 288.287 Q973.073 287.685 975.342 286.481 L975.342 290.509 Q973.05 291.481 970.643 291.991 Q968.235 292.5 965.759 292.5 Q959.555 292.5 955.921 288.889 Q952.31 285.278 952.31 279.12 Q952.31 272.755 955.735 269.028 Q959.184 265.278 965.018 265.278 Q970.249 265.278 973.282 268.657 Q976.337 272.014 976.337 277.801 M972.078 276.551 Q972.032 273.056 970.11 270.972 Q968.212 268.889 965.064 268.889 Q961.499 268.889 959.347 270.903 Q957.217 272.917 956.893 276.574 L972.078 276.551 Z" fill="#000000" fill-rule="evenodd" fill-opacity="1" /><path clip-path="url(#clip130)" d="M 0 0 M1000.39 269.838 L1000.39 255.81 L1004.65 255.81 L1004.65 291.829 L1000.39 291.829 L1000.39 287.94 Q999.045 290.255 996.985 291.389 Q994.948 292.5 992.078 292.5 Q987.379 292.5 984.416 288.75 Q981.476 285 981.476 278.889 Q981.476 272.778 984.416 269.028 Q987.379 265.278 992.078 265.278 Q994.948 265.278 996.985 266.412 Q999.045 267.523 1000.39 269.838 M985.874 278.889 Q985.874 283.588 987.795 286.273 Q989.74 288.935 993.119 288.935 Q996.499 288.935 998.444 286.273 Q1000.39 283.588 1000.39 278.889 Q1000.39 274.19 998.444 271.528 Q996.499 268.843 993.119 268.843 Q989.74 268.843 987.795 271.528 Q985.874 274.19 985.874 278.889 Z" fill="#000000" fill-rule="evenodd" fill-opacity="1" /><polyline clip-path="url(#clip130)" style="stroke:#ff0000; stroke-width:4; stroke-opacity:1; fill:none" stroke-dasharray="16, 10" points="
  314.661,335.029 456.854,335.029 
  "/>
<path clip-path="url(#clip130)" d="M 0 0 M484.835 348.42 L484.835 362.17 L480.553 362.17 L480.553 326.383 L484.835 326.383 L484.835 330.318 Q486.178 328.003 488.215 326.892 Q490.275 325.758 493.122 325.758 Q497.844 325.758 500.784 329.508 Q503.747 333.258 503.747 339.369 Q503.747 345.48 500.784 349.23 Q497.844 352.98 493.122 352.98 Q490.275 352.98 488.215 351.869 Q486.178 350.735 484.835 348.42 M499.326 339.369 Q499.326 334.67 497.381 332.008 Q495.46 329.323 492.08 329.323 Q488.701 329.323 486.756 332.008 Q484.835 334.67 484.835 339.369 Q484.835 344.068 486.756 346.753 Q488.701 349.415 492.08 349.415 Q495.46 349.415 497.381 346.753 Q499.326 344.068 499.326 339.369 Z" fill="#000000" fill-rule="evenodd" fill-opacity="1" /><path clip-path="url(#clip130)" d="M 0 0 M515.02 319.022 L515.02 326.383 L523.793 326.383 L523.793 329.693 L515.02 329.693 L515.02 343.767 Q515.02 346.938 515.877 347.841 Q516.756 348.744 519.418 348.744 L523.793 348.744 L523.793 352.309 L519.418 352.309 Q514.488 352.309 512.613 350.48 Q510.738 348.628 510.738 343.767 L510.738 329.693 L507.613 329.693 L507.613 326.383 L510.738 326.383 L510.738 319.022 L515.02 319.022 Z" fill="#000000" fill-rule="evenodd" fill-opacity="1" /><path clip-path="url(#clip130)" d="M 0 0 M530.807 348.373 L538.446 348.373 L538.446 322.008 L530.136 323.675 L530.136 319.415 L538.4 317.749 L543.076 317.749 L543.076 348.373 L550.714 348.373 L550.714 352.309 L530.807 352.309 L530.807 348.373 Z" fill="#000000" fill-rule="evenodd" fill-opacity="1" /><path clip-path="url(#clip130)" d="M 0 0 M593.284 327.378 L593.284 331.36 Q591.478 330.364 589.649 329.878 Q587.844 329.369 585.992 329.369 Q581.849 329.369 579.557 332.008 Q577.265 334.624 577.265 339.369 Q577.265 344.114 579.557 346.753 Q581.849 349.369 585.992 349.369 Q587.844 349.369 589.649 348.883 Q591.478 348.373 593.284 347.378 L593.284 351.313 Q591.501 352.147 589.58 352.563 Q587.682 352.98 585.529 352.98 Q579.673 352.98 576.224 349.299 Q572.775 345.619 572.775 339.369 Q572.775 333.026 576.247 329.392 Q579.742 325.758 585.807 325.758 Q587.774 325.758 589.649 326.175 Q591.524 326.568 593.284 327.378 Z" fill="#000000" fill-rule="evenodd" fill-opacity="1" /><path clip-path="url(#clip130)" d="M 0 0 M600.691 316.29 L604.95 316.29 L604.95 352.309 L600.691 352.309 L600.691 316.29 Z" fill="#000000" fill-rule="evenodd" fill-opacity="1" /><path clip-path="url(#clip130)" d="M 0 0 M623.908 329.369 Q620.483 329.369 618.492 332.054 Q616.501 334.716 616.501 339.369 Q616.501 344.022 618.469 346.707 Q620.459 349.369 623.908 349.369 Q627.311 349.369 629.302 346.684 Q631.293 343.998 631.293 339.369 Q631.293 334.762 629.302 332.077 Q627.311 329.369 623.908 329.369 M623.908 325.758 Q629.464 325.758 632.635 329.369 Q635.807 332.98 635.807 339.369 Q635.807 345.735 632.635 349.369 Q629.464 352.98 623.908 352.98 Q618.33 352.98 615.159 349.369 Q612.01 345.735 612.01 339.369 Q612.01 332.98 615.159 329.369 Q618.33 325.758 623.908 325.758 Z" fill="#000000" fill-rule="evenodd" fill-opacity="1" /><path clip-path="url(#clip130)" d="M 0 0 M659.394 327.147 L659.394 331.174 Q657.589 330.249 655.644 329.786 Q653.7 329.323 651.617 329.323 Q648.445 329.323 646.848 330.295 Q645.274 331.267 645.274 333.211 Q645.274 334.693 646.408 335.549 Q647.543 336.383 650.969 337.147 L652.427 337.471 Q656.964 338.443 658.862 340.225 Q660.783 341.985 660.783 345.156 Q660.783 348.767 657.913 350.873 Q655.066 352.98 650.066 352.98 Q647.982 352.98 645.714 352.563 Q643.469 352.17 640.969 351.36 L640.969 346.961 Q643.33 348.188 645.621 348.813 Q647.913 349.415 650.158 349.415 Q653.168 349.415 654.788 348.397 Q656.408 347.355 656.408 345.48 Q656.408 343.744 655.228 342.818 Q654.07 341.892 650.112 341.036 L648.631 340.688 Q644.672 339.855 642.913 338.142 Q641.154 336.406 641.154 333.397 Q641.154 329.739 643.746 327.749 Q646.339 325.758 651.107 325.758 Q653.469 325.758 655.552 326.105 Q657.635 326.452 659.394 327.147 Z" fill="#000000" fill-rule="evenodd" fill-opacity="1" /><path clip-path="url(#clip130)" d="M 0 0 M689.741 338.281 L689.741 340.364 L670.158 340.364 Q670.436 344.762 672.797 347.077 Q675.181 349.369 679.417 349.369 Q681.871 349.369 684.163 348.767 Q686.478 348.165 688.746 346.961 L688.746 350.989 Q686.454 351.961 684.047 352.471 Q681.64 352.98 679.163 352.98 Q672.959 352.98 669.325 349.369 Q665.714 345.758 665.714 339.6 Q665.714 333.235 669.14 329.508 Q672.589 325.758 678.422 325.758 Q683.654 325.758 686.686 329.137 Q689.741 332.494 689.741 338.281 M685.482 337.031 Q685.436 333.536 683.515 331.452 Q681.617 329.369 678.468 329.369 Q674.904 329.369 672.751 331.383 Q670.621 333.397 670.297 337.054 L685.482 337.031 Z" fill="#000000" fill-rule="evenodd" fill-opacity="1" /><path clip-path="url(#clip130)" d="M 0 0 M713.26 327.147 L713.26 331.174 Q711.454 330.249 709.51 329.786 Q707.565 329.323 705.482 329.323 Q702.311 329.323 700.714 330.295 Q699.14 331.267 699.14 333.211 Q699.14 334.693 700.274 335.549 Q701.408 336.383 704.834 337.147 L706.292 337.471 Q710.829 338.443 712.727 340.225 Q714.649 341.985 714.649 345.156 Q714.649 348.767 711.778 350.873 Q708.931 352.98 703.931 352.98 Q701.848 352.98 699.579 352.563 Q697.334 352.17 694.834 351.36 L694.834 346.961 Q697.195 348.188 699.487 348.813 Q701.778 349.415 704.024 349.415 Q707.033 349.415 708.653 348.397 Q710.274 347.355 710.274 345.48 Q710.274 343.744 709.093 342.818 Q707.936 341.892 703.978 341.036 L702.496 340.688 Q698.538 339.855 696.778 338.142 Q695.019 336.406 695.019 333.397 Q695.019 329.739 697.612 327.749 Q700.204 325.758 704.973 325.758 Q707.334 325.758 709.417 326.105 Q711.501 326.452 713.26 327.147 Z" fill="#000000" fill-rule="evenodd" fill-opacity="1" /><path clip-path="url(#clip130)" d="M 0 0 M725.644 319.022 L725.644 326.383 L734.417 326.383 L734.417 329.693 L725.644 329.693 L725.644 343.767 Q725.644 346.938 726.501 347.841 Q727.38 348.744 730.042 348.744 L734.417 348.744 L734.417 352.309 L730.042 352.309 Q725.112 352.309 723.237 350.48 Q721.362 348.628 721.362 343.767 L721.362 329.693 L718.237 329.693 L718.237 326.383 L721.362 326.383 L721.362 319.022 L725.644 319.022 Z" fill="#000000" fill-rule="evenodd" fill-opacity="1" /><path clip-path="url(#clip130)" d="M 0 0 M759.209 348.42 L759.209 362.17 L754.926 362.17 L754.926 326.383 L759.209 326.383 L759.209 330.318 Q760.551 328.003 762.588 326.892 Q764.648 325.758 767.496 325.758 Q772.218 325.758 775.158 329.508 Q778.121 333.258 778.121 339.369 Q778.121 345.48 775.158 349.23 Q772.218 352.98 767.496 352.98 Q764.648 352.98 762.588 351.869 Q760.551 350.735 759.209 348.42 M773.699 339.369 Q773.699 334.67 771.755 332.008 Q769.834 329.323 766.454 329.323 Q763.074 329.323 761.13 332.008 Q759.209 334.67 759.209 339.369 Q759.209 344.068 761.13 346.753 Q763.074 349.415 766.454 349.415 Q769.834 349.415 771.755 346.753 Q773.699 344.068 773.699 339.369 Z" fill="#000000" fill-rule="evenodd" fill-opacity="1" /><path clip-path="url(#clip130)" d="M 0 0 M795.227 329.369 Q791.801 329.369 789.81 332.054 Q787.82 334.716 787.82 339.369 Q787.82 344.022 789.787 346.707 Q791.778 349.369 795.227 349.369 Q798.63 349.369 800.621 346.684 Q802.611 343.998 802.611 339.369 Q802.611 334.762 800.621 332.077 Q798.63 329.369 795.227 329.369 M795.227 325.758 Q800.783 325.758 803.954 329.369 Q807.125 332.98 807.125 339.369 Q807.125 345.735 803.954 349.369 Q800.783 352.98 795.227 352.98 Q789.648 352.98 786.477 349.369 Q783.329 345.735 783.329 339.369 Q783.329 332.98 786.477 329.369 Q789.648 325.758 795.227 325.758 Z" fill="#000000" fill-rule="evenodd" fill-opacity="1" /><path clip-path="url(#clip130)" d="M 0 0 M814.185 326.383 L818.444 326.383 L818.444 352.309 L814.185 352.309 L814.185 326.383 M814.185 316.29 L818.444 316.29 L818.444 321.684 L814.185 321.684 L814.185 316.29 Z" fill="#000000" fill-rule="evenodd" fill-opacity="1" /><path clip-path="url(#clip130)" d="M 0 0 M848.907 336.661 L848.907 352.309 L844.648 352.309 L844.648 336.799 Q844.648 333.119 843.213 331.29 Q841.778 329.462 838.907 329.462 Q835.458 329.462 833.468 331.661 Q831.477 333.86 831.477 337.656 L831.477 352.309 L827.194 352.309 L827.194 326.383 L831.477 326.383 L831.477 330.411 Q833.005 328.073 835.065 326.915 Q837.148 325.758 839.856 325.758 Q844.324 325.758 846.616 328.536 Q848.907 331.29 848.907 336.661 Z" fill="#000000" fill-rule="evenodd" fill-opacity="1" /><path clip-path="url(#clip130)" d="M 0 0 M861.616 319.022 L861.616 326.383 L870.389 326.383 L870.389 329.693 L861.616 329.693 L861.616 343.767 Q861.616 346.938 862.472 347.841 Q863.352 348.744 866.014 348.744 L870.389 348.744 L870.389 352.309 L866.014 352.309 Q861.083 352.309 859.208 350.48 Q857.333 348.628 857.333 343.767 L857.333 329.693 L854.208 329.693 L854.208 326.383 L857.333 326.383 L857.333 319.022 L861.616 319.022 Z" fill="#000000" fill-rule="evenodd" fill-opacity="1" /><path clip-path="url(#clip130)" d="M 0 0 M888.004 326.383 L892.518 326.383 L900.62 348.142 L908.722 326.383 L913.236 326.383 L903.513 352.309 L897.726 352.309 L888.004 326.383 Z" fill="#000000" fill-rule="evenodd" fill-opacity="1" /><path clip-path="url(#clip130)" d="M 0 0 M930.898 339.276 Q925.736 339.276 923.745 340.457 Q921.754 341.637 921.754 344.485 Q921.754 346.753 923.236 348.096 Q924.74 349.415 927.31 349.415 Q930.851 349.415 932.981 346.915 Q935.134 344.392 935.134 340.225 L935.134 339.276 L930.898 339.276 M939.393 337.517 L939.393 352.309 L935.134 352.309 L935.134 348.373 Q933.675 350.735 931.499 351.869 Q929.324 352.98 926.175 352.98 Q922.194 352.98 919.833 350.758 Q917.495 348.512 917.495 344.762 Q917.495 340.387 920.412 338.165 Q923.351 335.943 929.161 335.943 L935.134 335.943 L935.134 335.526 Q935.134 332.587 933.189 330.989 Q931.268 329.369 927.773 329.369 Q925.55 329.369 923.444 329.901 Q921.337 330.434 919.393 331.499 L919.393 327.563 Q921.731 326.661 923.93 326.221 Q926.129 325.758 928.212 325.758 Q933.837 325.758 936.615 328.674 Q939.393 331.591 939.393 337.517 Z" fill="#000000" fill-rule="evenodd" fill-opacity="1" /><path clip-path="url(#clip130)" d="M 0 0 M948.166 316.29 L952.425 316.29 L952.425 352.309 L948.166 352.309 L948.166 316.29 Z" fill="#000000" fill-rule="evenodd" fill-opacity="1" /><path clip-path="url(#clip130)" d="M 0 0 M960.897 342.077 L960.897 326.383 L965.157 326.383 L965.157 341.915 Q965.157 345.596 966.592 347.448 Q968.027 349.276 970.897 349.276 Q974.346 349.276 976.337 347.077 Q978.351 344.878 978.351 341.082 L978.351 326.383 L982.61 326.383 L982.61 352.309 L978.351 352.309 L978.351 348.327 Q976.8 350.688 974.74 351.846 Q972.703 352.98 969.995 352.98 Q965.527 352.98 963.212 350.202 Q960.897 347.424 960.897 342.077 M971.615 325.758 L971.615 325.758 Z" fill="#000000" fill-rule="evenodd" fill-opacity="1" /><path clip-path="url(#clip130)" d="M 0 0 M1013.56 338.281 L1013.56 340.364 L993.976 340.364 Q994.254 344.762 996.615 347.077 Q998.999 349.369 1003.24 349.369 Q1005.69 349.369 1007.98 348.767 Q1010.3 348.165 1012.56 346.961 L1012.56 350.989 Q1010.27 351.961 1007.86 352.471 Q1005.46 352.98 1002.98 352.98 Q996.777 352.98 993.143 349.369 Q989.532 345.758 989.532 339.6 Q989.532 333.235 992.957 329.508 Q996.406 325.758 1002.24 325.758 Q1007.47 325.758 1010.5 329.137 Q1013.56 332.494 1013.56 338.281 M1009.3 337.031 Q1009.25 333.536 1007.33 331.452 Q1005.43 329.369 1002.29 329.369 Q998.721 329.369 996.569 331.383 Q994.439 333.397 994.115 337.054 L1009.3 337.031 Z" fill="#000000" fill-rule="evenodd" fill-opacity="1" /></svg>
