<?xml version="1.0" encoding="utf-8"?>
<svg xmlns="http://www.w3.org/2000/svg" xmlns:xlink="http://www.w3.org/1999/xlink" width="600" height="400" viewBox="0 0 2400 1600">
<defs>
  <clipPath id="clip410">
    <rect x="0" y="0" width="2400" height="1600"/>
  </clipPath>
</defs>
<path clip-path="url(#clip410)" d="
M0 1600 L2400 1600 L2400 0 L0 0  Z
  " fill="#ffffff" fill-rule="evenodd" fill-opacity="1"/>
<defs>
  <clipPath id="clip411">
    <rect x="480" y="0" width="1681" height="1600"/>
  </clipPath>
</defs>
<path clip-path="url(#clip410)" d="
M249.422 1486.45 L2352.76 1486.45 L2352.76 47.2441 L249.422 47.2441  Z
  " fill="#ffffff" fill-rule="evenodd" fill-opacity="1"/>
<defs>
  <clipPath id="clip412">
    <rect x="249" y="47" width="2104" height="1440"/>
  </clipPath>
</defs>
<polyline clip-path="url(#clip412)" style="stroke:#000000; stroke-width:2; stroke-opacity:0.1; fill:none" points="
  308.95,1486.45 308.95,47.2441 
  "/>
<polyline clip-path="url(#clip412)" style="stroke:#000000; stroke-width:2; stroke-opacity:0.1; fill:none" points="
  450.684,1486.45 450.684,47.2441 
  "/>
<polyline clip-path="url(#clip412)" style="stroke:#000000; stroke-width:2; stroke-opacity:0.1; fill:none" points="
  592.418,1486.45 592.418,47.2441 
  "/>
<polyline clip-path="url(#clip412)" style="stroke:#000000; stroke-width:2; stroke-opacity:0.1; fill:none" points="
  734.152,1486.45 734.152,47.2441 
  "/>
<polyline clip-path="url(#clip412)" style="stroke:#000000; stroke-width:2; stroke-opacity:0.1; fill:none" points="
  875.887,1486.45 875.887,47.2441 
  "/>
<polyline clip-path="url(#clip412)" style="stroke:#000000; stroke-width:2; stroke-opacity:0.1; fill:none" points="
  1017.62,1486.45 1017.62,47.2441 
  "/>
<polyline clip-path="url(#clip412)" style="stroke:#000000; stroke-width:2; stroke-opacity:0.1; fill:none" points="
  1159.35,1486.45 1159.35,47.2441 
  "/>
<polyline clip-path="url(#clip412)" style="stroke:#000000; stroke-width:2; stroke-opacity:0.1; fill:none" points="
  1301.09,1486.45 1301.09,47.2441 
  "/>
<polyline clip-path="url(#clip412)" style="stroke:#000000; stroke-width:2; stroke-opacity:0.1; fill:none" points="
  1442.82,1486.45 1442.82,47.2441 
  "/>
<polyline clip-path="url(#clip412)" style="stroke:#000000; stroke-width:2; stroke-opacity:0.1; fill:none" points="
  1584.56,1486.45 1584.56,47.2441 
  "/>
<polyline clip-path="url(#clip412)" style="stroke:#000000; stroke-width:2; stroke-opacity:0.1; fill:none" points="
  1726.29,1486.45 1726.29,47.2441 
  "/>
<polyline clip-path="url(#clip412)" style="stroke:#000000; stroke-width:2; stroke-opacity:0.1; fill:none" points="
  1868.03,1486.45 1868.03,47.2441 
  "/>
<polyline clip-path="url(#clip412)" style="stroke:#000000; stroke-width:2; stroke-opacity:0.1; fill:none" points="
  2009.76,1486.45 2009.76,47.2441 
  "/>
<polyline clip-path="url(#clip412)" style="stroke:#000000; stroke-width:2; stroke-opacity:0.1; fill:none" points="
  2151.49,1486.45 2151.49,47.2441 
  "/>
<polyline clip-path="url(#clip412)" style="stroke:#000000; stroke-width:2; stroke-opacity:0.1; fill:none" points="
  2293.23,1486.45 2293.23,47.2441 
  "/>
<polyline clip-path="url(#clip412)" style="stroke:#000000; stroke-width:2; stroke-opacity:0.1; fill:none" points="
  249.422,1445.72 2352.76,1445.72 
  "/>
<polyline clip-path="url(#clip412)" style="stroke:#000000; stroke-width:2; stroke-opacity:0.1; fill:none" points="
  249.422,1209.84 2352.76,1209.84 
  "/>
<polyline clip-path="url(#clip412)" style="stroke:#000000; stroke-width:2; stroke-opacity:0.1; fill:none" points="
  249.422,973.958 2352.76,973.958 
  "/>
<polyline clip-path="url(#clip412)" style="stroke:#000000; stroke-width:2; stroke-opacity:0.1; fill:none" points="
  249.422,738.08 2352.76,738.08 
  "/>
<polyline clip-path="url(#clip412)" style="stroke:#000000; stroke-width:2; stroke-opacity:0.1; fill:none" points="
  249.422,502.201 2352.76,502.201 
  "/>
<polyline clip-path="url(#clip412)" style="stroke:#000000; stroke-width:2; stroke-opacity:0.1; fill:none" points="
  249.422,266.323 2352.76,266.323 
  "/>
<polyline clip-path="url(#clip410)" style="stroke:#000000; stroke-width:4; stroke-opacity:1; fill:none" points="
  249.422,1486.45 2352.76,1486.45 
  "/>
<polyline clip-path="url(#clip410)" style="stroke:#000000; stroke-width:4; stroke-opacity:1; fill:none" points="
  249.422,1486.45 249.422,47.2441 
  "/>
<polyline clip-path="url(#clip410)" style="stroke:#000000; stroke-width:4; stroke-opacity:1; fill:none" points="
  308.95,1486.45 308.95,1469.18 
  "/>
<polyline clip-path="url(#clip410)" style="stroke:#000000; stroke-width:4; stroke-opacity:1; fill:none" points="
  450.684,1486.45 450.684,1469.18 
  "/>
<polyline clip-path="url(#clip410)" style="stroke:#000000; stroke-width:4; stroke-opacity:1; fill:none" points="
  592.418,1486.45 592.418,1469.18 
  "/>
<polyline clip-path="url(#clip410)" style="stroke:#000000; stroke-width:4; stroke-opacity:1; fill:none" points="
  734.152,1486.45 734.152,1469.18 
  "/>
<polyline clip-path="url(#clip410)" style="stroke:#000000; stroke-width:4; stroke-opacity:1; fill:none" points="
  875.887,1486.45 875.887,1469.18 
  "/>
<polyline clip-path="url(#clip410)" style="stroke:#000000; stroke-width:4; stroke-opacity:1; fill:none" points="
  1017.62,1486.45 1017.62,1469.18 
  "/>
<polyline clip-path="url(#clip410)" style="stroke:#000000; stroke-width:4; stroke-opacity:1; fill:none" points="
  1159.35,1486.45 1159.35,1469.18 
  "/>
<polyline clip-path="url(#clip410)" style="stroke:#000000; stroke-width:4; stroke-opacity:1; fill:none" points="
  1301.09,1486.45 1301.09,1469.18 
  "/>
<polyline clip-path="url(#clip410)" style="stroke:#000000; stroke-width:4; stroke-opacity:1; fill:none" points="
  1442.82,1486.45 1442.82,1469.18 
  "/>
<polyline clip-path="url(#clip410)" style="stroke:#000000; stroke-width:4; stroke-opacity:1; fill:none" points="
  1584.56,1486.45 1584.56,1469.18 
  "/>
<polyline clip-path="url(#clip410)" style="stroke:#000000; stroke-width:4; stroke-opacity:1; fill:none" points="
  1726.29,1486.45 1726.29,1469.18 
  "/>
<polyline clip-path="url(#clip410)" style="stroke:#000000; stroke-width:4; stroke-opacity:1; fill:none" points="
  1868.03,1486.45 1868.03,1469.18 
  "/>
<polyline clip-path="url(#clip410)" style="stroke:#000000; stroke-width:4; stroke-opacity:1; fill:none" points="
  2009.76,1486.45 2009.76,1469.18 
  "/>
<polyline clip-path="url(#clip410)" style="stroke:#000000; stroke-width:4; stroke-opacity:1; fill:none" points="
  2151.49,1486.45 2151.49,1469.18 
  "/>
<polyline clip-path="url(#clip410)" style="stroke:#000000; stroke-width:4; stroke-opacity:1; fill:none" points="
  2293.23,1486.45 2293.23,1469.18 
  "/>
<polyline clip-path="url(#clip410)" style="stroke:#000000; stroke-width:4; stroke-opacity:1; fill:none" points="
  249.422,1445.72 274.662,1445.72 
  "/>
<polyline clip-path="url(#clip410)" style="stroke:#000000; stroke-width:4; stroke-opacity:1; fill:none" points="
  249.422,1209.84 274.662,1209.84 
  "/>
<polyline clip-path="url(#clip410)" style="stroke:#000000; stroke-width:4; stroke-opacity:1; fill:none" points="
  249.422,973.958 274.662,973.958 
  "/>
<polyline clip-path="url(#clip410)" style="stroke:#000000; stroke-width:4; stroke-opacity:1; fill:none" points="
  249.422,738.08 274.662,738.08 
  "/>
<polyline clip-path="url(#clip410)" style="stroke:#000000; stroke-width:4; stroke-opacity:1; fill:none" points="
  249.422,502.201 274.662,502.201 
  "/>
<polyline clip-path="url(#clip410)" style="stroke:#000000; stroke-width:4; stroke-opacity:1; fill:none" points="
  249.422,266.323 274.662,266.323 
  "/>
<path clip-path="url(#clip410)" d="M 0 0 M308.95 1508.44 Q305.339 1508.44 303.51 1512 Q301.705 1515.55 301.705 1522.67 Q301.705 1529.78 303.51 1533.35 Q305.339 1536.89 308.95 1536.89 Q312.584 1536.89 314.39 1533.35 Q316.219 1529.78 316.219 1522.67 Q316.219 1515.55 314.39 1512 Q312.584 1508.44 308.95 1508.44 M308.95 1504.73 Q314.76 1504.73 317.816 1509.34 Q320.895 1513.92 320.895 1522.67 Q320.895 1531.4 317.816 1536.01 Q314.76 1540.59 308.95 1540.59 Q303.14 1540.59 300.061 1536.01 Q297.006 1531.4 297.006 1522.67 Q297.006 1513.92 300.061 1509.34 Q303.14 1504.73 308.95 1504.73 Z" fill="#000000" fill-rule="evenodd" fill-opacity="1" /><path clip-path="url(#clip410)" d="M 0 0 M373.451 1539.2 L373.451 1534.94 Q375.21 1535.78 377.016 1536.22 Q378.821 1536.66 380.557 1536.66 Q385.187 1536.66 387.617 1533.55 Q390.071 1530.43 390.418 1524.09 Q389.076 1526.08 387.016 1527.14 Q384.955 1528.21 382.455 1528.21 Q377.27 1528.21 374.238 1525.08 Q371.229 1521.93 371.229 1516.49 Q371.229 1511.17 374.377 1507.95 Q377.525 1504.73 382.756 1504.73 Q388.752 1504.73 391.9 1509.34 Q395.071 1513.92 395.071 1522.67 Q395.071 1530.85 391.182 1535.73 Q387.317 1540.59 380.766 1540.59 Q379.006 1540.59 377.201 1540.24 Q375.395 1539.9 373.451 1539.2 M382.756 1524.55 Q385.904 1524.55 387.733 1522.4 Q389.585 1520.24 389.585 1516.49 Q389.585 1512.77 387.733 1510.61 Q385.904 1508.44 382.756 1508.44 Q379.608 1508.44 377.756 1510.61 Q375.928 1512.77 375.928 1516.49 Q375.928 1520.24 377.756 1522.4 Q379.608 1524.55 382.756 1524.55 Z" fill="#000000" fill-rule="evenodd" fill-opacity="1" /><path clip-path="url(#clip410)" d="M 0 0 M410.14 1508.44 Q406.529 1508.44 404.701 1512 Q402.895 1515.55 402.895 1522.67 Q402.895 1529.78 404.701 1533.35 Q406.529 1536.89 410.14 1536.89 Q413.775 1536.89 415.58 1533.35 Q417.409 1529.78 417.409 1522.67 Q417.409 1515.55 415.58 1512 Q413.775 1508.44 410.14 1508.44 M410.14 1504.73 Q415.951 1504.73 419.006 1509.34 Q422.085 1513.92 422.085 1522.67 Q422.085 1531.4 419.006 1536.01 Q415.951 1540.59 410.14 1540.59 Q404.33 1540.59 401.252 1536.01 Q398.196 1531.4 398.196 1522.67 Q398.196 1513.92 401.252 1509.34 Q404.33 1504.73 410.14 1504.73 Z" fill="#000000" fill-rule="evenodd" fill-opacity="1" /><path clip-path="url(#clip410)" d="M 0 0 M437.154 1508.44 Q433.543 1508.44 431.714 1512 Q429.909 1515.55 429.909 1522.67 Q429.909 1529.78 431.714 1533.35 Q433.543 1536.89 437.154 1536.89 Q440.788 1536.89 442.594 1533.35 Q444.423 1529.78 444.423 1522.67 Q444.423 1515.55 442.594 1512 Q440.788 1508.44 437.154 1508.44 M437.154 1504.73 Q442.964 1504.73 446.02 1509.34 Q449.099 1513.92 449.099 1522.67 Q449.099 1531.4 446.02 1536.01 Q442.964 1540.59 437.154 1540.59 Q431.344 1540.59 428.265 1536.01 Q425.21 1531.4 425.21 1522.67 Q425.21 1513.92 428.265 1509.34 Q431.344 1504.73 437.154 1504.73 Z" fill="#000000" fill-rule="evenodd" fill-opacity="1" /><path clip-path="url(#clip410)" d="M 0 0 M464.168 1508.44 Q460.557 1508.44 458.728 1512 Q456.923 1515.55 456.923 1522.67 Q456.923 1529.78 458.728 1533.35 Q460.557 1536.89 464.168 1536.89 Q467.802 1536.89 469.608 1533.35 Q471.436 1529.78 471.436 1522.67 Q471.436 1515.55 469.608 1512 Q467.802 1508.44 464.168 1508.44 M464.168 1504.73 Q469.978 1504.73 473.034 1509.34 Q476.112 1513.92 476.112 1522.67 Q476.112 1531.4 473.034 1536.01 Q469.978 1540.59 464.168 1540.59 Q458.358 1540.59 455.279 1536.01 Q452.224 1531.4 452.224 1522.67 Q452.224 1513.92 455.279 1509.34 Q458.358 1504.73 464.168 1504.73 Z" fill="#000000" fill-rule="evenodd" fill-opacity="1" /><path clip-path="url(#clip410)" d="M 0 0 M491.182 1508.44 Q487.571 1508.44 485.742 1512 Q483.936 1515.55 483.936 1522.67 Q483.936 1529.78 485.742 1533.35 Q487.571 1536.89 491.182 1536.89 Q494.816 1536.89 496.621 1533.35 Q498.45 1529.78 498.45 1522.67 Q498.45 1515.55 496.621 1512 Q494.816 1508.44 491.182 1508.44 M491.182 1504.73 Q496.992 1504.73 500.047 1509.34 Q503.126 1513.92 503.126 1522.67 Q503.126 1531.4 500.047 1536.01 Q496.992 1540.59 491.182 1540.59 Q485.372 1540.59 482.293 1536.01 Q479.237 1531.4 479.237 1522.67 Q479.237 1513.92 482.293 1509.34 Q485.372 1504.73 491.182 1504.73 Z" fill="#000000" fill-rule="evenodd" fill-opacity="1" /><path clip-path="url(#clip410)" d="M 0 0 M518.195 1508.44 Q514.584 1508.44 512.756 1512 Q510.95 1515.55 510.95 1522.67 Q510.95 1529.78 512.756 1533.35 Q514.584 1536.89 518.195 1536.89 Q521.83 1536.89 523.635 1533.35 Q525.464 1529.78 525.464 1522.67 Q525.464 1515.55 523.635 1512 Q521.83 1508.44 518.195 1508.44 M518.195 1504.73 Q524.006 1504.73 527.061 1509.34 Q530.14 1513.92 530.14 1522.67 Q530.14 1531.4 527.061 1536.01 Q524.006 1540.59 518.195 1540.59 Q512.385 1540.59 509.307 1536.01 Q506.251 1531.4 506.251 1522.67 Q506.251 1513.92 509.307 1509.34 Q512.385 1504.73 518.195 1504.73 Z" fill="#000000" fill-rule="evenodd" fill-opacity="1" /><path clip-path="url(#clip410)" d="M 0 0 M501.678 1535.98 L509.317 1535.98 L509.317 1509.62 L501.007 1511.29 L501.007 1507.03 L509.271 1505.36 L513.947 1505.36 L513.947 1535.98 L521.585 1535.98 L521.585 1539.92 L501.678 1539.92 L501.678 1535.98 Z" fill="#000000" fill-rule="evenodd" fill-opacity="1" /><path clip-path="url(#clip410)" d="M 0 0 M537.233 1520.78 Q534.085 1520.78 532.233 1522.93 Q530.405 1525.08 530.405 1528.83 Q530.405 1532.56 532.233 1534.73 Q534.085 1536.89 537.233 1536.89 Q540.382 1536.89 542.21 1534.73 Q544.062 1532.56 544.062 1528.83 Q544.062 1525.08 542.21 1522.93 Q540.382 1520.78 537.233 1520.78 M546.516 1506.12 L546.516 1510.38 Q544.757 1509.55 542.951 1509.11 Q541.169 1508.67 539.409 1508.67 Q534.78 1508.67 532.326 1511.8 Q529.896 1514.92 529.548 1521.24 Q530.914 1519.23 532.974 1518.16 Q535.034 1517.07 537.511 1517.07 Q542.72 1517.07 545.729 1520.24 Q548.761 1523.39 548.761 1528.83 Q548.761 1534.16 545.613 1537.37 Q542.465 1540.59 537.233 1540.59 Q531.238 1540.59 528.067 1536.01 Q524.896 1531.4 524.896 1522.67 Q524.896 1514.48 528.784 1509.62 Q532.673 1504.73 539.224 1504.73 Q540.983 1504.73 542.766 1505.08 Q544.571 1505.43 546.516 1506.12 Z" fill="#000000" fill-rule="evenodd" fill-opacity="1" /><path clip-path="url(#clip410)" d="M 0 0 M563.831 1508.44 Q560.219 1508.44 558.391 1512 Q556.585 1515.55 556.585 1522.67 Q556.585 1529.78 558.391 1533.35 Q560.219 1536.89 563.831 1536.89 Q567.465 1536.89 569.27 1533.35 Q571.099 1529.78 571.099 1522.67 Q571.099 1515.55 569.27 1512 Q567.465 1508.44 563.831 1508.44 M563.831 1504.73 Q569.641 1504.73 572.696 1509.34 Q575.775 1513.92 575.775 1522.67 Q575.775 1531.4 572.696 1536.01 Q569.641 1540.59 563.831 1540.59 Q558.02 1540.59 554.942 1536.01 Q551.886 1531.4 551.886 1522.67 Q551.886 1513.92 554.942 1509.34 Q558.02 1504.73 563.831 1504.73 Z" fill="#000000" fill-rule="evenodd" fill-opacity="1" /><path clip-path="url(#clip410)" d="M 0 0 M590.844 1508.44 Q587.233 1508.44 585.404 1512 Q583.599 1515.55 583.599 1522.67 Q583.599 1529.78 585.404 1533.35 Q587.233 1536.89 590.844 1536.89 Q594.479 1536.89 596.284 1533.35 Q598.113 1529.78 598.113 1522.67 Q598.113 1515.55 596.284 1512 Q594.479 1508.44 590.844 1508.44 M590.844 1504.73 Q596.654 1504.73 599.71 1509.34 Q602.789 1513.92 602.789 1522.67 Q602.789 1531.4 599.71 1536.01 Q596.654 1540.59 590.844 1540.59 Q585.034 1540.59 581.955 1536.01 Q578.9 1531.4 578.9 1522.67 Q578.9 1513.92 581.955 1509.34 Q585.034 1504.73 590.844 1504.73 Z" fill="#000000" fill-rule="evenodd" fill-opacity="1" /><path clip-path="url(#clip410)" d="M 0 0 M617.858 1508.44 Q614.247 1508.44 612.418 1512 Q610.613 1515.55 610.613 1522.67 Q610.613 1529.78 612.418 1533.35 Q614.247 1536.89 617.858 1536.89 Q621.492 1536.89 623.298 1533.35 Q625.126 1529.78 625.126 1522.67 Q625.126 1515.55 623.298 1512 Q621.492 1508.44 617.858 1508.44 M617.858 1504.73 Q623.668 1504.73 626.724 1509.34 Q629.802 1513.92 629.802 1522.67 Q629.802 1531.4 626.724 1536.01 Q623.668 1540.59 617.858 1540.59 Q612.048 1540.59 608.969 1536.01 Q605.914 1531.4 605.914 1522.67 Q605.914 1513.92 608.969 1509.34 Q612.048 1504.73 617.858 1504.73 Z" fill="#000000" fill-rule="evenodd" fill-opacity="1" /><path clip-path="url(#clip410)" d="M 0 0 M644.872 1508.44 Q641.261 1508.44 639.432 1512 Q637.626 1515.55 637.626 1522.67 Q637.626 1529.78 639.432 1533.35 Q641.261 1536.89 644.872 1536.89 Q648.506 1536.89 650.312 1533.35 Q652.14 1529.78 652.14 1522.67 Q652.14 1515.55 650.312 1512 Q648.506 1508.44 644.872 1508.44 M644.872 1504.73 Q650.682 1504.73 653.737 1509.34 Q656.816 1513.92 656.816 1522.67 Q656.816 1531.4 653.737 1536.01 Q650.682 1540.59 644.872 1540.59 Q639.062 1540.59 635.983 1536.01 Q632.927 1531.4 632.927 1522.67 Q632.927 1513.92 635.983 1509.34 Q639.062 1504.73 644.872 1504.73 Z" fill="#000000" fill-rule="evenodd" fill-opacity="1" /><path clip-path="url(#clip410)" d="M 0 0 M671.886 1508.44 Q668.274 1508.44 666.446 1512 Q664.64 1515.55 664.64 1522.67 Q664.64 1529.78 666.446 1533.35 Q668.274 1536.89 671.886 1536.89 Q675.52 1536.89 677.325 1533.35 Q679.154 1529.78 679.154 1522.67 Q679.154 1515.55 677.325 1512 Q675.52 1508.44 671.886 1508.44 M671.886 1504.73 Q677.696 1504.73 680.751 1509.34 Q683.83 1513.92 683.83 1522.67 Q683.83 1531.4 680.751 1536.01 Q677.696 1540.59 671.886 1540.59 Q666.075 1540.59 662.997 1536.01 Q659.941 1531.4 659.941 1522.67 Q659.941 1513.92 662.997 1509.34 Q666.075 1504.73 671.886 1504.73 Z" fill="#000000" fill-rule="evenodd" fill-opacity="1" /><path clip-path="url(#clip410)" d="M 0 0 M648.088 1535.98 L664.407 1535.98 L664.407 1539.92 L642.463 1539.92 L642.463 1535.98 Q645.125 1533.23 649.708 1528.6 Q654.315 1523.95 655.495 1522.61 Q657.741 1520.08 658.62 1518.35 Q659.523 1516.59 659.523 1514.9 Q659.523 1512.14 657.579 1510.41 Q655.657 1508.67 652.556 1508.67 Q650.357 1508.67 647.903 1509.43 Q645.472 1510.2 642.695 1511.75 L642.695 1507.03 Q645.519 1505.89 647.972 1505.31 Q650.426 1504.73 652.463 1504.73 Q657.833 1504.73 661.028 1507.42 Q664.222 1510.11 664.222 1514.6 Q664.222 1516.73 663.412 1518.65 Q662.625 1520.54 660.519 1523.14 Q659.94 1523.81 656.838 1527.03 Q653.736 1530.22 648.088 1535.98 Z" fill="#000000" fill-rule="evenodd" fill-opacity="1" /><path clip-path="url(#clip410)" d="M 0 0 M683.643 1521.29 Q687 1522 688.875 1524.27 Q690.773 1526.54 690.773 1529.87 Q690.773 1534.99 687.255 1537.79 Q683.736 1540.59 677.255 1540.59 Q675.079 1540.59 672.764 1540.15 Q670.472 1539.73 668.019 1538.88 L668.019 1534.36 Q669.963 1535.5 672.278 1536.08 Q674.593 1536.66 677.116 1536.66 Q681.514 1536.66 683.805 1534.92 Q686.12 1533.18 686.12 1529.87 Q686.12 1526.82 683.968 1525.11 Q681.838 1523.37 678.018 1523.37 L673.991 1523.37 L673.991 1519.53 L678.204 1519.53 Q681.653 1519.53 683.481 1518.16 Q685.31 1516.77 685.31 1514.18 Q685.31 1511.52 683.412 1510.11 Q681.537 1508.67 678.018 1508.67 Q676.097 1508.67 673.898 1509.09 Q671.699 1509.5 669.06 1510.38 L669.06 1506.22 Q671.722 1505.48 674.037 1505.11 Q676.375 1504.73 678.435 1504.73 Q683.759 1504.73 686.861 1507.17 Q689.963 1509.57 689.963 1513.69 Q689.963 1516.56 688.319 1518.55 Q686.676 1520.52 683.643 1521.29 Z" fill="#000000" fill-rule="evenodd" fill-opacity="1" /><path clip-path="url(#clip410)" d="M 0 0 M705.842 1508.44 Q702.231 1508.44 700.403 1512 Q698.597 1515.55 698.597 1522.67 Q698.597 1529.78 700.403 1533.35 Q702.231 1536.89 705.842 1536.89 Q709.477 1536.89 711.282 1533.35 Q713.111 1529.78 713.111 1522.67 Q713.111 1515.55 711.282 1512 Q709.477 1508.44 705.842 1508.44 M705.842 1504.73 Q711.653 1504.73 714.708 1509.34 Q717.787 1513.92 717.787 1522.67 Q717.787 1531.4 714.708 1536.01 Q711.653 1540.59 705.842 1540.59 Q700.032 1540.59 696.954 1536.01 Q693.898 1531.4 693.898 1522.67 Q693.898 1513.92 696.954 1509.34 Q700.032 1504.73 705.842 1504.73 Z" fill="#000000" fill-rule="evenodd" fill-opacity="1" /><path clip-path="url(#clip410)" d="M 0 0 M732.856 1508.44 Q729.245 1508.44 727.416 1512 Q725.611 1515.55 725.611 1522.67 Q725.611 1529.78 727.416 1533.35 Q729.245 1536.89 732.856 1536.89 Q736.49 1536.89 738.296 1533.35 Q740.125 1529.78 740.125 1522.67 Q740.125 1515.55 738.296 1512 Q736.49 1508.44 732.856 1508.44 M732.856 1504.73 Q738.666 1504.73 741.722 1509.34 Q744.801 1513.92 744.801 1522.67 Q744.801 1531.4 741.722 1536.01 Q738.666 1540.59 732.856 1540.59 Q727.046 1540.59 723.967 1536.01 Q720.912 1531.4 720.912 1522.67 Q720.912 1513.92 723.967 1509.34 Q727.046 1504.73 732.856 1504.73 Z" fill="#000000" fill-rule="evenodd" fill-opacity="1" /><path clip-path="url(#clip410)" d="M 0 0 M759.87 1508.44 Q756.259 1508.44 754.43 1512 Q752.625 1515.55 752.625 1522.67 Q752.625 1529.78 754.43 1533.35 Q756.259 1536.89 759.87 1536.89 Q763.504 1536.89 765.31 1533.35 Q767.138 1529.78 767.138 1522.67 Q767.138 1515.55 765.31 1512 Q763.504 1508.44 759.87 1508.44 M759.87 1504.73 Q765.68 1504.73 768.736 1509.34 Q771.814 1513.92 771.814 1522.67 Q771.814 1531.4 768.736 1536.01 Q765.68 1540.59 759.87 1540.59 Q754.06 1540.59 750.981 1536.01 Q747.926 1531.4 747.926 1522.67 Q747.926 1513.92 750.981 1509.34 Q754.06 1504.73 759.87 1504.73 Z" fill="#000000" fill-rule="evenodd" fill-opacity="1" /><path clip-path="url(#clip410)" d="M 0 0 M786.884 1508.44 Q783.273 1508.44 781.444 1512 Q779.638 1515.55 779.638 1522.67 Q779.638 1529.78 781.444 1533.35 Q783.273 1536.89 786.884 1536.89 Q790.518 1536.89 792.323 1533.35 Q794.152 1529.78 794.152 1522.67 Q794.152 1515.55 792.323 1512 Q790.518 1508.44 786.884 1508.44 M786.884 1504.73 Q792.694 1504.73 795.749 1509.34 Q798.828 1513.92 798.828 1522.67 Q798.828 1531.4 795.749 1536.01 Q792.694 1540.59 786.884 1540.59 Q781.073 1540.59 777.995 1536.01 Q774.939 1531.4 774.939 1522.67 Q774.939 1513.92 777.995 1509.34 Q781.073 1504.73 786.884 1504.73 Z" fill="#000000" fill-rule="evenodd" fill-opacity="1" /><path clip-path="url(#clip410)" d="M 0 0 M813.897 1508.44 Q810.286 1508.44 808.458 1512 Q806.652 1515.55 806.652 1522.67 Q806.652 1529.78 808.458 1533.35 Q810.286 1536.89 813.897 1536.89 Q817.532 1536.89 819.337 1533.35 Q821.166 1529.78 821.166 1522.67 Q821.166 1515.55 819.337 1512 Q817.532 1508.44 813.897 1508.44 M813.897 1504.73 Q819.708 1504.73 822.763 1509.34 Q825.842 1513.92 825.842 1522.67 Q825.842 1531.4 822.763 1536.01 Q819.708 1540.59 813.897 1540.59 Q808.087 1540.59 805.009 1536.01 Q801.953 1531.4 801.953 1522.67 Q801.953 1513.92 805.009 1509.34 Q808.087 1504.73 813.897 1504.73 Z" fill="#000000" fill-rule="evenodd" fill-opacity="1" /><path clip-path="url(#clip410)" d="M 0 0 M799.093 1521.29 Q802.449 1522 804.324 1524.27 Q806.223 1526.54 806.223 1529.87 Q806.223 1534.99 802.704 1537.79 Q799.186 1540.59 792.704 1540.59 Q790.528 1540.59 788.213 1540.15 Q785.922 1539.73 783.468 1538.88 L783.468 1534.36 Q785.412 1535.5 787.727 1536.08 Q790.042 1536.66 792.565 1536.66 Q796.963 1536.66 799.255 1534.92 Q801.57 1533.18 801.57 1529.87 Q801.57 1526.82 799.417 1525.11 Q797.287 1523.37 793.468 1523.37 L789.44 1523.37 L789.44 1519.53 L793.653 1519.53 Q797.102 1519.53 798.931 1518.16 Q800.76 1516.77 800.76 1514.18 Q800.76 1511.52 798.861 1510.11 Q796.987 1508.67 793.468 1508.67 Q791.547 1508.67 789.348 1509.09 Q787.149 1509.5 784.51 1510.38 L784.51 1506.22 Q787.172 1505.48 789.487 1505.11 Q791.824 1504.73 793.885 1504.73 Q799.209 1504.73 802.311 1507.17 Q805.412 1509.57 805.412 1513.69 Q805.412 1516.56 803.769 1518.55 Q802.125 1520.52 799.093 1521.29 Z" fill="#000000" fill-rule="evenodd" fill-opacity="1" /><path clip-path="url(#clip410)" d="M 0 0 M821.292 1508.44 Q817.681 1508.44 815.852 1512 Q814.047 1515.55 814.047 1522.67 Q814.047 1529.78 815.852 1533.35 Q817.681 1536.89 821.292 1536.89 Q824.926 1536.89 826.732 1533.35 Q828.56 1529.78 828.56 1522.67 Q828.56 1515.55 826.732 1512 Q824.926 1508.44 821.292 1508.44 M821.292 1504.73 Q827.102 1504.73 830.158 1509.34 Q833.236 1513.92 833.236 1522.67 Q833.236 1531.4 830.158 1536.01 Q827.102 1540.59 821.292 1540.59 Q815.482 1540.59 812.403 1536.01 Q809.348 1531.4 809.348 1522.67 Q809.348 1513.92 812.403 1509.34 Q815.482 1504.73 821.292 1504.73 Z" fill="#000000" fill-rule="evenodd" fill-opacity="1" /><path clip-path="url(#clip410)" d="M 0 0 M848.306 1508.44 Q844.695 1508.44 842.866 1512 Q841.06 1515.55 841.06 1522.67 Q841.06 1529.78 842.866 1533.35 Q844.695 1536.89 848.306 1536.89 Q851.94 1536.89 853.745 1533.35 Q855.574 1529.78 855.574 1522.67 Q855.574 1515.55 853.745 1512 Q851.94 1508.44 848.306 1508.44 M848.306 1504.73 Q854.116 1504.73 857.171 1509.34 Q860.25 1513.92 860.25 1522.67 Q860.25 1531.4 857.171 1536.01 Q854.116 1540.59 848.306 1540.59 Q842.496 1540.59 839.417 1536.01 Q836.361 1531.4 836.361 1522.67 Q836.361 1513.92 839.417 1509.34 Q842.496 1504.73 848.306 1504.73 Z" fill="#000000" fill-rule="evenodd" fill-opacity="1" /><path clip-path="url(#clip410)" d="M 0 0 M875.319 1508.44 Q871.708 1508.44 869.88 1512 Q868.074 1515.55 868.074 1522.67 Q868.074 1529.78 869.88 1533.35 Q871.708 1536.89 875.319 1536.89 Q878.954 1536.89 880.759 1533.35 Q882.588 1529.78 882.588 1522.67 Q882.588 1515.55 880.759 1512 Q878.954 1508.44 875.319 1508.44 M875.319 1504.73 Q881.13 1504.73 884.185 1509.34 Q887.264 1513.92 887.264 1522.67 Q887.264 1531.4 884.185 1536.01 Q881.13 1540.59 875.319 1540.59 Q869.509 1540.59 866.431 1536.01 Q863.375 1531.4 863.375 1522.67 Q863.375 1513.92 866.431 1509.34 Q869.509 1504.73 875.319 1504.73 Z" fill="#000000" fill-rule="evenodd" fill-opacity="1" /><path clip-path="url(#clip410)" d="M 0 0 M902.333 1508.44 Q898.722 1508.44 896.893 1512 Q895.088 1515.55 895.088 1522.67 Q895.088 1529.78 896.893 1533.35 Q898.722 1536.89 902.333 1536.89 Q905.967 1536.89 907.773 1533.35 Q909.602 1529.78 909.602 1522.67 Q909.602 1515.55 907.773 1512 Q905.967 1508.44 902.333 1508.44 M902.333 1504.73 Q908.143 1504.73 911.199 1509.34 Q914.278 1513.92 914.278 1522.67 Q914.278 1531.4 911.199 1536.01 Q908.143 1540.59 902.333 1540.59 Q896.523 1540.59 893.444 1536.01 Q890.389 1531.4 890.389 1522.67 Q890.389 1513.92 893.444 1509.34 Q896.523 1504.73 902.333 1504.73 Z" fill="#000000" fill-rule="evenodd" fill-opacity="1" /><path clip-path="url(#clip410)" d="M 0 0 M929.347 1508.44 Q925.736 1508.44 923.907 1512 Q922.102 1515.55 922.102 1522.67 Q922.102 1529.78 923.907 1533.35 Q925.736 1536.89 929.347 1536.89 Q932.981 1536.89 934.787 1533.35 Q936.615 1529.78 936.615 1522.67 Q936.615 1515.55 934.787 1512 Q932.981 1508.44 929.347 1508.44 M929.347 1504.73 Q935.157 1504.73 938.213 1509.34 Q941.291 1513.92 941.291 1522.67 Q941.291 1531.4 938.213 1536.01 Q935.157 1540.59 929.347 1540.59 Q923.537 1540.59 920.458 1536.01 Q917.403 1531.4 917.403 1522.67 Q917.403 1513.92 920.458 1509.34 Q923.537 1504.73 929.347 1504.73 Z" fill="#000000" fill-rule="evenodd" fill-opacity="1" /><path clip-path="url(#clip410)" d="M 0 0 M956.361 1508.44 Q952.75 1508.44 950.921 1512 Q949.115 1515.55 949.115 1522.67 Q949.115 1529.78 950.921 1533.35 Q952.75 1536.89 956.361 1536.89 Q959.995 1536.89 961.8 1533.35 Q963.629 1529.78 963.629 1522.67 Q963.629 1515.55 961.8 1512 Q959.995 1508.44 956.361 1508.44 M956.361 1504.73 Q962.171 1504.73 965.226 1509.34 Q968.305 1513.92 968.305 1522.67 Q968.305 1531.4 965.226 1536.01 Q962.171 1540.59 956.361 1540.59 Q950.55 1540.59 947.472 1536.01 Q944.416 1531.4 944.416 1522.67 Q944.416 1513.92 947.472 1509.34 Q950.55 1504.73 956.361 1504.73 Z" fill="#000000" fill-rule="evenodd" fill-opacity="1" /><path clip-path="url(#clip410)" d="M 0 0 M941.278 1521.29 Q944.635 1522 946.51 1524.27 Q948.408 1526.54 948.408 1529.87 Q948.408 1534.99 944.89 1537.79 Q941.371 1540.59 934.89 1540.59 Q932.714 1540.59 930.399 1540.15 Q928.107 1539.73 925.654 1538.88 L925.654 1534.36 Q927.598 1535.5 929.913 1536.08 Q932.228 1536.66 934.751 1536.66 Q939.149 1536.66 941.441 1534.92 Q943.755 1533.18 943.755 1529.87 Q943.755 1526.82 941.603 1525.11 Q939.473 1523.37 935.653 1523.37 L931.626 1523.37 L931.626 1519.53 L935.839 1519.53 Q939.288 1519.53 941.116 1518.16 Q942.945 1516.77 942.945 1514.18 Q942.945 1511.52 941.047 1510.11 Q939.172 1508.67 935.653 1508.67 Q933.732 1508.67 931.533 1509.09 Q929.334 1509.5 926.695 1510.38 L926.695 1506.22 Q929.357 1505.48 931.672 1505.11 Q934.01 1504.73 936.07 1504.73 Q941.394 1504.73 944.496 1507.17 Q947.598 1509.57 947.598 1513.69 Q947.598 1516.56 945.954 1518.55 Q944.311 1520.52 941.278 1521.29 Z" fill="#000000" fill-rule="evenodd" fill-opacity="1" /><path clip-path="url(#clip410)" d="M 0 0 M952.297 1505.36 L974.519 1505.36 L974.519 1507.35 L961.973 1539.92 L957.089 1539.92 L968.894 1509.3 L952.297 1509.3 L952.297 1505.36 Z" fill="#000000" fill-rule="evenodd" fill-opacity="1" /><path clip-path="url(#clip410)" d="M 0 0 M989.588 1508.44 Q985.977 1508.44 984.149 1512 Q982.343 1515.55 982.343 1522.67 Q982.343 1529.78 984.149 1533.35 Q985.977 1536.89 989.588 1536.89 Q993.223 1536.89 995.028 1533.35 Q996.857 1529.78 996.857 1522.67 Q996.857 1515.55 995.028 1512 Q993.223 1508.44 989.588 1508.44 M989.588 1504.73 Q995.399 1504.73 998.454 1509.34 Q1001.53 1513.92 1001.53 1522.67 Q1001.53 1531.4 998.454 1536.01 Q995.399 1540.59 989.588 1540.59 Q983.778 1540.59 980.7 1536.01 Q977.644 1531.4 977.644 1522.67 Q977.644 1513.92 980.7 1509.34 Q983.778 1504.73 989.588 1504.73 Z" fill="#000000" fill-rule="evenodd" fill-opacity="1" /><path clip-path="url(#clip410)" d="M 0 0 M1016.6 1508.44 Q1012.99 1508.44 1011.16 1512 Q1009.36 1515.55 1009.36 1522.67 Q1009.36 1529.78 1011.16 1533.35 Q1012.99 1536.89 1016.6 1536.89 Q1020.24 1536.89 1022.04 1533.35 Q1023.87 1529.78 1023.87 1522.67 Q1023.87 1515.55 1022.04 1512 Q1020.24 1508.44 1016.6 1508.44 M1016.6 1504.73 Q1022.41 1504.73 1025.47 1509.34 Q1028.55 1513.92 1028.55 1522.67 Q1028.55 1531.4 1025.47 1536.01 Q1022.41 1540.59 1016.6 1540.59 Q1010.79 1540.59 1007.71 1536.01 Q1004.66 1531.4 1004.66 1522.67 Q1004.66 1513.92 1007.71 1509.34 Q1010.79 1504.73 1016.6 1504.73 Z" fill="#000000" fill-rule="evenodd" fill-opacity="1" /><path clip-path="url(#clip410)" d="M 0 0 M1043.62 1508.44 Q1040 1508.44 1038.18 1512 Q1036.37 1515.55 1036.37 1522.67 Q1036.37 1529.78 1038.18 1533.35 Q1040 1536.89 1043.62 1536.89 Q1047.25 1536.89 1049.06 1533.35 Q1050.88 1529.78 1050.88 1522.67 Q1050.88 1515.55 1049.06 1512 Q1047.25 1508.44 1043.62 1508.44 M1043.62 1504.73 Q1049.43 1504.73 1052.48 1509.34 Q1055.56 1513.92 1055.56 1522.67 Q1055.56 1531.4 1052.48 1536.01 Q1049.43 1540.59 1043.62 1540.59 Q1037.81 1540.59 1034.73 1536.01 Q1031.67 1531.4 1031.67 1522.67 Q1031.67 1513.92 1034.73 1509.34 Q1037.81 1504.73 1043.62 1504.73 Z" fill="#000000" fill-rule="evenodd" fill-opacity="1" /><path clip-path="url(#clip410)" d="M 0 0 M1070.63 1508.44 Q1067.02 1508.44 1065.19 1512 Q1063.38 1515.55 1063.38 1522.67 Q1063.38 1529.78 1065.19 1533.35 Q1067.02 1536.89 1070.63 1536.89 Q1074.26 1536.89 1076.07 1533.35 Q1077.9 1529.78 1077.9 1522.67 Q1077.9 1515.55 1076.07 1512 Q1074.26 1508.44 1070.63 1508.44 M1070.63 1504.73 Q1076.44 1504.73 1079.5 1509.34 Q1082.57 1513.92 1082.57 1522.67 Q1082.57 1531.4 1079.5 1536.01 Q1076.44 1540.59 1070.63 1540.59 Q1064.82 1540.59 1061.74 1536.01 Q1058.69 1531.4 1058.69 1522.67 Q1058.69 1513.92 1061.74 1509.34 Q1064.82 1504.73 1070.63 1504.73 Z" fill="#000000" fill-rule="evenodd" fill-opacity="1" /><path clip-path="url(#clip410)" d="M 0 0 M1097.64 1508.44 Q1094.03 1508.44 1092.2 1512 Q1090.4 1515.55 1090.4 1522.67 Q1090.4 1529.78 1092.2 1533.35 Q1094.03 1536.89 1097.64 1536.89 Q1101.28 1536.89 1103.08 1533.35 Q1104.91 1529.78 1104.91 1522.67 Q1104.91 1515.55 1103.08 1512 Q1101.28 1508.44 1097.64 1508.44 M1097.64 1504.73 Q1103.45 1504.73 1106.51 1509.34 Q1109.59 1513.92 1109.59 1522.67 Q1109.59 1531.4 1106.51 1536.01 Q1103.45 1540.59 1097.64 1540.59 Q1091.83 1540.59 1088.75 1536.01 Q1085.7 1531.4 1085.7 1522.67 Q1085.7 1513.92 1088.75 1509.34 Q1091.83 1504.73 1097.64 1504.73 Z" fill="#000000" fill-rule="evenodd" fill-opacity="1" /><path clip-path="url(#clip410)" d="M 0 0 M1081.08 1509.43 L1069.27 1527.88 L1081.08 1527.88 L1081.08 1509.43 M1079.85 1505.36 L1085.73 1505.36 L1085.73 1527.88 L1090.66 1527.88 L1090.66 1531.77 L1085.73 1531.77 L1085.73 1539.92 L1081.08 1539.92 L1081.08 1531.77 L1065.48 1531.77 L1065.48 1527.26 L1079.85 1505.36 Z" fill="#000000" fill-rule="evenodd" fill-opacity="1" /><path clip-path="url(#clip410)" d="M 0 0 M1108.58 1509.43 L1096.77 1527.88 L1108.58 1527.88 L1108.58 1509.43 M1107.35 1505.36 L1113.23 1505.36 L1113.23 1527.88 L1118.16 1527.88 L1118.16 1531.77 L1113.23 1531.77 L1113.23 1539.92 L1108.58 1539.92 L1108.58 1531.77 L1092.98 1531.77 L1092.98 1527.26 L1107.35 1505.36 Z" fill="#000000" fill-rule="evenodd" fill-opacity="1" /><path clip-path="url(#clip410)" d="M 0 0 M1133.23 1508.44 Q1129.62 1508.44 1127.79 1512 Q1125.99 1515.55 1125.99 1522.67 Q1125.99 1529.78 1127.79 1533.35 Q1129.62 1536.89 1133.23 1536.89 Q1136.87 1536.89 1138.67 1533.35 Q1140.5 1529.78 1140.5 1522.67 Q1140.5 1515.55 1138.67 1512 Q1136.87 1508.44 1133.23 1508.44 M1133.23 1504.73 Q1139.04 1504.73 1142.1 1509.34 Q1145.18 1513.92 1145.18 1522.67 Q1145.18 1531.4 1142.1 1536.01 Q1139.04 1540.59 1133.23 1540.59 Q1127.42 1540.59 1124.34 1536.01 Q1121.29 1531.4 1121.29 1522.67 Q1121.29 1513.92 1124.34 1509.34 Q1127.42 1504.73 1133.23 1504.73 Z" fill="#000000" fill-rule="evenodd" fill-opacity="1" /><path clip-path="url(#clip410)" d="M 0 0 M1160.25 1508.44 Q1156.63 1508.44 1154.81 1512 Q1153 1515.55 1153 1522.67 Q1153 1529.78 1154.81 1533.35 Q1156.63 1536.89 1160.25 1536.89 Q1163.88 1536.89 1165.69 1533.35 Q1167.51 1529.78 1167.51 1522.67 Q1167.51 1515.55 1165.69 1512 Q1163.88 1508.44 1160.25 1508.44 M1160.25 1504.73 Q1166.06 1504.73 1169.11 1509.34 Q1172.19 1513.92 1172.19 1522.67 Q1172.19 1531.4 1169.11 1536.01 Q1166.06 1540.59 1160.25 1540.59 Q1154.44 1540.59 1151.36 1536.01 Q1148.3 1531.4 1148.3 1522.67 Q1148.3 1513.92 1151.36 1509.34 Q1154.44 1504.73 1160.25 1504.73 Z" fill="#000000" fill-rule="evenodd" fill-opacity="1" /><path clip-path="url(#clip410)" d="M 0 0 M1187.26 1508.44 Q1183.65 1508.44 1181.82 1512 Q1180.01 1515.55 1180.01 1522.67 Q1180.01 1529.78 1181.82 1533.35 Q1183.65 1536.89 1187.26 1536.89 Q1190.89 1536.89 1192.7 1533.35 Q1194.53 1529.78 1194.53 1522.67 Q1194.53 1515.55 1192.7 1512 Q1190.89 1508.44 1187.26 1508.44 M1187.26 1504.73 Q1193.07 1504.73 1196.13 1509.34 Q1199.2 1513.92 1199.2 1522.67 Q1199.2 1531.4 1196.13 1536.01 Q1193.07 1540.59 1187.26 1540.59 Q1181.45 1540.59 1178.37 1536.01 Q1175.32 1531.4 1175.32 1522.67 Q1175.32 1513.92 1178.37 1509.34 Q1181.45 1504.73 1187.26 1504.73 Z" fill="#000000" fill-rule="evenodd" fill-opacity="1" /><path clip-path="url(#clip410)" d="M 0 0 M1214.27 1508.44 Q1210.66 1508.44 1208.83 1512 Q1207.03 1515.55 1207.03 1522.67 Q1207.03 1529.78 1208.83 1533.35 Q1210.66 1536.89 1214.27 1536.89 Q1217.91 1536.89 1219.71 1533.35 Q1221.54 1529.78 1221.54 1522.67 Q1221.54 1515.55 1219.71 1512 Q1217.91 1508.44 1214.27 1508.44 M1214.27 1504.73 Q1220.08 1504.73 1223.14 1509.34 Q1226.22 1513.92 1226.22 1522.67 Q1226.22 1531.4 1223.14 1536.01 Q1220.08 1540.59 1214.27 1540.59 Q1208.46 1540.59 1205.38 1536.01 Q1202.33 1531.4 1202.33 1522.67 Q1202.33 1513.92 1205.38 1509.34 Q1208.46 1504.73 1214.27 1504.73 Z" fill="#000000" fill-rule="evenodd" fill-opacity="1" /><path clip-path="url(#clip410)" d="M 0 0 M1241.29 1508.44 Q1237.68 1508.44 1235.85 1512 Q1234.04 1515.55 1234.04 1522.67 Q1234.04 1529.78 1235.85 1533.35 Q1237.68 1536.89 1241.29 1536.89 Q1244.92 1536.89 1246.73 1533.35 Q1248.56 1529.78 1248.56 1522.67 Q1248.56 1515.55 1246.73 1512 Q1244.92 1508.44 1241.29 1508.44 M1241.29 1504.73 Q1247.1 1504.73 1250.15 1509.34 Q1253.23 1513.92 1253.23 1522.67 Q1253.23 1531.4 1250.15 1536.01 Q1247.1 1540.59 1241.29 1540.59 Q1235.48 1540.59 1232.4 1536.01 Q1229.34 1531.4 1229.34 1522.67 Q1229.34 1513.92 1232.4 1509.34 Q1235.48 1504.73 1241.29 1504.73 Z" fill="#000000" fill-rule="evenodd" fill-opacity="1" /><path clip-path="url(#clip410)" d="M 0 0 M1210.94 1505.36 L1229.3 1505.36 L1229.3 1509.3 L1215.22 1509.3 L1215.22 1517.77 Q1216.24 1517.42 1217.26 1517.26 Q1218.28 1517.07 1219.3 1517.07 Q1225.08 1517.07 1228.46 1520.24 Q1231.84 1523.42 1231.84 1528.83 Q1231.84 1534.41 1228.37 1537.51 Q1224.9 1540.59 1218.58 1540.59 Q1216.4 1540.59 1214.13 1540.22 Q1211.89 1539.85 1209.48 1539.11 L1209.48 1534.41 Q1211.56 1535.54 1213.79 1536.1 Q1216.01 1536.66 1218.49 1536.66 Q1222.49 1536.66 1224.83 1534.55 Q1227.17 1532.44 1227.17 1528.83 Q1227.17 1525.22 1224.83 1523.11 Q1222.49 1521.01 1218.49 1521.01 Q1216.61 1521.01 1214.74 1521.42 Q1212.88 1521.84 1210.94 1522.72 L1210.94 1505.36 Z" fill="#000000" fill-rule="evenodd" fill-opacity="1" /><path clip-path="url(#clip410)" d="M 0 0 M1237.72 1535.98 L1245.36 1535.98 L1245.36 1509.62 L1237.05 1511.29 L1237.05 1507.03 L1245.31 1505.36 L1249.99 1505.36 L1249.99 1535.98 L1257.63 1535.98 L1257.63 1539.92 L1237.72 1539.92 L1237.72 1535.98 Z" fill="#000000" fill-rule="evenodd" fill-opacity="1" /><path clip-path="url(#clip410)" d="M 0 0 M1272.7 1508.44 Q1269.09 1508.44 1267.26 1512 Q1265.45 1515.55 1265.45 1522.67 Q1265.45 1529.78 1267.26 1533.35 Q1269.09 1536.89 1272.7 1536.89 Q1276.33 1536.89 1278.14 1533.35 Q1279.97 1529.78 1279.97 1522.67 Q1279.97 1515.55 1278.14 1512 Q1276.33 1508.44 1272.7 1508.44 M1272.7 1504.73 Q1278.51 1504.73 1281.56 1509.34 Q1284.64 1513.92 1284.64 1522.67 Q1284.64 1531.4 1281.56 1536.01 Q1278.51 1540.59 1272.7 1540.59 Q1266.89 1540.59 1263.81 1536.01 Q1260.75 1531.4 1260.75 1522.67 Q1260.75 1513.92 1263.81 1509.34 Q1266.89 1504.73 1272.7 1504.73 Z" fill="#000000" fill-rule="evenodd" fill-opacity="1" /><path clip-path="url(#clip410)" d="M 0 0 M1299.71 1508.44 Q1296.1 1508.44 1294.27 1512 Q1292.47 1515.55 1292.47 1522.67 Q1292.47 1529.78 1294.27 1533.35 Q1296.1 1536.89 1299.71 1536.89 Q1303.35 1536.89 1305.15 1533.35 Q1306.98 1529.78 1306.98 1522.67 Q1306.98 1515.55 1305.15 1512 Q1303.35 1508.44 1299.71 1508.44 M1299.71 1504.73 Q1305.52 1504.73 1308.58 1509.34 Q1311.66 1513.92 1311.66 1522.67 Q1311.66 1531.4 1308.58 1536.01 Q1305.52 1540.59 1299.71 1540.59 Q1293.9 1540.59 1290.82 1536.01 Q1287.77 1531.4 1287.77 1522.67 Q1287.77 1513.92 1290.82 1509.34 Q1293.9 1504.73 1299.71 1504.73 Z" fill="#000000" fill-rule="evenodd" fill-opacity="1" /><path clip-path="url(#clip410)" d="M 0 0 M1326.73 1508.44 Q1323.11 1508.44 1321.29 1512 Q1319.48 1515.55 1319.48 1522.67 Q1319.48 1529.78 1321.29 1533.35 Q1323.11 1536.89 1326.73 1536.89 Q1330.36 1536.89 1332.17 1533.35 Q1333.99 1529.78 1333.99 1522.67 Q1333.99 1515.55 1332.17 1512 Q1330.36 1508.44 1326.73 1508.44 M1326.73 1504.73 Q1332.54 1504.73 1335.59 1509.34 Q1338.67 1513.92 1338.67 1522.67 Q1338.67 1531.4 1335.59 1536.01 Q1332.54 1540.59 1326.73 1540.59 Q1320.92 1540.59 1317.84 1536.01 Q1314.78 1531.4 1314.78 1522.67 Q1314.78 1513.92 1317.84 1509.34 Q1320.92 1504.73 1326.73 1504.73 Z" fill="#000000" fill-rule="evenodd" fill-opacity="1" /><path clip-path="url(#clip410)" d="M 0 0 M1353.74 1508.44 Q1350.13 1508.44 1348.3 1512 Q1346.49 1515.55 1346.49 1522.67 Q1346.49 1529.78 1348.3 1533.35 Q1350.13 1536.89 1353.74 1536.89 Q1357.37 1536.89 1359.18 1533.35 Q1361.01 1529.78 1361.01 1522.67 Q1361.01 1515.55 1359.18 1512 Q1357.37 1508.44 1353.74 1508.44 M1353.74 1504.73 Q1359.55 1504.73 1362.6 1509.34 Q1365.68 1513.92 1365.68 1522.67 Q1365.68 1531.4 1362.6 1536.01 Q1359.55 1540.59 1353.74 1540.59 Q1347.93 1540.59 1344.85 1536.01 Q1341.79 1531.4 1341.79 1522.67 Q1341.79 1513.92 1344.85 1509.34 Q1347.93 1504.73 1353.74 1504.73 Z" fill="#000000" fill-rule="evenodd" fill-opacity="1" /><path clip-path="url(#clip410)" d="M 0 0 M1380.75 1508.44 Q1377.14 1508.44 1375.31 1512 Q1373.51 1515.55 1373.51 1522.67 Q1373.51 1529.78 1375.31 1533.35 Q1377.14 1536.89 1380.75 1536.89 Q1384.39 1536.89 1386.19 1533.35 Q1388.02 1529.78 1388.02 1522.67 Q1388.02 1515.55 1386.19 1512 Q1384.39 1508.44 1380.75 1508.44 M1380.75 1504.73 Q1386.56 1504.73 1389.62 1509.34 Q1392.7 1513.92 1392.7 1522.67 Q1392.7 1531.4 1389.62 1536.01 Q1386.56 1540.59 1380.75 1540.59 Q1374.94 1540.59 1371.86 1536.01 Q1368.81 1531.4 1368.81 1522.67 Q1368.81 1513.92 1371.86 1509.34 Q1374.94 1504.73 1380.75 1504.73 Z" fill="#000000" fill-rule="evenodd" fill-opacity="1" /><path clip-path="url(#clip410)" d="M 0 0 M1352.11 1505.36 L1370.46 1505.36 L1370.46 1509.3 L1356.39 1509.3 L1356.39 1517.77 Q1357.41 1517.42 1358.43 1517.26 Q1359.44 1517.07 1360.46 1517.07 Q1366.25 1517.07 1369.63 1520.24 Q1373.01 1523.42 1373.01 1528.83 Q1373.01 1534.41 1369.54 1537.51 Q1366.06 1540.59 1359.74 1540.59 Q1357.57 1540.59 1355.3 1540.22 Q1353.05 1539.85 1350.65 1539.11 L1350.65 1534.41 Q1352.73 1535.54 1354.95 1536.1 Q1357.18 1536.66 1359.65 1536.66 Q1363.66 1536.66 1365.99 1534.55 Q1368.33 1532.44 1368.33 1528.83 Q1368.33 1525.22 1365.99 1523.11 Q1363.66 1521.01 1359.65 1521.01 Q1357.78 1521.01 1355.9 1521.42 Q1354.05 1521.84 1352.11 1522.72 L1352.11 1505.36 Z" fill="#000000" fill-rule="evenodd" fill-opacity="1" /><path clip-path="url(#clip410)" d="M 0 0 M1388.08 1523.51 Q1384.74 1523.51 1382.82 1525.29 Q1380.93 1527.07 1380.93 1530.2 Q1380.93 1533.32 1382.82 1535.11 Q1384.74 1536.89 1388.08 1536.89 Q1391.41 1536.89 1393.33 1535.11 Q1395.25 1533.3 1395.25 1530.2 Q1395.25 1527.07 1393.33 1525.29 Q1391.43 1523.51 1388.08 1523.51 M1383.4 1521.52 Q1380.39 1520.78 1378.7 1518.72 Q1377.04 1516.66 1377.04 1513.69 Q1377.04 1509.55 1379.98 1507.14 Q1382.94 1504.73 1388.08 1504.73 Q1393.24 1504.73 1396.18 1507.14 Q1399.12 1509.55 1399.12 1513.69 Q1399.12 1516.66 1397.43 1518.72 Q1395.76 1520.78 1392.78 1521.52 Q1396.16 1522.3 1398.03 1524.6 Q1399.93 1526.89 1399.93 1530.2 Q1399.93 1535.22 1396.85 1537.91 Q1393.8 1540.59 1388.08 1540.59 Q1382.36 1540.59 1379.28 1537.91 Q1376.23 1535.22 1376.23 1530.2 Q1376.23 1526.89 1378.12 1524.6 Q1380.02 1522.3 1383.4 1521.52 M1381.69 1514.13 Q1381.69 1516.82 1383.36 1518.32 Q1385.05 1519.83 1388.08 1519.83 Q1391.09 1519.83 1392.78 1518.32 Q1394.49 1516.82 1394.49 1514.13 Q1394.49 1511.45 1392.78 1509.94 Q1391.09 1508.44 1388.08 1508.44 Q1385.05 1508.44 1383.36 1509.94 Q1381.69 1511.45 1381.69 1514.13 Z" fill="#000000" fill-rule="evenodd" fill-opacity="1" /><path clip-path="url(#clip410)" d="M 0 0 M1415 1508.44 Q1411.39 1508.44 1409.56 1512 Q1407.75 1515.55 1407.75 1522.67 Q1407.75 1529.78 1409.56 1533.35 Q1411.39 1536.89 1415 1536.89 Q1418.63 1536.89 1420.44 1533.35 Q1422.27 1529.78 1422.27 1522.67 Q1422.27 1515.55 1420.44 1512 Q1418.63 1508.44 1415 1508.44 M1415 1504.73 Q1420.81 1504.73 1423.86 1509.34 Q1426.94 1513.92 1426.94 1522.67 Q1426.94 1531.4 1423.86 1536.01 Q1420.81 1540.59 1415 1540.59 Q1409.19 1540.59 1406.11 1536.01 Q1403.05 1531.4 1403.05 1522.67 Q1403.05 1513.92 1406.11 1509.34 Q1409.19 1504.73 1415 1504.73 Z" fill="#000000" fill-rule="evenodd" fill-opacity="1" /><path clip-path="url(#clip410)" d="M 0 0 M1442.01 1508.44 Q1438.4 1508.44 1436.57 1512 Q1434.77 1515.55 1434.77 1522.67 Q1434.77 1529.78 1436.57 1533.35 Q1438.4 1536.89 1442.01 1536.89 Q1445.65 1536.89 1447.45 1533.35 Q1449.28 1529.78 1449.28 1522.67 Q1449.28 1515.55 1447.45 1512 Q1445.65 1508.44 1442.01 1508.44 M1442.01 1504.73 Q1447.82 1504.73 1450.88 1509.34 Q1453.96 1513.92 1453.96 1522.67 Q1453.96 1531.4 1450.88 1536.01 Q1447.82 1540.59 1442.01 1540.59 Q1436.2 1540.59 1433.12 1536.01 Q1430.07 1531.4 1430.07 1522.67 Q1430.07 1513.92 1433.12 1509.34 Q1436.2 1504.73 1442.01 1504.73 Z" fill="#000000" fill-rule="evenodd" fill-opacity="1" /><path clip-path="url(#clip410)" d="M 0 0 M1469.03 1508.44 Q1465.42 1508.44 1463.59 1512 Q1461.78 1515.55 1461.78 1522.67 Q1461.78 1529.78 1463.59 1533.35 Q1465.42 1536.89 1469.03 1536.89 Q1472.66 1536.89 1474.47 1533.35 Q1476.3 1529.78 1476.3 1522.67 Q1476.3 1515.55 1474.47 1512 Q1472.66 1508.44 1469.03 1508.44 M1469.03 1504.73 Q1474.84 1504.73 1477.89 1509.34 Q1480.97 1513.92 1480.97 1522.67 Q1480.97 1531.4 1477.89 1536.01 Q1474.84 1540.59 1469.03 1540.59 Q1463.22 1540.59 1460.14 1536.01 Q1457.08 1531.4 1457.08 1522.67 Q1457.08 1513.92 1460.14 1509.34 Q1463.22 1504.73 1469.03 1504.73 Z" fill="#000000" fill-rule="evenodd" fill-opacity="1" /><path clip-path="url(#clip410)" d="M 0 0 M1496.04 1508.44 Q1492.43 1508.44 1490.6 1512 Q1488.79 1515.55 1488.79 1522.67 Q1488.79 1529.78 1490.6 1533.35 Q1492.43 1536.89 1496.04 1536.89 Q1499.67 1536.89 1501.48 1533.35 Q1503.31 1529.78 1503.31 1522.67 Q1503.31 1515.55 1501.48 1512 Q1499.67 1508.44 1496.04 1508.44 M1496.04 1504.73 Q1501.85 1504.73 1504.91 1509.34 Q1507.98 1513.92 1507.98 1522.67 Q1507.98 1531.4 1504.91 1536.01 Q1501.85 1540.59 1496.04 1540.59 Q1490.23 1540.59 1487.15 1536.01 Q1484.1 1531.4 1484.1 1522.67 Q1484.1 1513.92 1487.15 1509.34 Q1490.23 1504.73 1496.04 1504.73 Z" fill="#000000" fill-rule="evenodd" fill-opacity="1" /><path clip-path="url(#clip410)" d="M 0 0 M1523.05 1508.44 Q1519.44 1508.44 1517.61 1512 Q1515.81 1515.55 1515.81 1522.67 Q1515.81 1529.78 1517.61 1533.35 Q1519.44 1536.89 1523.05 1536.89 Q1526.69 1536.89 1528.49 1533.35 Q1530.32 1529.78 1530.32 1522.67 Q1530.32 1515.55 1528.49 1512 Q1526.69 1508.44 1523.05 1508.44 M1523.05 1504.73 Q1528.86 1504.73 1531.92 1509.34 Q1535 1513.92 1535 1522.67 Q1535 1531.4 1531.92 1536.01 Q1528.86 1540.59 1523.05 1540.59 Q1517.24 1540.59 1514.17 1536.01 Q1511.11 1531.4 1511.11 1522.67 Q1511.11 1513.92 1514.17 1509.34 Q1517.24 1504.73 1523.05 1504.73 Z" fill="#000000" fill-rule="evenodd" fill-opacity="1" /><path clip-path="url(#clip410)" d="M 0 0 M1504.42 1520.78 Q1501.27 1520.78 1499.42 1522.93 Q1497.59 1525.08 1497.59 1528.83 Q1497.59 1532.56 1499.42 1534.73 Q1501.27 1536.89 1504.42 1536.89 Q1507.57 1536.89 1509.4 1534.73 Q1511.25 1532.56 1511.25 1528.83 Q1511.25 1525.08 1509.4 1522.93 Q1507.57 1520.78 1504.42 1520.78 M1513.7 1506.12 L1513.7 1510.38 Q1511.94 1509.55 1510.14 1509.11 Q1508.35 1508.67 1506.59 1508.67 Q1501.96 1508.67 1499.51 1511.8 Q1497.08 1514.92 1496.73 1521.24 Q1498.1 1519.23 1500.16 1518.16 Q1502.22 1517.07 1504.7 1517.07 Q1509.9 1517.07 1512.91 1520.24 Q1515.95 1523.39 1515.95 1528.83 Q1515.95 1534.16 1512.8 1537.37 Q1509.65 1540.59 1504.42 1540.59 Q1498.42 1540.59 1495.25 1536.01 Q1492.08 1531.4 1492.08 1522.67 Q1492.08 1514.48 1495.97 1509.62 Q1499.86 1504.73 1506.41 1504.73 Q1508.17 1504.73 1509.95 1505.08 Q1511.76 1505.43 1513.7 1506.12 Z" fill="#000000" fill-rule="evenodd" fill-opacity="1" /><path clip-path="url(#clip410)" d="M 0 0 M1521.06 1505.36 L1539.42 1505.36 L1539.42 1509.3 L1525.34 1509.3 L1525.34 1517.77 Q1526.36 1517.42 1527.38 1517.26 Q1528.4 1517.07 1529.42 1517.07 Q1535.21 1517.07 1538.59 1520.24 Q1541.96 1523.42 1541.96 1528.83 Q1541.96 1534.41 1538.49 1537.51 Q1535.02 1540.59 1528.7 1540.59 Q1526.52 1540.59 1524.26 1540.22 Q1522.01 1539.85 1519.6 1539.11 L1519.6 1534.41 Q1521.69 1535.54 1523.91 1536.1 Q1526.13 1536.66 1528.61 1536.66 Q1532.61 1536.66 1534.95 1534.55 Q1537.29 1532.44 1537.29 1528.83 Q1537.29 1525.22 1534.95 1523.11 Q1532.61 1521.01 1528.61 1521.01 Q1526.73 1521.01 1524.86 1521.42 Q1523.01 1521.84 1521.06 1522.72 L1521.06 1505.36 Z" fill="#000000" fill-rule="evenodd" fill-opacity="1" /><path clip-path="url(#clip410)" d="M 0 0 M1557.03 1508.44 Q1553.42 1508.44 1551.59 1512 Q1549.79 1515.55 1549.79 1522.67 Q1549.79 1529.78 1551.59 1533.35 Q1553.42 1536.89 1557.03 1536.89 Q1560.67 1536.89 1562.47 1533.35 Q1564.3 1529.78 1564.3 1522.67 Q1564.3 1515.55 1562.47 1512 Q1560.67 1508.44 1557.03 1508.44 M1557.03 1504.73 Q1562.84 1504.73 1565.9 1509.34 Q1568.98 1513.92 1568.98 1522.67 Q1568.98 1531.4 1565.9 1536.01 Q1562.84 1540.59 1557.03 1540.59 Q1551.22 1540.59 1548.15 1536.01 Q1545.09 1531.4 1545.09 1522.67 Q1545.09 1513.92 1548.15 1509.34 Q1551.22 1504.73 1557.03 1504.73 Z" fill="#000000" fill-rule="evenodd" fill-opacity="1" /><path clip-path="url(#clip410)" d="M 0 0 M1584.05 1508.44 Q1580.44 1508.44 1578.61 1512 Q1576.8 1515.55 1576.8 1522.67 Q1576.8 1529.78 1578.61 1533.35 Q1580.44 1536.89 1584.05 1536.89 Q1587.68 1536.89 1589.49 1533.35 Q1591.32 1529.78 1591.32 1522.67 Q1591.32 1515.55 1589.49 1512 Q1587.68 1508.44 1584.05 1508.44 M1584.05 1504.73 Q1589.86 1504.73 1592.91 1509.34 Q1595.99 1513.92 1595.99 1522.67 Q1595.99 1531.4 1592.91 1536.01 Q1589.86 1540.59 1584.05 1540.59 Q1578.24 1540.59 1575.16 1536.01 Q1572.1 1531.4 1572.1 1522.67 Q1572.1 1513.92 1575.16 1509.34 Q1578.24 1504.73 1584.05 1504.73 Z" fill="#000000" fill-rule="evenodd" fill-opacity="1" /><path clip-path="url(#clip410)" d="M 0 0 M1611.06 1508.44 Q1607.45 1508.44 1605.62 1512 Q1603.82 1515.55 1603.82 1522.67 Q1603.82 1529.78 1605.62 1533.35 Q1607.45 1536.89 1611.06 1536.89 Q1614.7 1536.89 1616.5 1533.35 Q1618.33 1529.78 1618.33 1522.67 Q1618.33 1515.55 1616.5 1512 Q1614.7 1508.44 1611.06 1508.44 M1611.06 1504.73 Q1616.87 1504.73 1619.93 1509.34 Q1623.01 1513.92 1623.01 1522.67 Q1623.01 1531.4 1619.93 1536.01 Q1616.87 1540.59 1611.06 1540.59 Q1605.25 1540.59 1602.17 1536.01 Q1599.12 1531.4 1599.12 1522.67 Q1599.12 1513.92 1602.17 1509.34 Q1605.25 1504.73 1611.06 1504.73 Z" fill="#000000" fill-rule="evenodd" fill-opacity="1" /><path clip-path="url(#clip410)" d="M 0 0 M1638.08 1508.44 Q1634.46 1508.44 1632.64 1512 Q1630.83 1515.55 1630.83 1522.67 Q1630.83 1529.78 1632.64 1533.35 Q1634.46 1536.89 1638.08 1536.89 Q1641.71 1536.89 1643.52 1533.35 Q1645.34 1529.78 1645.34 1522.67 Q1645.34 1515.55 1643.52 1512 Q1641.71 1508.44 1638.08 1508.44 M1638.08 1504.73 Q1643.89 1504.73 1646.94 1509.34 Q1650.02 1513.92 1650.02 1522.67 Q1650.02 1531.4 1646.94 1536.01 Q1643.89 1540.59 1638.08 1540.59 Q1632.27 1540.59 1629.19 1536.01 Q1626.13 1531.4 1626.13 1522.67 Q1626.13 1513.92 1629.19 1509.34 Q1632.27 1504.73 1638.08 1504.73 Z" fill="#000000" fill-rule="evenodd" fill-opacity="1" /><path clip-path="url(#clip410)" d="M 0 0 M1665.09 1508.44 Q1661.48 1508.44 1659.65 1512 Q1657.84 1515.55 1657.84 1522.67 Q1657.84 1529.78 1659.65 1533.35 Q1661.48 1536.89 1665.09 1536.89 Q1668.72 1536.89 1670.53 1533.35 Q1672.36 1529.78 1672.36 1522.67 Q1672.36 1515.55 1670.53 1512 Q1668.72 1508.44 1665.09 1508.44 M1665.09 1504.73 Q1670.9 1504.73 1673.95 1509.34 Q1677.03 1513.92 1677.03 1522.67 Q1677.03 1531.4 1673.95 1536.01 Q1670.9 1540.59 1665.09 1540.59 Q1659.28 1540.59 1656.2 1536.01 Q1653.14 1531.4 1653.14 1522.67 Q1653.14 1513.92 1656.2 1509.34 Q1659.28 1504.73 1665.09 1504.73 Z" fill="#000000" fill-rule="evenodd" fill-opacity="1" /><path clip-path="url(#clip410)" d="M 0 0 M1634.94 1505.36 L1657.16 1505.36 L1657.16 1507.35 L1644.61 1539.92 L1639.73 1539.92 L1651.53 1509.3 L1634.94 1509.3 L1634.94 1505.36 Z" fill="#000000" fill-rule="evenodd" fill-opacity="1" /><path clip-path="url(#clip410)" d="M 0 0 M1666.26 1535.98 L1682.58 1535.98 L1682.58 1539.92 L1660.63 1539.92 L1660.63 1535.98 Q1663.29 1533.23 1667.88 1528.6 Q1672.48 1523.95 1673.66 1522.61 Q1675.91 1520.08 1676.79 1518.35 Q1677.69 1516.59 1677.69 1514.9 Q1677.69 1512.14 1675.75 1510.41 Q1673.83 1508.67 1670.72 1508.67 Q1668.53 1508.67 1666.07 1509.43 Q1663.64 1510.2 1660.86 1511.75 L1660.86 1507.03 Q1663.69 1505.89 1666.14 1505.31 Q1668.59 1504.73 1670.63 1504.73 Q1676 1504.73 1679.2 1507.42 Q1682.39 1510.11 1682.39 1514.6 Q1682.39 1516.73 1681.58 1518.65 Q1680.79 1520.54 1678.69 1523.14 Q1678.11 1523.81 1675.01 1527.03 Q1671.9 1530.22 1666.26 1535.98 Z" fill="#000000" fill-rule="evenodd" fill-opacity="1" /><path clip-path="url(#clip410)" d="M 0 0 M1697.65 1508.44 Q1694.03 1508.44 1692.21 1512 Q1690.4 1515.55 1690.4 1522.67 Q1690.4 1529.78 1692.21 1533.35 Q1694.03 1536.89 1697.65 1536.89 Q1701.28 1536.89 1703.09 1533.35 Q1704.91 1529.78 1704.91 1522.67 Q1704.91 1515.55 1703.09 1512 Q1701.28 1508.44 1697.65 1508.44 M1697.65 1504.73 Q1703.46 1504.73 1706.51 1509.34 Q1709.59 1513.92 1709.59 1522.67 Q1709.59 1531.4 1706.51 1536.01 Q1703.46 1540.59 1697.65 1540.59 Q1691.84 1540.59 1688.76 1536.01 Q1685.7 1531.4 1685.7 1522.67 Q1685.7 1513.92 1688.76 1509.34 Q1691.84 1504.73 1697.65 1504.73 Z" fill="#000000" fill-rule="evenodd" fill-opacity="1" /><path clip-path="url(#clip410)" d="M 0 0 M1724.66 1508.44 Q1721.05 1508.44 1719.22 1512 Q1717.41 1515.55 1717.41 1522.67 Q1717.41 1529.78 1719.22 1533.35 Q1721.05 1536.89 1724.66 1536.89 Q1728.29 1536.89 1730.1 1533.35 Q1731.93 1529.78 1731.93 1522.67 Q1731.93 1515.55 1730.1 1512 Q1728.29 1508.44 1724.66 1508.44 M1724.66 1504.73 Q1730.47 1504.73 1733.52 1509.34 Q1736.6 1513.92 1736.6 1522.67 Q1736.6 1531.4 1733.52 1536.01 Q1730.47 1540.59 1724.66 1540.59 Q1718.85 1540.59 1715.77 1536.01 Q1712.71 1531.4 1712.71 1522.67 Q1712.71 1513.92 1715.77 1509.34 Q1718.85 1504.73 1724.66 1504.73 Z" fill="#000000" fill-rule="evenodd" fill-opacity="1" /><path clip-path="url(#clip410)" d="M 0 0 M1751.67 1508.44 Q1748.06 1508.44 1746.23 1512 Q1744.43 1515.55 1744.43 1522.67 Q1744.43 1529.78 1746.23 1533.35 Q1748.06 1536.89 1751.67 1536.89 Q1755.31 1536.89 1757.11 1533.35 Q1758.94 1529.78 1758.94 1522.67 Q1758.94 1515.55 1757.11 1512 Q1755.31 1508.44 1751.67 1508.44 M1751.67 1504.73 Q1757.48 1504.73 1760.54 1509.34 Q1763.62 1513.92 1763.62 1522.67 Q1763.62 1531.4 1760.54 1536.01 Q1757.48 1540.59 1751.67 1540.59 Q1745.86 1540.59 1742.78 1536.01 Q1739.73 1531.4 1739.73 1522.67 Q1739.73 1513.92 1742.78 1509.34 Q1745.86 1504.73 1751.67 1504.73 Z" fill="#000000" fill-rule="evenodd" fill-opacity="1" /><path clip-path="url(#clip410)" d="M 0 0 M1778.69 1508.44 Q1775.08 1508.44 1773.25 1512 Q1771.44 1515.55 1771.44 1522.67 Q1771.44 1529.78 1773.25 1533.35 Q1775.08 1536.89 1778.69 1536.89 Q1782.32 1536.89 1784.13 1533.35 Q1785.96 1529.78 1785.96 1522.67 Q1785.96 1515.55 1784.13 1512 Q1782.32 1508.44 1778.69 1508.44 M1778.69 1504.73 Q1784.5 1504.73 1787.55 1509.34 Q1790.63 1513.92 1790.63 1522.67 Q1790.63 1531.4 1787.55 1536.01 Q1784.5 1540.59 1778.69 1540.59 Q1772.88 1540.59 1769.8 1536.01 Q1766.74 1531.4 1766.74 1522.67 Q1766.74 1513.92 1769.8 1509.34 Q1772.88 1504.73 1778.69 1504.73 Z" fill="#000000" fill-rule="evenodd" fill-opacity="1" /><path clip-path="url(#clip410)" d="M 0 0 M1805.7 1508.44 Q1802.09 1508.44 1800.26 1512 Q1798.46 1515.55 1798.46 1522.67 Q1798.46 1529.78 1800.26 1533.35 Q1802.09 1536.89 1805.7 1536.89 Q1809.33 1536.89 1811.14 1533.35 Q1812.97 1529.78 1812.97 1522.67 Q1812.97 1515.55 1811.14 1512 Q1809.33 1508.44 1805.7 1508.44 M1805.7 1504.73 Q1811.51 1504.73 1814.57 1509.34 Q1817.64 1513.92 1817.64 1522.67 Q1817.64 1531.4 1814.57 1536.01 Q1811.51 1540.59 1805.7 1540.59 Q1799.89 1540.59 1796.81 1536.01 Q1793.76 1531.4 1793.76 1522.67 Q1793.76 1513.92 1796.81 1509.34 Q1799.89 1504.73 1805.7 1504.73 Z" fill="#000000" fill-rule="evenodd" fill-opacity="1" /><path clip-path="url(#clip410)" d="M 0 0 M1775.97 1505.36 L1798.19 1505.36 L1798.19 1507.35 L1785.64 1539.92 L1780.76 1539.92 L1792.56 1509.3 L1775.97 1509.3 L1775.97 1505.36 Z" fill="#000000" fill-rule="evenodd" fill-opacity="1" /><path clip-path="url(#clip410)" d="M 0 0 M1803.4 1539.2 L1803.4 1534.94 Q1805.16 1535.78 1806.96 1536.22 Q1808.77 1536.66 1810.5 1536.66 Q1815.13 1536.66 1817.56 1533.55 Q1820.02 1530.43 1820.36 1524.09 Q1819.02 1526.08 1816.96 1527.14 Q1814.9 1528.21 1812.4 1528.21 Q1807.22 1528.21 1804.18 1525.08 Q1801.17 1521.93 1801.17 1516.49 Q1801.17 1511.17 1804.32 1507.95 Q1807.47 1504.73 1812.7 1504.73 Q1818.7 1504.73 1821.84 1509.34 Q1825.02 1513.92 1825.02 1522.67 Q1825.02 1530.85 1821.13 1535.73 Q1817.26 1540.59 1810.71 1540.59 Q1808.95 1540.59 1807.15 1540.24 Q1805.34 1539.9 1803.4 1539.2 M1812.7 1524.55 Q1815.85 1524.55 1817.68 1522.4 Q1819.53 1520.24 1819.53 1516.49 Q1819.53 1512.77 1817.68 1510.61 Q1815.85 1508.44 1812.7 1508.44 Q1809.55 1508.44 1807.7 1510.61 Q1805.87 1512.77 1805.87 1516.49 Q1805.87 1520.24 1807.7 1522.4 Q1809.55 1524.55 1812.7 1524.55 Z" fill="#000000" fill-rule="evenodd" fill-opacity="1" /><path clip-path="url(#clip410)" d="M 0 0 M1840.09 1508.44 Q1836.47 1508.44 1834.65 1512 Q1832.84 1515.55 1832.84 1522.67 Q1832.84 1529.78 1834.65 1533.35 Q1836.47 1536.89 1840.09 1536.89 Q1843.72 1536.89 1845.53 1533.35 Q1847.35 1529.78 1847.35 1522.67 Q1847.35 1515.55 1845.53 1512 Q1843.72 1508.44 1840.09 1508.44 M1840.09 1504.73 Q1845.9 1504.73 1848.95 1509.34 Q1852.03 1513.92 1852.03 1522.67 Q1852.03 1531.4 1848.95 1536.01 Q1845.9 1540.59 1840.09 1540.59 Q1834.28 1540.59 1831.2 1536.01 Q1828.14 1531.4 1828.14 1522.67 Q1828.14 1513.92 1831.2 1509.34 Q1834.28 1504.73 1840.09 1504.73 Z" fill="#000000" fill-rule="evenodd" fill-opacity="1" /><path clip-path="url(#clip410)" d="M 0 0 M1867.1 1508.44 Q1863.49 1508.44 1861.66 1512 Q1859.85 1515.55 1859.85 1522.67 Q1859.85 1529.78 1861.66 1533.35 Q1863.49 1536.89 1867.1 1536.89 Q1870.73 1536.89 1872.54 1533.35 Q1874.37 1529.78 1874.37 1522.67 Q1874.37 1515.55 1872.54 1512 Q1870.73 1508.44 1867.1 1508.44 M1867.1 1504.73 Q1872.91 1504.73 1875.97 1509.34 Q1879.04 1513.92 1879.04 1522.67 Q1879.04 1531.4 1875.97 1536.01 Q1872.91 1540.59 1867.1 1540.59 Q1861.29 1540.59 1858.21 1536.01 Q1855.15 1531.4 1855.15 1522.67 Q1855.15 1513.92 1858.21 1509.34 Q1861.29 1504.73 1867.1 1504.73 Z" fill="#000000" fill-rule="evenodd" fill-opacity="1" /><path clip-path="url(#clip410)" d="M 0 0 M1894.11 1508.44 Q1890.5 1508.44 1888.67 1512 Q1886.87 1515.55 1886.87 1522.67 Q1886.87 1529.78 1888.67 1533.35 Q1890.5 1536.89 1894.11 1536.89 Q1897.75 1536.89 1899.55 1533.35 Q1901.38 1529.78 1901.38 1522.67 Q1901.38 1515.55 1899.55 1512 Q1897.75 1508.44 1894.11 1508.44 M1894.11 1504.73 Q1899.92 1504.73 1902.98 1509.34 Q1906.06 1513.92 1906.06 1522.67 Q1906.06 1531.4 1902.98 1536.01 Q1899.92 1540.59 1894.11 1540.59 Q1888.3 1540.59 1885.22 1536.01 Q1882.17 1531.4 1882.17 1522.67 Q1882.17 1513.92 1885.22 1509.34 Q1888.3 1504.73 1894.11 1504.73 Z" fill="#000000" fill-rule="evenodd" fill-opacity="1" /><path clip-path="url(#clip410)" d="M 0 0 M1921.13 1508.44 Q1917.52 1508.44 1915.69 1512 Q1913.88 1515.55 1913.88 1522.67 Q1913.88 1529.78 1915.69 1533.35 Q1917.52 1536.89 1921.13 1536.89 Q1924.76 1536.89 1926.57 1533.35 Q1928.4 1529.78 1928.4 1522.67 Q1928.4 1515.55 1926.57 1512 Q1924.76 1508.44 1921.13 1508.44 M1921.13 1504.73 Q1926.94 1504.73 1929.99 1509.34 Q1933.07 1513.92 1933.07 1522.67 Q1933.07 1531.4 1929.99 1536.01 Q1926.94 1540.59 1921.13 1540.59 Q1915.32 1540.59 1912.24 1536.01 Q1909.18 1531.4 1909.18 1522.67 Q1909.18 1513.92 1912.24 1509.34 Q1915.32 1504.73 1921.13 1504.73 Z" fill="#000000" fill-rule="evenodd" fill-opacity="1" /><path clip-path="url(#clip410)" d="M 0 0 M1948.14 1508.44 Q1944.53 1508.44 1942.7 1512 Q1940.9 1515.55 1940.9 1522.67 Q1940.9 1529.78 1942.7 1533.35 Q1944.53 1536.89 1948.14 1536.89 Q1951.77 1536.89 1953.58 1533.35 Q1955.41 1529.78 1955.41 1522.67 Q1955.41 1515.55 1953.58 1512 Q1951.77 1508.44 1948.14 1508.44 M1948.14 1504.73 Q1953.95 1504.73 1957.01 1509.34 Q1960.08 1513.92 1960.08 1522.67 Q1960.08 1531.4 1957.01 1536.01 Q1953.95 1540.59 1948.14 1540.59 Q1942.33 1540.59 1939.25 1536.01 Q1936.2 1531.4 1936.2 1522.67 Q1936.2 1513.92 1939.25 1509.34 Q1942.33 1504.73 1948.14 1504.73 Z" fill="#000000" fill-rule="evenodd" fill-opacity="1" /><path clip-path="url(#clip410)" d="M 0 0 M1928.64 1523.51 Q1925.3 1523.51 1923.38 1525.29 Q1921.48 1527.07 1921.48 1530.2 Q1921.48 1533.32 1923.38 1535.11 Q1925.3 1536.89 1928.64 1536.89 Q1931.97 1536.89 1933.89 1535.11 Q1935.81 1533.3 1935.81 1530.2 Q1935.81 1527.07 1933.89 1525.29 Q1931.99 1523.51 1928.64 1523.51 M1923.96 1521.52 Q1920.95 1520.78 1919.26 1518.72 Q1917.6 1516.66 1917.6 1513.69 Q1917.6 1509.55 1920.54 1507.14 Q1923.5 1504.73 1928.64 1504.73 Q1933.8 1504.73 1936.74 1507.14 Q1939.68 1509.55 1939.68 1513.69 Q1939.68 1516.66 1937.99 1518.72 Q1936.32 1520.78 1933.34 1521.52 Q1936.72 1522.3 1938.59 1524.6 Q1940.49 1526.89 1940.49 1530.2 Q1940.49 1535.22 1937.41 1537.91 Q1934.35 1540.59 1928.64 1540.59 Q1922.92 1540.59 1919.84 1537.91 Q1916.79 1535.22 1916.79 1530.2 Q1916.79 1526.89 1918.68 1524.6 Q1920.58 1522.3 1923.96 1521.52 M1922.25 1514.13 Q1922.25 1516.82 1923.91 1518.32 Q1925.6 1519.83 1928.64 1519.83 Q1931.65 1519.83 1933.34 1518.32 Q1935.05 1516.82 1935.05 1514.13 Q1935.05 1511.45 1933.34 1509.94 Q1931.65 1508.44 1928.64 1508.44 Q1925.6 1508.44 1923.91 1509.94 Q1922.25 1511.45 1922.25 1514.13 Z" fill="#000000" fill-rule="evenodd" fill-opacity="1" /><path clip-path="url(#clip410)" d="M 0 0 M1956.14 1520.78 Q1952.99 1520.78 1951.14 1522.93 Q1949.31 1525.08 1949.31 1528.83 Q1949.31 1532.56 1951.14 1534.73 Q1952.99 1536.89 1956.14 1536.89 Q1959.29 1536.89 1961.11 1534.73 Q1962.97 1532.56 1962.97 1528.83 Q1962.97 1525.08 1961.11 1522.93 Q1959.29 1520.78 1956.14 1520.78 M1965.42 1506.12 L1965.42 1510.38 Q1963.66 1509.55 1961.85 1509.11 Q1960.07 1508.67 1958.31 1508.67 Q1953.68 1508.67 1951.23 1511.8 Q1948.8 1514.92 1948.45 1521.24 Q1949.82 1519.23 1951.88 1518.16 Q1953.94 1517.07 1956.41 1517.07 Q1961.62 1517.07 1964.63 1520.24 Q1967.66 1523.39 1967.66 1528.83 Q1967.66 1534.16 1964.52 1537.37 Q1961.37 1540.59 1956.14 1540.59 Q1950.14 1540.59 1946.97 1536.01 Q1943.8 1531.4 1943.8 1522.67 Q1943.8 1514.48 1947.69 1509.62 Q1951.58 1504.73 1958.13 1504.73 Q1959.89 1504.73 1961.67 1505.08 Q1963.47 1505.43 1965.42 1506.12 Z" fill="#000000" fill-rule="evenodd" fill-opacity="1" /><path clip-path="url(#clip410)" d="M 0 0 M1982.73 1508.44 Q1979.12 1508.44 1977.29 1512 Q1975.49 1515.55 1975.49 1522.67 Q1975.49 1529.78 1977.29 1533.35 Q1979.12 1536.89 1982.73 1536.89 Q1986.37 1536.89 1988.17 1533.35 Q1990 1529.78 1990 1522.67 Q1990 1515.55 1988.17 1512 Q1986.37 1508.44 1982.73 1508.44 M1982.73 1504.73 Q1988.54 1504.73 1991.6 1509.34 Q1994.68 1513.92 1994.68 1522.67 Q1994.68 1531.4 1991.6 1536.01 Q1988.54 1540.59 1982.73 1540.59 Q1976.92 1540.59 1973.85 1536.01 Q1970.79 1531.4 1970.79 1522.67 Q1970.79 1513.92 1973.85 1509.34 Q1976.92 1504.73 1982.73 1504.73 Z" fill="#000000" fill-rule="evenodd" fill-opacity="1" /><path clip-path="url(#clip410)" d="M 0 0 M2009.75 1508.44 Q2006.14 1508.44 2004.31 1512 Q2002.5 1515.55 2002.5 1522.67 Q2002.5 1529.78 2004.31 1533.35 Q2006.14 1536.89 2009.75 1536.89 Q2013.38 1536.89 2015.19 1533.35 Q2017.02 1529.78 2017.02 1522.67 Q2017.02 1515.55 2015.19 1512 Q2013.38 1508.44 2009.75 1508.44 M2009.75 1504.73 Q2015.56 1504.73 2018.61 1509.34 Q2021.69 1513.92 2021.69 1522.67 Q2021.69 1531.4 2018.61 1536.01 Q2015.56 1540.59 2009.75 1540.59 Q2003.94 1540.59 2000.86 1536.01 Q1997.8 1531.4 1997.8 1522.67 Q1997.8 1513.92 2000.86 1509.34 Q2003.94 1504.73 2009.75 1504.73 Z" fill="#000000" fill-rule="evenodd" fill-opacity="1" /><path clip-path="url(#clip410)" d="M 0 0 M2036.76 1508.44 Q2033.15 1508.44 2031.32 1512 Q2029.52 1515.55 2029.52 1522.67 Q2029.52 1529.78 2031.32 1533.35 Q2033.15 1536.89 2036.76 1536.89 Q2040.4 1536.89 2042.2 1533.35 Q2044.03 1529.78 2044.03 1522.67 Q2044.03 1515.55 2042.2 1512 Q2040.4 1508.44 2036.76 1508.44 M2036.76 1504.73 Q2042.57 1504.73 2045.63 1509.34 Q2048.71 1513.92 2048.71 1522.67 Q2048.71 1531.4 2045.63 1536.01 Q2042.57 1540.59 2036.76 1540.59 Q2030.95 1540.59 2027.87 1536.01 Q2024.82 1531.4 2024.82 1522.67 Q2024.82 1513.92 2027.87 1509.34 Q2030.95 1504.73 2036.76 1504.73 Z" fill="#000000" fill-rule="evenodd" fill-opacity="1" /><path clip-path="url(#clip410)" d="M 0 0 M2063.78 1508.44 Q2060.16 1508.44 2058.34 1512 Q2056.53 1515.55 2056.53 1522.67 Q2056.53 1529.78 2058.34 1533.35 Q2060.16 1536.89 2063.78 1536.89 Q2067.41 1536.89 2069.22 1533.35 Q2071.04 1529.78 2071.04 1522.67 Q2071.04 1515.55 2069.22 1512 Q2067.41 1508.44 2063.78 1508.44 M2063.78 1504.73 Q2069.59 1504.73 2072.64 1509.34 Q2075.72 1513.92 2075.72 1522.67 Q2075.72 1531.4 2072.64 1536.01 Q2069.59 1540.59 2063.78 1540.59 Q2057.97 1540.59 2054.89 1536.01 Q2051.83 1531.4 2051.83 1522.67 Q2051.83 1513.92 2054.89 1509.34 Q2057.97 1504.73 2063.78 1504.73 Z" fill="#000000" fill-rule="evenodd" fill-opacity="1" /><path clip-path="url(#clip410)" d="M 0 0 M2090.79 1508.44 Q2087.18 1508.44 2085.35 1512 Q2083.54 1515.55 2083.54 1522.67 Q2083.54 1529.78 2085.35 1533.35 Q2087.18 1536.89 2090.79 1536.89 Q2094.42 1536.89 2096.23 1533.35 Q2098.06 1529.78 2098.06 1522.67 Q2098.06 1515.55 2096.23 1512 Q2094.42 1508.44 2090.79 1508.44 M2090.79 1504.73 Q2096.6 1504.73 2099.65 1509.34 Q2102.73 1513.92 2102.73 1522.67 Q2102.73 1531.4 2099.65 1536.01 Q2096.6 1540.59 2090.79 1540.59 Q2084.98 1540.59 2081.9 1536.01 Q2078.84 1531.4 2078.84 1522.67 Q2078.84 1513.92 2081.9 1509.34 Q2084.98 1504.73 2090.79 1504.73 Z" fill="#000000" fill-rule="evenodd" fill-opacity="1" /><path clip-path="url(#clip410)" d="M 0 0 M2061.08 1539.2 L2061.08 1534.94 Q2062.84 1535.78 2064.64 1536.22 Q2066.45 1536.66 2068.18 1536.66 Q2072.81 1536.66 2075.24 1533.55 Q2077.7 1530.43 2078.04 1524.09 Q2076.7 1526.08 2074.64 1527.14 Q2072.58 1528.21 2070.08 1528.21 Q2064.9 1528.21 2061.86 1525.08 Q2058.86 1521.93 2058.86 1516.49 Q2058.86 1511.17 2062 1507.95 Q2065.15 1504.73 2070.38 1504.73 Q2076.38 1504.73 2079.53 1509.34 Q2082.7 1513.92 2082.7 1522.67 Q2082.7 1530.85 2078.81 1535.73 Q2074.94 1540.59 2068.39 1540.59 Q2066.63 1540.59 2064.83 1540.24 Q2063.02 1539.9 2061.08 1539.2 M2070.38 1524.55 Q2073.53 1524.55 2075.36 1522.4 Q2077.21 1520.24 2077.21 1516.49 Q2077.21 1512.77 2075.36 1510.61 Q2073.53 1508.44 2070.38 1508.44 Q2067.23 1508.44 2065.38 1510.61 Q2063.55 1512.77 2063.55 1516.49 Q2063.55 1520.24 2065.38 1522.4 Q2067.23 1524.55 2070.38 1524.55 Z" fill="#000000" fill-rule="evenodd" fill-opacity="1" /><path clip-path="url(#clip410)" d="M 0 0 M2101.93 1521.29 Q2105.29 1522 2107.17 1524.27 Q2109.06 1526.54 2109.06 1529.87 Q2109.06 1534.99 2105.54 1537.79 Q2102.03 1540.59 2095.54 1540.59 Q2093.37 1540.59 2091.05 1540.15 Q2088.76 1539.73 2086.31 1538.88 L2086.31 1534.36 Q2088.25 1535.5 2090.57 1536.08 Q2092.88 1536.66 2095.41 1536.66 Q2099.8 1536.66 2102.1 1534.92 Q2104.41 1533.18 2104.41 1529.87 Q2104.41 1526.82 2102.26 1525.11 Q2100.13 1523.37 2096.31 1523.37 L2092.28 1523.37 L2092.28 1519.53 L2096.49 1519.53 Q2099.94 1519.53 2101.77 1518.16 Q2103.6 1516.77 2103.6 1514.18 Q2103.6 1511.52 2101.7 1510.11 Q2099.83 1508.67 2096.31 1508.67 Q2094.39 1508.67 2092.19 1509.09 Q2089.99 1509.5 2087.35 1510.38 L2087.35 1506.22 Q2090.01 1505.48 2092.33 1505.11 Q2094.67 1504.73 2096.73 1504.73 Q2102.05 1504.73 2105.15 1507.17 Q2108.25 1509.57 2108.25 1513.69 Q2108.25 1516.56 2106.61 1518.55 Q2104.97 1520.52 2101.93 1521.29 Z" fill="#000000" fill-rule="evenodd" fill-opacity="1" /><path clip-path="url(#clip410)" d="M 0 0 M2124.13 1508.44 Q2120.52 1508.44 2118.69 1512 Q2116.89 1515.55 2116.89 1522.67 Q2116.89 1529.78 2118.69 1533.35 Q2120.52 1536.89 2124.13 1536.89 Q2127.77 1536.89 2129.57 1533.35 Q2131.4 1529.78 2131.4 1522.67 Q2131.4 1515.55 2129.57 1512 Q2127.77 1508.44 2124.13 1508.44 M2124.13 1504.73 Q2129.94 1504.73 2133 1509.34 Q2136.08 1513.92 2136.08 1522.67 Q2136.08 1531.4 2133 1536.01 Q2129.94 1540.59 2124.13 1540.59 Q2118.32 1540.59 2115.24 1536.01 Q2112.19 1531.4 2112.19 1522.67 Q2112.19 1513.92 2115.24 1509.34 Q2118.32 1504.73 2124.13 1504.73 Z" fill="#000000" fill-rule="evenodd" fill-opacity="1" /><path clip-path="url(#clip410)" d="M 0 0 M2151.15 1508.44 Q2147.54 1508.44 2145.71 1512 Q2143.9 1515.55 2143.9 1522.67 Q2143.9 1529.78 2145.71 1533.35 Q2147.54 1536.89 2151.15 1536.89 Q2154.78 1536.89 2156.59 1533.35 Q2158.41 1529.78 2158.41 1522.67 Q2158.41 1515.55 2156.59 1512 Q2154.78 1508.44 2151.15 1508.44 M2151.15 1504.73 Q2156.96 1504.73 2160.01 1509.34 Q2163.09 1513.92 2163.09 1522.67 Q2163.09 1531.4 2160.01 1536.01 Q2156.96 1540.59 2151.15 1540.59 Q2145.34 1540.59 2142.26 1536.01 Q2139.2 1531.4 2139.2 1522.67 Q2139.2 1513.92 2142.26 1509.34 Q2145.34 1504.73 2151.15 1504.73 Z" fill="#000000" fill-rule="evenodd" fill-opacity="1" /><path clip-path="url(#clip410)" d="M 0 0 M2178.16 1508.44 Q2174.55 1508.44 2172.72 1512 Q2170.91 1515.55 2170.91 1522.67 Q2170.91 1529.78 2172.72 1533.35 Q2174.55 1536.89 2178.16 1536.89 Q2181.79 1536.89 2183.6 1533.35 Q2185.43 1529.78 2185.43 1522.67 Q2185.43 1515.55 2183.6 1512 Q2181.79 1508.44 2178.16 1508.44 M2178.16 1504.73 Q2183.97 1504.73 2187.03 1509.34 Q2190.1 1513.92 2190.1 1522.67 Q2190.1 1531.4 2187.03 1536.01 Q2183.97 1540.59 2178.16 1540.59 Q2172.35 1540.59 2169.27 1536.01 Q2166.22 1531.4 2166.22 1522.67 Q2166.22 1513.92 2169.27 1509.34 Q2172.35 1504.73 2178.16 1504.73 Z" fill="#000000" fill-rule="evenodd" fill-opacity="1" /><path clip-path="url(#clip410)" d="M 0 0 M2205.17 1508.44 Q2201.56 1508.44 2199.73 1512 Q2197.93 1515.55 2197.93 1522.67 Q2197.93 1529.78 2199.73 1533.35 Q2201.56 1536.89 2205.17 1536.89 Q2208.81 1536.89 2210.61 1533.35 Q2212.44 1529.78 2212.44 1522.67 Q2212.44 1515.55 2210.61 1512 Q2208.81 1508.44 2205.17 1508.44 M2205.17 1504.73 Q2210.98 1504.73 2214.04 1509.34 Q2217.12 1513.92 2217.12 1522.67 Q2217.12 1531.4 2214.04 1536.01 Q2210.98 1540.59 2205.17 1540.59 Q2199.36 1540.59 2196.28 1536.01 Q2193.23 1531.4 2193.23 1522.67 Q2193.23 1513.92 2196.28 1509.34 Q2199.36 1504.73 2205.17 1504.73 Z" fill="#000000" fill-rule="evenodd" fill-opacity="1" /><path clip-path="url(#clip410)" d="M 0 0 M2232.19 1508.44 Q2228.58 1508.44 2226.75 1512 Q2224.94 1515.55 2224.94 1522.67 Q2224.94 1529.78 2226.75 1533.35 Q2228.58 1536.89 2232.19 1536.89 Q2235.82 1536.89 2237.63 1533.35 Q2239.46 1529.78 2239.46 1522.67 Q2239.46 1515.55 2237.63 1512 Q2235.82 1508.44 2232.19 1508.44 M2232.19 1504.73 Q2238 1504.73 2241.05 1509.34 Q2244.13 1513.92 2244.13 1522.67 Q2244.13 1531.4 2241.05 1536.01 Q2238 1540.59 2232.19 1540.59 Q2226.38 1540.59 2223.3 1536.01 Q2220.24 1531.4 2220.24 1522.67 Q2220.24 1513.92 2223.3 1509.34 Q2226.38 1504.73 2232.19 1504.73 Z" fill="#000000" fill-rule="evenodd" fill-opacity="1" /><path clip-path="url(#clip410)" d="M 0 0 M2189.06 1535.98 L2196.7 1535.98 L2196.7 1509.62 L2188.39 1511.29 L2188.39 1507.03 L2196.65 1505.36 L2201.33 1505.36 L2201.33 1535.98 L2208.97 1535.98 L2208.97 1539.92 L2189.06 1539.92 L2189.06 1535.98 Z" fill="#000000" fill-rule="evenodd" fill-opacity="1" /><path clip-path="url(#clip410)" d="M 0 0 M2224.04 1508.44 Q2220.43 1508.44 2218.6 1512 Q2216.79 1515.55 2216.79 1522.67 Q2216.79 1529.78 2218.6 1533.35 Q2220.43 1536.89 2224.04 1536.89 Q2227.67 1536.89 2229.48 1533.35 Q2231.31 1529.78 2231.31 1522.67 Q2231.31 1515.55 2229.48 1512 Q2227.67 1508.44 2224.04 1508.44 M2224.04 1504.73 Q2229.85 1504.73 2232.9 1509.34 Q2235.98 1513.92 2235.98 1522.67 Q2235.98 1531.4 2232.9 1536.01 Q2229.85 1540.59 2224.04 1540.59 Q2218.23 1540.59 2215.15 1536.01 Q2212.09 1531.4 2212.09 1522.67 Q2212.09 1513.92 2215.15 1509.34 Q2218.23 1504.73 2224.04 1504.73 Z" fill="#000000" fill-rule="evenodd" fill-opacity="1" /><path clip-path="url(#clip410)" d="M 0 0 M2251.05 1508.44 Q2247.44 1508.44 2245.61 1512 Q2243.81 1515.55 2243.81 1522.67 Q2243.81 1529.78 2245.61 1533.35 Q2247.44 1536.89 2251.05 1536.89 Q2254.69 1536.89 2256.49 1533.35 Q2258.32 1529.78 2258.32 1522.67 Q2258.32 1515.55 2256.49 1512 Q2254.69 1508.44 2251.05 1508.44 M2251.05 1504.73 Q2256.86 1504.73 2259.92 1509.34 Q2263 1513.92 2263 1522.67 Q2263 1531.4 2259.92 1536.01 Q2256.86 1540.59 2251.05 1540.59 Q2245.24 1540.59 2242.16 1536.01 Q2239.11 1531.4 2239.11 1522.67 Q2239.11 1513.92 2242.16 1509.34 Q2245.24 1504.73 2251.05 1504.73 Z" fill="#000000" fill-rule="evenodd" fill-opacity="1" /><path clip-path="url(#clip410)" d="M 0 0 M2278.07 1508.44 Q2274.45 1508.44 2272.63 1512 Q2270.82 1515.55 2270.82 1522.67 Q2270.82 1529.78 2272.63 1533.35 Q2274.45 1536.89 2278.07 1536.89 Q2281.7 1536.89 2283.51 1533.35 Q2285.33 1529.78 2285.33 1522.67 Q2285.33 1515.55 2283.51 1512 Q2281.7 1508.44 2278.07 1508.44 M2278.07 1504.73 Q2283.88 1504.73 2286.93 1509.34 Q2290.01 1513.92 2290.01 1522.67 Q2290.01 1531.4 2286.93 1536.01 Q2283.88 1540.59 2278.07 1540.59 Q2272.26 1540.59 2269.18 1536.01 Q2266.12 1531.4 2266.12 1522.67 Q2266.12 1513.92 2269.18 1509.34 Q2272.26 1504.73 2278.07 1504.73 Z" fill="#000000" fill-rule="evenodd" fill-opacity="1" /><path clip-path="url(#clip410)" d="M 0 0 M2305.08 1508.44 Q2301.47 1508.44 2299.64 1512 Q2297.83 1515.55 2297.83 1522.67 Q2297.83 1529.78 2299.64 1533.35 Q2301.47 1536.89 2305.08 1536.89 Q2308.71 1536.89 2310.52 1533.35 Q2312.35 1529.78 2312.35 1522.67 Q2312.35 1515.55 2310.52 1512 Q2308.71 1508.44 2305.08 1508.44 M2305.08 1504.73 Q2310.89 1504.73 2313.95 1509.34 Q2317.02 1513.92 2317.02 1522.67 Q2317.02 1531.4 2313.95 1536.01 Q2310.89 1540.59 2305.08 1540.59 Q2299.27 1540.59 2296.19 1536.01 Q2293.13 1531.4 2293.13 1522.67 Q2293.13 1513.92 2296.19 1509.34 Q2299.27 1504.73 2305.08 1504.73 Z" fill="#000000" fill-rule="evenodd" fill-opacity="1" /><path clip-path="url(#clip410)" d="M 0 0 M2332.09 1508.44 Q2328.48 1508.44 2326.65 1512 Q2324.85 1515.55 2324.85 1522.67 Q2324.85 1529.78 2326.65 1533.35 Q2328.48 1536.89 2332.09 1536.89 Q2335.73 1536.89 2337.53 1533.35 Q2339.36 1529.78 2339.36 1522.67 Q2339.36 1515.55 2337.53 1512 Q2335.73 1508.44 2332.09 1508.44 M2332.09 1504.73 Q2337.9 1504.73 2340.96 1509.34 Q2344.04 1513.92 2344.04 1522.67 Q2344.04 1531.4 2340.96 1536.01 Q2337.9 1540.59 2332.09 1540.59 Q2326.28 1540.59 2323.2 1536.01 Q2320.15 1531.4 2320.15 1522.67 Q2320.15 1513.92 2323.2 1509.34 Q2326.28 1504.73 2332.09 1504.73 Z" fill="#000000" fill-rule="evenodd" fill-opacity="1" /><path clip-path="url(#clip410)" d="M 0 0 M2359.11 1508.44 Q2355.5 1508.44 2353.67 1512 Q2351.86 1515.55 2351.86 1522.67 Q2351.86 1529.78 2353.67 1533.35 Q2355.5 1536.89 2359.11 1536.89 Q2362.74 1536.89 2364.55 1533.35 Q2366.38 1529.78 2366.38 1522.67 Q2366.38 1515.55 2364.55 1512 Q2362.74 1508.44 2359.11 1508.44 M2359.11 1504.73 Q2364.92 1504.73 2367.97 1509.34 Q2371.05 1513.92 2371.05 1522.67 Q2371.05 1531.4 2367.97 1536.01 Q2364.92 1540.59 2359.11 1540.59 Q2353.3 1540.59 2350.22 1536.01 Q2347.16 1531.4 2347.16 1522.67 Q2347.16 1513.92 2350.22 1509.34 Q2353.3 1504.73 2359.11 1504.73 Z" fill="#000000" fill-rule="evenodd" fill-opacity="1" /><path clip-path="url(#clip410)" d="M 0 0 M2386.12 1508.44 Q2382.51 1508.44 2380.68 1512 Q2378.88 1515.55 2378.88 1522.67 Q2378.88 1529.78 2380.68 1533.35 Q2382.51 1536.89 2386.12 1536.89 Q2389.75 1536.89 2391.56 1533.35 Q2393.39 1529.78 2393.39 1522.67 Q2393.39 1515.55 2391.56 1512 Q2389.75 1508.44 2386.12 1508.44 M2386.12 1504.73 Q2391.93 1504.73 2394.99 1509.34 Q2398.06 1513.92 2398.06 1522.67 Q2398.06 1531.4 2394.99 1536.01 Q2391.93 1540.59 2386.12 1540.59 Q2380.31 1540.59 2377.23 1536.01 Q2374.18 1531.4 2374.18 1522.67 Q2374.18 1513.92 2377.23 1509.34 Q2380.31 1504.73 2386.12 1504.73 Z" fill="#000000" fill-rule="evenodd" fill-opacity="1" /><path clip-path="url(#clip410)" d="M 0 0 M213.477 1431.51 Q209.866 1431.51 208.038 1435.08 Q206.232 1438.62 206.232 1445.75 Q206.232 1452.86 208.038 1456.42 Q209.866 1459.96 213.477 1459.96 Q217.112 1459.96 218.917 1456.42 Q220.746 1452.86 220.746 1445.75 Q220.746 1438.62 218.917 1435.08 Q217.112 1431.51 213.477 1431.51 M213.477 1427.81 Q219.288 1427.81 222.343 1432.42 Q225.422 1437 225.422 1445.75 Q225.422 1454.48 222.343 1459.08 Q219.288 1463.67 213.477 1463.67 Q207.667 1463.67 204.589 1459.08 Q201.533 1454.48 201.533 1445.75 Q201.533 1437 204.589 1432.42 Q207.667 1427.81 213.477 1427.81 Z" fill="#000000" fill-rule="evenodd" fill-opacity="1" /><path clip-path="url(#clip410)" d="M 0 0 M69.8309 1199 L88.1873 1199 L88.1873 1202.94 L74.1133 1202.94 L74.1133 1211.41 Q75.1318 1211.06 76.1503 1210.9 Q77.1688 1210.72 78.1874 1210.72 Q83.9744 1210.72 87.354 1213.89 Q90.7336 1217.06 90.7336 1222.48 Q90.7336 1228.06 87.2614 1231.16 Q83.7892 1234.24 77.4698 1234.24 Q75.2939 1234.24 73.0253 1233.87 Q70.78 1233.5 68.3726 1232.75 L68.3726 1228.06 Q70.4559 1229.19 72.6781 1229.75 Q74.9003 1230.3 77.3772 1230.3 Q81.3818 1230.3 83.7197 1228.19 Q86.0577 1226.09 86.0577 1222.48 Q86.0577 1218.87 83.7197 1216.76 Q81.3818 1214.65 77.3772 1214.65 Q75.5022 1214.65 73.6272 1215.07 Q71.7754 1215.49 69.8309 1216.37 L69.8309 1199 Z" fill="#000000" fill-rule="evenodd" fill-opacity="1" /><path clip-path="url(#clip410)" d="M 0 0 M95.803 1227.69 L100.687 1227.69 L100.687 1233.56 L95.803 1233.56 L95.803 1227.69 Z" fill="#000000" fill-rule="evenodd" fill-opacity="1" /><path clip-path="url(#clip410)" d="M 0 0 M115.757 1202.08 Q112.146 1202.08 110.317 1205.65 Q108.511 1209.19 108.511 1216.32 Q108.511 1223.43 110.317 1226.99 Q112.146 1230.53 115.757 1230.53 Q119.391 1230.53 121.196 1226.99 Q123.025 1223.43 123.025 1216.32 Q123.025 1209.19 121.196 1205.65 Q119.391 1202.08 115.757 1202.08 M115.757 1198.38 Q121.567 1198.38 124.622 1202.99 Q127.701 1207.57 127.701 1216.32 Q127.701 1225.05 124.622 1229.65 Q121.567 1234.24 115.757 1234.24 Q109.946 1234.24 106.868 1229.65 Q103.812 1225.05 103.812 1216.32 Q103.812 1207.57 106.868 1202.99 Q109.946 1198.38 115.757 1198.38 Z" fill="#000000" fill-rule="evenodd" fill-opacity="1" /><path clip-path="url(#clip410)" d="M 0 0 M160.942 1208.1 L150.363 1218.73 L160.942 1229.31 L158.187 1232.11 L147.562 1221.48 L136.937 1232.11 L134.206 1229.31 L144.761 1218.73 L134.206 1208.1 L136.937 1205.3 L147.562 1215.93 L158.187 1205.3 L160.942 1208.1 Z" fill="#000000" fill-rule="evenodd" fill-opacity="1" /><path clip-path="url(#clip410)" d="M 0 0 M166.821 1229.63 L174.46 1229.63 L174.46 1203.26 L166.15 1204.93 L166.15 1200.67 L174.414 1199 L179.09 1199 L179.09 1229.63 L186.728 1229.63 L186.728 1233.56 L166.821 1233.56 L166.821 1229.63 Z" fill="#000000" fill-rule="evenodd" fill-opacity="1" /><path clip-path="url(#clip410)" d="M 0 0 M201.798 1202.08 Q198.187 1202.08 196.358 1205.65 Q194.552 1209.19 194.552 1216.32 Q194.552 1223.43 196.358 1226.99 Q198.187 1230.53 201.798 1230.53 Q205.432 1230.53 207.238 1226.99 Q209.066 1223.43 209.066 1216.32 Q209.066 1209.19 207.238 1205.65 Q205.432 1202.08 201.798 1202.08 M201.798 1198.38 Q207.608 1198.38 210.663 1202.99 Q213.742 1207.57 213.742 1216.32 Q213.742 1225.05 210.663 1229.65 Q207.608 1234.24 201.798 1234.24 Q195.988 1234.24 192.909 1229.65 Q189.853 1225.05 189.853 1216.32 Q189.853 1207.57 192.909 1202.99 Q195.988 1198.38 201.798 1198.38 Z" fill="#000000" fill-rule="evenodd" fill-opacity="1" /><path clip-path="url(#clip410)" d="M 0 0 M214.494 1177.89 L224.086 1177.89 L224.086 1179.67 L216.733 1179.67 L216.733 1183.51 Q217.259 1183.34 217.805 1183.27 Q218.331 1183.19 218.858 1183.19 Q221.886 1183.19 223.654 1184.64 Q225.422 1186.07 225.422 1188.53 Q225.422 1191.07 223.597 1192.48 Q221.792 1193.87 218.482 1193.87 Q217.353 1193.87 216.168 1193.7 Q214.983 1193.53 213.742 1193.2 L213.742 1191.07 Q214.814 1191.58 215.98 1191.84 Q217.146 1192.09 218.444 1192.09 Q220.532 1192.09 221.754 1191.13 Q222.977 1190.17 222.977 1188.53 Q222.977 1186.9 221.754 1185.94 Q220.532 1184.98 218.444 1184.98 Q217.466 1184.98 216.488 1185.16 Q215.51 1185.35 214.494 1185.75 L214.494 1177.89 Z" fill="#000000" fill-rule="evenodd" fill-opacity="1" /><path clip-path="url(#clip410)" d="M 0 0 M70.0364 993.751 L77.6752 993.751 L77.6752 967.385 L69.3651 969.052 L69.3651 964.793 L77.6289 963.126 L82.3048 963.126 L82.3048 993.751 L89.9437 993.751 L89.9437 997.686 L70.0364 997.686 L70.0364 993.751 Z" fill="#000000" fill-rule="evenodd" fill-opacity="1" /><path clip-path="url(#clip410)" d="M 0 0 M95.0131 991.806 L99.8973 991.806 L99.8973 997.686 L95.0131 997.686 L95.0131 991.806 Z" fill="#000000" fill-rule="evenodd" fill-opacity="1" /><path clip-path="url(#clip410)" d="M 0 0 M114.967 966.205 Q111.356 966.205 109.527 969.77 Q107.721 973.311 107.721 980.441 Q107.721 987.547 109.527 991.112 Q111.356 994.654 114.967 994.654 Q118.601 994.654 120.406 991.112 Q122.235 987.547 122.235 980.441 Q122.235 973.311 120.406 969.77 Q118.601 966.205 114.967 966.205 M114.967 962.501 Q120.777 962.501 123.832 967.108 Q126.911 971.691 126.911 980.441 Q126.911 989.168 123.832 993.774 Q120.777 998.357 114.967 998.357 Q109.157 998.357 106.078 993.774 Q103.022 989.168 103.022 980.441 Q103.022 971.691 106.078 967.108 Q109.157 962.501 114.967 962.501 Z" fill="#000000" fill-rule="evenodd" fill-opacity="1" /><path clip-path="url(#clip410)" d="M 0 0 M160.152 972.223 L149.573 982.848 L160.152 993.427 L157.397 996.228 L146.772 985.603 L136.147 996.228 L133.416 993.427 L143.971 982.848 L133.416 972.223 L136.147 969.422 L146.772 980.047 L157.397 969.422 L160.152 972.223 Z" fill="#000000" fill-rule="evenodd" fill-opacity="1" /><path clip-path="url(#clip410)" d="M 0 0 M166.031 993.751 L173.67 993.751 L173.67 967.385 L165.36 969.052 L165.36 964.793 L173.624 963.126 L178.3 963.126 L178.3 993.751 L185.939 993.751 L185.939 997.686 L166.031 997.686 L166.031 993.751 Z" fill="#000000" fill-rule="evenodd" fill-opacity="1" /><path clip-path="url(#clip410)" d="M 0 0 M201.008 966.205 Q197.397 966.205 195.568 969.77 Q193.763 973.311 193.763 980.441 Q193.763 987.547 195.568 991.112 Q197.397 994.654 201.008 994.654 Q204.642 994.654 206.448 991.112 Q208.276 987.547 208.276 980.441 Q208.276 973.311 206.448 969.77 Q204.642 966.205 201.008 966.205 M201.008 962.501 Q206.818 962.501 209.874 967.108 Q212.952 971.691 212.952 980.441 Q212.952 989.168 209.874 993.774 Q206.818 998.357 201.008 998.357 Q195.198 998.357 192.119 993.774 Q189.063 989.168 189.063 980.441 Q189.063 971.691 192.119 967.108 Q195.198 962.501 201.008 962.501 Z" fill="#000000" fill-rule="evenodd" fill-opacity="1" /><path clip-path="url(#clip410)" d="M 0 0 M219.403 948.966 Q217.748 948.966 216.789 949.944 Q215.83 950.941 215.83 952.653 Q215.83 954.345 216.789 955.323 Q217.748 956.32 219.403 956.32 Q221.04 956.32 221.999 955.323 Q222.958 954.345 222.958 952.653 Q222.958 950.941 221.999 949.944 Q221.04 948.966 219.403 948.966 M224.256 942.309 L224.256 944.246 Q223.334 943.87 222.394 943.681 Q221.453 943.475 220.532 943.475 Q218.124 943.475 216.845 944.885 Q215.567 946.315 215.378 949.192 Q216.093 948.271 217.165 947.782 Q218.256 947.293 219.535 947.293 Q222.262 947.293 223.842 948.722 Q225.422 950.17 225.422 952.653 Q225.422 955.041 223.767 956.527 Q222.13 957.994 219.403 957.994 Q216.262 957.994 214.607 955.907 Q212.952 953.819 212.952 949.832 Q212.952 946.108 214.983 943.907 Q217.015 941.688 220.438 941.688 Q221.359 941.688 222.3 941.838 Q223.24 942.008 224.256 942.309 Z" fill="#000000" fill-rule="evenodd" fill-opacity="1" /><path clip-path="url(#clip410)" d="M 0 0 M71.0317 757.872 L78.6706 757.872 L78.6706 731.507 L70.3604 733.173 L70.3604 728.914 L78.6243 727.247 L83.3002 727.247 L83.3002 757.872 L90.939 757.872 L90.939 761.807 L71.0317 761.807 L71.0317 757.872 Z" fill="#000000" fill-rule="evenodd" fill-opacity="1" /><path clip-path="url(#clip410)" d="M 0 0 M96.0084 755.928 L100.893 755.928 L100.893 761.807 L96.0084 761.807 L96.0084 755.928 Z" fill="#000000" fill-rule="evenodd" fill-opacity="1" /><path clip-path="url(#clip410)" d="M 0 0 M106.008 727.247 L124.365 727.247 L124.365 731.183 L110.291 731.183 L110.291 739.655 Q111.309 739.308 112.328 739.146 Q113.346 738.96 114.365 738.96 Q120.152 738.96 123.531 742.132 Q126.911 745.303 126.911 750.72 Q126.911 756.298 123.439 759.4 Q119.967 762.479 113.647 762.479 Q111.471 762.479 109.203 762.108 Q106.957 761.738 104.55 760.997 L104.55 756.298 Q106.633 757.432 108.856 757.988 Q111.078 758.544 113.555 758.544 Q117.559 758.544 119.897 756.437 Q122.235 754.331 122.235 750.72 Q122.235 747.108 119.897 745.002 Q117.559 742.896 113.555 742.896 Q111.68 742.896 109.805 743.312 Q107.953 743.729 106.008 744.608 L106.008 727.247 Z" fill="#000000" fill-rule="evenodd" fill-opacity="1" /><path clip-path="url(#clip410)" d="M 0 0 M160.152 736.345 L149.573 746.97 L160.152 757.548 L157.397 760.349 L146.772 749.724 L136.147 760.349 L133.416 757.548 L143.971 746.97 L133.416 736.345 L136.147 733.544 L146.772 744.169 L157.397 733.544 L160.152 736.345 Z" fill="#000000" fill-rule="evenodd" fill-opacity="1" /><path clip-path="url(#clip410)" d="M 0 0 M166.031 757.872 L173.67 757.872 L173.67 731.507 L165.36 733.173 L165.36 728.914 L173.624 727.247 L178.3 727.247 L178.3 757.872 L185.939 757.872 L185.939 761.807 L166.031 761.807 L166.031 757.872 Z" fill="#000000" fill-rule="evenodd" fill-opacity="1" /><path clip-path="url(#clip410)" d="M 0 0 M201.008 730.326 Q197.397 730.326 195.568 733.891 Q193.763 737.433 193.763 744.562 Q193.763 751.669 195.568 755.233 Q197.397 758.775 201.008 758.775 Q204.642 758.775 206.448 755.233 Q208.276 751.669 208.276 744.562 Q208.276 737.433 206.448 733.891 Q204.642 730.326 201.008 730.326 M201.008 726.622 Q206.818 726.622 209.874 731.229 Q212.952 735.812 212.952 744.562 Q212.952 753.289 209.874 757.895 Q206.818 762.479 201.008 762.479 Q195.198 762.479 192.119 757.895 Q189.063 753.289 189.063 744.562 Q189.063 735.812 192.119 731.229 Q195.198 726.622 201.008 726.622 Z" fill="#000000" fill-rule="evenodd" fill-opacity="1" /><path clip-path="url(#clip410)" d="M 0 0 M219.403 713.088 Q217.748 713.088 216.789 714.066 Q215.83 715.063 215.83 716.774 Q215.83 718.467 216.789 719.445 Q217.748 720.442 219.403 720.442 Q221.04 720.442 221.999 719.445 Q222.958 718.467 222.958 716.774 Q222.958 715.063 221.999 714.066 Q221.04 713.088 219.403 713.088 M224.256 706.43 L224.256 708.367 Q223.334 707.991 222.394 707.803 Q221.453 707.596 220.532 707.596 Q218.124 707.596 216.845 709.007 Q215.567 710.436 215.378 713.314 Q216.093 712.392 217.165 711.903 Q218.256 711.414 219.535 711.414 Q222.262 711.414 223.842 712.843 Q225.422 714.292 225.422 716.774 Q225.422 719.163 223.767 720.649 Q222.13 722.116 219.403 722.116 Q216.262 722.116 214.607 720.028 Q212.952 717.94 212.952 713.953 Q212.952 710.229 214.983 708.029 Q217.015 705.809 220.438 705.809 Q221.359 705.809 222.3 705.96 Q223.24 706.129 224.256 706.43 Z" fill="#000000" fill-rule="evenodd" fill-opacity="1" /><path clip-path="url(#clip410)" d="M 0 0 M73.6243 521.994 L89.9437 521.994 L89.9437 525.929 L67.9993 525.929 L67.9993 521.994 Q70.6614 519.239 75.2447 514.609 Q79.8511 509.957 81.0317 508.614 Q83.277 506.091 84.1567 504.355 Q85.0594 502.596 85.0594 500.906 Q85.0594 498.151 83.115 496.415 Q81.1937 494.679 78.0919 494.679 Q75.8928 494.679 73.4391 495.443 Q71.0086 496.207 68.2308 497.758 L68.2308 493.036 Q71.0549 491.901 73.5086 491.323 Q75.9623 490.744 77.9993 490.744 Q83.3696 490.744 86.564 493.429 Q89.7585 496.114 89.7585 500.605 Q89.7585 502.735 88.9483 504.656 Q88.1613 506.554 86.0548 509.147 Q85.4761 509.818 82.3743 513.035 Q79.2724 516.23 73.6243 521.994 Z" fill="#000000" fill-rule="evenodd" fill-opacity="1" /><path clip-path="url(#clip410)" d="M 0 0 M95.0131 520.049 L99.8973 520.049 L99.8973 525.929 L95.0131 525.929 L95.0131 520.049 Z" fill="#000000" fill-rule="evenodd" fill-opacity="1" /><path clip-path="url(#clip410)" d="M 0 0 M114.967 494.448 Q111.356 494.448 109.527 498.012 Q107.721 501.554 107.721 508.684 Q107.721 515.79 109.527 519.355 Q111.356 522.896 114.967 522.896 Q118.601 522.896 120.406 519.355 Q122.235 515.79 122.235 508.684 Q122.235 501.554 120.406 498.012 Q118.601 494.448 114.967 494.448 M114.967 490.744 Q120.777 490.744 123.832 495.35 Q126.911 499.934 126.911 508.684 Q126.911 517.41 123.832 522.017 Q120.777 526.6 114.967 526.6 Q109.157 526.6 106.078 522.017 Q103.022 517.41 103.022 508.684 Q103.022 499.934 106.078 495.35 Q109.157 490.744 114.967 490.744 Z" fill="#000000" fill-rule="evenodd" fill-opacity="1" /><path clip-path="url(#clip410)" d="M 0 0 M160.152 500.466 L149.573 511.091 L160.152 521.67 L157.397 524.471 L146.772 513.846 L136.147 524.471 L133.416 521.67 L143.971 511.091 L133.416 500.466 L136.147 497.665 L146.772 508.29 L157.397 497.665 L160.152 500.466 Z" fill="#000000" fill-rule="evenodd" fill-opacity="1" /><path clip-path="url(#clip410)" d="M 0 0 M166.031 521.994 L173.67 521.994 L173.67 495.628 L165.36 497.295 L165.36 493.036 L173.624 491.369 L178.3 491.369 L178.3 521.994 L185.939 521.994 L185.939 525.929 L166.031 525.929 L166.031 521.994 Z" fill="#000000" fill-rule="evenodd" fill-opacity="1" /><path clip-path="url(#clip410)" d="M 0 0 M201.008 494.448 Q197.397 494.448 195.568 498.012 Q193.763 501.554 193.763 508.684 Q193.763 515.79 195.568 519.355 Q197.397 522.896 201.008 522.896 Q204.642 522.896 206.448 519.355 Q208.276 515.79 208.276 508.684 Q208.276 501.554 206.448 498.012 Q204.642 494.448 201.008 494.448 M201.008 490.744 Q206.818 490.744 209.874 495.35 Q212.952 499.934 212.952 508.684 Q212.952 517.41 209.874 522.017 Q206.818 526.6 201.008 526.6 Q195.198 526.6 192.119 522.017 Q189.063 517.41 189.063 508.684 Q189.063 499.934 192.119 495.35 Q195.198 490.744 201.008 490.744 Z" fill="#000000" fill-rule="evenodd" fill-opacity="1" /><path clip-path="url(#clip410)" d="M 0 0 M219.403 477.209 Q217.748 477.209 216.789 478.187 Q215.83 479.184 215.83 480.896 Q215.83 482.588 216.789 483.566 Q217.748 484.563 219.403 484.563 Q221.04 484.563 221.999 483.566 Q222.958 482.588 222.958 480.896 Q222.958 479.184 221.999 478.187 Q221.04 477.209 219.403 477.209 M224.256 470.551 L224.256 472.488 Q223.334 472.112 222.394 471.924 Q221.453 471.717 220.532 471.717 Q218.124 471.717 216.845 473.128 Q215.567 474.557 215.378 477.435 Q216.093 476.513 217.165 476.024 Q218.256 475.535 219.535 475.535 Q222.262 475.535 223.842 476.965 Q225.422 478.413 225.422 480.896 Q225.422 483.284 223.767 484.77 Q222.13 486.237 219.403 486.237 Q216.262 486.237 214.607 484.149 Q212.952 482.062 212.952 478.074 Q212.952 474.35 214.983 472.15 Q217.015 469.931 220.438 469.931 Q221.359 469.931 222.3 470.081 Q223.24 470.25 224.256 470.551 Z" fill="#000000" fill-rule="evenodd" fill-opacity="1" /><path clip-path="url(#clip410)" d="M 0 0 M74.6197 286.115 L90.939 286.115 L90.939 290.05 L68.9947 290.05 L68.9947 286.115 Q71.6567 283.36 76.24 278.731 Q80.8465 274.078 82.027 272.736 Q84.2724 270.212 85.152 268.476 Q86.0548 266.717 86.0548 265.027 Q86.0548 262.273 84.1104 260.537 Q82.1891 258.8 79.0872 258.8 Q76.8882 258.8 74.4345 259.564 Q72.0039 260.328 69.2262 261.879 L69.2262 257.157 Q72.0502 256.023 74.5039 255.444 Q76.9576 254.865 78.9946 254.865 Q84.365 254.865 87.5594 257.55 Q90.7538 260.236 90.7538 264.726 Q90.7538 266.856 89.9437 268.777 Q89.1566 270.675 87.0502 273.268 Q86.4715 273.939 83.3696 277.157 Q80.2678 280.351 74.6197 286.115 Z" fill="#000000" fill-rule="evenodd" fill-opacity="1" /><path clip-path="url(#clip410)" d="M 0 0 M96.0084 284.171 L100.893 284.171 L100.893 290.05 L96.0084 290.05 L96.0084 284.171 Z" fill="#000000" fill-rule="evenodd" fill-opacity="1" /><path clip-path="url(#clip410)" d="M 0 0 M106.008 255.49 L124.365 255.49 L124.365 259.425 L110.291 259.425 L110.291 267.898 Q111.309 267.55 112.328 267.388 Q113.346 267.203 114.365 267.203 Q120.152 267.203 123.531 270.374 Q126.911 273.546 126.911 278.962 Q126.911 284.541 123.439 287.643 Q119.967 290.722 113.647 290.722 Q111.471 290.722 109.203 290.351 Q106.957 289.981 104.55 289.24 L104.55 284.541 Q106.633 285.675 108.856 286.231 Q111.078 286.786 113.555 286.786 Q117.559 286.786 119.897 284.68 Q122.235 282.573 122.235 278.962 Q122.235 275.351 119.897 273.245 Q117.559 271.138 113.555 271.138 Q111.68 271.138 109.805 271.555 Q107.953 271.972 106.008 272.851 L106.008 255.49 Z" fill="#000000" fill-rule="evenodd" fill-opacity="1" /><path clip-path="url(#clip410)" d="M 0 0 M160.152 264.587 L149.573 275.212 L160.152 285.791 L157.397 288.592 L146.772 277.967 L136.147 288.592 L133.416 285.791 L143.971 275.212 L133.416 264.587 L136.147 261.786 L146.772 272.411 L157.397 261.786 L160.152 264.587 Z" fill="#000000" fill-rule="evenodd" fill-opacity="1" /><path clip-path="url(#clip410)" d="M 0 0 M166.031 286.115 L173.67 286.115 L173.67 259.749 L165.36 261.416 L165.36 257.157 L173.624 255.49 L178.3 255.49 L178.3 286.115 L185.939 286.115 L185.939 290.05 L166.031 290.05 L166.031 286.115 Z" fill="#000000" fill-rule="evenodd" fill-opacity="1" /><path clip-path="url(#clip410)" d="M 0 0 M201.008 258.569 Q197.397 258.569 195.568 262.134 Q193.763 265.675 193.763 272.805 Q193.763 279.911 195.568 283.476 Q197.397 287.018 201.008 287.018 Q204.642 287.018 206.448 283.476 Q208.276 279.911 208.276 272.805 Q208.276 265.675 206.448 262.134 Q204.642 258.569 201.008 258.569 M201.008 254.865 Q206.818 254.865 209.874 259.472 Q212.952 264.055 212.952 272.805 Q212.952 281.532 209.874 286.138 Q206.818 290.722 201.008 290.722 Q195.198 290.722 192.119 286.138 Q189.063 281.532 189.063 272.805 Q189.063 264.055 192.119 259.472 Q195.198 254.865 201.008 254.865 Z" fill="#000000" fill-rule="evenodd" fill-opacity="1" /><path clip-path="url(#clip410)" d="M 0 0 M219.403 241.331 Q217.748 241.331 216.789 242.309 Q215.83 243.305 215.83 245.017 Q215.83 246.71 216.789 247.688 Q217.748 248.684 219.403 248.684 Q221.04 248.684 221.999 247.688 Q222.958 246.71 222.958 245.017 Q222.958 243.305 221.999 242.309 Q221.04 241.331 219.403 241.331 M224.256 234.673 L224.256 236.61 Q223.334 236.234 222.394 236.046 Q221.453 235.839 220.532 235.839 Q218.124 235.839 216.845 237.249 Q215.567 238.679 215.378 241.556 Q216.093 240.635 217.165 240.146 Q218.256 239.657 219.535 239.657 Q222.262 239.657 223.842 241.086 Q225.422 242.534 225.422 245.017 Q225.422 247.406 223.767 248.891 Q222.13 250.358 219.403 250.358 Q216.262 250.358 214.607 248.271 Q212.952 246.183 212.952 242.196 Q212.952 238.472 214.983 236.271 Q217.015 234.052 220.438 234.052 Q221.359 234.052 222.3 234.202 Q223.24 234.372 224.256 234.673 Z" fill="#000000" fill-rule="evenodd" fill-opacity="1" /><polyline clip-path="url(#clip412)" style="stroke:#009af9; stroke-width:4; stroke-opacity:1; fill:none" points="
  308.95,1445.72 329.198,1359.6 349.446,1192.42 369.693,1097.09 389.941,998.227 410.189,901.54 430.437,810.29 450.684,726.046 470.932,649.352 491.18,580.17 
  511.427,518.154 531.675,462.808 551.923,413.58 572.171,369.906 592.418,331.242 612.666,297.08 632.914,266.951 653.162,240.428 673.409,217.126 693.657,196.702 
  713.905,178.847 734.152,163.286 754.4,149.776 774.648,138.1 794.896,128.063 815.143,119.496 835.391,112.244 855.639,106.173 875.887,101.161 896.134,97.1003 
  916.382,93.8946 936.63,91.4578 956.877,89.713 977.125,88.5913 997.373,88.0309 1017.62,87.9763 1037.87,88.3776 1058.12,89.1901 1078.36,90.3732 1098.61,91.8906 
  1118.86,93.7093 1139.11,95.7997 1159.35,98.1348 1179.6,100.69 1199.85,103.444 1220.1,106.376 1240.35,109.468 1260.59,112.704 1280.84,116.069 1301.09,119.548 
  1321.34,123.13 1341.58,126.803 1361.83,130.557 1382.08,134.382 1402.33,138.27 1422.58,142.213 1442.82,146.204 1463.07,150.236 1483.32,154.303 1503.57,158.4 
  1523.81,162.521 1544.06,166.663 1564.31,170.82 1584.56,174.99 1604.8,179.168 1625.05,183.351 1645.3,187.537 1665.55,191.722 1685.8,195.905 1706.04,200.082 
  1726.29,204.253 1746.54,208.414 1766.79,212.565 1787.03,216.704 1807.28,220.829 1827.53,224.939 1847.78,229.033 1868.03,233.11 1888.27,237.169 1908.52,241.209 
  1928.77,245.229 1949.02,249.228 1969.26,253.207 1989.51,257.163 2009.76,261.098 2030.01,265.01 2050.25,268.899 2070.5,272.764 2090.75,276.606 2111,280.424 
  2131.25,284.217 2151.49,287.986 2171.74,291.731 2191.99,295.451 2212.24,299.146 2232.48,302.817 2252.73,306.462 2272.98,310.083 2293.23,313.679 
  "/>
<path clip-path="url(#clip410)" d="
M1997.92 216.178 L2282.64 216.178 L2282.64 95.2176 L1997.92 95.2176  Z
  " fill="#ffffff" fill-rule="evenodd" fill-opacity="1"/>
<polyline clip-path="url(#clip410)" style="stroke:#000000; stroke-width:4; stroke-opacity:1; fill:none" points="
  1997.92,216.178 2282.64,216.178 2282.64,95.2176 1997.92,95.2176 1997.92,216.178 
  "/>
<polyline clip-path="url(#clip410)" style="stroke:#009af9; stroke-width:4; stroke-opacity:1; fill:none" points="
  2021.29,155.698 2161.52,155.698 
  "/>
<path clip-path="url(#clip410)" d="M 0 0 M2198.73 175.385 Q2196.92 180.015 2195.21 181.427 Q2193.5 182.839 2190.63 182.839 L2187.22 182.839 L2187.22 179.274 L2189.72 179.274 Q2191.48 179.274 2192.46 178.44 Q2193.43 177.607 2194.61 174.505 L2195.37 172.561 L2184.89 147.052 L2189.4 147.052 L2197.5 167.329 L2205.6 147.052 L2210.12 147.052 L2198.73 175.385 Z" fill="#000000" fill-rule="evenodd" fill-opacity="1" /><path clip-path="url(#clip410)" d="M 0 0 M2216 169.042 L2223.64 169.042 L2223.64 142.677 L2215.33 144.343 L2215.33 140.084 L2223.59 138.418 L2228.27 138.418 L2228.27 169.042 L2235.9 169.042 L2235.9 172.978 L2216 172.978 L2216 169.042 Z" fill="#000000" fill-rule="evenodd" fill-opacity="1" /></svg>
